<?xml version="1.0" encoding="UTF-8"?>
<svg id="Calque_1" data-name="Calque 1" xmlns="http://www.w3.org/2000/svg" viewBox="0 0 940.45 403.59">
  <defs>
    <style>
      .cls-1 {
        font-family: Montserrat-Regular, Montserrat;
        font-size: 21px;
      }

      .cls-1, .cls-2 {
        fill: #422405;
      }

      .cls-3 {
        fill: #386641;
      }

      .cls-3, .cls-2, .cls-4, .cls-5, .cls-6, .cls-7, .cls-8, .cls-9, .cls-10, .cls-11, .cls-12 {
        stroke-width: 0px;
      }

      .cls-4 {
        fill: #d7e473;
      }

      .cls-5 {
        fill: #a8504e;
      }

      .cls-6 {
        fill: #a7c957;
      }

      .cls-7 {
        fill: #bc4749;
      }

      .cls-8 {
        fill: #efcb4c;
      }

      .cls-9 {
        fill: #fff;
      }

      .cls-10 {
        fill: #e9d0d1;
      }

      .cls-11 {
        fill: #e4e3e3;
      }

      .cls-12 {
        fill: #efdd8f;
      }
    </style>
  </defs>
  <g>
    <rect class="cls-7" x="9.24" y="12.5" width="71.28" height="35.44" rx="8.36" ry="8.36"/>
    <g>
      <path class="cls-2" d="M13.49,54.87h-4.18v-1.09h9.62v1.09h-4.18v10.81h-1.26v-10.81Z"/>
      <path class="cls-2" d="M29.35,64.59v1.09h-8.41v-11.9h8.16v1.09h-6.9v4.23h6.15v1.07h-6.15v4.42h7.16Z"/>
      <path class="cls-2" d="M40.43,65.68l-2.72-3.82c-.31.03-.61.05-.95.05h-3.2v3.77h-1.26v-11.9h4.45c3.03,0,4.86,1.53,4.86,4.08,0,1.87-.99,3.18-2.72,3.74l2.91,4.08h-1.38ZM40.36,57.86c0-1.9-1.26-2.99-3.64-2.99h-3.16v5.97h3.16c2.38,0,3.64-1.1,3.64-2.97Z"/>
    </g>
  </g>
  <g>
    <rect class="cls-3" x="9.24" y="78.89" width="71.28" height="35.44" rx="8.36" ry="8.36"/>
    <g>
      <path class="cls-2" d="M13.49,122.87h-4.18v-1.09h9.62v1.09h-4.18v10.81h-1.26v-10.81Z"/>
      <path class="cls-2" d="M29.14,127.74h1.21v4.54c-1.12,1-2.72,1.51-4.37,1.51-3.62,0-6.27-2.57-6.27-6.05s2.65-6.05,6.29-6.05c1.8,0,3.37.58,4.42,1.72l-.78.8c-1-.99-2.19-1.39-3.59-1.39-2.94,0-5.1,2.09-5.1,4.93s2.16,4.93,5.08,4.93c1.14,0,2.19-.25,3.11-.92v-4.01Z"/>
      <path class="cls-2" d="M43.8,121.79l-5.27,11.9h-1.24l-5.27-11.9h1.36l4.56,10.33,4.59-10.33h1.27Z"/>
    </g>
  </g>
  <g>
    <rect class="cls-8" x="9.24" y="149.29" width="71.28" height="35.44" rx="8.36" ry="8.36"/>
    <g>
      <path class="cls-2" d="M11.17,189.23h1.26v11.9h-1.26v-11.9Z"/>
      <path class="cls-2" d="M24.28,195.94v5.18h-1.21v-5.07c0-1.89-.99-2.86-2.69-2.86-1.92,0-3.13,1.19-3.13,3.23v4.69h-1.21v-8.94h1.16v1.65c.65-1.09,1.85-1.72,3.4-1.72,2.18,0,3.67,1.26,3.67,3.82Z"/>
      <path class="cls-2" d="M32.27,200.59c-.48.42-1.19.63-1.89.63-1.68,0-2.62-.95-2.62-2.6v-5.41h-1.6v-1.02h1.6v-1.95h1.21v1.95h2.72v1.02h-2.72v5.34c0,1.05.54,1.63,1.55,1.63.49,0,.99-.15,1.33-.46l.43.87Z"/>
      <path class="cls-2" d="M41.93,197.03h-7.48c.14,1.87,1.56,3.11,3.52,3.11,1.09,0,2.06-.39,2.74-1.17l.68.78c-.8.95-2.04,1.46-3.45,1.46-2.79,0-4.69-1.9-4.69-4.56s1.85-4.54,4.37-4.54,4.33,1.85,4.33,4.54c0,.1-.02.24-.02.37ZM34.45,196.13h6.34c-.15-1.75-1.43-2.98-3.18-2.98s-3.01,1.22-3.16,2.98Z"/>
      <path class="cls-2" d="M48.91,192.12v1.17c-.1,0-.2-.02-.29-.02-1.87,0-3.01,1.19-3.01,3.3v4.56h-1.21v-8.94h1.16v1.75c.56-1.19,1.7-1.82,3.35-1.82Z"/>
      <path class="cls-2" d="M50.1,196.66c0-2.67,1.94-4.54,4.61-4.54,1.51,0,2.79.59,3.5,1.77l-.9.61c-.61-.9-1.56-1.33-2.6-1.33-1.96,0-3.38,1.39-3.38,3.48s1.43,3.48,3.38,3.48c1.04,0,1.99-.41,2.6-1.31l.9.61c-.71,1.16-1.99,1.77-3.5,1.77-2.67,0-4.61-1.89-4.61-4.56Z"/>
      <path class="cls-2" d="M60.3,189.37c0-.46.39-.85.88-.85s.88.37.88.83c0,.49-.37.88-.88.88s-.88-.39-.88-.87ZM60.58,192.19h1.21v8.94h-1.21v-8.94Z"/>
      <path class="cls-2" d="M69.86,200.59c-.48.42-1.19.63-1.89.63-1.68,0-2.62-.95-2.62-2.6v-5.41h-1.6v-1.02h1.6v-1.95h1.21v1.95h2.72v1.02h-2.72v5.34c0,1.05.54,1.63,1.55,1.63.49,0,.99-.15,1.33-.46l.43.87Z"/>
      <path class="cls-2" d="M79.51,197.03h-7.48c.14,1.87,1.56,3.11,3.52,3.11,1.09,0,2.06-.39,2.74-1.17l.68.78c-.8.95-2.04,1.46-3.45,1.46-2.79,0-4.69-1.9-4.69-4.56s1.85-4.54,4.37-4.54,4.33,1.85,4.33,4.54c0,.1-.02.24-.02.37ZM72.03,196.13h6.34c-.15-1.75-1.43-2.98-3.18-2.98s-3.01,1.22-3.16,2.98ZM75.28,190.81h-1.19l2.33-2.11h1.61l-2.75,2.11Z"/>
      <path class="cls-2" d="M80.75,200.11l.54-.95c.71.56,1.92,1,3.18,1,1.7,0,2.4-.58,2.4-1.46,0-2.33-5.8-.49-5.8-4.03,0-1.46,1.26-2.55,3.54-2.55,1.16,0,2.41.32,3.16.83l-.53.97c-.78-.54-1.72-.77-2.63-.77-1.62,0-2.33.63-2.33,1.48,0,2.41,5.8.59,5.8,4.03,0,1.55-1.36,2.55-3.69,2.55-1.48,0-2.91-.48-3.64-1.1Z"/>
    </g>
  </g>
  <g>
    <rect class="cls-4" x="9.24" y="217.39" width="71.28" height="35.44" rx="8.36" ry="8.36"/>
    <g>
      <path class="cls-2" d="M13.49,261.06h-4.18v-1.09h9.62v1.09h-4.18v10.81h-1.26v-10.81Z"/>
      <path class="cls-2" d="M24.94,262.86v1.17c-.1,0-.2-.02-.29-.02-1.87,0-3.01,1.19-3.01,3.3v4.56h-1.21v-8.94h1.16v1.75c.56-1.19,1.7-1.82,3.35-1.82Z"/>
      <path class="cls-2" d="M33.85,266.33v5.54h-1.16v-1.39c-.54.92-1.6,1.48-3.08,1.48-2.02,0-3.26-1.05-3.26-2.6,0-1.38.88-2.53,3.45-2.53h2.84v-.54c0-1.53-.87-2.36-2.53-2.36-1.16,0-2.24.41-2.97,1.05l-.54-.9c.9-.77,2.23-1.21,3.64-1.21,2.31,0,3.62,1.16,3.62,3.47ZM32.64,269.19v-1.46h-2.8c-1.73,0-2.29.68-2.29,1.6,0,1.04.83,1.68,2.26,1.68s2.36-.65,2.84-1.82Z"/>
      <path class="cls-2" d="M36.86,260.11c0-.46.39-.85.88-.85s.88.37.88.83c0,.49-.37.88-.88.88s-.88-.39-.88-.87ZM37.13,262.93h1.21v8.94h-1.21v-8.94Z"/>
      <path class="cls-2" d="M49.93,266.69v5.18h-1.21v-5.07c0-1.89-.99-2.86-2.69-2.86-1.92,0-3.13,1.19-3.13,3.23v4.69h-1.21v-8.94h1.16v1.65c.65-1.09,1.85-1.72,3.4-1.72,2.18,0,3.67,1.26,3.67,3.82Z"/>
      <path class="cls-2" d="M51.97,270.85l.54-.95c.71.56,1.92,1,3.18,1,1.7,0,2.4-.58,2.4-1.46,0-2.33-5.8-.49-5.8-4.03,0-1.46,1.26-2.55,3.54-2.55,1.16,0,2.41.32,3.16.83l-.53.97c-.78-.54-1.72-.77-2.63-.77-1.62,0-2.33.63-2.33,1.48,0,2.41,5.8.59,5.8,4.03,0,1.55-1.36,2.55-3.69,2.55-1.48,0-2.91-.48-3.64-1.1Z"/>
      <path class="cls-2" d="M65.71,260.11c0-.46.39-.85.88-.85s.88.37.88.83c0,.49-.37.88-.88.88s-.88-.39-.88-.87ZM65.98,262.93h1.21v8.94h-1.21v-8.94Z"/>
      <path class="cls-2" d="M78.78,266.69v5.18h-1.21v-5.07c0-1.89-.99-2.86-2.69-2.86-1.92,0-3.13,1.19-3.13,3.23v4.69h-1.21v-8.94h1.16v1.65c.65-1.09,1.85-1.72,3.4-1.72,2.18,0,3.67,1.26,3.67,3.82Z"/>
      <path class="cls-2" d="M86.77,271.33c-.48.42-1.19.63-1.89.63-1.68,0-2.62-.95-2.62-2.6v-5.41h-1.6v-1.02h1.6v-1.95h1.21v1.95h2.72v1.02h-2.72v5.34c0,1.05.54,1.63,1.55,1.63.49,0,.99-.15,1.33-.46l.42.87Z"/>
      <path class="cls-2" d="M96.43,267.78h-7.48c.14,1.87,1.56,3.11,3.52,3.11,1.09,0,2.06-.39,2.74-1.17l.68.78c-.8.95-2.04,1.46-3.45,1.46-2.79,0-4.69-1.9-4.69-4.56s1.85-4.54,4.37-4.54,4.33,1.85,4.33,4.54c0,.1-.02.24-.02.37ZM88.95,266.88h6.34c-.15-1.75-1.43-2.98-3.18-2.98s-3.01,1.22-3.16,2.98Z"/>
      <path class="cls-2" d="M103.41,262.86v1.17c-.1,0-.2-.02-.29-.02-1.87,0-3.01,1.19-3.01,3.3v4.56h-1.21v-8.94h1.16v1.75c.56-1.19,1.7-1.82,3.35-1.82Z"/>
      <path class="cls-2" d="M113.82,266.69v5.18h-1.21v-5.07c0-1.89-.99-2.86-2.69-2.86-1.92,0-3.13,1.19-3.13,3.23v4.69h-1.21v-8.94h1.16v1.65c.65-1.09,1.85-1.72,3.4-1.72,2.18,0,3.67,1.26,3.67,3.82Z"/>
      <path class="cls-2" d="M123.85,266.33v5.54h-1.16v-1.39c-.54.92-1.6,1.48-3.08,1.48-2.02,0-3.26-1.05-3.26-2.6,0-1.38.88-2.53,3.45-2.53h2.84v-.54c0-1.53-.87-2.36-2.53-2.36-1.16,0-2.24.41-2.97,1.05l-.54-.9c.9-.77,2.23-1.21,3.64-1.21,2.31,0,3.62,1.16,3.62,3.47ZM122.64,269.19v-1.46h-2.8c-1.73,0-2.29.68-2.29,1.6,0,1.04.83,1.68,2.26,1.68s2.36-.65,2.84-1.82Z"/>
      <path class="cls-2" d="M131.84,271.33c-.48.42-1.19.63-1.89.63-1.68,0-2.62-.95-2.62-2.6v-5.41h-1.6v-1.02h1.6v-1.95h1.21v1.95h2.72v1.02h-2.72v5.34c0,1.05.54,1.63,1.55,1.63.49,0,.99-.15,1.33-.46l.43.87Z"/>
      <path class="cls-2" d="M133.76,260.11c0-.46.39-.85.88-.85s.88.37.88.83c0,.49-.37.88-.88.88s-.88-.39-.88-.87ZM134.03,262.93h1.21v8.94h-1.21v-8.94Z"/>
      <path class="cls-2" d="M137.7,267.4c0-2.65,1.94-4.54,4.56-4.54s4.54,1.89,4.54,4.54-1.92,4.56-4.54,4.56-4.56-1.9-4.56-4.56ZM145.57,267.4c0-2.09-1.41-3.48-3.31-3.48s-3.33,1.39-3.33,3.48,1.43,3.48,3.33,3.48,3.31-1.39,3.31-3.48Z"/>
      <path class="cls-2" d="M157.49,266.69v5.18h-1.21v-5.07c0-1.89-.99-2.86-2.69-2.86-1.92,0-3.13,1.19-3.13,3.23v4.69h-1.21v-8.94h1.16v1.65c.65-1.09,1.85-1.72,3.4-1.72,2.18,0,3.67,1.26,3.67,3.82Z"/>
      <path class="cls-2" d="M167.52,266.33v5.54h-1.16v-1.39c-.54.92-1.6,1.48-3.08,1.48-2.02,0-3.26-1.05-3.26-2.6,0-1.38.88-2.53,3.45-2.53h2.84v-.54c0-1.53-.87-2.36-2.53-2.36-1.16,0-2.24.41-2.97,1.05l-.54-.9c.9-.77,2.23-1.21,3.64-1.21,2.31,0,3.62,1.16,3.62,3.47ZM166.31,269.19v-1.46h-2.8c-1.73,0-2.29.68-2.29,1.6,0,1.04.83,1.68,2.26,1.68s2.36-.65,2.84-1.82Z"/>
      <path class="cls-2" d="M178.86,262.93v8.94h-1.16v-1.63c-.63,1.09-1.78,1.72-3.21,1.72-2.28,0-3.77-1.27-3.77-3.84v-5.18h1.21v5.07c0,1.9.99,2.87,2.69,2.87,1.87,0,3.04-1.21,3.04-3.25v-4.69h1.21Z"/>
      <path class="cls-2" d="M187.94,271.87l-2.84-3.74-2.86,3.74h-1.36l3.54-4.59-3.37-4.35h1.36l2.69,3.5,2.69-3.5h1.33l-3.37,4.35,3.57,4.59h-1.38Z"/>
    </g>
  </g>
  <g>
    <g>
      <g>
        <path class="cls-5" d="M552.58,18.46v51.68c0,2.3,2.18,4.17,4.87,4.17h160.06c.66,0,1.3-.11,1.91-.33,6.2-2.28,37.48-16.68-26.88-57.27-.81-.51-1.8-.79-2.81-.81l-132.21-1.61c-2.71-.03-4.94,1.84-4.94,4.17h0Z"/>
        <path class="cls-11" d="M679.88,15.31v21.29c0,4.51,3.13,8.32,7.3,8.89,35.91,10.93,42.47,8.51,43.55,5.97,2.48-5.8-19.24-22.27-39.05-35.84-3.93-.1-7.87-.21-11.8-.31Z"/>
        <path class="cls-11" d="M566.27,38.2l-.02,9.65c-.01,5.88,1.46,10.88,3.22,10.9l50.36.57c1.44.02,2.61-3.36,2.82-8.09l.39-8.95c.28-6.31-1.25-12.26-3.17-12.31l-50.74-1.27c-1.6-.04-2.86,4.12-2.87,9.5Z"/>
        <polygon class="cls-11" points="638.2 74.31 641.49 69.77 674.19 69.77 677.24 74.31 638.2 74.31"/>
        <polygon class="cls-10" points="641.02 30.27 641.49 69.77 657.6 69.77 674.19 69.77 674.19 30.27 657.72 30.27 641.02 30.27"/>
        <rect class="cls-9" x="643.1" y="35.08" width="12.37" height="29.36" rx="5.67" ry="5.67"/>
        <rect class="cls-9" x="659.8" y="35.08" width="12.37" height="29.36" rx="5.68" ry="5.68"/>
        <polyline class="cls-9" points="610.03 29.59 610.03 33.72 602.26 33.72 602.26 40.12 618.34 40.12 618.34 33.72 612.79 33.72 612.8 29.64"/>
        <polygon class="cls-10" points="644.23 15.34 646.28 12.86 654.31 12.86 666.63 12.86 668.75 15.64 644.23 15.34"/>
      </g>
      <g>
        <rect class="cls-5" x="378.58" y="13.91" width="170.62" height="60.76" rx="9.25" ry="9.25"/>
        <path class="cls-11" d="M395.29,38.14l-.02,9.76c-.01,5.95,1.68,11.01,3.7,11.03l57.92.57c1.65.02,3.01-3.4,3.25-8.18l.45-9.05c.32-6.39-1.44-12.41-3.65-12.45l-58.35-1.28c-1.84-.04-3.29,4.17-3.3,9.61Z"/>
        <polygon class="cls-11" points="478.01 74.66 481.8 70.07 519.4 70.07 522.92 74.66 478.01 74.66"/>
        <polygon class="cls-10" points="481.26 30.12 481.8 70.07 500.33 70.07 519.4 70.07 519.4 30.12 500.47 30.12 481.26 30.12"/>
        <rect class="cls-9" x="483.65" y="34.98" width="14.23" height="29.7" rx="5.67" ry="5.67"/>
        <rect class="cls-9" x="502.86" y="34.98" width="14.23" height="29.7" rx="5.68" ry="5.68"/>
        <polyline class="cls-9" points="445.62 29.43 445.62 33.61 436.69 33.61 436.69 40.08 455.18 40.08 455.18 33.61 448.8 33.61 448.8 29.48"/>
        <polygon class="cls-10" points="484.95 15.01 487.31 12.5 496.54 12.5 510.72 12.5 513.15 15.32 484.95 15.01"/>
      </g>
      <g>
        <rect class="cls-5" x="200.83" y="13.91" width="174" height="60.76" rx="9.25" ry="9.25"/>
        <path class="cls-11" d="M217.87,38.14l-.02,9.76c-.01,5.95,1.72,11.01,3.77,11.03l59.06.57c1.68.02,3.07-3.4,3.31-8.18l.46-9.05c.33-6.39-1.47-12.41-3.72-12.45l-59.5-1.28c-1.88-.04-3.35,4.17-3.36,9.61Z"/>
        <polygon class="cls-11" points="302.23 74.66 306.09 70.07 344.44 70.07 348.02 74.66 302.23 74.66"/>
        <polygon class="cls-10" points="305.54 30.12 306.09 70.07 324.99 70.07 344.44 70.07 344.44 30.12 325.13 30.12 305.54 30.12"/>
        <rect class="cls-9" x="307.98" y="34.98" width="14.51" height="29.7" rx="5.67" ry="5.67"/>
        <rect class="cls-9" x="327.56" y="34.98" width="14.51" height="29.7" rx="5.68" ry="5.68"/>
        <polyline class="cls-9" points="269.19 29.43 269.19 33.61 260.09 33.61 260.09 40.08 278.94 40.08 278.94 33.61 272.44 33.61 272.44 29.48"/>
        <polygon class="cls-10" points="309.31 15.01 311.72 12.5 321.13 12.5 335.58 12.5 338.07 15.32 309.31 15.01"/>
      </g>
      <g>
        <path class="cls-8" d="M727.52,167.49v51.68c0,2.3,2.18,4.17,4.87,4.17h160.06c.66,0,1.3-.11,1.91-.33,6.2-2.28,37.48-16.68-26.88-57.27-.81-.51-1.8-.79-2.81-.81l-132.21-1.61c-2.71-.03-4.94,1.84-4.94,4.17h0Z"/>
        <path class="cls-11" d="M854.82,164.34v21.29c0,4.51,3.13,8.32,7.3,8.89,35.91,10.93,42.47,8.51,43.55,5.97,2.48-5.8-19.24-22.27-39.05-35.84-3.93-.1-7.87-.21-11.8-.31Z"/>
        <path class="cls-11" d="M741.2,187.23l-.02,9.65c-.01,5.88,1.46,10.88,3.22,10.9l50.36.57c1.44.02,2.61-3.36,2.82-8.09l.39-8.95c.28-6.31-1.25-12.26-3.17-12.31l-50.74-1.27c-1.6-.04-2.86,4.12-2.87,9.5Z"/>
        <polygon class="cls-11" points="813.14 223.34 816.43 218.8 849.12 218.8 852.18 223.34 813.14 223.34"/>
        <polygon class="cls-12" points="815.96 179.3 816.43 218.8 832.54 218.8 849.12 218.8 849.12 179.3 832.66 179.3 815.96 179.3"/>
        <rect class="cls-9" x="818.04" y="184.11" width="12.37" height="29.36" rx="5.67" ry="5.67"/>
        <rect class="cls-9" x="834.74" y="184.11" width="12.37" height="29.36" rx="5.68" ry="5.68"/>
        <polyline class="cls-9" points="784.96 178.62 784.96 182.75 777.2 182.75 777.2 189.15 793.28 189.15 793.28 182.75 787.73 182.75 787.73 178.67"/>
        <polygon class="cls-12" points="819.17 164.37 821.22 161.89 829.25 161.89 841.57 161.89 843.69 164.67 819.17 164.37"/>
      </g>
      <g>
        <rect class="cls-8" x="378.58" y="162.94" width="170.62" height="60.76" rx="9.25" ry="9.25"/>
        <path class="cls-11" d="M395.29,187.17l-.02,9.76c-.01,5.95,1.68,11.01,3.7,11.03l57.92.57c1.65.02,3.01-3.4,3.25-8.18l.45-9.05c.32-6.39-1.44-12.41-3.65-12.45l-58.35-1.28c-1.84-.04-3.29,4.17-3.3,9.61Z"/>
        <polygon class="cls-11" points="478.01 223.69 481.8 219.1 519.4 219.1 522.92 223.69 478.01 223.69"/>
        <polygon class="cls-12" points="481.26 179.15 481.8 219.1 500.33 219.1 519.4 219.1 519.4 179.15 500.47 179.15 481.26 179.15"/>
        <rect class="cls-9" x="483.65" y="184.01" width="14.23" height="29.7" rx="5.67" ry="5.67"/>
        <rect class="cls-9" x="502.86" y="184.01" width="14.23" height="29.7" rx="5.68" ry="5.68"/>
        <polyline class="cls-9" points="445.62 178.46 445.62 182.64 436.69 182.64 436.69 189.11 455.18 189.11 455.18 182.64 448.8 182.64 448.8 178.51"/>
        <polygon class="cls-12" points="484.95 164.04 487.31 161.53 496.54 161.53 510.72 161.53 513.15 164.35 484.95 164.04"/>
      </g>
      <g>
        <rect class="cls-8" x="552.58" y="162.94" width="170.62" height="60.76" rx="9.25" ry="9.25"/>
        <path class="cls-11" d="M569.29,187.17l-.02,9.76c-.01,5.95,1.68,11.01,3.7,11.03l57.92.57c1.65.02,3.01-3.4,3.25-8.18l.45-9.05c.32-6.39-1.44-12.41-3.65-12.45l-58.35-1.28c-1.84-.04-3.29,4.17-3.3,9.61Z"/>
        <polygon class="cls-11" points="652.01 223.69 655.8 219.1 693.4 219.1 696.92 223.69 652.01 223.69"/>
        <polygon class="cls-12" points="655.26 179.15 655.8 219.1 674.33 219.1 693.4 219.1 693.4 179.15 674.47 179.15 655.26 179.15"/>
        <rect class="cls-9" x="657.65" y="184.01" width="14.23" height="29.7" rx="5.67" ry="5.67"/>
        <rect class="cls-9" x="676.86" y="184.01" width="14.23" height="29.7" rx="5.68" ry="5.68"/>
        <polyline class="cls-9" points="619.62 178.46 619.62 182.64 610.69 182.64 610.69 189.11 629.18 189.11 629.18 182.64 622.8 182.64 622.8 178.51"/>
        <polygon class="cls-12" points="658.95 164.04 661.31 161.53 670.54 161.53 684.72 161.53 687.15 164.35 658.95 164.04"/>
      </g>
      <g>
        <rect class="cls-8" x="200.83" y="162.94" width="174" height="60.76" rx="9.25" ry="9.25"/>
        <path class="cls-11" d="M217.87,187.17l-.02,9.76c-.01,5.95,1.72,11.01,3.77,11.03l59.06.57c1.68.02,3.07-3.4,3.31-8.18l.46-9.05c.33-6.39-1.47-12.41-3.72-12.45l-59.5-1.28c-1.88-.04-3.35,4.17-3.36,9.61Z"/>
        <polygon class="cls-11" points="302.23 223.69 306.09 219.1 344.44 219.1 348.02 223.69 302.23 223.69"/>
        <polygon class="cls-12" points="305.54 179.15 306.09 219.1 324.99 219.1 344.44 219.1 344.44 179.15 325.13 179.15 305.54 179.15"/>
        <rect class="cls-9" x="307.98" y="184.01" width="14.51" height="29.7" rx="5.67" ry="5.67"/>
        <rect class="cls-9" x="327.56" y="184.01" width="14.51" height="29.7" rx="5.68" ry="5.68"/>
        <polyline class="cls-9" points="269.19 178.46 269.19 182.64 260.09 182.64 260.09 189.11 278.94 189.11 278.94 182.64 272.44 182.64 272.44 178.51"/>
        <polygon class="cls-12" points="309.31 164.04 311.72 161.53 321.13 161.53 335.58 161.53 338.07 164.35 309.31 164.04"/>
      </g>
      <g>
        <path class="cls-3" d="M552.58,93.08v51.68c0,2.3,1.92,4.17,4.28,4.17h140.81c.58,0,1.15-.11,1.68-.33,5.45-2.28,32.97-16.68-23.65-57.27-.72-.51-1.58-.79-2.47-.81l-116.31-1.61c-2.39-.03-4.34,1.84-4.34,4.17h0Z"/>
        <path class="cls-11" d="M664.58,89.93v21.29c0,4.51,2.75,8.32,6.42,8.89,31.59,10.93,37.36,8.51,38.32,5.97,2.18-5.8-16.93-22.27-34.35-35.84-3.46-.1-6.92-.21-10.38-.31Z"/>
        <path class="cls-11" d="M564.62,112.82l-.02,9.65c0,5.88,1.29,10.88,2.83,10.9l44.3.57c1.26.02,2.3-3.36,2.48-8.09l.35-8.95c.24-6.31-1.1-12.26-2.79-12.31l-44.64-1.27c-1.41-.04-2.51,4.12-2.52,9.5Z"/>
        <polygon class="cls-11" points="627.9 148.93 630.8 144.39 659.56 144.39 662.25 148.93 627.9 148.93"/>
        <polygon class="cls-6" points="630.38 104.9 630.8 144.39 644.97 144.39 659.56 144.39 659.56 104.9 645.08 104.9 630.38 104.9"/>
        <rect class="cls-9" x="632.21" y="109.71" width="10.88" height="29.36" rx="5.44" ry="5.44"/>
        <rect class="cls-9" x="646.91" y="109.71" width="10.88" height="29.36" rx="5.44" ry="5.44"/>
        <polyline class="cls-9" points="603.12 104.22 603.12 108.34 596.29 108.34 596.29 114.74 610.43 114.74 610.43 108.34 605.55 108.34 605.56 104.27"/>
        <polygon class="cls-6" points="633.21 89.97 635.02 87.48 642.08 87.48 652.92 87.48 654.78 90.27 633.21 89.97"/>
      </g>
      <g>
        <rect class="cls-3" x="378.58" y="88.53" width="170.62" height="60.76" rx="9.25" ry="9.25"/>
        <path class="cls-11" d="M395.29,112.76l-.02,9.76c-.01,5.95,1.68,11.01,3.7,11.03l57.92.57c1.65.02,3.01-3.4,3.25-8.18l.45-9.05c.32-6.39-1.44-12.41-3.65-12.45l-58.35-1.28c-1.84-.04-3.29,4.17-3.3,9.61Z"/>
        <polygon class="cls-11" points="478.01 149.29 481.8 144.69 519.4 144.69 522.92 149.29 478.01 149.29"/>
        <polygon class="cls-6" points="481.26 104.74 481.8 144.69 500.33 144.69 519.4 144.69 519.4 104.74 500.47 104.74 481.26 104.74"/>
        <rect class="cls-9" x="483.65" y="109.61" width="14.23" height="29.7" rx="5.67" ry="5.67"/>
        <rect class="cls-9" x="502.86" y="109.61" width="14.23" height="29.7" rx="5.68" ry="5.68"/>
        <polyline class="cls-9" points="445.62 104.06 445.62 108.23 436.69 108.23 436.69 114.7 455.18 114.7 455.18 108.23 448.8 108.23 448.8 104.1"/>
        <polygon class="cls-6" points="484.95 89.64 487.31 87.12 496.54 87.12 510.72 87.12 513.15 89.94 484.95 89.64"/>
      </g>
      <g>
        <path class="cls-4" d="M374.83,243.12v51.68c0,2.3,1.84,4.17,4.1,4.17h134.98c.55,0,1.1-.11,1.61-.33,5.23-2.28,31.61-16.68-22.67-57.27-.69-.51-1.51-.79-2.37-.81l-111.5-1.61c-2.29-.03-4.16,1.84-4.16,4.17h0Z"/>
        <path class="cls-11" d="M482.19,239.97v21.29c0,4.51,2.64,8.32,6.16,8.89,30.28,10.93,35.81,8.51,36.73,5.97,2.09-5.8-16.22-22.27-32.93-35.84-3.32-.1-6.64-.21-9.95-.31Z"/>
        <path class="cls-11" d="M386.37,262.86v9.65c-.02,5.88,1.22,10.88,2.7,10.9l42.47.57c1.21.02,2.2-3.36,2.38-8.09l.33-8.95c.23-6.31-1.06-12.26-2.68-12.31l-42.79-1.27c-1.35-.04-2.41,4.12-2.42,9.5Z"/>
        <polygon class="cls-11" points="447.03 298.97 449.81 294.43 477.38 294.43 479.96 298.97 447.03 298.97"/>
        <polygon class="cls-6" points="449.41 254.93 449.81 294.43 463.4 294.43 477.38 294.43 477.38 254.93 463.49 254.93 449.41 254.93"/>
        <rect class="cls-9" x="451.16" y="259.74" width="10.43" height="29.36" rx="5.22" ry="5.22"/>
        <rect class="cls-9" x="465.25" y="259.74" width="10.43" height="29.36" rx="5.22" ry="5.22"/>
        <polyline class="cls-9" points="423.27 254.26 423.27 258.38 416.73 258.38 416.73 264.78 430.28 264.78 430.28 258.38 425.61 258.38 425.61 254.3"/>
        <polygon class="cls-6" points="452.12 240.01 453.85 237.52 460.62 237.52 471.01 237.52 472.8 240.3 452.12 240.01"/>
      </g>
      <g>
        <rect class="cls-4" x="200.83" y="238.57" width="170.62" height="60.76" rx="9.25" ry="9.25"/>
        <path class="cls-11" d="M217.54,262.8l-.02,9.76c-.01,5.95,1.68,11.01,3.7,11.03l57.92.57c1.65.02,3.01-3.4,3.25-8.18l.45-9.05c.32-6.39-1.44-12.41-3.65-12.45l-58.35-1.28c-1.84-.04-3.29,4.17-3.3,9.61Z"/>
        <polygon class="cls-11" points="300.26 299.33 304.05 294.73 341.65 294.73 345.17 299.33 300.26 299.33"/>
        <polygon class="cls-6" points="303.51 254.78 304.05 294.73 322.58 294.73 341.65 294.73 341.65 254.78 322.72 254.78 303.51 254.78"/>
        <rect class="cls-9" x="305.9" y="259.64" width="14.23" height="29.7" rx="5.67" ry="5.67"/>
        <rect class="cls-9" x="325.11" y="259.64" width="14.23" height="29.7" rx="5.68" ry="5.68"/>
        <polyline class="cls-9" points="267.87 254.09 267.87 258.27 258.94 258.27 258.94 264.74 277.43 264.74 277.43 258.27 271.05 258.27 271.05 254.14"/>
        <polygon class="cls-6" points="307.2 239.68 309.56 237.16 318.79 237.16 332.97 237.16 335.4 239.98 307.2 239.68"/>
      </g>
      <g>
        <rect class="cls-3" x="200.83" y="88.53" width="174" height="60.76" rx="9.25" ry="9.25"/>
        <path class="cls-11" d="M217.87,112.76l-.02,9.76c-.01,5.95,1.72,11.01,3.77,11.03l59.06.57c1.68.02,3.07-3.4,3.31-8.18l.46-9.05c.33-6.39-1.47-12.41-3.72-12.45l-59.5-1.28c-1.88-.04-3.35,4.17-3.36,9.61Z"/>
        <polygon class="cls-11" points="302.23 149.29 306.09 144.69 344.44 144.69 348.02 149.29 302.23 149.29"/>
        <polygon class="cls-6" points="305.54 104.74 306.09 144.69 324.99 144.69 344.44 144.69 344.44 104.74 325.13 104.74 305.54 104.74"/>
        <rect class="cls-9" x="307.98" y="109.61" width="14.51" height="29.7" rx="5.67" ry="5.67"/>
        <rect class="cls-9" x="327.56" y="109.61" width="14.51" height="29.7" rx="5.68" ry="5.68"/>
        <polyline class="cls-9" points="269.19 104.06 269.19 108.23 260.09 108.23 260.09 114.7 278.94 114.7 278.94 108.23 272.44 108.23 272.44 104.1"/>
        <polygon class="cls-6" points="309.31 89.64 311.72 87.12 321.13 87.12 335.58 87.12 338.07 89.94 309.31 89.64"/>
      </g>
      <g>
        <rect class="cls-2" x="191.91" y="304.37" width="743.41" height="3.38"/>
        <rect class="cls-2" x="174.39" y="314.48" width="751.22" height="3.38"/>
        <rect class="cls-2" x="192.58" y="309.72" width="20.19" height="2.25" transform="translate(-128.27 142.98) rotate(-30)"/>
        <rect class="cls-2" x="209.45" y="310.35" width="20.19" height="2.25" transform="translate(-126.32 151.5) rotate(-30)"/>
        <rect class="cls-2" x="227.45" y="310.04" width="20.19" height="2.25" transform="translate(-123.76 160.46) rotate(-30)"/>
        <rect class="cls-2" x="244.33" y="310.66" width="20.19" height="2.25" transform="translate(-121.81 168.98) rotate(-30)"/>
        <rect class="cls-2" x="262.98" y="309.57" width="20.19" height="2.25" transform="translate(-118.76 178.16) rotate(-30)"/>
        <rect class="cls-2" x="279.86" y="310.19" width="20.19" height="2.25" transform="translate(-116.81 186.68) rotate(-30)"/>
        <rect class="cls-2" x="297.86" y="309.88" width="20.19" height="2.25" transform="translate(-114.24 195.64) rotate(-30)"/>
        <rect class="cls-2" x="314.73" y="310.5" width="20.19" height="2.25" transform="translate(-112.3 204.16) rotate(-30)"/>
        <rect class="cls-2" x="332.36" y="309.41" width="20.19" height="2.25" transform="translate(-109.39 212.83) rotate(-30)"/>
        <rect class="cls-2" x="349.23" y="310.04" width="20.19" height="2.25" transform="translate(-107.44 221.35) rotate(-30)"/>
        <rect class="cls-2" x="367.23" y="309.72" width="20.19" height="2.25" transform="translate(-104.87 230.31) rotate(-30)"/>
        <rect class="cls-2" x="384.11" y="310.35" width="20.19" height="2.25" transform="translate(-102.92 238.83) rotate(-30)"/>
        <rect class="cls-2" x="401.26" y="309.88" width="20.19" height="2.25" transform="translate(-100.39 247.35) rotate(-30)"/>
        <rect class="cls-2" x="418.14" y="310.5" width="20.19" height="2.25" transform="translate(-98.44 255.87) rotate(-30)"/>
        <rect class="cls-2" x="436.14" y="310.19" width="20.19" height="2.25" transform="translate(-95.87 264.82) rotate(-30)"/>
        <rect class="cls-2" x="453.01" y="310.82" width="20.19" height="2.25" transform="translate(-93.93 273.35) rotate(-30)"/>
        <rect class="cls-2" x="471.67" y="309.88" width="20.19" height="2.25" transform="translate(-90.96 282.55) rotate(-30)"/>
        <rect class="cls-2" x="488.54" y="310.5" width="20.19" height="2.25" transform="translate(-89.01 291.07) rotate(-30)"/>
        <rect class="cls-2" x="506.54" y="310.19" width="20.19" height="2.25" transform="translate(-86.44 300.03) rotate(-30)"/>
        <rect class="cls-2" x="523.42" y="310.82" width="20.19" height="2.25" transform="translate(-84.49 308.55) rotate(-30)"/>
        <rect class="cls-2" x="540.95" y="309.72" width="20.19" height="2.25" transform="translate(-81.6 317.17) rotate(-30)"/>
        <rect class="cls-2" x="557.83" y="310.35" width="20.19" height="2.25" transform="translate(-79.65 325.69) rotate(-30)"/>
        <rect class="cls-2" x="575.83" y="310.04" width="20.19" height="2.25" transform="translate(-77.08 334.65) rotate(-30)"/>
        <rect class="cls-2" x="592.7" y="310.66" width="20.19" height="2.25" transform="translate(-75.13 343.17) rotate(-30)"/>
        <rect class="cls-2" x="611.73" y="309.8" width="20.19" height="2.25" transform="translate(-72.15 352.57) rotate(-30)"/>
        <rect class="cls-2" x="628.61" y="310.43" width="20.19" height="2.25" transform="translate(-70.21 361.09) rotate(-30)"/>
        <rect class="cls-2" x="646.14" y="309.33" width="20.19" height="2.25" transform="translate(-67.31 369.71) rotate(-30)"/>
        <rect class="cls-2" x="663.01" y="309.96" width="20.19" height="2.25" transform="translate(-65.36 378.23) rotate(-30)"/>
        <rect class="cls-2" x="681.01" y="309.65" width="20.19" height="2.25" transform="translate(-62.79 387.19) rotate(-30)"/>
        <rect class="cls-2" x="697.89" y="310.27" width="20.19" height="2.25" transform="translate(-60.85 395.71) rotate(-30)"/>
        <rect class="cls-2" x="715.55" y="309.78" width="20.19" height="2.25" transform="translate(-58.24 404.48) rotate(-30)"/>
        <rect class="cls-2" x="732.42" y="310.41" width="20.19" height="2.25" transform="translate(-56.29 413) rotate(-30)"/>
        <rect class="cls-2" x="749.95" y="309.32" width="20.19" height="2.25" transform="translate(-53.39 421.62) rotate(-30)"/>
        <rect class="cls-2" x="766.83" y="309.94" width="20.19" height="2.25" transform="translate(-51.44 430.14) rotate(-30)"/>
        <rect class="cls-2" x="784.83" y="309.63" width="20.19" height="2.25" transform="translate(-48.88 439.1) rotate(-30)"/>
        <rect class="cls-2" x="801.7" y="310.25" width="20.19" height="2.25" transform="translate(-46.93 447.62) rotate(-30)"/>
        <rect class="cls-2" x="819.05" y="309.86" width="20.19" height="2.25" transform="translate(-44.41 456.24) rotate(-30)"/>
        <rect class="cls-2" x="835.92" y="310.49" width="20.19" height="2.25" transform="translate(-42.46 464.76) rotate(-30)"/>
        <rect class="cls-2" x="853.45" y="309.39" width="20.19" height="2.25" transform="translate(-39.57 473.38) rotate(-30)"/>
        <rect class="cls-2" x="870.33" y="310.02" width="20.19" height="2.25" transform="translate(-37.62 481.9) rotate(-30)"/>
        <rect class="cls-2" x="888.33" y="309.71" width="20.19" height="2.25" transform="translate(-35.05 490.86) rotate(-30)"/>
        <rect class="cls-2" x="905.2" y="310.33" width="20.19" height="2.25" transform="translate(-33.1 499.38) rotate(-30)"/>
      </g>
    </g>
    <g>
      <text class="cls-1" transform="translate(204.44 353.17)"><tspan x="0" y="0">0</tspan></text>
      <text class="cls-1" transform="translate(376.17 353.17)"><tspan x="0" y="0">5</tspan></text>
      <text class="cls-1" transform="translate(545.09 353.17)"><tspan x="0" y="0">10</tspan></text>
      <text class="cls-1" transform="translate(720.78 353.17)"><tspan x="0" y="0">15</tspan></text>
    </g>
  </g>
  <g>
    <path class="cls-2" d="M416.98,377.84c0-3.19,1.79-5.32,4.42-5.32s4.42,2.1,4.42,5.32-1.82,5.32-4.42,5.32-4.42-2.13-4.42-5.32ZM424.43,377.84c0-2.55-1.2-4.06-3.02-4.06s-3.02,1.54-3.02,4.06,1.18,4.06,3.02,4.06,3.02-1.51,3.02-4.06ZM433.28,372.66h1.65l-13.38,19.6h-1.65l13.38-19.6ZM428.99,387.08c0-3.19,1.82-5.32,4.42-5.32s4.42,2.13,4.42,5.32-1.79,5.32-4.42,5.32-4.42-2.13-4.42-5.32ZM436.44,387.08c0-2.52-1.18-4.06-3.02-4.06s-3.02,1.51-3.02,4.06,1.2,4.06,3.02,4.06,3.02-1.54,3.02-4.06Z"/>
    <path class="cls-2" d="M462.57,371.48v20.78h-1.9v-2.91c-1.2,1.99-3.25,3.05-5.68,3.05-4.2,0-7.34-3.05-7.34-7.5s3.14-7.48,7.34-7.48c2.35,0,4.37,1.01,5.6,2.91v-8.85h1.99ZM460.61,384.89c0-3.44-2.35-5.74-5.46-5.74s-5.49,2.3-5.49,5.74,2.35,5.74,5.49,5.74,5.46-2.3,5.46-5.74Z"/>
    <path class="cls-2" d="M480.93,385.51h-12.32c.22,3.08,2.58,5.12,5.8,5.12,1.79,0,3.39-.64,4.51-1.93l1.12,1.29c-1.32,1.57-3.36,2.41-5.68,2.41-4.59,0-7.73-3.14-7.73-7.5s3.05-7.48,7.2-7.48,7.14,3.05,7.14,7.48c0,.17-.03.39-.03.62ZM468.61,384.02h10.44c-.25-2.88-2.35-4.9-5.24-4.9s-4.96,2.02-5.21,4.9Z"/>
    <path class="cls-2" d="M499.78,377.42v1.93c-.17,0-.34-.03-.48-.03-3.08,0-4.96,1.96-4.96,5.43v7.5h-1.99v-14.73h1.9v2.88c.92-1.96,2.8-3,5.52-3Z"/>
    <path class="cls-2" d="M516.05,385.51h-12.32c.22,3.08,2.58,5.12,5.8,5.12,1.79,0,3.39-.64,4.51-1.93l1.12,1.29c-1.32,1.57-3.36,2.41-5.68,2.41-4.59,0-7.73-3.14-7.73-7.5s3.05-7.48,7.2-7.48,7.14,3.05,7.14,7.48c0,.17-.03.39-.03.62ZM503.73,384.02h10.44c-.25-2.88-2.35-4.9-5.24-4.9s-4.96,2.02-5.21,4.9Z"/>
    <path class="cls-2" d="M527.89,391.36c-.78.7-1.96,1.04-3.11,1.04-2.77,0-4.31-1.57-4.31-4.28v-8.9h-2.63v-1.68h2.63v-3.22h1.99v3.22h4.48v1.68h-4.48v8.79c0,1.74.9,2.69,2.55,2.69.81,0,1.62-.25,2.18-.76l.7,1.43Z"/>
    <path class="cls-2" d="M542.62,383.13v9.13h-1.9v-2.3c-.9,1.51-2.63,2.44-5.07,2.44-3.33,0-5.38-1.74-5.38-4.28,0-2.27,1.46-4.17,5.68-4.17h4.68v-.9c0-2.52-1.43-3.89-4.17-3.89-1.9,0-3.7.67-4.9,1.74l-.9-1.48c1.48-1.26,3.67-1.99,5.99-1.99,3.81,0,5.96,1.9,5.96,5.71ZM540.63,387.83v-2.41h-4.62c-2.86,0-3.78,1.12-3.78,2.63,0,1.71,1.37,2.77,3.72,2.77s3.89-1.06,4.68-3Z"/>
    <path class="cls-2" d="M555.44,377.42v1.93c-.17,0-.34-.03-.48-.03-3.08,0-4.96,1.96-4.96,5.43v7.5h-1.99v-14.73h1.9v2.88c.92-1.96,2.8-3,5.52-3Z"/>
    <path class="cls-2" d="M572.32,371.48v20.78h-1.9v-2.91c-1.2,1.99-3.25,3.05-5.68,3.05-4.2,0-7.34-3.05-7.34-7.5s3.14-7.48,7.34-7.48c2.35,0,4.37,1.01,5.6,2.91v-8.85h1.99ZM570.36,384.89c0-3.44-2.35-5.74-5.46-5.74s-5.49,2.3-5.49,5.74,2.35,5.74,5.49,5.74,5.46-2.3,5.46-5.74Z"/>
    <path class="cls-2" d="M598.03,385.51h-12.32c.22,3.08,2.58,5.12,5.8,5.12,1.79,0,3.39-.64,4.51-1.93l1.12,1.29c-1.32,1.57-3.36,2.41-5.68,2.41-4.59,0-7.73-3.14-7.73-7.5s3.05-7.48,7.2-7.48,7.14,3.05,7.14,7.48c0,.17-.03.39-.03.62ZM585.71,384.02h10.44c-.25-2.88-2.35-4.9-5.24-4.9s-4.96,2.02-5.21,4.9Z"/>
    <path class="cls-2" d="M615.67,383.72v8.54h-1.99v-8.34c0-3.11-1.62-4.7-4.42-4.7-3.16,0-5.15,1.96-5.15,5.32v7.73h-1.99v-14.73h1.9v2.72c1.06-1.79,3.05-2.83,5.6-2.83,3.58,0,6.05,2.07,6.05,6.3Z"/>
    <path class="cls-2" d="M640.48,390.46v1.79h-13.75v-1.43l8.15-7.98c2.21-2.18,2.63-3.5,2.63-4.84,0-2.27-1.6-3.67-4.59-3.67-2.3,0-4.06.7-5.35,2.18l-1.43-1.23c1.51-1.79,3.95-2.8,6.94-2.8,3.98,0,6.5,2.02,6.5,5.29,0,1.88-.59,3.56-3.22,6.13l-6.66,6.55h10.78Z"/>
    <path class="cls-2" d="M642.88,382.46c0-6.24,3.28-9.97,7.81-9.97s7.84,3.72,7.84,9.97-3.3,9.97-7.84,9.97-7.81-3.72-7.81-9.97ZM656.46,382.46c0-5.24-2.35-8.12-5.77-8.12s-5.77,2.88-5.77,8.12,2.35,8.12,5.77,8.12,5.77-2.88,5.77-8.12Z"/>
    <path class="cls-2" d="M674.75,390.46v1.79h-13.75v-1.43l8.15-7.98c2.21-2.18,2.63-3.5,2.63-4.84,0-2.27-1.6-3.67-4.59-3.67-2.3,0-4.06.7-5.35,2.18l-1.43-1.23c1.51-1.79,3.95-2.8,6.94-2.8,3.98,0,6.5,2.02,6.5,5.29,0,1.88-.59,3.56-3.22,6.13l-6.66,6.55h10.78Z"/>
    <path class="cls-2" d="M690.23,386.63c0,3.28-2.38,5.8-7.11,5.8-2.83,0-5.54-.98-7.06-2.52l.98-1.6c1.26,1.32,3.53,2.27,6.08,2.27,3.25,0,5.04-1.51,5.04-3.95s-1.65-3.89-5.29-3.89h-1.4v-1.48l5.43-6.8h-10.02v-1.79h12.6v1.43l-5.54,6.97c4.2.22,6.3,2.44,6.3,5.57Z"/>
  </g>
</svg>