<?xml version="1.0" encoding="UTF-8"?>
<svg id="Calque_1" data-name="Calque 1" xmlns="http://www.w3.org/2000/svg" viewBox="0 0 193.52 211.6">
  <defs>
    <style>
      .cls-1 {
        fill: #f3eeee;
      }

      .cls-1, .cls-2, .cls-3, .cls-4, .cls-5, .cls-6, .cls-7, .cls-8, .cls-9, .cls-10, .cls-11, .cls-12, .cls-13, .cls-14 {
        stroke-width: 0px;
      }

      .cls-2 {
        fill: #f2e8cf;
      }

      .cls-3 {
        fill: #422405;
      }

      .cls-4 {
        fill: #d3878e;
      }

      .cls-5 {
        fill: #c9abab;
      }

      .cls-6 {
        fill: #c33;
      }

      .cls-7 {
        fill: #c99;
      }

      .cls-8 {
        fill: #ccc;
      }

      .cls-9 {
        fill: #d86c6c;
      }

      .cls-10 {
        fill: #e1d0d2;
      }

      .cls-11 {
        fill: #c17070;
      }

      .cls-12 {
        fill: #e5d6d7;
      }

      .cls-13 {
        fill: #e3bec1;
      }

      .cls-14 {
        fill: #fcc;
      }
    </style>
  </defs>
  <g>
    <path class="cls-9" d="M39.37,177.82c.11-2.83,1.75-5.98,3.04-8.58,2.11-4.32,3.85-9.69,5.21-14.05.74-2.31,1.23-4.76,1.46-7.17.34-3.21.38-6.55.89-9.83.88-5.37,1.52-10.97,1.65-16.02.04-1.12.17-2.25.61-3.29,1.62-3.93,6.54-6.5,8.35-10.49,1.28-2.76.95-6.32,3.02-8.72,4.23-4.56,12.88-2.97,17.91-.96,6.51,2.83,10.4,9.12,17.36,11.35,5,1.67,10.96,1.09,15.68,3.2,6.3,2.87,6.84,10.65,4.66,16.46-1.03,2.92-2.29,5.76-4.59,7.71-7.4,5.99-15.24,5.61-21.24,14.56-3.71,5.5-9.04,9.97-15.7,11.98-2.63,1.02-5.44,1.88-7.48,3.9-3.07,3.1-1.96,7.85-2.74,11.82-.27,2.47-1.71,4.69-2.41,6.99-.23.96-.25,1.83-.2,2.58.11,1.88.56,2.97-1.32,2.63-1.62-.32-3.63-1.18-5.33-1.83-3.06-1.29-8.18-3.28-11.64-4.92-2.93-1.63-7.24-3.32-7.18-7.21v-.09Z"/>
    <path class="cls-14" d="M105.44,204.77c-9.24.8-15.59-4.72-23.11-8.98-4.34-2.3-8.85-2.48-13.52-2.71-1.96-.1-4.21-.36-5.98-1.22-4.39-2.05-3-7.47-2.14-11.95.52-2.55.82-5.1,1.3-7.63.32-1.58.88-3.2,2-4.37,2.6-2.66,6.64-3.09,9.94-4.54,3.22-1.3,5.93-3.54,8.16-6.17,1.92-2.18,3.41-4.75,5.33-6.84,3.22-3.55,7.24-5.41,11.55-2.37,2.35,1.6,5.12,2.64,7.87,3.05,2.22.45,4.5.28,6.72-.08,2.2-.34,4.28-.31,6.76-.15,5.68.02,8.16,4.7,11.51,8.44,1.03,1.13,2.06,2.21,3.16,3.27,2.82,2.76,5.86,4.89,6,8.56.23,4.51-3.49,7.69-7.63,8.99-3.35,1.09-6.44,1.91-9.72,3.68-2.92,1.59-5.69,3.59-7.7,6.25-4.31,5.39-1.44,14.4-10.36,14.77h-.12Z"/>
    <path class="cls-10" d="M183.82,162.46c2.67,4.94-1.94,9.94-4.91,13.53-2.61,2.62-5.26,5.17-7.44,8.18-2.27,3.15-5.23,6.29-9.29,6.69-4.27.3-8.62.02-12.73-1.53-2.9-1.16-5.18-3.01-7.86-4.43-2.45-1.33-5.15-2.48-6.88-4.76-2.92-3.94-1.42-11.3.8-15.26,3.04-6.01,10.16-4.43,13.59-9.74,1.08-1.54,1.91-3.77,2.77-5.49,3.16-6.24,12.16-17.62,17.53-13.73,3,2.47,3.72,6.57,4.88,10.15.95,3.26,2.18,6.17,3.98,8.94,1.78,2.8,3.96,4.71,5.53,7.35l.05.09Z"/>
    <path class="cls-1" d="M175.72,141.59c-1.01,1.83-3.14,2.86-4.98,3.77-2.74,1.37-5.51,2.83-7.82,4.52-2.83,2.09-5.48,4.69-8.04,7.09-.9.86-1.77,1.75-2.5,2.77-2.07,2.57-2.62,7.11-6.47,7.58-2.71.24-5.4-.79-8.06-1.19-10.9-1.29-11.75-2.91-19.04-10.66-1.7-1.77-3.68-3.15-6.1-3.58-3.14-.54-6.38-.56-9.53.02-1.75.33-3.52.77-5.31.75-7.3-.16-5.62-5.39-3.79-10.38,1.94-5.24,4.41-10.36,4.42-15.94.15-5.56-1.96-12.68,2.61-16.96,2.94-2.38,7.08-2.76,10.77-2.05,9.91,1.94,11.02,15.37,23.19,11.28,6.15-2.32,12.76-2.25,19.26-1.57,3.38.63,6.57-.55,9.94-.59,7.62.24,10.23,4.9,10.19,11.78.16,1.93.51,3.81,1.02,5.67.66,2.47,1.59,5.22.33,7.58l-.05.09Z"/>
    <path class="cls-4" d="M179.51,89.51c.8,6.89-5.3,12.65-9.09,17.81-3.6,4.39-6.68,8.98-11.48,11.57-4.01,1.95-8.84,1.29-13.28,1.57-3.96.12-7.64,1.11-11.36,2.51-8.29,3.06-13.5-4.47-18.77-9.47-3.98-3.69-8.33-7.15-10.22-12.25-2.65-6.6-2.08-19.44.48-26.1,3.69-9.12,10.12-3.73,16.3-.94,4.19,1.92,8.58,3.25,12.67,5.05,2.71,1.18,5.23,2.43,7.93,3.72,9.13,5.05,15.18-2.29,24.51-2.59,5.36-.01,11.23,3.58,12.28,9.03l.02.1Z"/>
    <path class="cls-7" d="M139.42,36.98c3.79,1.41,5.84,5.75,9.25,7.97,3.12,2.23,6.84,3.32,10.3,4.89,3.06,1.32,6.03,2.88,9.02,4.39,3.15,1.54,6.31,3.01,9.71,3.98,4.02,1.07,9.38,2.27,10.07,7.14.55,4.9-1.94,9.43-3.15,14.06-1,3.29-1.69,6.92-2.94,10.32-1.55,4.38-3.9,7.15-8.5,4.06-6.39-4.37-9.89-8.05-17.81-4.33-10.01,5.29-10.82,1.23-19.74-2.73-3.42-1.59-7.28-2.4-10.28-4.77-9.81-8.92-2.9-24.79,2.46-34.42,1.58-2.75,3.6-5.44,5.64-7.78,1.38-1.64,3.7-3.45,5.88-2.81l.09.02Z"/>
    <path class="cls-8" d="M127.54,71.17c-4.75,2.45-9.95-.53-14.62-1.82-6.78-1.84-16.58-3.82-15.52-12.84.61-3.48,2.22-7.3-.11-10.48-1.05-1.72-2.32-3.39-2.94-5.32-1.9-6.6.3-14.77,5.08-19.79,4.4-4.53,11.44-3.49,16.36-.39,4.25,2.69,7.74,6.43,11.99,9.19,13.1,8.58,15.97,15.54,8.32,29.76-2.26,4.16-4.22,9.17-8.47,11.65l-.09.05Z"/>
    <path class="cls-13" d="M116.58,63.3c18.64,7.1,8.83,26.12-8.23,23.74-4.33-.5-8.4-2.3-11.92-4.73-5.64-3.9-13.42-12.07-8.35-19.05,1.68-1.96,4.54-2.85,7.91-3.15,6.35-.56,15.14,1.17,20.5,3.16l.09.03Z"/>
    <path class="cls-11" d="M50.54,47.8c-.05-2.45-.17-6.28,2.56-7.37,2.19-.61,4.96,2.66,6.83,4.14,5.42,5.22,10.82,6.29,17.38,2.17,5.01-3.09,9.18-8.16,14.83-10,9.49-2.94,12.43,5.28,11.56,13.23-.54,7.71-3.66,12.97-8.36,18.74-2.76,3.4-4.6,7.83-8.1,10.61-3.21,2.38-6.99-.24-10.14-1.47-2.36-1-4.81-1.84-7.31-2.35-7.26-1.25-15.04-2-17.31-10.36-.85-3.06-.72-6.37-1.13-9.53-.26-2.57-.63-5.13-.8-7.69v-.1Z"/>
    <path class="cls-5" d="M10.82,78.66c-3.84-1.67-4.03-2.7-4.16-6.64-.17-1.8-.44-3.64,1.17-4.7.38-.32.82-.64.92-1.15.16-.77-.63-1.97-.6-2.96.18-2.9,3.95-3.81,6.31-4.35,5.41-.89,11.24-1.85,16.76-.97,6.7,1.12,12.83,4.43,19.52,5.42,4.21.55,8.59,1.52,12.08,4.04,2.16,1.51,3.98,3.79,4.95,6.32,3.81,9.56-7.82,14.96-15.45,16.62-4.22.86-8.18,1.14-12.14.33-2.57-.58-4.93-1.75-7.39-2.76-2.88-1.18-5.73-2.43-8.5-3.86-4.26-2.1-9.06-3.19-13.38-5.28l-.1-.05Z"/>
    <path class="cls-12" d="M57.43,77.85c4.5-4.23,6.3-11.73,12.23-13.53,6.89-1.83,20.37,3.36,22.08,10.74.95,3.64-1.35,7.22-3.6,9.95-3.83,4.82-7.88,9.37-12.9,12.91-3.71,2.8-8.62,4.78-10.21,9.5-1.01,2.52-1.3,5.55-2.36,7.94-2.15,5.49-8.54,4.58-12.57,1.77-5.18-3.36-8.72-10.22-8.1-16.6.12-1.79.89-3.6.75-5.38-.21-2.57-4.16-2.77-4.48-5.26.26-3.35,8.17-5.56,10.9-6.91,3.01-1.3,5.82-2.85,8.18-5.07l.08-.07Z"/>
    <path class="cls-6" d="M103.75,76.96c3.76,2.59,10.05,4.34,10.21,9.58.06,2.48-.53,4.83-.39,7.29.12,3.67.32,7.6-1.54,10.89-3.71,6.21-12.37,9.43-19.22,8.23-4.48-.76-7.5-4.33-10.47-7.59-5.05-5.44-10.32-9.55-3.16-16.15,2.25-2.27,4.66-4.49,5.94-7.52.88-2.06,1.46-4.16,2.04-6.28.42-2.05,1.09-4.38,2.75-5.72,4.44-3.23,10.16,5.07,13.75,7.2l.08.06Z"/>
  </g>
  <g>
    <path class="cls-3" d="M80.85,177.18h-2.21v2.16h-.75v-2.16h-2.21v-.7h2.21v-2.17h.75v2.17h2.21v.7Z"/>
    <path class="cls-3" d="M87.29,176.31c.42.21.75.5.99.87s.36.81.36,1.31-.12.95-.37,1.34c-.25.39-.58.69-1.01.9-.43.21-.92.31-1.45.31-1.1,0-1.94-.36-2.53-1.09-.59-.72-.88-1.75-.88-3.07,0-.93.16-1.71.47-2.35.32-.64.76-1.12,1.33-1.45s1.23-.49,1.99-.49c.82,0,1.48.15,1.97.45l-.34.69c-.4-.26-.93-.39-1.61-.39-.92,0-1.64.29-2.16.87s-.78,1.43-.78,2.53c0,.2.01.42.04.68.21-.45.53-.8.98-1.05.45-.25.97-.37,1.55-.37.55,0,1.03.1,1.45.31ZM87.23,179.83c.38-.33.56-.76.56-1.31s-.19-.98-.56-1.3c-.38-.32-.88-.49-1.52-.49-.42,0-.79.08-1.11.24-.32.16-.57.38-.75.65-.18.28-.27.59-.27.93,0,.32.08.61.25.88s.42.49.75.65.73.25,1.19.25c.6,0,1.09-.16,1.46-.49Z"/>
    <path class="cls-3" d="M90.84,179.92c.12.12.18.27.18.46,0,.09-.01.2-.04.31-.03.11-.07.24-.12.38l-.5,1.64h-.57l.4-1.72c-.13-.04-.23-.11-.31-.22s-.12-.24-.12-.39c0-.18.06-.33.18-.46s.27-.18.45-.18.33.06.45.18Z"/>
    <path class="cls-3" d="M98.33,177.4c.28.35.42.77.42,1.26s-.13.9-.39,1.26c-.26.36-.63.64-1.12.83-.49.19-1.06.29-1.71.29-1,0-1.78-.21-2.35-.64-.57-.43-.85-1.01-.85-1.74,0-.5.14-.92.41-1.26.27-.34.67-.6,1.19-.78-.43-.17-.75-.41-.97-.72-.22-.31-.33-.68-.33-1.11,0-.67.26-1.21.79-1.6s1.23-.59,2.12-.59c.58,0,1.1.09,1.54.27s.78.43,1.03.77c.25.33.37.72.37,1.16s-.11.8-.34,1.11c-.23.31-.56.55-.98.72.52.17.92.43,1.2.78ZM97.25,179.87c.42-.3.62-.71.62-1.22s-.21-.92-.62-1.22c-.42-.3-.99-.45-1.73-.45s-1.3.15-1.71.45c-.41.3-.62.7-.62,1.22s.21.93.62,1.23c.41.3.98.45,1.72.45s1.31-.15,1.73-.45ZM94.02,175.91c.36.27.87.4,1.51.4s1.14-.13,1.51-.4.55-.63.55-1.08-.19-.83-.56-1.1c-.38-.27-.88-.4-1.5-.4s-1.13.13-1.5.4c-.37.27-.55.63-.55,1.09s.18.82.55,1.09Z"/>
    <path class="cls-3" d="M104.83,176.31c.42.21.75.5.99.87s.36.81.36,1.31-.12.95-.37,1.34c-.25.39-.58.69-1.01.9-.43.21-.92.31-1.45.31-1.1,0-1.94-.36-2.53-1.09-.59-.72-.88-1.75-.88-3.07,0-.93.16-1.71.47-2.35.32-.64.76-1.12,1.33-1.45s1.23-.49,1.99-.49c.82,0,1.48.15,1.97.45l-.34.69c-.4-.26-.93-.39-1.61-.39-.92,0-1.64.29-2.16.87s-.78,1.43-.78,2.53c0,.2.01.42.04.68.21-.45.53-.8.98-1.05.45-.25.97-.37,1.55-.37.55,0,1.03.1,1.45.31ZM104.77,179.83c.38-.33.56-.76.56-1.31s-.19-.98-.56-1.3c-.38-.32-.88-.49-1.52-.49-.42,0-.79.08-1.11.24-.32.16-.57.38-.75.65-.18.28-.27.59-.27.93,0,.32.08.61.25.88s.42.49.75.65.73.25,1.19.25c.6,0,1.09-.16,1.46-.49Z"/>
    <path class="cls-3" d="M107.32,176.49c-.34-.42-.52-.96-.52-1.63s.17-1.22.52-1.63c.34-.42.8-.62,1.36-.62s1,.21,1.35.62c.35.41.52.96.52,1.64s-.17,1.23-.52,1.64-.8.62-1.35.62-1.01-.21-1.36-.62ZM109.61,176.13c.23-.3.35-.73.35-1.26s-.12-.96-.35-1.26c-.23-.3-.54-.46-.93-.46s-.71.15-.94.46c-.23.31-.34.73-.34,1.26s.11.95.34,1.26c.23.31.54.46.94.46s.7-.15.93-.46ZM113.71,172.67h.7l-5.67,8.3h-.7l5.67-8.3ZM112.42,180.41c-.35-.42-.52-.96-.52-1.63s.17-1.22.52-1.63c.35-.42.8-.62,1.35-.62s1.01.21,1.36.62c.34.42.52.96.52,1.63s-.17,1.22-.52,1.63c-.34.42-.8.62-1.36.62s-1-.21-1.35-.62ZM114.71,180.04c.23-.31.34-.73.34-1.26s-.11-.95-.34-1.26c-.23-.31-.54-.46-.94-.46s-.7.15-.93.46c-.23.3-.35.73-.35,1.26s.12.96.35,1.26c.23.3.54.46.93.46s.71-.15.94-.46Z"/>
  </g>
  <g>
    <path class="cls-3" d="M146.13,173.09h-2.01v1.96h-.68v-1.96h-2.01v-.64h2.01v-1.97h.68v1.97h2.01v.64Z"/>
    <path class="cls-3" d="M152.66,169v.55l-3.16,7h-.84l3.11-6.86h-3.88v1.41h-.77v-2.1h5.54Z"/>
    <path class="cls-3" d="M154.12,175.59c.11.11.16.25.16.42,0,.09-.01.18-.04.28-.03.1-.06.22-.11.35l-.45,1.49h-.52l.37-1.56c-.12-.04-.21-.1-.28-.2-.07-.1-.11-.21-.11-.35,0-.17.05-.3.16-.42s.24-.17.41-.17.3.06.41.17Z"/>
    <path class="cls-3" d="M159.88,172.87c.41.38.62.89.62,1.5,0,.43-.1.81-.31,1.15-.21.33-.52.6-.93.79s-.91.29-1.5.29c-.55,0-1.06-.09-1.55-.26-.49-.18-.88-.41-1.17-.71l.38-.61c.25.26.59.47,1,.63.42.16.86.24,1.34.24.62,0,1.1-.14,1.43-.4.34-.27.51-.64.51-1.12s-.17-.83-.51-1.1c-.34-.27-.85-.4-1.53-.4h-.54v-.57l2.09-2.62h-3.86v-.69h4.85v.55l-2.14,2.69c.79.04,1.39.26,1.81.64Z"/>
    <path class="cls-3" d="M166.78,169v.55l-3.16,7h-.84l3.11-6.86h-3.88v1.41h-.77v-2.1h5.54Z"/>
    <path class="cls-3" d="M168.19,172.47c-.31-.38-.47-.87-.47-1.48s.16-1.11.47-1.48c.31-.38.72-.57,1.23-.57s.91.19,1.23.56c.32.37.47.87.47,1.49s-.16,1.11-.47,1.49c-.32.37-.73.56-1.23.56s-.92-.19-1.23-.57ZM170.27,172.14c.21-.28.32-.66.32-1.15s-.11-.87-.32-1.15c-.21-.28-.49-.42-.85-.42s-.64.14-.85.42c-.21.28-.31.66-.31,1.14s.1.86.31,1.14c.21.28.49.42.85.42s.63-.14.85-.41ZM173.99,169h.64l-5.15,7.55h-.64l5.15-7.55ZM172.82,176.03c-.32-.38-.47-.87-.47-1.48s.16-1.11.47-1.48c.32-.38.73-.57,1.23-.57s.92.19,1.23.57c.31.38.47.87.47,1.48s-.16,1.11-.47,1.48c-.31.38-.72.57-1.23.57s-.91-.19-1.23-.57ZM174.9,175.69c.21-.28.31-.66.31-1.14s-.1-.86-.31-1.14c-.21-.28-.49-.42-.85-.42s-.63.14-.85.42c-.21.28-.32.66-.32,1.15s.11.87.32,1.15c.21.28.49.42.85.42s.64-.14.85-.42Z"/>
  </g>
  <g>
    <path class="cls-3" d="M119.17,140.17h-2.21v2.16h-.75v-2.16h-2.21v-.7h2.21v-2.17h.75v2.17h2.21v.7Z"/>
    <path class="cls-3" d="M127.77,141.79h-1.66v2.18h-.85v-2.18h-4.69v-.62l4.4-5.5h.95l-4.25,5.36h3.61v-1.92h.83v1.92h1.66v.76Z"/>
    <path class="cls-3" d="M129.9,142.92c.12.12.18.27.18.46,0,.09-.01.2-.04.31-.03.11-.07.24-.12.38l-.5,1.64h-.57l.4-1.72c-.13-.04-.23-.11-.31-.22s-.12-.24-.12-.39c0-.18.06-.33.18-.46s.27-.18.45-.18.33.06.45.18Z"/>
    <path class="cls-3" d="M137.1,143.21v.76h-5.82v-.6l3.45-3.38c.43-.43.73-.8.88-1.11.15-.31.23-.63.23-.94,0-.49-.17-.87-.5-1.14-.34-.27-.82-.41-1.44-.41-.97,0-1.73.31-2.27.93l-.6-.52c.32-.38.74-.67,1.24-.88.5-.21,1.07-.31,1.7-.31.85,0,1.52.2,2.01.6s.74.95.74,1.64c0,.43-.1.84-.28,1.23-.19.4-.55.85-1.08,1.36l-2.82,2.78h4.57Z"/>
    <path class="cls-3" d="M143.28,136.68c.59.72.88,1.75.88,3.07,0,.93-.16,1.71-.47,2.35-.32.64-.76,1.13-1.33,1.45s-1.23.49-1.99.49c-.82,0-1.48-.15-1.97-.45l.34-.69c.4.26.93.39,1.61.39.92,0,1.64-.29,2.16-.87s.78-1.43.78-2.53c0-.21-.01-.43-.04-.68-.21.45-.53.8-.98,1.05s-.97.37-1.55.37c-.55,0-1.03-.1-1.45-.31-.42-.21-.75-.5-.99-.87-.24-.38-.36-.81-.36-1.31s.12-.95.37-1.34c.25-.39.58-.69,1.01-.9.43-.21.92-.31,1.45-.31,1.1,0,1.94.36,2.53,1.09ZM141.95,139.67c.32-.16.57-.38.75-.65.18-.28.27-.58.27-.93,0-.32-.09-.61-.25-.88-.17-.27-.42-.49-.75-.65s-.73-.25-1.19-.25c-.6,0-1.09.16-1.46.49-.38.33-.56.77-.56,1.31s.19.98.56,1.31c.38.32.88.49,1.52.49.42,0,.79-.08,1.11-.24Z"/>
    <path class="cls-3" d="M145.79,139.49c-.34-.42-.52-.96-.52-1.63s.17-1.22.52-1.63c.34-.42.8-.62,1.36-.62s1,.21,1.35.62c.35.41.52.96.52,1.64s-.17,1.23-.52,1.64-.8.62-1.35.62-1.01-.21-1.36-.62ZM148.07,139.12c.23-.3.35-.73.35-1.26s-.12-.96-.35-1.26c-.23-.3-.54-.46-.93-.46s-.71.15-.94.46c-.23.31-.34.73-.34,1.26s.11.95.34,1.26c.23.31.54.46.94.46s.7-.15.93-.46ZM152.17,135.67h.7l-5.67,8.3h-.7l5.67-8.3ZM150.88,143.41c-.35-.42-.52-.96-.52-1.63s.17-1.22.52-1.63c.35-.42.8-.62,1.35-.62s1.01.21,1.36.62c.34.42.52.96.52,1.63s-.17,1.22-.52,1.63c-.34.42-.8.62-1.36.62s-1-.21-1.35-.62ZM153.17,143.03c.23-.31.34-.73.34-1.26s-.11-.95-.34-1.26c-.23-.31-.54-.46-.94-.46s-.7.15-.93.46c-.23.3-.35.73-.35,1.26s.12.96.35,1.26c.23.3.54.46.93.46s.71-.15.94-.46Z"/>
  </g>
  <g>
    <path class="cls-3" d="M59.09,136.48h-2.01v1.96h-.68v-1.96h-2.01v-.64h2.01v-1.97h.68v1.97h2.01v.64Z"/>
    <path class="cls-3" d="M66.91,137.94h-1.51v1.98h-.78v-1.98h-4.26v-.56l4-5h.86l-3.86,4.87h3.28v-1.75h.76v1.75h1.51v.69Z"/>
    <path class="cls-3" d="M68.84,138.97c.11.11.16.25.16.42,0,.09-.01.18-.04.28-.03.1-.06.22-.11.35l-.45,1.49h-.52l.37-1.56c-.12-.04-.21-.1-.28-.2-.07-.1-.11-.21-.11-.35,0-.17.05-.3.16-.42s.24-.17.41-.17.3.06.41.17Z"/>
    <path class="cls-3" d="M71.45,139.53c-.46-.31-.81-.75-1.07-1.33-.26-.58-.38-1.26-.38-2.04s.13-1.46.38-2.04c.25-.58.61-1.02,1.07-1.33.46-.31.98-.46,1.56-.46s1.1.15,1.56.46c.46.31.81.75,1.07,1.33s.39,1.26.39,2.04-.13,1.46-.39,2.04-.62,1.02-1.07,1.33c-.46.31-.98.46-1.56.46s-1.1-.15-1.56-.46ZM74.17,138.91c.33-.24.59-.6.78-1.07s.28-1.03.28-1.69-.09-1.23-.28-1.69c-.19-.47-.45-.82-.78-1.07-.33-.24-.72-.37-1.16-.37s-.82.12-1.16.37-.59.6-.78,1.07c-.19.47-.28,1.03-.28,1.69s.09,1.23.28,1.69c.19.47.45.82.78,1.07s.72.37,1.16.37.82-.12,1.16-.37Z"/>
    <path class="cls-3" d="M78.59,139.53c-.46-.31-.81-.75-1.07-1.33-.26-.58-.38-1.26-.38-2.04s.13-1.46.38-2.04c.25-.58.61-1.02,1.07-1.33.46-.31.98-.46,1.56-.46s1.1.15,1.56.46c.46.31.81.75,1.07,1.33s.39,1.26.39,2.04-.13,1.46-.39,2.04-.62,1.02-1.07,1.33c-.46.31-.98.46-1.56.46s-1.1-.15-1.56-.46ZM81.31,138.91c.33-.24.59-.6.78-1.07s.28-1.03.28-1.69-.09-1.23-.28-1.69c-.19-.47-.45-.82-.78-1.07-.33-.24-.72-.37-1.16-.37s-.82.12-1.16.37-.59.6-.78,1.07c-.19.47-.28,1.03-.28,1.69s.09,1.23.28,1.69c.19.47.45.82.78,1.07s.72.37,1.16.37.82-.12,1.16-.37Z"/>
    <path class="cls-3" d="M84.64,135.86c-.31-.38-.47-.87-.47-1.48s.16-1.11.47-1.48c.31-.38.72-.57,1.23-.57s.91.19,1.23.56c.32.37.47.87.47,1.49s-.16,1.11-.47,1.49c-.32.37-.73.56-1.23.56s-.92-.19-1.23-.57ZM86.72,135.52c.21-.28.32-.66.32-1.15s-.11-.87-.32-1.15c-.21-.28-.49-.42-.85-.42s-.64.14-.85.42c-.21.28-.31.66-.31,1.14s.1.86.31,1.14c.21.28.49.42.85.42s.63-.14.85-.41ZM90.45,132.38h.64l-5.15,7.55h-.64l5.15-7.55ZM89.27,139.42c-.32-.38-.47-.87-.47-1.48s.16-1.11.47-1.48c.32-.38.73-.57,1.23-.57s.92.19,1.23.57c.31.38.47.87.47,1.48s-.16,1.11-.47,1.48c-.31.38-.72.57-1.23.57s-.91-.19-1.23-.57ZM91.35,139.08c.21-.28.31-.66.31-1.14s-.1-.86-.31-1.14c-.21-.28-.49-.42-.85-.42s-.63.14-.85.42c-.21.28-.32.66-.32,1.15s.11.87.32,1.15c.21.28.49.42.85.42s.64-.14.85-.42Z"/>
  </g>
  <g>
    <path class="cls-3" d="M128.16,104.73h-2.01v1.96h-.68v-1.96h-2.01v-.64h2.01v-1.97h.68v1.97h2.01v.64Z"/>
    <path class="cls-3" d="M131.39,100.63v7.55h-.78v-6.86h-1.78v-.69h2.56Z"/>
    <path class="cls-3" d="M134.19,107.22c.11.11.16.25.16.41,0,.09-.01.18-.04.28-.03.1-.06.22-.11.35l-.45,1.49h-.52l.37-1.56c-.12-.04-.21-.1-.28-.2-.07-.1-.11-.21-.11-.35,0-.16.05-.3.16-.41s.24-.17.41-.17.3.06.41.17Z"/>
    <path class="cls-3" d="M140.74,107.49v.69h-5.29v-.55l3.14-3.07c.4-.39.66-.72.8-1.01.14-.28.21-.57.21-.86,0-.45-.15-.79-.46-1.04s-.74-.37-1.31-.37c-.88,0-1.57.28-2.06.84l-.55-.47c.29-.35.67-.61,1.13-.8.46-.19.97-.28,1.55-.28.77,0,1.38.18,1.83.54.45.36.67.86.67,1.49,0,.39-.09.76-.26,1.12-.17.36-.5.77-.98,1.24l-2.57,2.52h4.15Z"/>
    <path class="cls-3" d="M143.11,107.78c-.46-.31-.81-.75-1.07-1.33-.26-.58-.38-1.26-.38-2.04s.13-1.46.38-2.04c.25-.58.61-1.02,1.07-1.33.46-.31.98-.46,1.56-.46s1.1.15,1.56.46c.46.31.81.75,1.07,1.33.26.58.39,1.26.39,2.04s-.13,1.46-.39,2.04-.62,1.02-1.07,1.33c-.46.31-.98.46-1.56.46s-1.1-.15-1.56-.46ZM145.83,107.16c.33-.24.59-.6.78-1.07s.28-1.03.28-1.69-.09-1.23-.28-1.69-.45-.82-.78-1.07c-.33-.24-.72-.37-1.16-.37s-.82.12-1.16.37c-.33.24-.59.6-.78,1.07-.19.47-.28,1.03-.28,1.69s.09,1.23.28,1.69c.19.47.45.82.78,1.07s.72.37,1.16.37.82-.12,1.16-.37Z"/>
    <path class="cls-3" d="M149.16,104.11c-.31-.38-.47-.87-.47-1.48s.16-1.11.47-1.48c.31-.38.72-.57,1.23-.57s.91.19,1.23.56c.32.37.47.87.47,1.49s-.16,1.11-.47,1.49c-.32.37-.73.56-1.23.56s-.92-.19-1.23-.57ZM151.25,103.77c.21-.28.32-.66.32-1.15s-.11-.87-.32-1.15c-.21-.28-.49-.42-.85-.42s-.64.14-.85.42c-.21.28-.31.66-.31,1.14s.1.86.31,1.14c.21.28.49.42.85.42s.63-.14.85-.42ZM154.97,100.63h.64l-5.15,7.55h-.64l5.15-7.55ZM153.8,107.67c-.32-.38-.47-.87-.47-1.48s.16-1.11.47-1.48c.32-.38.73-.57,1.23-.57s.92.19,1.23.57c.31.38.47.87.47,1.48s-.16,1.11-.47,1.48c-.31.38-.72.57-1.23.57s-.91-.19-1.23-.57ZM155.88,107.33c.21-.28.31-.66.31-1.14s-.1-.86-.31-1.14c-.21-.28-.49-.42-.85-.42s-.63.14-.85.42c-.21.28-.32.66-.32,1.15s.11.87.32,1.15c.21.28.49.41.85.41s.64-.14.85-.42Z"/>
  </g>
  <g>
    <path class="cls-2" d="M86.11,94.56h-1.81v1.77h-.61v-1.77h-1.81v-.57h1.81v-1.78h.61v1.78h1.81v.57Z"/>
    <path class="cls-2" d="M89.01,90.87v6.79h-.7v-6.17h-1.6v-.62h2.3Z"/>
    <path class="cls-2" d="M91.54,96.81c.1.1.15.22.15.37,0,.08-.01.16-.03.25-.02.09-.06.19-.1.31l-.41,1.34h-.47l.33-1.41c-.1-.03-.19-.09-.25-.18-.06-.09-.1-.19-.1-.32,0-.15.05-.27.15-.37.1-.1.22-.15.37-.15s.27.05.37.15Z"/>
    <path class="cls-2" d="M96.63,94.19c.45.35.67.85.67,1.48,0,.39-.09.75-.28,1.06-.18.31-.46.55-.83.73-.37.18-.82.27-1.36.27-.49,0-.95-.08-1.38-.24-.44-.16-.79-.37-1.05-.64l.34-.55c.23.23.52.42.89.57.37.15.77.22,1.19.22.56,0,1-.13,1.31-.38.31-.25.46-.59.46-1.01,0-.47-.17-.82-.52-1.06-.35-.24-.93-.36-1.75-.36h-1.45l.35-3.41h3.72v.62h-3.11l-.23,2.16h.87c.98,0,1.7.18,2.15.53Z"/>
    <path class="cls-2" d="M102.77,97.04v.62h-4.77v-.49l2.82-2.77c.36-.35.6-.65.72-.91.13-.26.19-.51.19-.77,0-.4-.14-.71-.41-.94-.28-.22-.67-.33-1.18-.33-.8,0-1.41.25-1.85.76l-.49-.43c.27-.31.6-.55,1.01-.72.41-.17.87-.25,1.39-.25.69,0,1.24.16,1.64.49s.61.77.61,1.34c0,.35-.08.69-.23,1.01-.16.32-.45.7-.88,1.12l-2.31,2.27h3.74Z"/>
    <path class="cls-2" d="M104.07,94c-.28-.34-.42-.78-.42-1.33s.14-.99.42-1.33c.28-.34.65-.51,1.11-.51s.82.17,1.11.5c.28.34.43.78.43,1.34s-.14,1-.43,1.34c-.28.34-.65.5-1.11.5s-.83-.17-1.11-.51ZM105.94,93.7c.19-.25.29-.59.29-1.03s-.1-.78-.29-1.03-.45-.37-.76-.37-.58.13-.77.38c-.19.25-.28.6-.28,1.03s.09.78.28,1.03c.19.25.44.38.77.38s.57-.12.76-.37ZM109.3,90.87h.57l-4.64,6.79h-.57l4.64-6.79ZM108.24,97.2c-.28-.34-.43-.78-.43-1.33s.14-.99.43-1.33c.28-.34.65-.51,1.11-.51s.83.17,1.11.51c.28.34.42.78.42,1.33s-.14.99-.42,1.33c-.28.34-.65.51-1.11.51s-.82-.17-1.11-.51ZM110.11,96.9c.19-.25.28-.6.28-1.03s-.09-.78-.28-1.03c-.19-.25-.44-.38-.77-.38s-.57.12-.76.37c-.19.25-.29.59-.29,1.03s.1.78.29,1.03.44.37.76.37.58-.13.77-.38Z"/>
  </g>
  <g>
    <path class="cls-3" d="M143.45,71.24h-2.21v2.16h-.75v-2.16h-2.21v-.7h2.21v-2.17h.75v2.17h2.21v.7Z"/>
    <path class="cls-3" d="M149.71,70.78c.55.43.82,1.03.82,1.81,0,.48-.11.91-.34,1.29s-.56.68-1.01.9c-.45.22-1,.33-1.66.33-.59,0-1.16-.1-1.69-.29-.53-.19-.96-.45-1.29-.78l.42-.68c.28.28.64.52,1.09.69.45.18.94.27,1.46.27.69,0,1.22-.15,1.6-.46.38-.31.56-.72.56-1.23,0-.57-.21-1-.63-1.29-.42-.29-1.14-.44-2.14-.44h-1.77l.43-4.16h4.54v.76h-3.8l-.28,2.65h1.07c1.2,0,2.08.22,2.63.65Z"/>
    <path class="cls-3" d="M152.72,73.99c.12.12.18.27.18.46,0,.09-.01.2-.04.31s-.07.24-.12.38l-.5,1.64h-.57l.4-1.72c-.13-.04-.23-.11-.31-.22s-.12-.24-.12-.39c0-.18.06-.33.18-.46s.27-.18.45-.18.33.06.45.18Z"/>
    <path class="cls-3" d="M160.21,71.47c.28.35.42.77.42,1.26s-.13.9-.39,1.26c-.26.36-.63.64-1.12.83-.49.19-1.06.29-1.71.29-1,0-1.78-.21-2.35-.64-.57-.43-.85-1.01-.85-1.74,0-.5.14-.92.41-1.26s.67-.6,1.19-.78c-.43-.17-.75-.41-.97-.72-.22-.31-.33-.68-.33-1.11,0-.67.26-1.21.79-1.6.53-.4,1.23-.59,2.12-.59.58,0,1.1.09,1.54.27s.78.43,1.03.77.37.72.37,1.16-.11.8-.34,1.11c-.23.31-.56.55-.98.72.52.17.92.44,1.2.78ZM159.13,73.93c.42-.3.62-.71.62-1.22s-.21-.92-.62-1.22-.99-.44-1.73-.44-1.3.15-1.71.44c-.41.3-.62.7-.62,1.22s.21.93.62,1.23.98.44,1.72.44,1.31-.15,1.73-.45ZM155.9,69.97c.36.27.87.4,1.51.4s1.14-.13,1.51-.4c.37-.27.55-.63.55-1.08s-.19-.83-.56-1.1c-.38-.27-.88-.4-1.5-.4s-1.13.13-1.5.4c-.37.27-.55.63-.55,1.09s.18.82.55,1.09Z"/>
    <path class="cls-3" d="M166.63,71c.45.42.68.97.68,1.65,0,.47-.11.9-.34,1.26-.23.37-.57.66-1.02.87-.45.21-1,.32-1.65.32-.6,0-1.17-.1-1.7-.29-.53-.19-.96-.45-1.29-.78l.42-.68c.28.28.64.52,1.1.69.46.18.95.27,1.47.27.68,0,1.21-.15,1.58-.44.37-.3.56-.71.56-1.23s-.19-.92-.56-1.21c-.37-.29-.93-.44-1.68-.44h-.59v-.63l2.3-2.88h-4.25v-.76h5.34v.6l-2.35,2.95c.87.05,1.53.28,1.99.71Z"/>
    <path class="cls-3" d="M168.78,70.56c-.34-.42-.52-.96-.52-1.63s.17-1.22.52-1.63c.34-.42.8-.62,1.36-.62s1,.21,1.35.62.52.96.52,1.64-.17,1.23-.52,1.64c-.35.41-.8.62-1.35.62s-1.01-.21-1.36-.62ZM171.07,70.19c.23-.3.35-.73.35-1.26s-.12-.96-.35-1.26c-.23-.3-.54-.46-.93-.46s-.71.15-.94.46c-.23.31-.34.73-.34,1.26s.11.95.34,1.26c.23.31.54.46.94.46s.7-.15.93-.46ZM175.17,66.73h.7l-5.67,8.3h-.7l5.67-8.3ZM173.88,74.47c-.35-.42-.52-.96-.52-1.63s.17-1.22.52-1.63c.35-.42.8-.62,1.35-.62s1.01.21,1.36.62c.34.42.52.96.52,1.63s-.17,1.22-.52,1.63c-.34.42-.8.62-1.36.62s-1-.21-1.35-.62ZM176.17,74.1c.23-.31.34-.73.34-1.26s-.11-.95-.34-1.26c-.23-.31-.54-.46-.94-.46s-.7.15-.93.46c-.23.3-.35.73-.35,1.26s.12.96.35,1.26c.23.3.54.46.93.46s.71-.15.94-.46Z"/>
  </g>
  <g>
    <path class="cls-3" d="M109.39,45.53h-1.81v1.77h-.61v-1.77h-1.81v-.57h1.81v-1.78h.61v1.78h1.81v.57Z"/>
    <path class="cls-3" d="M115.45,45.71c.23.28.34.63.34,1.03s-.11.74-.32,1.03-.52.52-.92.68c-.4.16-.87.24-1.4.24-.82,0-1.46-.17-1.92-.52-.47-.35-.7-.82-.7-1.43,0-.41.11-.75.33-1.03.22-.28.55-.49.98-.64-.35-.14-.61-.33-.8-.59-.18-.26-.27-.56-.27-.91,0-.55.22-.99.65-1.31.43-.32,1.01-.49,1.73-.49.48,0,.9.07,1.26.22.36.15.64.35.84.63s.3.59.3.95-.09.65-.28.91c-.19.26-.46.45-.81.59.43.14.76.36.98.64ZM114.57,47.73c.34-.25.51-.58.51-1s-.17-.75-.51-.99c-.34-.24-.81-.36-1.41-.36s-1.06.12-1.4.36c-.34.24-.51.57-.51.99s.17.76.5,1c.34.24.81.36,1.41.36s1.07-.12,1.41-.37ZM111.93,44.49c.3.22.71.33,1.23.33s.94-.11,1.24-.33c.3-.22.45-.51.45-.88s-.15-.68-.46-.9c-.31-.22-.72-.33-1.23-.33s-.93.11-1.23.33c-.3.22-.45.52-.45.89s.15.67.45.89Z"/>
    <path class="cls-3" d="M117.77,47.78c.1.1.15.22.15.37,0,.08-.01.16-.03.25-.02.09-.06.19-.1.31l-.41,1.34h-.47l.33-1.41c-.1-.03-.19-.09-.25-.18-.06-.09-.1-.19-.1-.32,0-.15.05-.27.15-.37.1-.1.22-.15.37-.15s.27.05.37.15Z"/>
    <path class="cls-3" d="M123.66,48.01v.62h-4.77v-.49l2.82-2.77c.36-.35.6-.65.72-.91.13-.26.19-.51.19-.77,0-.4-.14-.71-.41-.94-.28-.22-.67-.33-1.18-.33-.8,0-1.41.25-1.85.76l-.49-.43c.27-.31.6-.55,1.01-.72.41-.17.87-.25,1.39-.25.69,0,1.24.16,1.64.49s.61.77.61,1.34c0,.35-.08.69-.23,1.01-.16.32-.45.7-.88,1.12l-2.31,2.27h3.74Z"/>
    <path class="cls-3" d="M129.17,48.01v.62h-4.77v-.49l2.82-2.77c.36-.35.6-.65.72-.91.13-.26.19-.51.19-.77,0-.4-.14-.71-.41-.94-.28-.22-.67-.33-1.18-.33-.8,0-1.41.25-1.85.76l-.49-.43c.27-.31.6-.55,1.01-.72.41-.17.87-.25,1.39-.25.69,0,1.24.16,1.64.49s.61.77.61,1.34c0,.35-.08.69-.23,1.01-.16.32-.45.7-.88,1.12l-2.31,2.27h3.74Z"/>
    <path class="cls-3" d="M130.47,44.97c-.28-.34-.42-.78-.42-1.33s.14-.99.42-1.33c.28-.34.65-.51,1.11-.51s.82.17,1.11.5c.28.34.43.78.43,1.34s-.14,1-.43,1.34c-.28.34-.65.5-1.11.5s-.83-.17-1.11-.51ZM132.34,44.67c.19-.25.29-.59.29-1.03s-.1-.78-.29-1.03-.45-.37-.76-.37-.58.13-.77.38c-.19.25-.28.6-.28,1.03s.09.78.28,1.03c.19.25.44.38.77.38s.57-.12.76-.37ZM135.69,41.84h.57l-4.64,6.79h-.57l4.64-6.79ZM134.64,48.17c-.28-.34-.43-.78-.43-1.33s.14-.99.43-1.33c.28-.34.65-.51,1.11-.51s.83.17,1.11.51c.28.34.42.78.42,1.33s-.14.99-.42,1.33c-.28.34-.65.51-1.11.51s-.82-.17-1.11-.51ZM136.51,47.87c.19-.25.28-.6.28-1.03s-.09-.78-.28-1.03c-.19-.25-.44-.38-.77-.38s-.57.12-.76.37c-.19.25-.29.59-.29,1.03s.1.78.29,1.03.44.37.76.37.58-.13.77-.38Z"/>
  </g>
  <g>
    <path class="cls-3" d="M103.3,71.66h-1.4v1.37h-.48v-1.37h-1.4v-.45h1.4v-1.38h.48v1.38h1.4v.45Z"/>
    <path class="cls-3" d="M105.56,68.79v5.28h-.54v-4.8h-1.25v-.48h1.79Z"/>
    <path class="cls-3" d="M107.52,73.41c.08.08.11.17.11.29,0,.06,0,.13-.03.2-.02.07-.04.15-.08.24l-.32,1.04h-.36l.26-1.09c-.08-.03-.15-.07-.2-.14s-.08-.15-.08-.25c0-.12.04-.21.11-.29s.17-.12.29-.12.21.04.29.12Z"/>
    <path class="cls-3" d="M112.29,71.81c.18.22.27.49.27.8s-.08.58-.25.8-.4.41-.71.53c-.31.12-.67.19-1.09.19-.63,0-1.13-.14-1.49-.41-.36-.27-.54-.64-.54-1.11,0-.32.09-.58.26-.8.17-.22.43-.38.76-.49-.27-.11-.48-.26-.62-.46-.14-.2-.21-.43-.21-.71,0-.43.17-.77.5-1.02.33-.25.78-.38,1.35-.38.37,0,.7.06.98.17.28.11.5.28.65.49.16.21.23.46.23.74s-.07.51-.22.71c-.15.2-.36.35-.63.46.33.11.59.28.77.5ZM111.6,73.38c.26-.19.4-.45.4-.78s-.13-.59-.4-.77-.63-.28-1.1-.28-.83.09-1.09.28c-.26.19-.4.45-.4.77s.13.59.39.78c.26.19.63.28,1.09.28s.83-.1,1.1-.29ZM109.54,70.85c.23.17.55.26.96.26s.73-.09.96-.26c.23-.17.35-.4.35-.69s-.12-.53-.36-.7c-.24-.17-.56-.26-.95-.26s-.72.09-.96.26c-.23.17-.35.4-.35.69s.12.52.35.69Z"/>
    <path class="cls-3" d="M117.8,72.69h-1.06v1.39h-.54v-1.39h-2.98v-.39l2.8-3.5h.6l-2.7,3.41h2.29v-1.22h.53v1.22h1.06v.48Z"/>
    <path class="cls-3" d="M118.32,71.23c-.22-.26-.33-.61-.33-1.04s.11-.77.33-1.04.51-.4.86-.4.64.13.86.39c.22.26.33.61.33,1.04s-.11.78-.33,1.04c-.22.26-.51.39-.86.39s-.65-.13-.86-.4ZM119.78,70.99c.15-.19.22-.46.22-.8s-.07-.61-.22-.8c-.15-.19-.35-.29-.59-.29s-.45.1-.6.29c-.15.2-.22.46-.22.8s.07.6.22.8c.15.2.34.29.6.29s.44-.1.59-.29ZM122.39,68.79h.45l-3.61,5.28h-.45l3.61-5.28ZM121.57,73.72c-.22-.26-.33-.61-.33-1.04s.11-.77.33-1.04c.22-.26.51-.4.86-.4s.65.13.86.4c.22.26.33.61.33,1.04s-.11.77-.33,1.04-.51.4-.86.4-.64-.13-.86-.4ZM123.02,73.48c.15-.2.22-.46.22-.8s-.07-.6-.22-.8-.34-.29-.6-.29-.44.1-.59.29c-.15.19-.22.46-.22.8s.07.61.22.8c.15.19.35.29.59.29s.45-.1.6-.29Z"/>
  </g>
  <g>
    <path class="cls-2" d="M63.28,56.89h-1.81v1.77h-.61v-1.77h-1.81v-.57h1.81v-1.78h.61v1.78h1.81v.57Z"/>
    <path class="cls-2" d="M69.34,57.08c.23.28.34.63.34,1.03s-.11.74-.32,1.03-.52.52-.92.68c-.4.16-.87.24-1.4.24-.82,0-1.46-.17-1.92-.52-.47-.35-.7-.82-.7-1.43,0-.41.11-.75.33-1.03.22-.28.55-.49.98-.64-.35-.14-.61-.33-.8-.59-.18-.26-.27-.56-.27-.91,0-.55.22-.99.65-1.31.43-.32,1.01-.49,1.73-.49.48,0,.9.07,1.26.22.36.15.64.35.84.63s.3.59.3.95-.09.65-.28.91c-.19.26-.46.45-.81.59.43.14.76.36.98.64ZM68.46,59.1c.34-.25.51-.58.51-1s-.17-.75-.51-.99c-.34-.24-.81-.36-1.41-.36s-1.06.12-1.4.36c-.34.24-.51.57-.51.99s.17.76.5,1c.34.24.81.36,1.41.36s1.07-.12,1.41-.37ZM65.82,55.85c.3.22.71.33,1.23.33s.94-.11,1.24-.33c.3-.22.45-.51.45-.88s-.15-.68-.46-.9c-.31-.22-.72-.33-1.23-.33s-.93.11-1.23.33c-.3.22-.45.52-.45.89s.15.67.45.89Z"/>
    <path class="cls-2" d="M71.66,59.14c.1.1.15.22.15.37,0,.08-.01.16-.03.25-.02.09-.06.19-.1.31l-.41,1.34h-.47l.33-1.41c-.1-.03-.19-.09-.25-.18-.06-.09-.1-.19-.1-.32,0-.15.05-.27.15-.37.1-.1.22-.15.37-.15s.27.05.37.15Z"/>
    <path class="cls-2" d="M77.55,59.38v.62h-4.77v-.49l2.82-2.77c.36-.35.6-.65.72-.91.13-.26.19-.51.19-.77,0-.4-.14-.71-.41-.94-.28-.22-.67-.33-1.18-.33-.8,0-1.41.25-1.85.76l-.49-.43c.27-.31.6-.55,1.01-.72.41-.17.87-.25,1.39-.25.69,0,1.24.16,1.64.49s.61.77.61,1.34c0,.35-.08.69-.23,1.01-.16.32-.45.7-.88,1.12l-2.31,2.27h3.74Z"/>
    <path class="cls-2" d="M83.97,58.21h-1.36v1.79h-.7v-1.79h-3.83v-.5l3.6-4.5h.78l-3.47,4.39h2.95v-1.57h.68v1.57h1.36v.62Z"/>
    <path class="cls-2" d="M84.65,56.34c-.28-.34-.42-.78-.42-1.33s.14-.99.42-1.33c.28-.34.65-.51,1.11-.51s.82.17,1.11.5c.28.34.43.78.43,1.34s-.14,1-.43,1.34c-.28.34-.65.5-1.11.5s-.83-.17-1.11-.51ZM86.52,56.03c.19-.25.29-.59.29-1.03s-.1-.78-.29-1.03-.45-.37-.76-.37-.58.13-.77.38c-.19.25-.28.6-.28,1.03s.09.78.28,1.03c.19.25.44.38.77.38s.57-.12.76-.37ZM89.87,53.21h.57l-4.64,6.79h-.57l4.64-6.79ZM88.82,59.54c-.28-.34-.43-.78-.43-1.33s.14-.99.43-1.33c.28-.34.65-.51,1.11-.51s.83.17,1.11.51c.28.34.42.78.42,1.33s-.14.99-.42,1.33c-.28.34-.65.51-1.11.51s-.82-.17-1.11-.51ZM90.69,59.23c.19-.25.28-.6.28-1.03s-.09-.78-.28-1.03c-.19-.25-.44-.38-.77-.38s-.57.12-.76.37c-.19.25-.29.59-.29,1.03s.1.78.29,1.03.44.37.76.37.58-.13.77-.38Z"/>
  </g>
  <g>
    <path class="cls-3" d="M22.16,73.08h-1.81v1.77h-.61v-1.77h-1.81v-.57h1.81v-1.78h.61v1.78h1.81v.57Z"/>
    <path class="cls-3" d="M27.43,72.37c.35.17.62.41.81.71.19.31.29.66.29,1.07s-.1.78-.3,1.1c-.2.32-.48.56-.83.73s-.75.26-1.19.26c-.9,0-1.59-.3-2.07-.89-.48-.59-.72-1.43-.72-2.51,0-.76.13-1.4.39-1.92.26-.52.62-.92,1.09-1.19.47-.27,1.01-.4,1.63-.4.67,0,1.21.12,1.61.37l-.28.56c-.32-.21-.76-.32-1.32-.32-.75,0-1.34.24-1.77.71-.43.48-.64,1.17-.64,2.07,0,.16,0,.35.03.55.17-.37.44-.66.81-.86.37-.2.79-.31,1.27-.31.45,0,.84.08,1.19.25ZM27.38,75.25c.31-.27.46-.63.46-1.07s-.15-.8-.46-1.07c-.31-.27-.72-.4-1.25-.4-.34,0-.65.06-.91.19-.26.13-.47.31-.62.53-.15.23-.22.48-.22.76,0,.26.07.5.21.72s.34.4.62.53c.27.14.6.2.97.2.49,0,.89-.13,1.2-.4Z"/>
    <path class="cls-3" d="M30.34,75.33c.1.1.15.22.15.37,0,.08-.01.16-.03.25-.02.09-.06.19-.1.31l-.41,1.34h-.47l.33-1.41c-.1-.03-.19-.09-.25-.18-.06-.09-.1-.19-.1-.32,0-.15.05-.27.15-.37.1-.1.22-.15.37-.15s.27.05.37.15Z"/>
    <path class="cls-3" d="M33.26,69.39v6.79h-.7v-6.17h-1.6v-.62h2.3Z"/>
    <path class="cls-3" d="M39.67,69.39v.49l-2.84,6.3h-.76l2.8-6.17h-3.49v1.27h-.69v-1.89h4.99Z"/>
    <path class="cls-3" d="M40.94,72.52c-.28-.34-.42-.78-.42-1.33s.14-.99.42-1.33c.28-.34.65-.51,1.11-.51s.82.17,1.11.5c.28.34.43.78.43,1.34s-.14,1-.43,1.34c-.28.34-.65.5-1.11.5s-.83-.17-1.11-.51ZM42.81,72.22c.19-.25.29-.59.29-1.03s-.1-.78-.29-1.03-.45-.37-.76-.37-.58.13-.77.38c-.19.25-.28.6-.28,1.03s.09.78.28,1.03c.19.25.44.38.77.38s.57-.12.76-.37ZM46.17,69.39h.57l-4.64,6.79h-.57l4.64-6.79ZM45.11,75.73c-.28-.34-.43-.78-.43-1.33s.14-.99.43-1.33c.28-.34.65-.51,1.11-.51s.83.17,1.11.51c.28.34.42.78.42,1.33s-.14.99-.42,1.33c-.28.34-.65.51-1.11.51s-.82-.17-1.11-.51ZM46.98,75.42c.19-.25.28-.6.28-1.03s-.09-.78-.28-1.03c-.19-.25-.44-.38-.77-.38s-.57.12-.76.37c-.19.25-.29.59-.29,1.03s.1.78.29,1.03.44.37.76.37.58-.13.77-.38Z"/>
  </g>
  <g>
    <path class="cls-3" d="M49.45,89.8h-1.6v1.57h-.54v-1.57h-1.6v-.51h1.6v-1.58h.54v1.58h1.6v.51Z"/>
    <path class="cls-3" d="M55.71,90.98h-1.21v1.59h-.62v-1.59h-3.41v-.45l3.2-4h.69l-3.09,3.9h2.62v-1.4h.6v1.4h1.21v.55Z"/>
    <path class="cls-3" d="M57.25,91.8c.09.09.13.2.13.33,0,.07-.01.14-.03.22-.02.08-.05.17-.09.28l-.36,1.19h-.41l.29-1.25c-.09-.03-.17-.08-.22-.16s-.09-.17-.09-.28c0-.13.04-.24.13-.33s.2-.13.33-.13.24.04.33.13Z"/>
    <path class="cls-3" d="M59.34,92.24c-.37-.25-.65-.6-.85-1.07-.2-.46-.31-1.01-.31-1.63s.1-1.17.31-1.63c.2-.46.49-.82.85-1.07s.78-.37,1.25-.37.88.12,1.25.37c.37.25.65.6.86,1.07.21.46.31,1.01.31,1.63s-.1,1.17-.31,1.63c-.21.46-.49.82-.86,1.07-.36.25-.78.37-1.25.37s-.88-.12-1.25-.37ZM61.52,91.75c.27-.2.48-.48.63-.85.15-.37.22-.83.22-1.35s-.07-.98-.22-1.35c-.15-.37-.36-.66-.63-.85-.27-.2-.58-.29-.93-.29s-.66.1-.93.29c-.27.2-.48.48-.63.85-.15.37-.22.83-.22,1.35s.07.98.22,1.35c.15.37.36.66.63.85.27.2.58.29.93.29s.66-.1.93-.29Z"/>
    <path class="cls-3" d="M65.05,92.24c-.37-.25-.65-.6-.85-1.07-.2-.46-.31-1.01-.31-1.63s.1-1.17.31-1.63c.2-.46.49-.82.85-1.07s.78-.37,1.25-.37.88.12,1.25.37c.37.25.65.6.86,1.07.21.46.31,1.01.31,1.63s-.1,1.17-.31,1.63c-.21.46-.49.82-.86,1.07-.36.25-.78.37-1.25.37s-.88-.12-1.25-.37ZM67.23,91.75c.27-.2.48-.48.63-.85.15-.37.22-.83.22-1.35s-.07-.98-.22-1.35c-.15-.37-.36-.66-.63-.85-.27-.2-.58-.29-.93-.29s-.66.1-.93.29c-.27.2-.48.48-.63.85-.15.37-.22.83-.22,1.35s.07.98.22,1.35c.15.37.36.66.63.85.27.2.58.29.93.29s.66-.1.93-.29Z"/>
    <path class="cls-3" d="M69.89,89.31c-.25-.3-.38-.7-.38-1.19s.12-.88.38-1.19.58-.45.99-.45.73.15.98.45.38.7.38,1.19-.13.89-.38,1.19c-.25.3-.58.45-.98.45s-.74-.15-.99-.45ZM71.56,89.04c.17-.22.25-.53.25-.92s-.08-.7-.25-.92-.4-.33-.68-.33-.51.11-.68.34c-.17.22-.25.53-.25.91s.08.69.25.91c.17.22.39.34.68.34s.51-.11.68-.33ZM74.54,86.52h.51l-4.12,6.04h-.51l4.12-6.04ZM73.6,92.15c-.25-.3-.38-.7-.38-1.19s.13-.88.38-1.19.58-.45.98-.45.74.15.99.45.38.7.38,1.19-.13.88-.38,1.19-.58.45-.99.45-.73-.15-.98-.45ZM75.26,91.88c.17-.22.25-.53.25-.91s-.08-.69-.25-.91-.39-.34-.68-.34-.51.11-.68.33c-.17.22-.25.53-.25.92s.08.7.25.92c.17.22.4.33.68.33s.51-.11.68-.34Z"/>
  </g>
</svg>