<?xml version="1.0" encoding="UTF-8"?>
<svg id="Calque_1" data-name="Calque 1" xmlns="http://www.w3.org/2000/svg" xmlns:xlink="http://www.w3.org/1999/xlink" viewBox="0 0 550.07 419.88">
  <defs>
    <style>
      .cls-1 {
        fill: #be6268;
      }

      .cls-2 {
        fill: #a8504e;
      }

      .cls-3 {
        fill: #121220;
      }

      .cls-4 {
        fill: #f2e8cf;
      }

      .cls-5 {
        fill: #fff;
      }

      .cls-6 {
        fill: #335e91;
      }

      .cls-7 {
        clip-path: url(#clippath-1);
      }

      .cls-8 {
        fill: #eedc8d;
      }

      .cls-9 {
        fill: #fdf7f0;
      }

      .cls-10 {
        stroke: #eee2d7;
        stroke-miterlimit: 10;
        stroke-width: 1.07px;
      }

      .cls-10, .cls-11 {
        fill: none;
      }

      .cls-11 {
        stroke: #d16564;
        stroke-linecap: round;
        stroke-linejoin: round;
        stroke-width: .53px;
      }

      .cls-12 {
        fill: #1a1a1a;
      }

      .cls-13 {
        fill: #2d5984;
      }

      .cls-14 {
        fill: #173861;
      }

      .cls-15 {
        fill: #09090e;
      }

      .cls-16 {
        fill: #bc4749;
      }

      .cls-17 {
        fill: #e3e2e2;
      }

      .cls-18 {
        fill: #bc474a;
      }

      .cls-19 {
        clip-path: url(#clippath-2);
      }

      .cls-20 {
        fill: #183e71;
      }

      .cls-21 {
        fill: #f8af3c;
      }

      .cls-22 {
        clip-path: url(#clippath);
      }

      .cls-23 {
        fill: #a5c858;
      }

      .cls-24 {
        fill: #eeca4a;
      }

      .cls-25 {
        fill: #e4e3e3;
      }

      .cls-26 {
        fill: #402612;
      }

      .cls-27 {
        fill: #f3a295;
      }
    </style>
    <clipPath id="clippath">
      <path class="cls-27" d="M96.54,215.06c.1-.86-.5-1.65-1.34-1.75s-1.61.51-1.71,1.38c0,.03,0,.06,0,.1l-1.15,10.04c-.1.86.5,1.64,1.34,1.75h0c.84.1,1.6-.51,1.7-1.37l1.15-10.04s.01-.06.02-.1Z"/>
    </clipPath>
    <clipPath id="clippath-1">
      <path class="cls-27" d="M294.14,332.68c.1-.86-.5-1.65-1.34-1.75s-1.61.51-1.71,1.38c0,.03,0,.06,0,.1l-1.15,10.04c-.1.86.5,1.64,1.34,1.75h0c.84.1,1.6-.51,1.7-1.37l1.15-10.04s.01-.06.02-.1Z"/>
    </clipPath>
    <clipPath id="clippath-2">
      <path class="cls-27" d="M489.94,348.08c.1-.86-.5-1.65-1.34-1.75s-1.61.51-1.71,1.38c0,.03,0,.06,0,.1l-1.15,10.04c-.1.86.5,1.64,1.34,1.75h0c.84.1,1.6-.51,1.7-1.37l1.15-10.04s.01-.06.02-.1Z"/>
    </clipPath>
  </defs>
  <g>
    <g>
      <path class="cls-26" d="M81.14,410.91l-1.68,8.4h-1.94l1.37-6.84h-1.68l.31-1.56h3.62Z"/>
      <path class="cls-26" d="M89.54,415.66l2.22,3.65h-2.17l-1.54-2.51-1.14.95-.31,1.56h-1.87l1.77-8.9h1.87l-1,4.98,3.09-2.53h2.43l-3.37,2.81Z"/>
      <path class="cls-26" d="M104.1,414.94c0,.25-.02.5-.08.79l-.71,3.57h-1.87l.68-3.44c.04-.18.05-.34.05-.49,0-.65-.35-1-1.02-1-.86,0-1.46.5-1.69,1.62l-.66,3.31h-1.87l.68-3.44c.04-.18.05-.34.05-.48,0-.66-.35-1.01-1.02-1.01-.88,0-1.46.5-1.7,1.64l-.65,3.29h-1.87l1.28-6.45h1.77l-.14.67c.56-.52,1.27-.77,2.03-.77.89,0,1.62.36,1.98,1.06.62-.68,1.46-1.06,2.46-1.06,1.38,0,2.3.76,2.3,2.18Z"/>
    </g>
    <g>
      <path class="cls-26" d="M276.49,412.9l-.46,1.59h.5c2.1,0,3.14.86,3.14,2.3,0,1.88-1.61,3.08-3.89,3.08-1.25,0-2.35-.35-3.08-.97l.94-1.43c.55.48,1.38.77,2.27.77,1.15,0,1.8-.44,1.8-1.22,0-.6-.46-.96-1.63-.96h-2.28l1.37-4.73h5.13l-.32,1.56h-3.49Z"/>
      <path class="cls-26" d="M288.54,416.09l2.22,3.65h-2.17l-1.54-2.51-1.14.95-.31,1.56h-1.87l1.78-8.9h1.87l-1,4.98,3.09-2.53h2.43l-3.37,2.81Z"/>
      <path class="cls-26" d="M303.1,415.37c0,.25-.02.5-.08.79l-.71,3.57h-1.87l.68-3.44c.04-.18.05-.34.05-.49,0-.65-.35-1-1.02-1-.86,0-1.46.5-1.69,1.62l-.66,3.31h-1.87l.68-3.44c.04-.18.05-.34.05-.48,0-.66-.35-1.01-1.02-1.01-.88,0-1.46.5-1.7,1.64l-.65,3.29h-1.87l1.28-6.45h1.78l-.14.67c.56-.52,1.27-.77,2.03-.77.89,0,1.62.36,1.98,1.06.62-.68,1.46-1.06,2.46-1.06,1.38,0,2.3.76,2.3,2.18Z"/>
    </g>
    <g>
      <path class="cls-26" d="M475.31,411.05l-1.68,8.4h-1.94l1.37-6.84h-1.68l.31-1.56h3.62Z"/>
      <path class="cls-26" d="M475.82,416.41c0-3.03,1.78-5.5,4.38-5.5,1.86,0,3.03,1.17,3.03,3.18,0,3.03-1.78,5.5-4.38,5.5-1.86,0-3.03-1.17-3.03-3.18ZM481.28,414.14c0-1.09-.48-1.58-1.26-1.58-1.47,0-2.24,2.25-2.24,3.81,0,1.09.48,1.58,1.26,1.58,1.48,0,2.24-2.25,2.24-3.81Z"/>
      <path class="cls-26" d="M491.84,415.8l2.22,3.65h-2.17l-1.54-2.51-1.14.95-.31,1.56h-1.87l1.78-8.9h1.87l-1,4.98,3.09-2.53h2.43l-3.37,2.81Z"/>
      <path class="cls-26" d="M506.41,415.08c0,.25-.02.5-.08.79l-.71,3.57h-1.87l.68-3.44c.04-.18.05-.34.05-.49,0-.65-.35-1-1.02-1-.86,0-1.46.5-1.69,1.62l-.66,3.31h-1.87l.68-3.44c.04-.18.05-.34.05-.48,0-.66-.35-1.01-1.02-1.01-.88,0-1.46.5-1.7,1.64l-.65,3.29h-1.87l1.28-6.45h1.78l-.14.67c.56-.52,1.27-.77,2.03-.77.89,0,1.62.36,1.98,1.06.62-.68,1.46-1.06,2.46-1.06,1.38,0,2.3.76,2.3,2.18Z"/>
    </g>
    <path class="cls-26" d="M17.31,416.56c0-3.03,1.77-5.5,4.38-5.5,1.86,0,3.03,1.17,3.03,3.18,0,3.03-1.78,5.5-4.38,5.5-1.86,0-3.03-1.17-3.03-3.18ZM22.77,414.28c0-1.09-.48-1.58-1.26-1.58-1.48,0-2.24,2.25-2.24,3.81,0,1.09.48,1.58,1.26,1.58,1.48,0,2.24-2.25,2.24-3.81Z"/>
  </g>
  <g>
    <g>
      <path class="cls-26" d="M3.9,329.34h3.53l-.31,1.58H.76l.25-1.26,3.83-3c.95-.76,1.24-1.2,1.24-1.75s-.42-.92-1.24-.92c-.67,0-1.32.31-1.79.88l-1.31-.95c.67-.92,1.93-1.54,3.38-1.54,1.77,0,2.94.95,2.94,2.25,0,1-.46,1.83-1.93,2.97l-2.23,1.73Z"/>
      <path class="cls-26" d="M11.61,324.08l-.46,1.59h.5c2.1,0,3.14.86,3.14,2.3,0,1.88-1.61,3.08-3.89,3.08-1.25,0-2.35-.35-3.08-.97l.94-1.43c.55.48,1.38.77,2.27.77,1.15,0,1.8-.44,1.8-1.22,0-.6-.46-.96-1.63-.96h-2.28l1.37-4.73h5.13l-.32,1.56h-3.49Z"/>
      <path class="cls-26" d="M19.51,325.16c0-1.51.9-2.73,2.4-2.73,1.09,0,1.82.7,1.82,1.89,0,1.51-.89,2.73-2.4,2.73-1.09,0-1.82-.7-1.82-1.89ZM26.98,322.52h1.51l-7.32,8.4h-1.52l7.33-8.4ZM22.52,324.4c0-.68-.3-.98-.72-.98-.77,0-1.08.94-1.08,1.68,0,.68.3.98.72.98.77,0,1.08-.94,1.08-1.68ZM24.43,329.12c0-1.51.9-2.72,2.39-2.72,1.1,0,1.83.7,1.83,1.89,0,1.51-.89,2.72-2.4,2.72-1.1,0-1.82-.7-1.82-1.89ZM27.44,328.35c0-.67-.3-.98-.72-.98-.77,0-1.09.95-1.09,1.69,0,.67.3.98.73.98.76,0,1.08-.95,1.08-1.69Z"/>
    </g>
    <g>
      <path class="cls-26" d="M3.78,215.73l-.46,1.59h.5c2.1,0,3.14.86,3.14,2.3,0,1.88-1.61,3.08-3.89,3.08-1.25,0-2.35-.35-3.08-.97l.94-1.43c.55.48,1.38.77,2.27.77,1.15,0,1.8-.44,1.8-1.22,0-.6-.46-.96-1.63-.96H1.09l1.37-4.73h5.13l-.32,1.56h-3.49Z"/>
      <path class="cls-26" d="M7.94,219.53c0-3.03,1.77-5.5,4.38-5.5,1.86,0,3.03,1.17,3.03,3.18,0,3.03-1.78,5.5-4.38,5.5-1.86,0-3.03-1.17-3.03-3.18ZM13.4,217.25c0-1.09-.48-1.58-1.26-1.58-1.48,0-2.24,2.25-2.24,3.81,0,1.09.48,1.58,1.26,1.58,1.48,0,2.24-2.25,2.24-3.81Z"/>
      <path class="cls-26" d="M19.81,216.81c0-1.51.9-2.73,2.4-2.73,1.09,0,1.82.7,1.82,1.89,0,1.51-.89,2.73-2.4,2.73-1.09,0-1.82-.7-1.82-1.89ZM27.28,214.17h1.51l-7.32,8.4h-1.52l7.33-8.4ZM22.82,216.04c0-.68-.3-.98-.72-.98-.77,0-1.08.94-1.08,1.68,0,.68.3.98.72.98.77,0,1.08-.94,1.08-1.68ZM24.73,220.77c0-1.51.9-2.72,2.39-2.72,1.1,0,1.83.7,1.83,1.89,0,1.51-.89,2.72-2.4,2.72-1.1,0-1.82-.7-1.82-1.89ZM27.74,220c0-.67-.3-.98-.72-.98-.77,0-1.09.95-1.09,1.69,0,.67.3.98.73.98.76,0,1.08-.95,1.08-1.69Z"/>
    </g>
    <g>
      <path class="cls-26" d="M8.32,107.67l-.25,1.26-4.49,7.14H1.43l4.31-6.81h-2.72l-.28,1.37h-1.73l.59-2.95h6.73Z"/>
      <path class="cls-26" d="M11.01,109.23l-.46,1.59h.5c2.1,0,3.14.86,3.14,2.3,0,1.88-1.61,3.08-3.89,3.08-1.25,0-2.35-.35-3.08-.97l.94-1.43c.55.48,1.38.77,2.27.77,1.15,0,1.8-.44,1.8-1.22,0-.6-.46-.96-1.63-.96h-2.28l1.37-4.73h5.13l-.32,1.56h-3.49Z"/>
      <path class="cls-26" d="M18.91,110.31c0-1.51.9-2.73,2.4-2.73,1.09,0,1.82.7,1.82,1.89,0,1.51-.89,2.73-2.4,2.73-1.09,0-1.82-.7-1.82-1.89ZM26.38,107.67h1.51l-7.32,8.4h-1.52l7.33-8.4ZM21.92,109.55c0-.68-.3-.98-.72-.98-.77,0-1.08.94-1.08,1.68,0,.68.3.98.72.98.77,0,1.08-.94,1.08-1.68ZM23.83,114.27c0-1.51.9-2.72,2.39-2.72,1.1,0,1.83.7,1.83,1.89,0,1.51-.89,2.72-2.4,2.72-1.1,0-1.82-.7-1.82-1.89ZM26.84,113.5c0-.67-.3-.98-.72-.98-.77,0-1.09.95-1.09,1.69,0,.67.3.98.73.98.76,0,1.08-.95,1.08-1.69Z"/>
    </g>
    <g>
      <path class="cls-26" d="M4.74.14l-1.68,8.4h-1.94L2.48,1.7H.8L1.11.14h3.62Z"/>
      <path class="cls-26" d="M5.26,5.5c0-3.03,1.77-5.5,4.38-5.5,1.86,0,3.03,1.17,3.03,3.18,0,3.03-1.78,5.5-4.38,5.5-1.86,0-3.03-1.17-3.03-3.18ZM10.71,3.23c0-1.09-.48-1.58-1.26-1.58-1.48,0-2.24,2.25-2.24,3.81,0,1.09.48,1.58,1.26,1.58,1.48,0,2.24-2.25,2.24-3.81Z"/>
      <path class="cls-26" d="M13.39,5.5c0-3.03,1.77-5.5,4.38-5.5,1.86,0,3.03,1.17,3.03,3.18,0,3.03-1.78,5.5-4.38,5.5-1.86,0-3.03-1.17-3.03-3.18ZM18.85,3.23c0-1.09-.48-1.58-1.26-1.58-1.48,0-2.24,2.25-2.24,3.81,0,1.09.48,1.58,1.26,1.58,1.48,0,2.24-2.25,2.24-3.81Z"/>
      <path class="cls-26" d="M25.26,2.78c0-1.51.9-2.73,2.4-2.73,1.09,0,1.82.7,1.82,1.89,0,1.51-.89,2.73-2.4,2.73-1.09,0-1.82-.7-1.82-1.89ZM32.73.14h1.51l-7.32,8.4h-1.52L32.73.14ZM28.27,2.01c0-.68-.3-.98-.72-.98-.77,0-1.08.94-1.08,1.68,0,.68.3.98.72.98.77,0,1.08-.94,1.08-1.68ZM30.18,6.74c0-1.51.9-2.72,2.39-2.72,1.1,0,1.83.7,1.83,1.89,0,1.51-.89,2.72-2.4,2.72-1.1,0-1.82-.7-1.82-1.89ZM33.19,5.97c0-.67-.3-.98-.72-.98-.77,0-1.09.95-1.09,1.69,0,.67.3.98.73.98.76,0,1.08-.95,1.08-1.69Z"/>
    </g>
  </g>
  <g>
    <path class="cls-23" d="M124.95,372.44h24.77c2.93,0,5.31,1.65,5.31,3.68v25.79c0,2.03-2.38,3.68-5.31,3.68h-24.77c-2.93,0-5.31-1.65-5.31-3.68v-25.79c0-2.03,2.38-3.68,5.31-3.68Z"/>
    <path class="cls-4" d="M85.64,265.62h24.77c2.93,0,5.31,1.65,5.31,3.68v132.61c0,2.03-2.38,3.68-5.31,3.68h-24.77c-2.93,0-5.31-1.65-5.31-3.68v-132.61c0-2.03,2.38-3.68,5.31-3.68Z"/>
    <path class="cls-16" d="M46.33,221.41h24.77c2.93,0,5.31,1.65,5.31,3.68v176.81c0,2.03-2.38,3.68-5.31,3.68h-24.77c-2.93,0-5.31-1.65-5.31-3.68v-176.81c0-2.03,2.38-3.68,5.31-3.68Z"/>
    <g>
      <path class="cls-26" d="M42.7,211.73v10.01s.07.67.45.77,3.21,0,3.21,0c0,0,.55-.02.65-.58.1-.57,0-10.2,0-10.2,0,0,0-1.04-.32-1.1s-3.48,0-3.48,0c0,0-.52.13-.52,1.1Z"/>
      <path class="cls-26" d="M74.32,211.73v10.01s-.07.67-.45.77-3.17,0-3.17,0c0,0-.55-.02-.64-.58s0-10.2,0-10.2c0,0,0-1.04.31-1.1s3.44,0,3.44,0c0,0,.51.13.51,1.1Z"/>
      <path class="cls-26" d="M71.49,203.15l.29.84.27-.11s.03-.09.3,0c.38.05,1.98.14,2.4,0,.42-.14.82-.21.62-.81-.32-.59-.45-1.29-1.08-1.45-.76-.14-1.8-.25-1.93-.22-.1.12-.15.26-.14.38s-.02,1.15-.02,1.17-.16.26-.71.21Z"/>
      <path class="cls-26" d="M45.16,203.14l-.29.84-.27-.11s-.03-.09-.3,0c-.39.05-1.99.14-2.41,0s-.83-.21-.63-.8c.32-.59.45-1.29,1.08-1.45.77-.14,1.8-.25,1.94-.22.1.12.15.26.15.38s.02,1.15.02,1.17.16.26.71.21Z"/>
      <path class="cls-1" d="M74.11,206.67s0,.08,0,.11c-.01.6-.02,1.18-.03,1.73h0c-.09,2.55-.26,6.98-.37,8.01-.02.15-.06.28-.1.39-.26.44-.37.59-1.13.65-.28.02-.65.03-1.14.03-3.11-.08-25.15.23-26.49,0-.94,0-1.34-.03-1.44-1.46-.04-.59-.12-1.91-.21-3.41h0c-.12-1.89-.27-4.07-.43-5.5-.02-.19-.04-.36-.06-.52.15-.28,1-1.89,2.11-3.54.54-1.48,3.64-10.33,3.64-10.33,3.68-.98,16.49-1.11,18.93,0,2.24,3.28,3.71,8.61,4.15,9.94.6,1.4,2.21,2.5,2.58,3.9Z"/>
      <path class="cls-17" d="M46.18,203.14s21.4-.31,24.45,0c-.13-1.92-2.24-7.32-3.31-9.31-1.47-.65-14.91-.55-18.39,0-1.3,2.06-2.74,9.31-2.74,9.31Z"/>
      <path class="cls-1" d="M46.18,203.14s23.03-.22,24.45,0,.86,4,.86,4l-5.86,2.89-17.09-.62-2.5-6.14.13-.13"/>
      <path class="cls-18" d="M48.4,203.29s-6.38-.11,2.85,3.78h14.54s8.24-3.8,3.12-3.78c3.75-.16,3.69.76-2.88,4.04h-15c-.76-.23-10.42-4.39-2.63-4.03Z"/>
      <g>
        <path class="cls-24" d="M50.66,210.34c-1-1.87-.32-3.07-5.75-3.35-.48-.05-1.44-.19-1.12,1.44s.82,2.77,6.87,1.91Z"/>
        <path class="cls-8" d="M50.24,210.03s-5.7-1.51-6.2-2.18c0-.76.69-1.11,4.5,0,.67.33,1.3,1.24,1.71,2.18Z"/>
      </g>
      <g>
        <path class="cls-24" d="M66.18,210.34c1-1.87.32-3.07,5.73-3.35.48-.05,1.43-.19,1.12,1.44s-.82,2.77-6.85,1.91Z"/>
        <path class="cls-8" d="M66.59,210.03s5.68-1.51,6.18-2.18c0-.76-.68-1.11-4.48,0-.67.33-1.3,1.24-1.7,2.18Z"/>
      </g>
      <path class="cls-18" d="M74.11,206.57s-.02.81-.06,2h0c-.09,2.82-.26,7.72-.37,8.86-.02.17-.06.31-.1.43-.27.78-.86.77-1.13.72-.08-.02-.14-.04-.14-.04,0,0-26.5.14-27.66,0-1.17-.14-1.07-1.12-1.07-1.12l-.35-4.21h0s-.52-6.33-.52-6.33c0,0,.03.09.09.25.26.69,1.04,2.62,1.61,3.39.3.86,1.87,1.19,1.87,1.19,0,0,22.82.32,24.39.22,1.57-.11,1.67-.83,1.67-.83l1.73-4.44.04-.09Z"/>
      <path class="cls-26" d="M45.31,217.54l25.53-.27s1.78.3,2.07-.66.54-2.04.54-2.04c0,0,.31-1.35-1.09-.85-1.49.36-5.6.94-5.6.94,0,0-7.49.82-8.07.73-.62.02-9.7-.89-10.37-1.03-.78-.11-3.01-.55-3.01-.55,0,0-1.65-.64-1.38.76.16,1.49.4,2.4.4,2.4,0,0,.42.58.98.57Z"/>
      <path class="cls-26" d="M52.87,207.85c1.05-.1,10.9-.09,11.27,0,.37.09,2.12-.27,1.39,2.25-.35,1.29-.62,2.28-2.89,2.3s-8.24,0-8.24,0c0,0-1.86.33-2.61-2.01-.52-1.84.03-2.44,1.09-2.54Z"/>
      <g>
        <rect x="54.34" y="207.96" width="1.09" height="4.27"/>
        <rect x="55.86" y="207.96" width="1.09" height="4.27"/>
        <rect x="57.37" y="207.96" width="1.09" height="4.27"/>
        <rect x="58.86" y="207.96" width="1.09" height="4.27"/>
        <rect x="60.37" y="207.96" width="1.09" height="4.27"/>
        <rect x="61.85" y="207.96" width="1.09" height="4.27"/>
        <path d="M63.37,208.02v4.15s1.87-.25,1.82-2.94c-.13-.64-.07-1.23-1.82-1.2Z"/>
        <path d="M53.88,208.03v4.15s-1.91-.25-1.85-2.94c.14-.64.07-1.23,1.85-1.2Z"/>
      </g>
    </g>
    <g>
      <g>
        <path class="cls-21" d="M96.18,218.47l-4.96-1.2s1.09-6.5,0-13.34l4.96-.43v14.98Z"/>
        <path class="cls-21" d="M98.64,203.62c0,2.19-1.66,3.97-3.71,3.97s-3.71-1.78-3.71-3.97,1.66-3.68,3.71-3.68,3.71,1.49,3.71,3.68Z"/>
        <g>
          <path class="cls-27" d="M94.86,212.69h0c-.77-.04-1.35-.71-1.31-1.5l.22-4.15,2.77.15-.22,4.15c-.04.79-.69,1.39-1.46,1.35Z"/>
          <path class="cls-12" d="M94.28,207.47s.38,2.12,2.09,2.86l.06-1.22-2.15-1.64"/>
        </g>
        <g>
          <path class="cls-27" d="M96.61,209.31h0c-1.43,0-2.45-1.13-2.45-2.53v-4.57l2.4-.24c.89,0,2.09,1.26,2.09,2.13v3.14c-.19,1.31-.99,2.06-2.03,2.06Z"/>
          <path class="cls-27" d="M98.32,204.84l.8,1.38c.1.14,0,.33-.18.33h-1.07s.45-1.71.45-1.71Z"/>
        </g>
        <polygon class="cls-21" points="93.8 204.86 94.18 205.88 94.52 203.42 93.28 203.5 93.8 204.86"/>
        <path class="cls-21" d="M99.04,203.78s-.4-3.12-3.16-3.73c0,0-.69.15-1.24,1.19-.24.25-.57.86-.7,1.71-.19,1.3.29,1.25.29,1.25,0,0,1.14-.44,1.08-1.89.47.63,1.43,1.68,3.74,1.47Z"/>
        <path class="cls-21" d="M94.23,206.71s-.35,1.41-.94,1.22l.24-.97.7-.24Z"/>
        <g>
          <path class="cls-27" d="M94.06,206.99c-.68.47-1.86-1.66-1.19-2.17.66-.5,1.2.63,1.2.63l.11.42.05.83v.2l-.17.09Z"/>
          <g>
            <path class="cls-11" d="M93.11,205.46s.45-.15.77.52"/>
            <path class="cls-11" d="M93.66,205.65s-.49.27-.17.67"/>
          </g>
        </g>
        <g>
          <path class="cls-12" d="M98.23,205.04c0,.15-.12.28-.27.28s-.27-.12-.27-.28.12-.28.27-.28.27.12.27.28Z"/>
          <path d="M96.71,204.59s.83-.26,1.66-.31c0,0-.26-.46-.78-.33-.52.12-.88.64-.88.64Z"/>
          <path class="cls-11" d="M97.68,207.09s.43.16.96.16"/>
        </g>
      </g>
      <g>
        <g>
          <g>
            <g>
              <path class="cls-14" d="M99.78,232.15c-.63-1.64-2.43-2.44-4.03-1.8-1.6.64-2.38,2.49-1.75,4.13.02.05.05.11.07.16.01.03.02.07.03.1l5.36,11.47c.54,1.4,2.08,2.09,3.45,1.54h0c1.37-.55,2.04-2.13,1.5-3.54l-4.53-11.81s-.04-.08-.06-.13c-.01-.04-.03-.09-.04-.13Z"/>
              <path class="cls-14" d="M97.46,226.7l-5.26,1.77s-1.95,2.7,1.76,6.57l2.91-.98.08-.03,3.15-1.06c-1.66-5.3-2.63-6.28-2.63-6.28Z"/>
            </g>
            <g>
              <g>
                <polygon class="cls-27" points="102.11 259.99 101.68 263.47 99.18 263.31 99.39 259.82 102.11 259.99"/>
                <g>
                  <path class="cls-15" d="M98.93,262.94l-.16,2.12,7.79.5v-.06c.03-.49-.21-.95-.63-1.19l-3.72-1.81c-.13-.08-.31-.08-.42.02-.53.5-1.12,1.34-2.57.3-.11-.08-.25,0-.28.12Z"/>
                  <polygon class="cls-5" points="106.52 266.12 98.73 265.62 98.77 265.06 106.55 265.57 106.52 266.12"/>
                </g>
              </g>
              <g>
                <path class="cls-14" d="M101.93,242.13h0c-1.46-.09-2.73,1.05-2.82,2.55l-.98,16.05,5.3.34.98-16.05c.09-1.5-1.02-2.8-2.48-2.89Z"/>
                <polygon class="cls-13" points="103.89 258.62 98.28 258.26 98.13 260.72 103.74 261.09 103.89 258.62"/>
              </g>
            </g>
          </g>
          <g>
            <g>
              <path class="cls-20" d="M97.42,232.61c.19-1.75-1.04-3.33-2.74-3.52s-3.24,1.06-3.43,2.81c0,.06,0,.12-.01.17,0,.03-.02.07-.02.1l-.48,12.71c-.16,1.5.89,2.84,2.35,3.01h0c1.46.17,2.77-.91,2.94-2.41l1.37-12.61s0-.09,0-.14c0-.05.02-.09.02-.14Z"/>
              <path class="cls-20" d="M97.97,226.54l-5.5-.63s-2.87,1.63-1.05,6.73l3.04.35h.09s2.8.33,2.8.33c.74-5.25.63-6.78.63-6.78Z"/>
            </g>
            <g>
              <g>
                <polygon class="cls-27" points="93.01 260.34 92.42 263.79 89.93 263.51 90.31 260.03 93.01 260.34"/>
                <g>
                  <path class="cls-3" d="M89.7,263.13l-.26,2.11,7.75.89v-.06c.06-.49-.17-.96-.57-1.22l-3.63-1.99c-.13-.08-.31-.1-.42,0-.55.48-1.18,1.28-2.58.17-.1-.08-.25-.02-.29.1Z"/>
                  <polygon class="cls-5" points="97.13 266.68 89.38 265.79 89.44 265.24 97.19 266.12 97.13 266.68"/>
                </g>
              </g>
              <g>
                <path class="cls-20" d="M95.17,242.66l-2.99-.34c-.63-.07-1.2.4-1.27,1.05l-1.9,17.51,5.28.6,1.9-17.51c.07-.65-.39-1.24-1.02-1.31Z"/>
                <polygon class="cls-6" points="94.85 259.05 89.27 258.41 89 260.87 94.59 261.51 94.85 259.05"/>
              </g>
            </g>
          </g>
        </g>
        <g>
          <g>
            <path class="cls-27" d="M95.11,224.52c-.38-.78-1.31-1.09-2.06-.7-.76.39-1.06,1.34-.68,2.12.01.03.03.06.05.08l5.23,9.51,1.35-.97-3.85-9.96s-.02-.06-.04-.09Z"/>
            <path class="cls-27" d="M98.1,234.09c-.6.16-.67.51-.65.92h0s0,0,0,0c.07,2.29.47,3.31.66,4.14.2.87,1.21,2.08,1.5,1.87.29-.21-.08-.78-.4-1.17s-.31-1.26-.31-2.04c0-.78.24-.63.24-.63l.39.58c.14.22.41.27.57.1.12-.12.12-.31.05-.47l-1.19-2.88s-.24-.6-.88-.43Z"/>
          </g>
          <g>
            <g>
              <path class="cls-27" d="M96.54,215.06c.1-.86-.5-1.65-1.34-1.75s-1.61.51-1.71,1.38c0,.03,0,.06,0,.1l-1.15,10.04c-.1.86.5,1.64,1.34,1.75h0c.84.1,1.6-.51,1.7-1.37l1.15-10.04s.01-.06.02-.1Z"/>
              <g class="cls-22">
                <path class="cls-9" d="M96.72,218.2s-2.43-.22-4.17-1.71c0,0,.55-4.28,3.03-3.59,2.49.68,1.14,5.3,1.14,5.3Z"/>
              </g>
            </g>
            <line class="cls-10" x1="96.19" y1="218.08" x2="96.54" y2="215.06"/>
            <line class="cls-10" x1="93.16" y1="217" x2="93.48" y2="214.32"/>
          </g>
        </g>
      </g>
      <g>
        <path class="cls-9" d="M99.41,216.49c-.02-1.18-1.01-2.87-1.32-3.45,0-.02-.04-.03-.09-.04-.52-.86-1.45-1.44-2.51-1.44h-.66c-2.41,0-3.78,2.73-3.47,5.75.36,3.48,1.19,9.25,1.19,9.25h5.54s.21-3.65.31-7.56c.59-.73,1.03-1.59,1.01-2.51Z"/>
        <path class="cls-27" d="M92.97,212.21s1.86-.65,4.92.62c0,0-.64-.96-1.95-1.5-1.14-.47-1.82.23-1.82.23,0,0-.58.2-1.15.65Z"/>
      </g>
    </g>
    <g>
      <path class="cls-2" d="M118.7,357.43c.12-.22.59-1.05,1.53-1.37.52-.17.97-.12,1.22-.07h33.4c.12,0,.56-.03.92.27.35.29.49.78.55,1.3.13,1.18.19,5.7.12,11.82-.12.34-.24.68-.37,1.02-1.81.3-3.62.59-5.43.89.35-.99.16-2.09-.49-2.8-.54-.6-1.38-.88-2.14-.61-.93.32-1.5,1.35-1.53,2.19-.02.63.26,1.08.06,1.3-.18.19-.58.03-.92-.14.3-.93.17-1.93-.37-2.6-.79-.98-2.24-.94-3.11-.14-1.02.94-.8,2.53-.79,2.6-3.99.02-7.98.05-11.97.07.37-1.21-.12-2.53-1.1-3.07-.96-.53-2.15-.19-2.75.75-.62.98-.28,2.13-.24,2.25-2.1-.03-3.64.05-4.76.14-.56.05-1.25.09-1.71-.41-.6-.66-.6-2.08-.18-2.32.19-.11.44.02.61.14-.04-3.32-.08-6.65-.12-9.97-.21-.02-.49,0-.67.2-.44.48.1,1.48-.31,1.91-.25.26-.75.22-1.04,0-.68-.51-.69-2.35.18-3.07.53-.44,1.21-.32,1.4-.27Z"/>
      <path class="cls-25" d="M120.75,358.78c.02,2.12.03,4.25.05,6.37-.01.4-.02.8-.03,1.2-.1.13-.2.25-.31.38l-.85-.03v-7.92c.38,0,.76.01,1.14.02Z"/>
      <g>
        <ellipse class="cls-25" cx="127.32" cy="370.38" rx="2.03" ry="2.16"/>
        <ellipse class="cls-2" cx="127.33" cy="370.49" rx="1.19" ry="1.3"/>
        <ellipse class="cls-25" cx="127.34" cy="370.5" rx=".3" ry=".34"/>
        <ellipse class="cls-25" cx="127.79" cy="370.19" rx=".15" ry=".17"/>
        <ellipse class="cls-25" cx="127.8" cy="370.8" rx=".15" ry=".17"/>
        <ellipse class="cls-25" cx="127.33" cy="371.11" rx=".15" ry=".17"/>
        <ellipse class="cls-25" cx="126.88" cy="370.8" rx=".15" ry=".17"/>
        <ellipse class="cls-25" cx="126.84" cy="370.2" rx=".15" ry=".17"/>
        <ellipse class="cls-25" cx="127.33" cy="369.9" rx=".15" ry=".17"/>
      </g>
      <g>
        <ellipse class="cls-25" cx="143.51" cy="370.46" rx="2.03" ry="2.16"/>
        <ellipse class="cls-2" cx="143.52" cy="370.57" rx="1.19" ry="1.3"/>
        <ellipse class="cls-25" cx="143.53" cy="370.58" rx=".3" ry=".34"/>
        <ellipse class="cls-25" cx="143.98" cy="370.27" rx=".15" ry=".17"/>
        <ellipse class="cls-25" cx="143.99" cy="370.88" rx=".15" ry=".17"/>
        <ellipse class="cls-25" cx="143.52" cy="371.19" rx=".15" ry=".17"/>
        <ellipse class="cls-25" cx="143.07" cy="370.88" rx=".15" ry=".17"/>
        <ellipse class="cls-25" cx="143.03" cy="370.28" rx=".15" ry=".17"/>
        <ellipse class="cls-25" cx="143.51" cy="369.97" rx=".15" ry=".17"/>
      </g>
      <g>
        <ellipse class="cls-25" cx="148.64" cy="370.49" rx="2.03" ry="2.16"/>
        <ellipse class="cls-2" cx="148.64" cy="370.59" rx="1.19" ry="1.3"/>
        <ellipse class="cls-25" cx="148.66" cy="370.61" rx=".3" ry=".34"/>
        <ellipse class="cls-25" cx="149.11" cy="370.3" rx=".15" ry=".17"/>
        <ellipse class="cls-25" cx="149.12" cy="370.9" rx=".15" ry=".17"/>
        <ellipse class="cls-25" cx="148.64" cy="371.22" rx=".15" ry=".17"/>
        <ellipse class="cls-25" cx="148.19" cy="370.9" rx=".15" ry=".17"/>
        <ellipse class="cls-25" cx="148.15" cy="370.31" rx=".15" ry=".17"/>
        <ellipse class="cls-25" cx="148.64" cy="370" rx=".15" ry=".17"/>
      </g>
      <path class="cls-25" d="M122.47,357.89c1.07.02,2.14.03,3.22.05.04,0,.07,0,.09.01.12.05.18.27.15.54,0,1.77.01,3.54.02,5.32-1.27,0-2.54,0-3.82.01.02-1.78.03-3.55.05-5.33,0-.02-.04-.4.17-.55.03-.02.06-.04.11-.05Z"/>
      <path class="cls-25" d="M122.18,364.21h3.79v3.01c-.25.21-.58.52-.89.96-.23.33-.4.66-.51.92-.03.3-.13.46-.2.55-.23.27-.49.17-1.75.08-.05,0-.17-.01-.26-.1-.15-.13-.16-.36-.16-.48,0-1.64,0-3.29-.01-4.93Z"/>
      <path class="cls-25" d="M127.64,358.49c0-.09,0-.19,0-.28,0-.03.02-.12.09-.2.1-.12.25-.1.26-.1.96,0,1.93,0,2.89.01.02,0,.2-.04.35.11.13.15.11.34.11.36,0,1.02-.01,2.05-.02,3.07v.29s0,.12-.07.2c-.04.05-.09.06-.11.06-.07,0-.14,0-.21,0-.93,0-1.86.02-2.79.03h-.19s-.13-.01-.21-.1c-.09-.09-.11-.21-.11-.24v-.22c0-.99,0-1.99.01-3.01Z"/>
      <path class="cls-25" d="M132.81,358.5c0-.09,0-.19,0-.28,0-.03.02-.12.09-.2.1-.12.25-.1.26-.1.96,0,1.93,0,2.89.01.02,0,.2-.04.35.11.13.15.11.34.11.36,0,1.02-.01,2.05-.02,3.07v.29s0,.12-.07.2c-.04.05-.09.06-.11.06-.07,0-.14,0-.21,0-.93,0-1.86.02-2.79.03h-.19s-.13-.01-.21-.1c-.09-.09-.11-.21-.11-.24v-.22c0-.99,0-1.99.01-3.01Z"/>
      <path class="cls-25" d="M137.98,358.5c0-.09,0-.19,0-.28,0-.03.02-.12.09-.2.1-.12.25-.1.26-.1.96,0,1.93,0,2.89.01.02,0,.2-.04.35.11.13.15.11.34.11.36,0,1.02-.01,2.05-.02,3.07v.29s0,.12-.07.2c-.04.05-.09.06-.11.06-.07,0-.14,0-.21,0-.93,0-1.86.02-2.79.03h-.19s-.13-.01-.21-.1c-.09-.09-.11-.21-.11-.24v-.22c0-.99,0-1.99.01-3.01Z"/>
      <path class="cls-25" d="M143.11,358.55c0-.09,0-.19,0-.28,0-.03.02-.12.09-.2.1-.12.25-.1.26-.1.96,0,1.93,0,2.89.01.02,0,.2-.04.35.11.13.15.11.34.11.36,0,1.02-.01,2.05-.02,3.07v.29s0,.12-.07.2c-.04.05-.09.06-.11.06-.07,0-.14,0-.21,0-.93,0-1.86.02-2.79.03h-.19s-.13-.01-.21-.1c-.09-.09-.11-.21-.11-.24v-.22c0-.99,0-1.99.01-3.01Z"/>
      <path class="cls-25" d="M148.28,358.5c0-.09,0-.19,0-.28,0-.03.02-.12.09-.2.1-.12.25-.1.26-.1.96,0,1.93,0,2.89.01.02,0,.2-.04.35.11.13.15.11.34.11.36,0,1.02-.01,2.05-.02,3.07v.29s0,.12-.07.2c-.04.05-.09.06-.11.06-.07,0-.14,0-.21,0-.93,0-1.86.02-2.79.03h-.19s-.13-.01-.21-.1c-.09-.09-.11-.21-.11-.24v-.22c0-.99,0-1.99.01-3.01Z"/>
      <path class="cls-25" d="M155.88,357.92c0,1.39,0,2.78.01,4.17-.22-.01-.45-.02-.67-.03-.03,0-.1,0-.17-.03-.13-.07-.16-.23-.17-.25,0-.09,0-.17-.01-.26,0-1.09.02-2.18.02-3.27,0-.04,0-.11.04-.19.03-.07.07-.11.1-.13.09,0,.17,0,.26,0,.2,0,.39,0,.59,0Z"/>
      <path class="cls-25" d="M155.88,364.17c0,.49,0,.98-.01,1.46-.18,0-.37-.01-.55-.02,0-.36,0-.71,0-1.07,0-.05,0-.1,0-.14,0-.02.02-.15.12-.21.04-.02.08-.03.1-.03.11,0,.22,0,.33,0Z"/>
      <path class="cls-25" d="M155.32,366.12h.56c0,.4,0,.8-.01,1.2-.18,0-.36,0-.53,0,0-.4-.01-.8-.02-1.2Z"/>
      <path class="cls-25" d="M155.88,367.8v1.02c-.12,0-.23,0-.34,0h-.07s-.05-.04-.08-.07c-.04-.05-.05-.1-.05-.12v-.08c0-.17-.01-.34-.02-.5v-.11s0-.06.04-.1c.03-.02.05-.03.06-.03.04,0,.07,0,.11,0,.11,0,.23,0,.34,0Z"/>
      <path class="cls-25" d="M125.71,355.86c2.5,0,5.01.02,7.51.02.04-.25.07-.68-.14-.87-.11-.09-.24-.09-.28-.09-.42,0-3.1,0-6.8.02-.07.02-.15.07-.22.16-.15.18-.17.48-.06.75Z"/>
      <path class="cls-25" d="M143.47,355.86c2.5,0,5.01.02,7.51.02.04-.25.07-.68-.14-.87-.11-.09-.24-.09-.28-.09-.42,0-3.1,0-6.8.02-.07.02-.15.07-.22.16-.15.18-.17.48-.06.75Z"/>
    </g>
  </g>
  <g>
    <path class="cls-23" d="M321.51,350.34h24.77c2.93,0,5.31,1.65,5.31,3.68v47.89c0,2.03-2.38,3.68-5.31,3.68h-24.77c-2.93,0-5.31-1.65-5.31-3.68v-47.89c0-2.03,2.38-3.68,5.31-3.68Z"/>
    <path class="cls-4" d="M282.2,383.49h24.77c2.93,0,5.31,1.65,5.31,3.68v14.73c0,2.03-2.38,3.68-5.31,3.68h-24.77c-2.93,0-5.31-1.65-5.31-3.68v-14.73c0-2.03,2.38-3.68,5.31-3.68Z"/>
    <path class="cls-16" d="M242.89,140.37h24.77c2.93,0,5.31,1.65,5.31,3.68v257.85c0,2.03-2.38,3.68-5.31,3.68h-24.77c-2.93,0-5.31-1.65-5.31-3.68V144.06c0-2.03,2.38-3.68,5.31-3.68Z"/>
    <g>
      <path class="cls-26" d="M239.66,129.54v10.01s.07.67.45.77,3.21,0,3.21,0c0,0,.55-.02.65-.58.1-.57,0-10.2,0-10.2,0,0,0-1.04-.32-1.1s-3.48,0-3.48,0c0,0-.52.13-.52,1.1Z"/>
      <path class="cls-26" d="M271.28,129.54v10.01s-.07.67-.45.77-3.17,0-3.17,0c0,0-.55-.02-.64-.58s0-10.2,0-10.2c0,0,0-1.04.31-1.1s3.44,0,3.44,0c0,0,.51.13.51,1.1Z"/>
      <path class="cls-26" d="M268.44,120.96l.29.84.27-.11s.03-.09.3,0c.38.05,1.98.14,2.4,0,.42-.14.82-.21.62-.81-.32-.59-.45-1.29-1.08-1.45-.76-.14-1.8-.25-1.93-.22-.1.12-.15.26-.14.38s-.02,1.15-.02,1.17-.16.26-.71.21Z"/>
      <path class="cls-26" d="M242.11,120.95l-.29.84-.27-.11s-.03-.09-.3,0c-.39.05-1.99.14-2.41,0s-.83-.21-.63-.8c.32-.59.45-1.29,1.08-1.45.77-.14,1.8-.25,1.94-.22.1.12.15.26.15.38s.02,1.15.02,1.17.16.26.71.21Z"/>
      <path class="cls-1" d="M271.06,124.48s0,.08,0,.11c-.01.6-.02,1.18-.03,1.73h0c-.09,2.55-.26,6.98-.37,8.01-.02.15-.06.28-.1.39-.26.44-.37.59-1.13.65-.28.02-.65.03-1.14.03-3.11-.08-25.15.23-26.49,0-.94,0-1.34-.03-1.44-1.46-.04-.59-.12-1.91-.21-3.41h0c-.12-1.89-.27-4.07-.43-5.5-.02-.19-.04-.36-.06-.52.15-.28,1-1.89,2.11-3.54.54-1.48,3.64-10.33,3.64-10.33,3.68-.98,16.49-1.11,18.93,0,2.24,3.28,3.71,8.61,4.15,9.94.6,1.4,2.21,2.5,2.58,3.9Z"/>
      <path class="cls-17" d="M243.14,120.95s21.4-.31,24.45,0c-.13-1.92-2.24-7.32-3.31-9.31-1.47-.65-14.91-.55-18.39,0-1.3,2.06-2.74,9.31-2.74,9.31Z"/>
      <path class="cls-1" d="M243.14,120.95s23.03-.22,24.45,0,.86,4,.86,4l-5.86,2.89-17.09-.62-2.5-6.14.13-.13"/>
      <path class="cls-18" d="M245.36,121.1s-6.38-.11,2.85,3.78h14.54s8.24-3.8,3.12-3.78c3.75-.16,3.69.76-2.88,4.04h-15c-.76-.23-10.42-4.39-2.63-4.03Z"/>
      <g>
        <path class="cls-24" d="M247.61,128.15c-1-1.87-.32-3.07-5.75-3.35-.48-.05-1.44-.19-1.12,1.44s.82,2.77,6.87,1.91Z"/>
        <path class="cls-8" d="M247.19,127.84s-5.7-1.51-6.2-2.18c0-.76.69-1.11,4.5,0,.67.33,1.3,1.24,1.71,2.18Z"/>
      </g>
      <g>
        <path class="cls-24" d="M263.13,128.15c1-1.87.32-3.07,5.73-3.35.48-.05,1.43-.19,1.12,1.44s-.82,2.77-6.85,1.91Z"/>
        <path class="cls-8" d="M263.55,127.84s5.68-1.51,6.18-2.18c0-.76-.68-1.11-4.48,0-.67.33-1.3,1.24-1.7,2.18Z"/>
      </g>
      <path class="cls-18" d="M271.06,124.38s-.02.81-.06,2h0c-.09,2.82-.26,7.72-.37,8.86-.02.17-.06.31-.1.43-.27.78-.86.77-1.13.72-.08-.02-.14-.04-.14-.04,0,0-26.5.14-27.66,0-1.17-.14-1.07-1.12-1.07-1.12l-.35-4.21h0s-.52-6.33-.52-6.33c0,0,.03.09.09.25.26.69,1.04,2.62,1.61,3.39.3.86,1.87,1.19,1.87,1.19,0,0,22.82.32,24.39.22,1.57-.11,1.67-.83,1.67-.83l1.73-4.44.04-.09Z"/>
      <path class="cls-26" d="M242.27,135.35l25.53-.27s1.78.3,2.07-.66.54-2.04.54-2.04c0,0,.31-1.35-1.09-.85-1.49.36-5.6.94-5.6.94,0,0-7.49.82-8.07.73-.62.02-9.7-.89-10.37-1.03-.78-.11-3.01-.55-3.01-.55,0,0-1.65-.64-1.38.76.16,1.49.4,2.4.4,2.4,0,0,.42.58.98.57Z"/>
      <path class="cls-26" d="M249.82,125.66c1.05-.1,10.9-.09,11.27,0,.37.09,2.12-.27,1.39,2.25-.35,1.29-.62,2.28-2.89,2.3s-8.24,0-8.24,0c0,0-1.86.33-2.61-2.01-.52-1.84.03-2.44,1.09-2.54Z"/>
      <g>
        <rect x="251.29" y="125.77" width="1.09" height="4.27"/>
        <rect x="252.81" y="125.77" width="1.09" height="4.27"/>
        <rect x="254.33" y="125.77" width="1.09" height="4.27"/>
        <rect x="255.81" y="125.77" width="1.09" height="4.27"/>
        <rect x="257.33" y="125.77" width="1.09" height="4.27"/>
        <rect x="258.81" y="125.77" width="1.09" height="4.27"/>
        <path d="M260.32,125.83v4.15s1.87-.25,1.82-2.94c-.13-.64-.07-1.23-1.82-1.2Z"/>
        <path d="M250.84,125.84v4.15s-1.91-.25-1.85-2.94c.14-.64.07-1.23,1.85-1.2Z"/>
      </g>
    </g>
    <g>
      <g>
        <path class="cls-21" d="M293.79,336.09l-4.96-1.2s1.09-6.5,0-13.34l4.96-.43v14.98Z"/>
        <path class="cls-21" d="M296.24,321.24c0,2.19-1.66,3.97-3.71,3.97s-3.71-1.78-3.71-3.97,1.66-3.68,3.71-3.68,3.71,1.49,3.71,3.68Z"/>
        <g>
          <path class="cls-27" d="M292.46,330.31h0c-.77-.04-1.35-.71-1.31-1.5l.22-4.15,2.77.15-.22,4.15c-.04.79-.69,1.39-1.46,1.35Z"/>
          <path class="cls-12" d="M291.89,325.09s.38,2.12,2.09,2.86l.06-1.22-2.15-1.64"/>
        </g>
        <g>
          <path class="cls-27" d="M294.21,326.93h0c-1.43,0-2.45-1.13-2.45-2.53v-4.57l2.4-.24c.89,0,2.09,1.26,2.09,2.13v3.14c-.19,1.31-.99,2.06-2.03,2.06Z"/>
          <path class="cls-27" d="M295.93,322.46l.8,1.38c.1.14,0,.33-.18.33h-1.07s.45-1.71.45-1.71Z"/>
        </g>
        <polygon class="cls-21" points="291.4 322.48 291.78 323.5 292.12 321.04 290.89 321.12 291.4 322.48"/>
        <path class="cls-21" d="M296.64,321.4s-.4-3.12-3.16-3.73c0,0-.69.15-1.24,1.19-.24.25-.57.86-.7,1.71-.19,1.3.29,1.25.29,1.25,0,0,1.14-.44,1.08-1.89.47.63,1.43,1.68,3.74,1.47Z"/>
        <path class="cls-21" d="M291.83,324.33s-.35,1.41-.94,1.22l.24-.97.7-.24Z"/>
        <g>
          <path class="cls-27" d="M291.66,324.61c-.68.47-1.86-1.66-1.19-2.17.66-.5,1.2.63,1.2.63l.11.42.05.83v.2l-.17.09Z"/>
          <g>
            <path class="cls-11" d="M290.72,323.08s.45-.15.77.52"/>
            <path class="cls-11" d="M291.26,323.27s-.49.27-.17.67"/>
          </g>
        </g>
        <g>
          <path class="cls-12" d="M295.83,322.66c0,.15-.12.28-.27.28s-.27-.12-.27-.28.12-.28.27-.28.27.12.27.28Z"/>
          <path d="M294.31,322.21s.83-.26,1.66-.31c0,0-.26-.46-.78-.33-.52.12-.88.64-.88.64Z"/>
          <path class="cls-11" d="M295.28,324.71s.43.16.96.16"/>
        </g>
      </g>
      <g>
        <g>
          <g>
            <g>
              <path class="cls-14" d="M297.38,349.77c-.63-1.64-2.43-2.44-4.03-1.8-1.6.64-2.38,2.49-1.75,4.13.02.05.05.11.07.16.01.03.02.07.03.1l5.36,11.47c.54,1.4,2.08,2.09,3.45,1.54h0c1.37-.55,2.04-2.13,1.5-3.54l-4.53-11.81s-.04-.08-.06-.13c-.01-.04-.03-.09-.04-.13Z"/>
              <path class="cls-14" d="M295.07,344.32l-5.26,1.77s-1.95,2.7,1.76,6.57l2.91-.98.08-.03,3.15-1.06c-1.66-5.3-2.63-6.28-2.63-6.28Z"/>
            </g>
            <g>
              <g>
                <polygon class="cls-27" points="299.71 377.61 299.28 381.09 296.78 380.93 297 377.44 299.71 377.61"/>
                <g>
                  <path class="cls-15" d="M296.53,380.56l-.16,2.12,7.79.5v-.06c.03-.49-.21-.95-.63-1.19l-3.72-1.81c-.13-.08-.31-.08-.42.02-.53.5-1.12,1.34-2.57.3-.11-.08-.25,0-.28.12Z"/>
                  <polygon class="cls-5" points="304.12 383.74 296.34 383.24 296.37 382.68 304.16 383.19 304.12 383.74"/>
                </g>
              </g>
              <g>
                <path class="cls-14" d="M299.54,359.75h0c-1.46-.09-2.73,1.05-2.82,2.55l-.98,16.05,5.3.34.98-16.05c.09-1.5-1.02-2.8-2.48-2.89Z"/>
                <polygon class="cls-13" points="301.49 376.24 295.88 375.88 295.73 378.34 301.34 378.71 301.49 376.24"/>
              </g>
            </g>
          </g>
          <g>
            <g>
              <path class="cls-20" d="M295.02,350.23c.19-1.75-1.04-3.33-2.74-3.52s-3.24,1.06-3.43,2.81c0,.06,0,.12-.01.17,0,.03-.02.07-.02.1l-.48,12.71c-.16,1.5.89,2.84,2.35,3.01h0c1.46.17,2.77-.91,2.94-2.41l1.37-12.61s0-.09,0-.14c0-.05.02-.09.02-.14Z"/>
              <path class="cls-20" d="M295.57,344.16l-5.5-.63s-2.87,1.63-1.05,6.73l3.04.35h.09s2.8.33,2.8.33c.74-5.25.63-6.78.63-6.78Z"/>
            </g>
            <g>
              <g>
                <polygon class="cls-27" points="290.61 377.96 290.02 381.41 287.53 381.13 287.91 377.65 290.61 377.96"/>
                <g>
                  <path class="cls-3" d="M287.3,380.75l-.26,2.11,7.75.89v-.06c.06-.49-.17-.96-.57-1.22l-3.63-1.99c-.13-.08-.31-.1-.42,0-.55.48-1.18,1.28-2.58.17-.1-.08-.25-.02-.29.1Z"/>
                  <polygon class="cls-5" points="294.73 384.3 286.98 383.41 287.04 382.86 294.79 383.74 294.73 384.3"/>
                </g>
              </g>
              <g>
                <path class="cls-20" d="M292.77,360.27l-2.99-.34c-.63-.07-1.2.4-1.27,1.05l-1.9,17.51,5.28.6,1.9-17.51c.07-.65-.39-1.24-1.02-1.31Z"/>
                <polygon class="cls-6" points="292.45 376.67 286.87 376.03 286.6 378.49 292.19 379.13 292.45 376.67"/>
              </g>
            </g>
          </g>
        </g>
        <g>
          <g>
            <path class="cls-27" d="M292.71,342.14c-.38-.78-1.31-1.09-2.06-.7-.76.39-1.06,1.34-.68,2.12.01.03.03.06.05.08l5.23,9.51,1.35-.97-3.85-9.96s-.02-.06-.04-.09Z"/>
            <path class="cls-27" d="M295.7,351.71c-.6.16-.67.51-.65.92h0s0,0,0,0c.07,2.29.47,3.31.66,4.14.2.87,1.21,2.08,1.5,1.87.29-.21-.08-.78-.4-1.17s-.31-1.26-.31-2.04c0-.78.24-.63.24-.63l.39.58c.14.22.41.27.57.1.12-.12.12-.31.05-.47l-1.19-2.88s-.24-.6-.88-.43Z"/>
          </g>
          <g>
            <g>
              <path class="cls-27" d="M294.14,332.68c.1-.86-.5-1.65-1.34-1.75s-1.61.51-1.71,1.38c0,.03,0,.06,0,.1l-1.15,10.04c-.1.86.5,1.64,1.34,1.75h0c.84.1,1.6-.51,1.7-1.37l1.15-10.04s.01-.06.02-.1Z"/>
              <g class="cls-7">
                <path class="cls-9" d="M294.32,335.82s-2.43-.22-4.17-1.71c0,0,.55-4.28,3.03-3.59,2.49.68,1.14,5.3,1.14,5.3Z"/>
              </g>
            </g>
            <line class="cls-10" x1="293.79" y1="335.7" x2="294.14" y2="332.68"/>
            <line class="cls-10" x1="290.77" y1="334.62" x2="291.08" y2="331.94"/>
          </g>
        </g>
      </g>
      <g>
        <path class="cls-9" d="M297.01,334.11c-.02-1.18-1.01-2.87-1.32-3.45,0-.02-.04-.03-.09-.04-.52-.86-1.45-1.44-2.51-1.44h-.66c-2.41,0-3.78,2.73-3.47,5.75.36,3.48,1.19,9.25,1.19,9.25h5.54s.21-3.65.31-7.56c.59-.73,1.03-1.59,1.01-2.51Z"/>
        <path class="cls-27" d="M290.57,329.83s1.86-.65,4.92.62c0,0-.64-.96-1.95-1.5-1.14-.47-1.82.23-1.82.23,0,0-.58.2-1.15.65Z"/>
      </g>
    </g>
    <g>
      <path class="cls-2" d="M316.06,335.53c.12-.22.59-1.05,1.53-1.37.52-.17.97-.12,1.22-.07h33.4c.12,0,.56-.03.92.27.35.29.49.78.55,1.3.13,1.18.19,5.7.12,11.82-.12.34-.24.68-.37,1.02-1.81.3-3.62.59-5.43.89.35-.99.16-2.09-.49-2.8-.54-.6-1.38-.88-2.14-.61-.93.32-1.5,1.35-1.53,2.19-.02.63.26,1.08.06,1.3-.18.19-.58.03-.92-.14.3-.93.17-1.93-.37-2.6-.79-.98-2.24-.94-3.11-.14-1.02.94-.8,2.53-.79,2.6-3.99.02-7.98.05-11.97.07.37-1.21-.12-2.53-1.1-3.07-.96-.53-2.15-.19-2.75.75-.62.98-.28,2.13-.24,2.25-2.1-.03-3.64.05-4.76.14-.56.05-1.25.09-1.71-.41-.6-.66-.6-2.08-.18-2.32.19-.11.44.02.61.14-.04-3.32-.08-6.65-.12-9.97-.21-.02-.49,0-.67.2-.44.48.1,1.48-.31,1.91-.25.26-.75.22-1.04,0-.68-.51-.69-2.35.18-3.07.53-.44,1.21-.32,1.4-.27Z"/>
      <path class="cls-25" d="M318.1,336.87c.02,2.12.03,4.25.05,6.37-.01.4-.02.8-.03,1.2-.1.13-.2.25-.31.38l-.85-.03v-7.92c.38,0,.76.01,1.14.02Z"/>
      <g>
        <ellipse class="cls-25" cx="324.67" cy="348.48" rx="2.03" ry="2.16"/>
        <ellipse class="cls-2" cx="324.68" cy="348.58" rx="1.19" ry="1.3"/>
        <ellipse class="cls-25" cx="324.7" cy="348.59" rx=".3" ry=".34"/>
        <ellipse class="cls-25" cx="325.14" cy="348.29" rx=".15" ry=".17"/>
        <ellipse class="cls-25" cx="325.16" cy="348.89" rx=".15" ry=".17"/>
        <ellipse class="cls-25" cx="324.68" cy="349.2" rx=".15" ry=".17"/>
        <ellipse class="cls-25" cx="324.23" cy="348.89" rx=".15" ry=".17"/>
        <ellipse class="cls-25" cx="324.19" cy="348.29" rx=".15" ry=".17"/>
        <ellipse class="cls-25" cx="324.68" cy="347.99" rx=".15" ry=".17"/>
      </g>
      <g>
        <ellipse class="cls-25" cx="340.86" cy="348.55" rx="2.03" ry="2.16"/>
        <ellipse class="cls-2" cx="340.87" cy="348.66" rx="1.19" ry="1.3"/>
        <ellipse class="cls-25" cx="340.88" cy="348.67" rx=".3" ry=".34"/>
        <ellipse class="cls-25" cx="341.33" cy="348.36" rx=".15" ry=".17"/>
        <ellipse class="cls-25" cx="341.34" cy="348.97" rx=".15" ry=".17"/>
        <ellipse class="cls-25" cx="340.87" cy="349.28" rx=".15" ry=".17"/>
        <ellipse class="cls-25" cx="340.42" cy="348.97" rx=".15" ry=".17"/>
        <ellipse class="cls-25" cx="340.38" cy="348.37" rx=".15" ry=".17"/>
        <ellipse class="cls-25" cx="340.87" cy="348.07" rx=".15" ry=".17"/>
      </g>
      <g>
        <ellipse class="cls-25" cx="345.99" cy="348.58" rx="2.03" ry="2.16"/>
        <ellipse class="cls-2" cx="345.99" cy="348.69" rx="1.19" ry="1.3"/>
        <ellipse class="cls-25" cx="346.01" cy="348.7" rx=".3" ry=".34"/>
        <ellipse class="cls-25" cx="346.46" cy="348.39" rx=".15" ry=".17"/>
        <ellipse class="cls-25" cx="346.47" cy="349" rx=".15" ry=".17"/>
        <ellipse class="cls-25" cx="345.99" cy="349.31" rx=".15" ry=".17"/>
        <ellipse class="cls-25" cx="345.54" cy="349" rx=".15" ry=".17"/>
        <ellipse class="cls-25" cx="345.5" cy="348.4" rx=".15" ry=".17"/>
        <ellipse class="cls-25" cx="345.99" cy="348.1" rx=".15" ry=".17"/>
      </g>
      <path class="cls-25" d="M319.82,335.98c1.07.02,2.14.03,3.22.05.04,0,.07,0,.09.01.12.05.18.27.15.54,0,1.77.01,3.54.02,5.32-1.27,0-2.54,0-3.82.01.02-1.78.03-3.55.05-5.33,0-.02-.04-.4.17-.55.03-.02.06-.04.11-.05Z"/>
      <path class="cls-25" d="M319.54,342.3h3.79v3.01c-.25.21-.58.52-.89.96-.23.33-.4.66-.51.92-.03.3-.13.46-.2.55-.23.27-.49.17-1.75.08-.05,0-.17-.01-.26-.1-.15-.13-.16-.36-.16-.48,0-1.64,0-3.29-.01-4.93Z"/>
      <path class="cls-25" d="M324.99,336.58c0-.09,0-.19,0-.28,0-.03.02-.12.09-.2.1-.12.25-.1.26-.1.96,0,1.93,0,2.89.01.02,0,.2-.04.35.11.13.15.11.34.11.36,0,1.02-.01,2.05-.02,3.07v.29s0,.12-.07.2c-.04.05-.09.06-.11.06-.07,0-.14,0-.21,0-.93,0-1.86.02-2.79.03h-.19s-.13-.01-.21-.1c-.09-.09-.11-.21-.11-.24v-.22c0-.99,0-1.99.01-3.01Z"/>
      <path class="cls-25" d="M330.16,336.6c0-.09,0-.19,0-.28,0-.03.02-.12.09-.2.1-.12.25-.1.26-.1.96,0,1.93,0,2.89.01.02,0,.2-.04.35.11.13.15.11.34.11.36,0,1.02-.01,2.05-.02,3.07v.29s0,.12-.07.2c-.04.05-.09.06-.11.06-.07,0-.14,0-.21,0-.93,0-1.86.02-2.79.03h-.19s-.13-.01-.21-.1c-.09-.09-.11-.21-.11-.24v-.22c0-.99,0-1.99.01-3.01Z"/>
      <path class="cls-25" d="M335.33,336.6c0-.09,0-.19,0-.28,0-.03.02-.12.09-.2.1-.12.25-.1.26-.1.96,0,1.93,0,2.89.01.02,0,.2-.04.35.11.13.15.11.34.11.36,0,1.02-.01,2.05-.02,3.07v.29s0,.12-.07.2c-.04.05-.09.06-.11.06-.07,0-.14,0-.21,0-.93,0-1.86.02-2.79.03h-.19s-.13-.01-.21-.1c-.09-.09-.11-.21-.11-.24v-.22c0-.99,0-1.99.01-3.01Z"/>
      <path class="cls-25" d="M340.46,336.64c0-.09,0-.19,0-.28,0-.03.02-.12.09-.2.1-.12.25-.1.26-.1.96,0,1.93,0,2.89.01.02,0,.2-.04.35.11.13.15.11.34.11.36,0,1.02-.01,2.05-.02,3.07v.29s0,.12-.07.2c-.04.05-.09.06-.11.06-.07,0-.14,0-.21,0-.93,0-1.86.02-2.79.03h-.19s-.13-.01-.21-.1c-.09-.09-.11-.21-.11-.24v-.22c0-.99,0-1.99.01-3.01Z"/>
      <path class="cls-25" d="M345.63,336.6c0-.09,0-.19,0-.28,0-.03.02-.12.09-.2.1-.12.25-.1.26-.1.96,0,1.93,0,2.89.01.02,0,.2-.04.35.11.13.15.11.34.11.36,0,1.02-.01,2.05-.02,3.07v.29s0,.12-.07.2c-.04.05-.09.06-.11.06-.07,0-.14,0-.21,0-.93,0-1.86.02-2.79.03h-.19s-.13-.01-.21-.1c-.09-.09-.11-.21-.11-.24v-.22c0-.99,0-1.99.01-3.01Z"/>
      <path class="cls-25" d="M353.23,336.01c0,1.39,0,2.78.01,4.17-.22-.01-.45-.02-.67-.03-.03,0-.1,0-.17-.03-.13-.07-.16-.23-.17-.25,0-.09,0-.17-.01-.26,0-1.09.02-2.18.02-3.27,0-.04,0-.11.04-.19.03-.07.07-.11.1-.13.09,0,.17,0,.26,0,.2,0,.39,0,.59,0Z"/>
      <path class="cls-25" d="M353.23,342.26c0,.49,0,.98-.01,1.46-.18,0-.37-.01-.55-.02,0-.36,0-.71,0-1.07,0-.05,0-.1,0-.14,0-.02.02-.15.12-.21.04-.02.08-.03.1-.03.11,0,.22,0,.33,0Z"/>
      <path class="cls-25" d="M352.67,344.21h.56c0,.4,0,.8-.01,1.2-.18,0-.36,0-.53,0,0-.4-.01-.8-.02-1.2Z"/>
      <path class="cls-25" d="M353.23,345.89v1.02c-.12,0-.23,0-.34,0h-.07s-.05-.04-.08-.07c-.04-.05-.05-.1-.05-.12v-.08c0-.17-.01-.34-.02-.5v-.11s0-.06.04-.1c.03-.02.05-.03.06-.03.04,0,.07,0,.11,0,.11,0,.23,0,.34,0Z"/>
      <path class="cls-25" d="M323.06,333.95c2.5,0,5.01.02,7.51.02.04-.25.07-.68-.14-.87-.11-.09-.24-.09-.28-.09-.42,0-3.1,0-6.8.02-.07.02-.15.07-.22.16-.15.18-.17.48-.06.75Z"/>
      <path class="cls-25" d="M340.82,333.95c2.5,0,5.01.02,7.51.02.04-.25.07-.68-.14-.87-.11-.09-.24-.09-.28-.09-.42,0-3.1,0-6.8.02-.07.02-.15.07-.22.16-.15.18-.17.48-.06.75Z"/>
    </g>
  </g>
  <g>
    <path class="cls-23" d="M518.07,368.76h24.77c2.93,0,5.31,1.65,5.31,3.68v29.47c0,2.03-2.38,3.68-5.31,3.68h-24.77c-2.93,0-5.31-1.65-5.31-3.68v-29.47c0-2.03,2.38-3.68,5.31-3.68Z"/>
    <path class="cls-16" d="M439.45,103.54h24.77c2.93,0,5.31,1.65,5.31,3.68v294.69c0,2.03-2.38,3.68-5.31,3.68h-24.77c-2.93,0-5.31-1.65-5.31-3.68V107.22c0-2.03,2.38-3.68,5.31-3.68Z"/>
    <g>
      <path class="cls-26" d="M436.22,92.7v10.01s.07.67.45.77,3.21,0,3.21,0c0,0,.55-.02.65-.58.1-.57,0-10.2,0-10.2,0,0,0-1.04-.32-1.1s-3.48,0-3.48,0c0,0-.52.13-.52,1.1Z"/>
      <path class="cls-26" d="M467.84,92.7v10.01s-.07.67-.45.77-3.17,0-3.17,0c0,0-.55-.02-.64-.58s0-10.2,0-10.2c0,0,0-1.04.31-1.1s3.44,0,3.44,0c0,0,.51.13.51,1.1Z"/>
      <path class="cls-26" d="M465.01,84.12l.29.84.27-.11s.03-.09.3,0c.38.05,1.98.14,2.4,0,.42-.14.82-.21.62-.81-.32-.59-.45-1.29-1.08-1.45-.76-.14-1.8-.25-1.93-.22-.1.12-.15.26-.14.38s-.02,1.15-.02,1.17-.16.26-.71.21Z"/>
      <path class="cls-26" d="M438.67,84.12l-.29.84-.27-.11s-.03-.09-.3,0c-.39.05-1.99.14-2.41,0s-.83-.21-.63-.8c.32-.59.45-1.29,1.08-1.45.77-.14,1.8-.25,1.94-.22.1.12.15.26.15.38s.02,1.15.02,1.17.16.26.71.21Z"/>
      <path class="cls-1" d="M467.62,87.64s0,.08,0,.11c-.01.6-.02,1.18-.03,1.73h0c-.09,2.55-.26,6.98-.37,8.01-.02.15-.06.28-.1.39-.26.44-.37.59-1.13.65-.28.02-.65.03-1.14.03-3.11-.08-25.15.23-26.49,0-.94,0-1.34-.03-1.44-1.46-.04-.59-.12-1.91-.21-3.41h0c-.12-1.89-.27-4.07-.43-5.5-.02-.19-.04-.36-.06-.52.15-.28,1-1.89,2.11-3.54.54-1.48,3.64-10.33,3.64-10.33,3.68-.98,16.49-1.11,18.93,0,2.24,3.28,3.71,8.61,4.15,9.94.6,1.4,2.21,2.5,2.58,3.9Z"/>
      <path class="cls-17" d="M439.7,84.11s21.4-.31,24.45,0c-.13-1.92-2.24-7.32-3.31-9.31-1.47-.65-14.91-.55-18.39,0-1.3,2.06-2.74,9.31-2.74,9.31Z"/>
      <path class="cls-1" d="M439.7,84.11s23.03-.22,24.45,0,.86,4,.86,4l-5.86,2.89-17.09-.62-2.5-6.14.13-.13"/>
      <path class="cls-18" d="M441.92,84.26s-6.38-.11,2.85,3.78h14.54s8.24-3.8,3.12-3.78c3.75-.16,3.69.76-2.88,4.04h-15c-.76-.23-10.42-4.39-2.63-4.03Z"/>
      <g>
        <path class="cls-24" d="M444.17,91.31c-1-1.87-.32-3.07-5.75-3.35-.48-.05-1.44-.19-1.12,1.44s.82,2.77,6.87,1.91Z"/>
        <path class="cls-8" d="M443.75,91s-5.7-1.51-6.2-2.18c0-.76.69-1.11,4.5,0,.67.33,1.3,1.24,1.71,2.18Z"/>
      </g>
      <g>
        <path class="cls-24" d="M459.69,91.31c1-1.87.32-3.07,5.73-3.35.48-.05,1.43-.19,1.12,1.44s-.82,2.77-6.85,1.91Z"/>
        <path class="cls-8" d="M460.11,91s5.68-1.51,6.18-2.18c0-.76-.68-1.11-4.48,0-.67.33-1.3,1.24-1.7,2.18Z"/>
      </g>
      <path class="cls-18" d="M467.62,87.54s-.02.81-.06,2h0c-.09,2.82-.26,7.72-.37,8.86-.02.17-.06.31-.1.43-.27.78-.86.77-1.13.72-.08-.02-.14-.04-.14-.04,0,0-26.5.14-27.66,0-1.17-.14-1.07-1.12-1.07-1.12l-.35-4.21h0s-.52-6.33-.52-6.33c0,0,.03.09.09.25.26.69,1.04,2.62,1.61,3.39.3.86,1.87,1.19,1.87,1.19,0,0,22.82.32,24.39.22,1.57-.11,1.67-.83,1.67-.83l1.73-4.44.04-.09Z"/>
      <path class="cls-26" d="M438.83,98.51l25.53-.27s1.78.3,2.07-.66.54-2.04.54-2.04c0,0,.31-1.35-1.09-.85-1.49.36-5.6.94-5.6.94,0,0-7.49.82-8.07.73-.62.02-9.7-.89-10.37-1.03-.78-.11-3.01-.55-3.01-.55,0,0-1.65-.64-1.38.76.16,1.49.4,2.4.4,2.4,0,0,.42.58.98.57Z"/>
      <path class="cls-26" d="M446.39,88.82c1.05-.1,10.9-.09,11.27,0,.37.09,2.12-.27,1.39,2.25-.35,1.29-.62,2.28-2.89,2.3s-8.24,0-8.24,0c0,0-1.86.33-2.61-2.01-.52-1.84.03-2.44,1.09-2.54Z"/>
      <g>
        <rect x="447.86" y="88.94" width="1.09" height="4.27"/>
        <rect x="449.37" y="88.94" width="1.09" height="4.27"/>
        <rect x="450.89" y="88.94" width="1.09" height="4.27"/>
        <rect x="452.37" y="88.94" width="1.09" height="4.27"/>
        <rect x="453.89" y="88.94" width="1.09" height="4.27"/>
        <rect x="455.37" y="88.94" width="1.09" height="4.27"/>
        <path d="M456.89,88.99v4.15s1.87-.25,1.82-2.94c-.13-.64-.07-1.23-1.82-1.2Z"/>
        <path d="M447.4,89v4.15s-1.91-.25-1.85-2.94c.14-.64.07-1.23,1.85-1.2Z"/>
      </g>
    </g>
    <g>
      <g>
        <path class="cls-21" d="M489.59,351.49l-4.96-1.2s1.09-6.5,0-13.34l4.96-.43v14.98Z"/>
        <path class="cls-21" d="M492.04,336.64c0,2.19-1.66,3.97-3.71,3.97s-3.71-1.78-3.71-3.97,1.66-3.68,3.71-3.68,3.71,1.49,3.71,3.68Z"/>
        <g>
          <path class="cls-27" d="M488.26,345.71h0c-.77-.04-1.35-.71-1.31-1.5l.22-4.15,2.77.15-.22,4.15c-.04.79-.69,1.39-1.46,1.35Z"/>
          <path class="cls-12" d="M487.69,340.49s.38,2.12,2.09,2.86l.06-1.22-2.15-1.64"/>
        </g>
        <g>
          <path class="cls-27" d="M490.01,342.33h0c-1.43,0-2.45-1.13-2.45-2.53v-4.57l2.4-.24c.89,0,2.09,1.26,2.09,2.13v3.14c-.19,1.31-.99,2.06-2.03,2.06Z"/>
          <path class="cls-27" d="M491.73,337.86l.8,1.38c.1.14,0,.33-.18.33h-1.07s.45-1.71.45-1.71Z"/>
        </g>
        <polygon class="cls-21" points="487.2 337.87 487.58 338.9 487.92 336.43 486.69 336.52 487.2 337.87"/>
        <path class="cls-21" d="M492.44,336.8s-.4-3.12-3.16-3.73c0,0-.69.15-1.24,1.19-.24.25-.57.86-.7,1.71-.19,1.3.29,1.25.29,1.25,0,0,1.14-.44,1.08-1.89.47.63,1.43,1.68,3.74,1.47Z"/>
        <path class="cls-21" d="M487.63,339.73s-.35,1.41-.94,1.22l.24-.97.7-.24Z"/>
        <g>
          <path class="cls-27" d="M487.46,340.01c-.68.47-1.86-1.66-1.19-2.17.66-.5,1.2.63,1.2.63l.11.42.05.83v.2l-.17.09Z"/>
          <g>
            <path class="cls-11" d="M486.52,338.47s.45-.15.77.52"/>
            <path class="cls-11" d="M487.06,338.66s-.49.27-.17.67"/>
          </g>
        </g>
        <g>
          <path class="cls-12" d="M491.63,338.06c0,.15-.12.28-.27.28s-.27-.12-.27-.28.12-.28.27-.28.27.12.27.28Z"/>
          <path d="M490.11,337.61s.83-.26,1.66-.31c0,0-.26-.46-.78-.33-.52.12-.88.64-.88.64Z"/>
          <path class="cls-11" d="M491.08,340.11s.43.16.96.16"/>
        </g>
      </g>
      <g>
        <g>
          <g>
            <g>
              <path class="cls-14" d="M493.18,365.17c-.63-1.64-2.43-2.44-4.03-1.8-1.6.64-2.38,2.49-1.75,4.13.02.05.05.11.07.16.01.03.02.07.03.1l5.36,11.47c.54,1.4,2.08,2.09,3.45,1.54h0c1.37-.55,2.04-2.13,1.5-3.54l-4.53-11.81s-.04-.08-.06-.13c-.01-.04-.03-.09-.04-.13Z"/>
              <path class="cls-14" d="M490.87,359.72l-5.26,1.77s-1.95,2.7,1.76,6.57l2.91-.98.08-.03,3.15-1.06c-1.66-5.3-2.63-6.28-2.63-6.28Z"/>
            </g>
            <g>
              <g>
                <polygon class="cls-27" points="495.51 393.01 495.08 396.49 492.58 396.33 492.8 392.83 495.51 393.01"/>
                <g>
                  <path class="cls-15" d="M492.33,395.96l-.16,2.12,7.79.5v-.06c.03-.49-.21-.95-.63-1.19l-3.72-1.81c-.13-.08-.31-.08-.42.02-.53.5-1.12,1.34-2.57.3-.11-.08-.25,0-.28.12Z"/>
                  <polygon class="cls-5" points="499.92 399.14 492.14 398.64 492.17 398.08 499.96 398.58 499.92 399.14"/>
                </g>
              </g>
              <g>
                <path class="cls-14" d="M495.34,375.14h0c-1.46-.09-2.73,1.05-2.82,2.55l-.98,16.05,5.3.34.98-16.05c.09-1.5-1.02-2.8-2.48-2.89Z"/>
                <polygon class="cls-13" points="497.29 391.64 491.68 391.27 491.53 393.74 497.14 394.1 497.29 391.64"/>
              </g>
            </g>
          </g>
          <g>
            <g>
              <path class="cls-20" d="M490.82,365.62c.19-1.75-1.04-3.33-2.74-3.52s-3.24,1.06-3.43,2.81c0,.06,0,.12-.01.17,0,.03-.02.07-.02.1l-.48,12.71c-.16,1.5.89,2.84,2.35,3.01h0c1.46.17,2.77-.91,2.94-2.41l1.37-12.61s0-.09,0-.14c0-.05.02-.09.02-.14Z"/>
              <path class="cls-20" d="M491.37,359.55l-5.5-.63s-2.87,1.63-1.05,6.73l3.04.35h.09s2.8.33,2.8.33c.74-5.25.63-6.78.63-6.78Z"/>
            </g>
            <g>
              <g>
                <polygon class="cls-27" points="486.41 393.35 485.82 396.81 483.33 396.52 483.71 393.04 486.41 393.35"/>
                <g>
                  <path class="cls-3" d="M483.1,396.14l-.26,2.11,7.75.89v-.06c.06-.49-.17-.96-.57-1.22l-3.63-1.99c-.13-.08-.31-.1-.42,0-.55.48-1.18,1.28-2.58.17-.1-.08-.25-.02-.29.1Z"/>
                  <polygon class="cls-5" points="490.53 399.69 482.78 398.81 482.84 398.25 490.59 399.14 490.53 399.69"/>
                </g>
              </g>
              <g>
                <path class="cls-20" d="M488.57,375.67l-2.99-.34c-.63-.07-1.2.4-1.27,1.05l-1.9,17.51,5.28.6,1.9-17.51c.07-.65-.39-1.24-1.02-1.31Z"/>
                <polygon class="cls-6" points="488.25 392.07 482.67 391.43 482.4 393.89 487.99 394.53 488.25 392.07"/>
              </g>
            </g>
          </g>
        </g>
        <g>
          <g>
            <path class="cls-27" d="M488.51,357.54c-.38-.78-1.31-1.09-2.06-.7-.76.39-1.06,1.34-.68,2.12.01.03.03.06.05.08l5.23,9.51,1.35-.97-3.85-9.96s-.02-.06-.04-.09Z"/>
            <path class="cls-27" d="M491.5,367.11c-.6.16-.67.51-.65.92h0s0,0,0,0c.07,2.29.47,3.31.66,4.14.2.87,1.21,2.08,1.5,1.87.29-.21-.08-.78-.4-1.17s-.31-1.26-.31-2.04c0-.78.24-.63.24-.63l.39.58c.14.22.41.27.57.1.12-.12.12-.31.05-.47l-1.19-2.88s-.24-.6-.88-.43Z"/>
          </g>
          <g>
            <g>
              <path class="cls-27" d="M489.94,348.08c.1-.86-.5-1.65-1.34-1.75s-1.61.51-1.71,1.38c0,.03,0,.06,0,.1l-1.15,10.04c-.1.86.5,1.64,1.34,1.75h0c.84.1,1.6-.51,1.7-1.37l1.15-10.04s.01-.06.02-.1Z"/>
              <g class="cls-19">
                <path class="cls-9" d="M490.12,351.22s-2.43-.22-4.17-1.71c0,0,.55-4.28,3.03-3.59,2.49.68,1.14,5.3,1.14,5.3Z"/>
              </g>
            </g>
            <line class="cls-10" x1="489.59" y1="351.09" x2="489.94" y2="348.08"/>
            <line class="cls-10" x1="486.57" y1="350.01" x2="486.88" y2="347.33"/>
          </g>
        </g>
      </g>
      <g>
        <path class="cls-9" d="M492.81,349.5c-.02-1.18-1.01-2.87-1.32-3.45,0-.02-.04-.03-.09-.04-.52-.86-1.45-1.44-2.51-1.44h-.66c-2.41,0-3.78,2.73-3.47,5.75.36,3.48,1.19,9.25,1.19,9.25h5.54s.21-3.65.31-7.56c.59-.73,1.03-1.59,1.01-2.51Z"/>
        <path class="cls-27" d="M486.37,345.23s1.86-.65,4.92.62c0,0-.64-.96-1.95-1.5-1.14-.47-1.82.23-1.82.23,0,0-.58.2-1.15.65Z"/>
      </g>
    </g>
    <g>
      <path class="cls-2" d="M512.31,353.91c.12-.22.59-1.05,1.53-1.37.52-.17.97-.12,1.22-.07h33.4c.12,0,.56-.03.92.27.35.29.49.78.55,1.3.13,1.18.19,5.7.12,11.82-.12.34-.24.68-.37,1.02-1.81.3-3.62.59-5.43.89.35-.99.16-2.09-.49-2.8-.54-.6-1.38-.88-2.14-.61-.93.32-1.5,1.35-1.53,2.19-.02.63.26,1.08.06,1.3-.18.19-.58.03-.92-.14.3-.93.17-1.93-.37-2.6-.79-.98-2.24-.94-3.11-.14-1.02.94-.8,2.53-.79,2.6-3.99.02-7.98.05-11.97.07.37-1.21-.12-2.53-1.1-3.07-.96-.53-2.15-.19-2.75.75-.62.98-.28,2.13-.24,2.25-2.1-.03-3.64.05-4.76.14-.56.05-1.25.09-1.71-.41-.6-.66-.6-2.08-.18-2.32.19-.11.44.02.61.14-.04-3.32-.08-6.65-.12-9.97-.21-.02-.49,0-.67.2-.44.48.1,1.48-.31,1.91-.25.26-.75.22-1.04,0-.68-.51-.69-2.35.18-3.07.53-.44,1.21-.32,1.4-.27Z"/>
      <path class="cls-25" d="M514.35,355.26c.02,2.12.03,4.25.05,6.37-.01.4-.02.8-.03,1.2-.1.13-.2.25-.31.38l-.85-.03v-7.92c.38,0,.76.01,1.14.02Z"/>
      <g>
        <ellipse class="cls-25" cx="520.93" cy="366.86" rx="2.03" ry="2.16"/>
        <ellipse class="cls-2" cx="520.93" cy="366.97" rx="1.19" ry="1.3"/>
        <ellipse class="cls-25" cx="520.95" cy="366.98" rx=".3" ry=".34"/>
        <ellipse class="cls-25" cx="521.4" cy="366.67" rx=".15" ry=".17"/>
        <ellipse class="cls-25" cx="521.41" cy="367.28" rx=".15" ry=".17"/>
        <ellipse class="cls-25" cx="520.93" cy="367.59" rx=".15" ry=".17"/>
        <ellipse class="cls-25" cx="520.48" cy="367.28" rx=".15" ry=".17"/>
        <ellipse class="cls-25" cx="520.44" cy="366.68" rx=".15" ry=".17"/>
        <ellipse class="cls-25" cx="520.93" cy="366.37" rx=".15" ry=".17"/>
      </g>
      <g>
        <ellipse class="cls-25" cx="537.12" cy="366.94" rx="2.03" ry="2.16"/>
        <ellipse class="cls-2" cx="537.12" cy="367.04" rx="1.19" ry="1.3"/>
        <ellipse class="cls-25" cx="537.14" cy="367.05" rx=".3" ry=".34"/>
        <ellipse class="cls-25" cx="537.59" cy="366.75" rx=".15" ry=".17"/>
        <ellipse class="cls-25" cx="537.6" cy="367.35" rx=".15" ry=".17"/>
        <ellipse class="cls-25" cx="537.12" cy="367.66" rx=".15" ry=".17"/>
        <ellipse class="cls-25" cx="536.67" cy="367.35" rx=".15" ry=".17"/>
        <ellipse class="cls-25" cx="536.63" cy="366.76" rx=".15" ry=".17"/>
        <ellipse class="cls-25" cx="537.12" cy="366.45" rx=".15" ry=".17"/>
      </g>
      <g>
        <ellipse class="cls-25" cx="542.24" cy="366.97" rx="2.03" ry="2.16"/>
        <ellipse class="cls-2" cx="542.25" cy="367.07" rx="1.19" ry="1.3"/>
        <ellipse class="cls-25" cx="542.26" cy="367.08" rx=".3" ry=".34"/>
        <ellipse class="cls-25" cx="542.71" cy="366.78" rx=".15" ry=".17"/>
        <ellipse class="cls-25" cx="542.72" cy="367.38" rx=".15" ry=".17"/>
        <ellipse class="cls-25" cx="542.25" cy="367.69" rx=".15" ry=".17"/>
        <ellipse class="cls-25" cx="541.79" cy="367.38" rx=".15" ry=".17"/>
        <ellipse class="cls-25" cx="541.75" cy="366.78" rx=".15" ry=".17"/>
        <ellipse class="cls-25" cx="542.24" cy="366.48" rx=".15" ry=".17"/>
      </g>
      <path class="cls-25" d="M516.07,354.37c1.07.02,2.14.03,3.22.05.04,0,.07,0,.09.01.12.05.18.27.15.54,0,1.77.01,3.54.02,5.32-1.27,0-2.54,0-3.82.01.02-1.78.03-3.55.05-5.33,0-.02-.04-.4.17-.55.03-.02.06-.04.11-.05Z"/>
      <path class="cls-25" d="M515.79,360.68h3.79v3.01c-.25.21-.58.52-.89.96-.23.33-.4.66-.51.92-.03.3-.13.46-.2.55-.23.27-.49.17-1.75.08-.05,0-.17-.01-.26-.1-.15-.13-.16-.36-.16-.48,0-1.64,0-3.29-.01-4.93Z"/>
      <path class="cls-25" d="M521.24,354.97c0-.09,0-.19,0-.28,0-.03.02-.12.09-.2.1-.12.25-.1.26-.1.96,0,1.93,0,2.89.01.02,0,.2-.04.35.11.13.15.11.34.11.36,0,1.02-.01,2.05-.02,3.07v.29s0,.12-.07.2c-.04.05-.09.06-.11.06-.07,0-.14,0-.21,0-.93,0-1.86.02-2.79.03h-.19s-.13-.01-.21-.1c-.09-.09-.11-.21-.11-.24v-.22c0-.99,0-1.99.01-3.01Z"/>
      <path class="cls-25" d="M526.41,354.98c0-.09,0-.19,0-.28,0-.03.02-.12.09-.2.1-.12.25-.1.26-.1.96,0,1.93,0,2.89.01.02,0,.2-.04.35.11.13.15.11.34.11.36,0,1.02-.01,2.05-.02,3.07v.29s0,.12-.07.2c-.04.05-.09.06-.11.06-.07,0-.14,0-.21,0-.93,0-1.86.02-2.79.03h-.19s-.13-.01-.21-.1c-.09-.09-.11-.21-.11-.24v-.22c0-.99,0-1.99.01-3.01Z"/>
      <path class="cls-25" d="M531.58,354.98c0-.09,0-.19,0-.28,0-.03.02-.12.09-.2.1-.12.25-.1.26-.1.96,0,1.93,0,2.89.01.02,0,.2-.04.35.11.13.15.11.34.11.36,0,1.02-.01,2.05-.02,3.07v.29s0,.12-.07.2c-.04.05-.09.06-.11.06-.07,0-.14,0-.21,0-.93,0-1.86.02-2.79.03h-.19s-.13-.01-.21-.1c-.09-.09-.11-.21-.11-.24v-.22c0-.99,0-1.99.01-3.01Z"/>
      <path class="cls-25" d="M536.71,355.03c0-.09,0-.19,0-.28,0-.03.02-.12.09-.2.1-.12.25-.1.26-.1.96,0,1.93,0,2.89.01.02,0,.2-.04.35.11.13.15.11.34.11.36,0,1.02-.01,2.05-.02,3.07v.29s0,.12-.07.2c-.04.05-.09.06-.11.06-.07,0-.14,0-.21,0-.93,0-1.86.02-2.79.03h-.19s-.13-.01-.21-.1c-.09-.09-.11-.21-.11-.24v-.22c0-.99,0-1.99.01-3.01Z"/>
      <path class="cls-25" d="M541.88,354.98c0-.09,0-.19,0-.28,0-.03.02-.12.09-.2.1-.12.25-.1.26-.1.96,0,1.93,0,2.89.01.02,0,.2-.04.35.11.13.15.11.34.11.36,0,1.02-.01,2.05-.02,3.07v.29s0,.12-.07.2c-.04.05-.09.06-.11.06-.07,0-.14,0-.21,0-.93,0-1.86.02-2.79.03h-.19s-.13-.01-.21-.1c-.09-.09-.11-.21-.11-.24v-.22c0-.99,0-1.99.01-3.01Z"/>
      <path class="cls-25" d="M549.48,354.4c0,1.39,0,2.78.01,4.17-.22-.01-.45-.02-.67-.03-.03,0-.1,0-.17-.03-.13-.07-.16-.23-.17-.25,0-.09,0-.17-.01-.26,0-1.09.02-2.18.02-3.27,0-.04,0-.11.04-.19.03-.07.07-.11.1-.13.09,0,.17,0,.26,0,.2,0,.39,0,.59,0Z"/>
      <path class="cls-25" d="M549.48,360.64c0,.49,0,.98-.01,1.46-.18,0-.37-.01-.55-.02,0-.36,0-.71,0-1.07,0-.05,0-.1,0-.14,0-.02.02-.15.12-.21.04-.02.08-.03.1-.03.11,0,.22,0,.33,0Z"/>
      <path class="cls-25" d="M548.92,362.6h.56c0,.4,0,.8-.01,1.2-.18,0-.36,0-.53,0,0-.4-.01-.8-.02-1.2Z"/>
      <path class="cls-25" d="M549.48,364.27v1.02c-.12,0-.23,0-.34,0h-.07s-.05-.04-.08-.07c-.04-.05-.05-.1-.05-.12v-.08c0-.17-.01-.34-.02-.5v-.11s0-.06.04-.1c.03-.02.05-.03.06-.03.04,0,.07,0,.11,0,.11,0,.23,0,.34,0Z"/>
      <path class="cls-25" d="M519.31,352.34c2.5,0,5.01.02,7.51.02.04-.25.07-.68-.14-.87-.11-.09-.24-.09-.28-.09-.42,0-3.1,0-6.8.02-.07.02-.15.07-.22.16-.15.18-.17.48-.06.75Z"/>
      <path class="cls-25" d="M537.07,352.34c2.5,0,5.01.02,7.51.02.04-.25.07-.68-.14-.87-.11-.09-.24-.09-.28-.09-.42,0-3.1,0-6.8.02-.07.02-.15.07-.22.16-.15.18-.17.48-.06.75Z"/>
    </g>
    <path class="cls-4" d="M478.76,398.23h24.77c2.93,0,5.31,1.65,5.31,3.68h0c0,2.03-2.38,3.68-5.31,3.68h-24.77c-2.93,0-5.31-1.65-5.31-3.68h0c0-2.03,2.38-3.68,5.31-3.68Z"/>
  </g>
</svg>