<?xml version="1.0" encoding="UTF-8"?>
<svg id="Calque_1" data-name="Calque 1" xmlns="http://www.w3.org/2000/svg" xmlns:xlink="http://www.w3.org/1999/xlink" viewBox="0 0 193.52 211.61">
  <defs>
    <style>
      .cls-1 {
        stroke-width: 6px;
      }

      .cls-1, .cls-2, .cls-3, .cls-4, .cls-5 {
        fill: none;
      }

      .cls-1, .cls-2, .cls-3, .cls-5 {
        stroke-miterlimit: 10;
      }

      .cls-1, .cls-5 {
        stroke: #e7a9af;
      }

      .cls-2 {
        stroke: #efe3d8;
      }

      .cls-2, .cls-3 {
        stroke-width: 1.07px;
      }

      .cls-3 {
        stroke: #514d49;
      }

      .cls-6 {
        clip-path: url(#clippath);
      }

      .cls-7, .cls-8 {
        fill: #fff1d4;
      }

      .cls-9 {
        clip-path: url(#clippath-1);
      }

      .cls-4 {
        stroke: #d26665;
        stroke-linecap: round;
        stroke-linejoin: round;
        stroke-width: .53px;
      }

      .cls-5 {
        stroke-width: 2px;
      }

      .cls-10 {
        opacity: .9;
      }

      .cls-11 {
        fill: #f2e8cf;
      }

      .cls-11, .cls-12, .cls-13, .cls-14, .cls-15, .cls-16, .cls-17, .cls-18, .cls-19, .cls-20, .cls-21, .cls-22, .cls-23, .cls-8, .cls-24, .cls-25 {
        stroke-width: 0px;
      }

      .cls-12 {
        fill: #2c5884;
      }

      .cls-13 {
        fill: #1a1a1a;
      }

      .cls-14 {
        fill: #1a3e73;
      }

      .cls-15 {
        fill: #08080f;
      }

      .cls-16 {
        fill: #08726a;
      }

      .cls-17 {
        fill: #133863;
      }

      .cls-18 {
        fill: #131321;
      }

      .cls-19 {
        fill: #c33;
      }

      .cls-20 {
        fill: #a8504e;
      }

      .cls-21 {
        fill: #b73e15;
      }

      .cls-22 {
        fill: #335e91;
      }

      .cls-23 {
        fill: #fff;
      }

      .cls-24 {
        fill: #e7a9af;
      }

      .cls-25 {
        fill: #eade99;
      }
    </style>
    <clipPath id="clippath">
      <path class="cls-8" d="M153.78,127.57c-.33-.73-1.18-1.05-1.91-.72s-1.05,1.18-.72,1.91c.01.03.03.05.04.08l3.82,8.44c.33.72,1.18,1.05,1.9.72h0c.72-.33,1.05-1.18.72-1.9l-3.82-8.44s-.02-.06-.03-.08Z"/>
    </clipPath>
    <clipPath id="clippath-1">
      <path class="cls-8" d="M152.26,127.86c-.49-.63-1.4-.74-2.03-.25s-.74,1.4-.25,2.03c.02.02.04.04.06.07l5.72,7.28c.49.63,1.39.74,2.02.25h0c.63-.49.74-1.39.25-2.02l-5.72-7.28s-.03-.05-.05-.07Z"/>
    </clipPath>
  </defs>
  <g>
    <path class="cls-19" d="M163.21,64.65c-.93-2.5-4.45-3.45-6.99-4.03-4.45-1.04-8.44-2.89-12.48-4.93-4.51-2.47-9.8-3.31-13.96-6.37-2.88-2.43-5.19-5.59-8.89-6.64-5.31-1.65-8.36-6.77-12.94-9.68-5.95-4.02-13.76-13.39-20.66-5.59-3.26,3.66-3.53,9.51-7.33,12.82-2.83,2.58-6.59,3.75-9.77,5.83-3.54,2.19-6.41,4.66-9.91,5.57-7.35,3.11-17.33-12.29-18.23-1.24-.47,3.92,2.49,10.7-1.73,13.07-5.73,1.85-11.54-1.51-16.87-3.18-3-1.03-6.21-1.09-9.35-.61-3.19.36-6.67.82-9.5,2.35-3.21,1.55-3.56,5.51-1.94,8.43,2.75,6.28,10.29,8,15.5,11.81,4.8,2.98,10.81,5.45,12.67,11.25.39,1.03.55,1.74.82,2.97.77,4.81,4.58,8.42,7.36,12.48,2.27,2.61,1.39,3.67,2.15,6.66,1.8,8.22-.3,17.09-1.94,25.34-1.06,5.07-1.96,10.28-4.05,15.01-1.38,3.59-3.62,7.4-2.37,10.97,2.77,5.01,15.33,10.56,20.95,11.92,6.75,1.28,14.02.25,20.07,4.14,1.7.93,3.4,1.85,5.18,2.61,4.96,2.01,12.77,4.16,16.45-1.02,2.04-3.39,2.7-7.54,5.53-10.52,4.08-4.67,10.8-5.27,16.58-4.19,6.75,1.21,12.8,4.57,19.7,5.42,5.61.52,10.5-3.09,14.57-6.86,2.89-2.93,8.43-7.52,5.27-11.7-4.16-4.55-8.27-10.36-7.15-16.92,1.09-5.41,2.57-10.86.89-16.41-.68-3.37-1.55-7.61-5.21-8.87-1.43-.66-3.2-.88-4.32-1.89-1.63-2.78,1.5-6.82,3.11-9.28,2.2-2.94,4.42-6.19,6.91-8.53,2.32-2.22,4.33-4.75,5.77-7.57,2.07-3.69,2.62-8.21,4.09-12.22,1.14-3.29,3.2-7.21,2.05-10.37l-.02-.05Z"/>
    <path class="cls-19" d="M159.71,70.78s-.15.34-.19.41c-.07.14.13-.32.18-.41h0Z"/>
    <path class="cls-19" d="M148.45,95.96s0,0,0,0h0Z"/>
    <path class="cls-19" d="M14.77,78.44s.02,0,0,0h0Z"/>
    <path class="cls-19" d="M106.84,166.88c.11-.27.08-.11,0,.02v-.02Z"/>
    <path class="cls-19" d="M46.39,81.6s0,0,0,0h0Z"/>
    <path class="cls-19" d="M115.83,164.31s.01,0,0,0h0Z"/>
    <path class="cls-19" d="M84.74,48.87c.07.03.06.04-.02.04l.02-.04Z"/>
    <path class="cls-19" d="M136.76,82.93s0,.01,0,0h0Z"/>
    <path class="cls-19" d="M54.89,164.52s0,.02.02.02c0,0-.02,0-.03,0,0,0,0-.02,0-.02Z"/>
    <path class="cls-19" d="M46.66,107.9s-.05,0-.07.01c.02-.02.05-.04.07-.06,0,.01,0,.03,0,.04Z"/>
    <polygon class="cls-19" points="120.59 82.21 120.59 82.21 120.59 82.21 120.59 82.21"/>
    <path class="cls-19" d="M107.96,143.08c-.09-.07-.21-.25-.12-.17.04.04.17.19.15.19h-.03Z"/>
    <path class="cls-19" d="M74.59,71.41s0,0,0,0h0Z"/>
    <path class="cls-19" d="M87.63,59.59s0,0,0,0h0Z"/>
    <path class="cls-19" d="M131.3,146.17s-.02.04,0,0h0Z"/>
    <polygon class="cls-19" points="128.86 154.93 128.86 154.93 128.86 154.93 128.86 154.93"/>
    <path class="cls-19" d="M63.79,96.67s.01,0,.02,0c0,0,0,0,0,.01,0,0-.01,0-.02-.01Z"/>
    <path class="cls-19" d="M66.86,87.03s.04-.02.06-.03c-.02,0-.04.02-.06.03Z"/>
    <polygon class="cls-19" points="64.16 87.56 64.16 87.56 64.16 87.56 64.16 87.56"/>
    <polygon class="cls-19" points="69.26 98.51 69.27 98.51 69.26 98.51 69.26 98.51"/>
    <polygon class="cls-19" points="74.25 108.84 74.25 108.84 74.25 108.84 74.25 108.84"/>
    <path class="cls-19" d="M89.1,108.68s0,.02,0,.02c-.01,0-.03,0-.04,0,.01-.01.02-.02.03-.03Z"/>
    <path class="cls-19" d="M90.79,122.95s.01.01.02.01c0,0,0,0,0,0,0,0,0-.01-.01-.02Z"/>
    <path class="cls-19" d="M96.13,78.44s.06-.04.02,0h-.02Z"/>
    <polygon class="cls-19" points="89.09 131.34 89.09 131.33 89.09 131.33 89.09 131.34"/>
    <path class="cls-19" d="M90.67,130.42q-.15.06,0,0h0Z"/>
    <path class="cls-19" d="M98.83,103.36s0,.01,0,.02c0,0,0-.01,0-.02,0,0,0,0,0,0Z"/>
    <polygon class="cls-19" points="106.6 105.07 106.6 105.08 106.59 105.07 106.6 105.07"/>
    <polygon class="cls-19" points="91.52 126.96 91.53 126.97 91.52 126.98 91.52 126.96"/>
    <polygon class="cls-19" points="92.12 114.57 92.13 114.56 92.13 114.57 92.12 114.57"/>
    <path class="cls-19" d="M119.5,115.41s-.01,0,0,0h0Z"/>
    <path class="cls-19" d="M123.14,110.29s0,0,0,0c0,0,0,.01,0,.02v-.02Z"/>
    <path class="cls-19" d="M81.84,138.31s.01,0,.02.01c-.02.02-.04.04-.05.06.01-.02.02-.05.03-.07Z"/>
    <path class="cls-19" d="M108.91,78.92s0,0,0,0h0Z"/>
    <path class="cls-19" d="M82.25,138.28s.02,0,.03,0c0,.01-.02.02-.03.03,0,0,0-.01,0-.02Z"/>
    <path class="cls-19" d="M100.5,106.38s.01.02.02.03c-.02,0-.04,0-.05,0,.01,0,.02-.01.04-.02Z"/>
    <path class="cls-19" d="M128.98,148.97s-.02,0-.02,0c0-.01.01-.02.02-.03,0,.01,0,.02,0,.03Z"/>
    <polygon class="cls-19" points="128.98 148.98 128.98 148.97 128.99 148.98 128.98 148.98"/>
    <path class="cls-19" d="M103.94,74.15c.08-.11.08-.1,0,0h0Z"/>
    <path class="cls-19" d="M99.4,62.25s.01,0,.02,0c0,0,0,0,0,.01,0,0-.02,0-.03-.01Z"/>
    <polygon class="cls-19" points="85.07 138.15 85.07 138.15 85.07 138.15 85.07 138.15"/>
    <polygon class="cls-19" points="78.26 136.57 78.26 136.57 78.26 136.57 78.26 136.57"/>
    <polygon class="cls-19" points="120.35 152.38 120.35 152.39 120.34 152.39 120.35 152.38"/>
    <path class="cls-19" d="M128.85,154.92s0,.01-.01,0h.01Z"/>
    <path class="cls-19" d="M83.02,69.21s-.01,0-.02,0v-.02s.01.01.02.02Z"/>
    <path class="cls-19" d="M70.82,75.64s0-.01,0-.02c0,0,.02.01.02.02,0,0-.01,0-.02,0Z"/>
    <polygon class="cls-19" points="70.11 75.16 70.11 75.15 70.11 75.15 70.11 75.16"/>
    <path class="cls-19" d="M51.11,108.36s-.11.24-.11.22c-.02.01.1-.19.1-.22h0Z"/>
    <path class="cls-19" d="M109.04,146.02c.12.03.11.03,0,.03v-.03Z"/>
    <path class="cls-19" d="M110.37,148.98s0,.03,0,.05c-.02,0-.03,0-.05,0,.01-.02.03-.03.05-.05Z"/>
    <path class="cls-19" d="M72.55,74.32c.03.05-.05-.09-.02-.05l.02.02v.03Z"/>
    <polygon class="cls-19" points="72.3 76.62 72.3 76.61 72.3 76.61 72.3 76.62"/>
    <path class="cls-19" d="M107.94,142.55s0-.01,0-.02c0,0,0,0,.01.01,0,0,0,0,0,0Z"/>
    <path class="cls-19" d="M109.39,146.57s.02-.01,0,0h0Z"/>
    <path class="cls-19" d="M129.47,114.45s0-.01,0,0h0Z"/>
    <polygon class="cls-19" points="110.98 82.69 110.99 82.69 110.98 82.7 110.98 82.69"/>
    <path class="cls-19" d="M80.21,66.55s0-.01,0-.02c0,0,0-.01,0-.02,0,.01,0,.02,0,.03Z"/>
    <path class="cls-19" d="M72.68,75.77s.02.02-.02-.01c-.02-.04-.02-.04.01,0v.02Z"/>
    <path class="cls-19" d="M71.45,75.77s0,0-.01,0c0,0,0,0,.01,0,0,0,0,0,0,0Z"/>
    <polygon class="cls-19" points="60.02 69.56 60.01 69.57 60.01 69.56 60.02 69.56"/>
    <path class="cls-19" d="M95.16,140.03c.01-.07,0,0,0,.02v-.02Z"/>
    <polygon class="cls-19" points="95.77 141.92 95.76 141.92 95.77 141.92 95.77 141.92"/>
    <path class="cls-19" d="M95.78,141.95s0-.01,0-.02c0,0,0,.01,0,.02,0,0,0,0,0,0Z"/>
    <path class="cls-19" d="M96.13,143.61c.05.04,0,.02,0,0h0Z"/>
    <path class="cls-19" d="M102.95,141.2s0,.02-.01.03c0,0,0-.01-.01-.02.01,0,.02,0,.03,0Z"/>
    <path class="cls-19" d="M137.49,82.21s0,0,0,0h0Z"/>
    <path class="cls-19" d="M54.91,164.57v-.02s0,.01,0,.02c0,0,0,0,0,0Z"/>
    <polygon class="cls-19" points="134.46 85.25 134.46 85.25 134.45 85.25 134.46 85.25"/>
    <polygon class="cls-19" points="84.71 48.28 84.71 48.28 84.71 48.28 84.71 48.28"/>
    <polygon class="cls-19" points="65.49 153.96 65.49 153.96 65.49 153.96 65.49 153.96"/>
    <path class="cls-19" d="M133.73,143.77c-.05-.07,0-.04,0,0h0Z"/>
    <path class="cls-19" d="M85.55,47.79s-.01-.03.02-.02c.01,0,0,.03-.01.02h0Z"/>
    <path class="cls-19" d="M81.55,64.45s0,.01,0,.02c0,0-.01-.01-.02-.01,0,0,.01,0,.02,0Z"/>
    <polygon class="cls-19" points="113.78 166.61 113.77 166.62 113.77 166.61 113.78 166.61"/>
    <path class="cls-19" d="M123.62,168.06s.01.02,0,.01h0Z"/>
    <polygon class="cls-19" points="21.81 81.21 21.81 81.21 21.8 81.21 21.81 81.21"/>
    <polygon class="cls-19" points="27.78 84.88 27.79 84.88 27.78 84.88 27.78 84.88"/>
    <polygon class="cls-19" points="22.56 83.43 22.56 83.43 22.56 83.43 22.56 83.43"/>
    <polygon class="cls-19" points="123.51 86.71 123.5 86.71 123.51 86.7 123.51 86.71"/>
    <path class="cls-19" d="M81.19,61.41s0,0,0,0h0Z"/>
    <path class="cls-19" d="M53.82,70.17s-.01,0,0,0h0Z"/>
    <polygon class="cls-19" points="33.02 91.08 33.02 91.08 33.02 91.08 33.02 91.08"/>
    <path class="cls-19" d="M35.08,100.81s.02.02,0,0h0Z"/>
    <path class="cls-19" d="M112.2,166.98s0,0,0,.01c0,0,0,0,0-.01,0,0,0,0,.01,0Z"/>
    <path class="cls-19" d="M118.62,168.56c.09.14.01.05-.02-.02l.02.02Z"/>
    <path class="cls-19" d="M115.23,45s0,0,0-.01c0,0,0,0,.01,0,0,0,0,0,0,0Z"/>
    <path class="cls-19" d="M106.26,34.89c.1.01.1.01,0,0h0Z"/>
    <polygon class="cls-19" points="81.19 61.42 81.18 61.41 81.18 61.41 81.19 61.42"/>
    <path class="cls-19" d="M33.75,90.84s-.03.04-.01,0h.01Z"/>
    <path class="cls-19" d="M34.72,96.33s-.01,0-.02,0c0,0,.01,0,.02-.01,0,0,0,.01,0,.02Z"/>
    <path class="cls-19" d="M31.92,95.57s0,0,0,.01c0,0,0,0,0,0,0,0,0,0,0,0Z"/>
    <polygon class="cls-19" points="112.8 167.7 112.81 167.7 112.8 167.7 112.8 167.7"/>
    <path class="cls-19" d="M118.64,169.53s-.02,0-.02,0c0,0,0,0,0-.01.01,0,.02,0,.03.01Z"/>
    <path class="cls-19" d="M133.85,53.16s-.36.09-.34.08c-.04,0,.29-.08.34-.08h0Z"/>
    <polygon class="cls-19" points="7.63 74.52 7.63 74.52 7.63 74.53 7.63 74.52"/>
    <polygon class="cls-19" points="34.72 95.83 34.72 95.83 34.72 95.83 34.72 95.83"/>
    <path class="cls-19" d="M117.06,169.28s0,0,0,0h0Z"/>
    <path class="cls-19" d="M151.75,164.5s0,.02,0,.03c-.01,0-.02,0-.03.01,0-.01.02-.03.03-.04Z"/>
  </g>
  <g>
    <g>
      <path class="cls-11" d="M69.34,100.6h-3.56v3.49h-1.21v-3.49h-3.56v-1.13h3.56v-3.51h1.21v3.51h3.56v1.13Z"/>
      <path class="cls-11" d="M79.45,99.87c.89.7,1.33,1.67,1.33,2.92,0,.78-.18,1.47-.55,2.09s-.91,1.1-1.64,1.45c-.73.35-1.62.53-2.68.53-.96,0-1.87-.16-2.73-.47-.86-.31-1.55-.73-2.08-1.25l.67-1.09c.45.46,1.03.83,1.76,1.12s1.51.43,2.36.43c1.11,0,1.97-.25,2.58-.75.61-.5.91-1.16.91-1.99,0-.92-.34-1.62-1.02-2.09-.68-.47-1.84-.71-3.46-.71h-2.85l.69-6.72h7.34v1.23h-6.13l-.46,4.27h1.72c1.94,0,3.36.35,4.24,1.04Z"/>
      <path class="cls-11" d="M84.31,105.04c.19.2.29.44.29.74,0,.15-.02.32-.07.5-.04.18-.11.38-.2.61l-.8,2.64h-.92l.65-2.78c-.2-.06-.37-.18-.5-.35-.13-.17-.19-.38-.19-.62,0-.29.1-.54.29-.74s.43-.3.73-.3.54.1.73.3Z"/>
      <path class="cls-11" d="M88.95,106.03c-.81-.55-1.44-1.34-1.9-2.37-.45-1.03-.68-2.24-.68-3.63s.23-2.6.68-3.63c.45-1.03,1.09-1.82,1.9-2.37.81-.55,1.73-.82,2.77-.82s1.96.27,2.77.82c.81.55,1.45,1.34,1.91,2.37.46,1.03.69,2.24.69,3.63s-.23,2.6-.69,3.63c-.46,1.03-1.1,1.82-1.91,2.37-.81.55-1.73.82-2.77.82s-1.96-.27-2.77-.82ZM93.78,104.93c.59-.43,1.06-1.07,1.39-1.9.33-.83.5-1.83.5-3.01s-.17-2.18-.5-3.01c-.33-.83-.79-1.46-1.39-1.9-.59-.43-1.28-.65-2.06-.65s-1.47.22-2.06.65c-.59.43-1.06,1.07-1.39,1.9-.33.83-.5,1.83-.5,3.01s.17,2.18.5,3.01c.33.83.8,1.46,1.39,1.9.59.43,1.28.65,2.06.65s1.47-.22,2.06-.65Z"/>
      <path class="cls-11" d="M101.63,106.03c-.81-.55-1.44-1.34-1.9-2.37-.45-1.03-.68-2.24-.68-3.63s.23-2.6.68-3.63c.45-1.03,1.09-1.82,1.9-2.37.81-.55,1.73-.82,2.77-.82s1.96.27,2.77.82c.81.55,1.45,1.34,1.91,2.37.46,1.03.69,2.24.69,3.63s-.23,2.6-.69,3.63c-.46,1.03-1.1,1.82-1.91,2.37-.81.55-1.73.82-2.77.82s-1.96-.27-2.77-.82ZM106.46,104.93c.59-.43,1.06-1.07,1.39-1.9.33-.83.5-1.83.5-3.01s-.17-2.18-.5-3.01c-.33-.83-.79-1.46-1.39-1.9-.59-.43-1.28-.65-2.06-.65s-1.47.22-2.06.65c-.59.43-1.06,1.07-1.39,1.9-.33.83-.5,1.83-.5,3.01s.17,2.18.5,3.01c.33.83.8,1.46,1.39,1.9.59.43,1.28.65,2.06.65s1.47-.22,2.06-.65Z"/>
      <path class="cls-11" d="M112.38,99.5c-.56-.67-.83-1.55-.83-2.63s.28-1.96.83-2.63,1.29-1.01,2.19-1.01,1.62.33,2.18,1c.56.66.84,1.55.84,2.64s-.28,1.98-.84,2.64-1.29,1-2.18,1-1.64-.34-2.19-1.01ZM116.08,98.91c.38-.49.57-1.17.57-2.04s-.19-1.55-.57-2.04c-.38-.49-.88-.74-1.5-.74s-1.14.25-1.51.75c-.37.5-.56,1.18-.56,2.03s.18,1.53.56,2.03c.37.5.87.75,1.51.75s1.13-.25,1.5-.74ZM122.7,93.32h1.13l-9.16,13.41h-1.13l9.16-13.41ZM120.61,105.82c-.56-.67-.84-1.55-.84-2.63s.28-1.96.84-2.63c.56-.67,1.29-1.01,2.18-1.01s1.64.34,2.19,1.01c.56.67.83,1.55.83,2.63s-.28,1.96-.83,2.63c-.56.67-1.29,1.01-2.19,1.01s-1.62-.34-2.18-1.01ZM124.31,105.22c.37-.5.56-1.17.56-2.03s-.19-1.53-.56-2.03c-.37-.5-.87-.75-1.51-.75s-1.13.25-1.5.74c-.38.49-.57,1.17-.57,2.04s.19,1.55.57,2.04c.38.49.88.74,1.5.74s1.14-.25,1.51-.75Z"/>
    </g>
    <g>
      <path class="cls-11" d="M59.67,117.89c.38.21.68.52.9.91s.33.83.33,1.33-.11.95-.33,1.34c-.22.39-.52.69-.9.91-.38.21-.81.32-1.29.32-.41,0-.78-.08-1.11-.25-.33-.17-.6-.42-.81-.74v2.81h-.68v-6.9h.65v1c.2-.33.47-.59.81-.77.34-.18.71-.27,1.14-.27.47,0,.9.11,1.28.32ZM59.3,121.85c.29-.16.51-.39.68-.69.16-.3.24-.64.24-1.02s-.08-.72-.24-1.02c-.16-.3-.39-.53-.68-.69s-.61-.25-.96-.25-.68.08-.96.25-.51.4-.67.69c-.16.3-.24.64-.24,1.02s.08.73.24,1.02c.16.3.39.53.67.69.28.16.6.24.96.24s.67-.08.96-.24Z"/>
      <path class="cls-11" d="M62.27,116.36c-.1-.1-.14-.21-.14-.34s.05-.24.14-.34c.1-.1.21-.14.35-.14s.26.05.35.14.14.2.14.33c0,.14-.05.26-.14.35s-.21.14-.35.14-.26-.05-.35-.14ZM62.28,117.61h.68v5.04h-.68v-5.04Z"/>
      <path class="cls-11" d="M65.04,122.52c-.37-.12-.67-.27-.88-.45l.31-.54c.21.17.48.3.8.41.32.11.65.16,1,.16.46,0,.8-.07,1.02-.22s.33-.35.33-.61c0-.19-.06-.33-.18-.44-.12-.11-.27-.19-.46-.24-.19-.05-.43-.11-.74-.16-.41-.08-.74-.15-.99-.23-.25-.08-.46-.22-.64-.41-.18-.19-.26-.46-.26-.8,0-.42.18-.77.53-1.03.35-.27.84-.4,1.47-.4.33,0,.65.04.98.13.33.09.59.2.8.34l-.3.55c-.42-.29-.91-.43-1.48-.43-.43,0-.76.08-.98.23s-.33.35-.33.6c0,.19.06.34.19.46.12.12.28.2.46.25.19.05.44.11.77.17.4.08.72.15.97.23.24.08.45.21.62.39.17.19.26.44.26.77,0,.44-.18.79-.55,1.05s-.88.39-1.53.39c-.41,0-.8-.06-1.17-.18Z"/>
      <path class="cls-11" d="M72.03,122.34c-.13.11-.28.2-.47.26-.19.06-.38.09-.58.09-.47,0-.84-.13-1.09-.38-.26-.26-.38-.62-.38-1.08v-4.72h.68v1.1h1.52v.57h-1.52v3.01c0,.3.07.53.22.68s.36.23.64.23c.31,0,.56-.09.75-.26l.24.49Z"/>
      <path class="cls-11" d="M76.1,121.93c.26-.11.49-.28.68-.49l.38.44c-.22.27-.5.47-.83.61-.33.14-.7.21-1.1.21-.52,0-.98-.11-1.38-.33-.4-.22-.72-.53-.94-.91s-.34-.83-.34-1.32.11-.93.32-1.32c.21-.39.51-.69.89-.91.38-.22.8-.33,1.28-.33.45,0,.85.1,1.21.31s.65.49.86.85c.21.36.33.78.34,1.25l-4.14.8c.13.41.36.73.69.96.34.23.74.35,1.2.35.31,0,.6-.06.87-.17ZM74.12,118.4c-.28.16-.49.39-.65.68-.16.29-.23.62-.23,1,0,.1,0,.17,0,.21l3.55-.69c-.08-.42-.27-.77-.58-1.04-.31-.27-.7-.41-1.15-.41-.35,0-.67.08-.94.24Z"/>
      <path class="cls-11" d="M79.04,122.52c-.37-.12-.67-.27-.88-.45l.31-.54c.21.17.48.3.8.41.32.11.65.16,1,.16.46,0,.8-.07,1.02-.22s.33-.35.33-.61c0-.19-.06-.33-.18-.44-.12-.11-.27-.19-.46-.24-.19-.05-.43-.11-.74-.16-.41-.08-.74-.15-.99-.23-.25-.08-.46-.22-.64-.41-.18-.19-.26-.46-.26-.8,0-.42.18-.77.53-1.03.35-.27.84-.4,1.47-.4.33,0,.65.04.98.13.33.09.59.2.8.34l-.3.55c-.42-.29-.91-.43-1.48-.43-.43,0-.76.08-.98.23s-.33.35-.33.6c0,.19.06.34.19.46.12.12.28.2.46.25.19.05.44.11.77.17.4.08.72.15.97.23.24.08.45.21.62.39.17.19.26.44.26.77,0,.44-.18.79-.55,1.05s-.88.39-1.53.39c-.41,0-.8-.06-1.17-.18Z"/>
      <path class="cls-11" d="M86.81,122.37c-.39-.22-.7-.52-.92-.91s-.34-.84-.34-1.33.11-.93.34-1.32.53-.69.92-.91.84-.33,1.34-.33c.43,0,.82.08,1.16.25.34.17.61.42.81.74l-.51.34c-.17-.25-.38-.44-.63-.56s-.53-.19-.83-.19c-.36,0-.69.08-.98.24-.29.16-.52.39-.68.69-.16.3-.24.64-.24,1.02s.08.73.24,1.03c.16.3.39.53.68.69.29.16.62.24.98.24.3,0,.58-.06.83-.18.26-.12.47-.31.63-.56l.51.34c-.2.33-.47.57-.81.74-.34.17-.73.25-1.16.25-.5,0-.94-.11-1.34-.33Z"/>
      <path class="cls-11" d="M95.99,117.61v4.43c0,.86-.2,1.49-.58,1.9-.39.41-.98.62-1.76.62-.44,0-.86-.07-1.25-.21s-.71-.33-.95-.57l.34-.52c.22.22.49.39.8.51s.66.18,1.02.18c.58,0,1.01-.15,1.28-.45.27-.3.41-.76.41-1.38v-.58c-.18.29-.42.52-.73.68-.31.16-.66.24-1.05.24-.66,0-1.18-.18-1.56-.55-.38-.37-.57-.9-.57-1.61v-2.68h.68v2.61c0,.53.13.93.39,1.21.26.27.64.41,1.12.41.53,0,.95-.16,1.25-.48.31-.32.46-.77.46-1.35v-2.4h.68Z"/>
      <path class="cls-11" d="M98.65,122.37c-.39-.22-.7-.52-.92-.91s-.34-.84-.34-1.33.11-.93.34-1.32.53-.69.92-.91.84-.33,1.34-.33c.43,0,.82.08,1.16.25.34.17.61.42.81.74l-.51.34c-.17-.25-.38-.44-.63-.56s-.53-.19-.83-.19c-.36,0-.69.08-.98.24-.29.16-.52.39-.68.69-.16.3-.24.64-.24,1.02s.08.73.24,1.03c.16.3.39.53.68.69.29.16.62.24.98.24.3,0,.58-.06.83-.18.26-.12.47-.31.63-.56l.51.34c-.2.33-.47.57-.81.74-.34.17-.73.25-1.16.25-.5,0-.94-.11-1.34-.33Z"/>
      <path class="cls-11" d="M103.58,122.31c-.25-.26-.37-.61-.37-1.06v-5.71h.68v5.65c0,.3.07.53.21.68.14.16.35.23.63.23.18,0,.33-.03.46-.09l.05.56c-.2.07-.4.11-.61.11-.45,0-.8-.13-1.05-.38Z"/>
      <path class="cls-11" d="M110.67,117.61v5.04h-.65v-1c-.2.34-.47.6-.81.78-.34.18-.71.27-1.13.27-.47,0-.9-.11-1.28-.33-.38-.22-.68-.52-.9-.91-.22-.39-.33-.83-.33-1.33s.11-.94.33-1.33c.22-.39.52-.69.9-.91.38-.21.81-.32,1.28-.32.41,0,.78.08,1.11.25.33.17.6.42.81.74v-.96h.68ZM109.09,121.85c.28-.16.51-.39.67-.69.16-.3.24-.64.24-1.02s-.08-.72-.24-1.02c-.16-.3-.39-.53-.67-.69-.28-.16-.6-.24-.95-.24s-.68.08-.96.24-.51.39-.67.69c-.16.3-.24.64-.24,1.02s.08.73.24,1.02c.16.3.39.53.67.69.28.16.6.24.96.24s.67-.08.95-.24Z"/>
      <path class="cls-11" d="M116.45,117.89c.38.21.68.52.9.91s.33.83.33,1.33-.11.94-.33,1.33-.52.69-.9.91c-.38.22-.81.33-1.28.33-.42,0-.8-.09-1.14-.27-.34-.18-.6-.44-.81-.78v1h-.65v-7.11h.68v3.03c.21-.33.48-.57.81-.74.33-.17.7-.25,1.11-.25.47,0,.9.11,1.28.32ZM116.08,121.85c.29-.16.51-.39.68-.69.16-.3.24-.64.24-1.02s-.08-.72-.24-1.02c-.16-.3-.39-.53-.68-.69s-.61-.24-.96-.24-.68.08-.96.24-.51.39-.67.69c-.16.3-.24.64-.24,1.02s.08.73.24,1.02c.16.3.39.53.67.69.28.16.6.24.96.24s.67-.08.96-.24Z"/>
      <path class="cls-11" d="M119.43,122.31c-.25-.26-.37-.61-.37-1.06v-5.71h.68v5.65c0,.3.07.53.21.68.14.16.35.23.63.23.18,0,.33-.03.46-.09l.05.56c-.2.07-.4.11-.61.11-.45,0-.8-.13-1.05-.38Z"/>
      <path class="cls-11" d="M124.95,121.93c.26-.11.49-.28.68-.49l.38.44c-.22.27-.5.47-.83.61-.33.14-.7.21-1.1.21-.52,0-.98-.11-1.38-.33-.4-.22-.72-.53-.94-.91s-.34-.83-.34-1.32.11-.93.32-1.32c.21-.39.51-.69.89-.91.38-.22.8-.33,1.28-.33.45,0,.85.1,1.21.31s.65.49.86.85c.21.36.33.78.34,1.25l-4.14.8c.13.41.36.73.69.96.34.23.74.35,1.2.35.31,0,.6-.06.87-.17ZM122.97,118.4c-.28.16-.49.39-.65.68-.16.29-.23.62-.23,1,0,.1,0,.17,0,.21l3.55-.69c-.08-.42-.27-.77-.58-1.04-.31-.27-.7-.41-1.15-.41-.35,0-.67.08-.94.24Z"/>
      <path class="cls-11" d="M127.89,122.52c-.37-.12-.67-.27-.88-.45l.31-.54c.21.17.48.3.8.41.32.11.65.16,1,.16.46,0,.8-.07,1.02-.22s.33-.35.33-.61c0-.19-.06-.33-.18-.44-.12-.11-.27-.19-.46-.24-.19-.05-.43-.11-.74-.16-.41-.08-.74-.15-.99-.23-.25-.08-.46-.22-.64-.41-.18-.19-.26-.46-.26-.8,0-.42.18-.77.53-1.03.35-.27.84-.4,1.47-.4.33,0,.65.04.98.13.33.09.59.2.8.34l-.3.55c-.42-.29-.91-.43-1.48-.43-.43,0-.76.08-.98.23s-.33.35-.33.6c0,.19.06.34.19.46.12.12.28.2.46.25.19.05.44.11.77.17.4.08.72.15.97.23.24.08.45.21.62.39.17.19.26.44.26.77,0,.44-.18.79-.55,1.05s-.88.39-1.53.39c-.41,0-.8-.06-1.17-.18Z"/>
    </g>
  </g>
  <g>
    <g>
      <g>
        <path class="cls-5" d="M179.12,153.61c.03,2.89.06,5.78.09,8.68"/>
        <path class="cls-5" d="M176.37,153.73c.69,2.81,1.39,5.62,2.08,8.42"/>
        <path class="cls-5" d="M182.6,154.22c-1.05,2.7-2.1,5.39-3.15,8.09"/>
        <path class="cls-5" d="M187.86,157.85c-2.5,1.45-5.01,2.9-7.51,4.35"/>
        <path class="cls-5" d="M189.4,162.6l-8.66.46"/>
        <path class="cls-5" d="M189.19,166.84c-2.75-.9-5.5-1.8-8.24-2.7"/>
        <path class="cls-5" d="M188.31,170.05c-2.36-1.67-4.72-3.34-7.08-5.02"/>
        <path class="cls-5" d="M179.96,164.93c1.83,2.24,3.66,4.48,5.48,6.72"/>
        <path class="cls-5" d="M179.29,165.15c.03,2.89.06,5.78.09,8.68"/>
        <path class="cls-5" d="M179.35,164.96c1.08,2.68,2.16,5.37,3.23,8.05"/>
        <path class="cls-5" d="M178.56,165.06c-.77,2.79-1.53,5.58-2.3,8.37"/>
        <path class="cls-5" d="M178.36,164.92l-5.51,6.7"/>
        <path class="cls-5" d="M177.94,164.49l-6.97,5.16"/>
        <path class="cls-5" d="M178.05,164.25c-3.05.91-6.1,1.83-9.15,2.74"/>
        <path class="cls-5" d="M173.09,155.61c1.76,2.29,3.53,4.58,5.29,6.87"/>
        <path class="cls-5" d="M177.68,163.42c-3.22.18-6.45.37-9.67.55"/>
        <path class="cls-5" d="M170.66,157.66l7.77,5.54"/>
        <path class="cls-5" d="M178.32,163.34c-3.2-1.12-6.39-2.24-9.59-3.35"/>
      </g>
      <ellipse class="cls-1" cx="179.1" cy="163.67" rx="11.17" ry="10.54"/>
    </g>
    <g>
      <g>
        <path class="cls-5" d="M139.24,153.4c.03,2.89.06,5.78.09,8.68"/>
        <path class="cls-5" d="M136.49,153.53c.69,2.81,1.39,5.62,2.08,8.42"/>
        <path class="cls-5" d="M142.72,154.02c-1.05,2.7-2.1,5.39-3.15,8.09"/>
        <path class="cls-5" d="M147.98,157.65c-2.5,1.45-5.01,2.9-7.51,4.35"/>
        <path class="cls-5" d="M149.52,162.4c-2.89.15-5.78.3-8.66.46"/>
        <path class="cls-5" d="M149.31,166.64l-8.24-2.7"/>
        <path class="cls-5" d="M148.43,169.85c-2.36-1.67-4.72-3.34-7.08-5.02"/>
        <path class="cls-5" d="M140.08,164.73c1.83,2.24,3.66,4.48,5.48,6.72"/>
        <path class="cls-5" d="M139.42,164.94c.03,2.89.06,5.78.09,8.68"/>
        <path class="cls-5" d="M139.47,164.76l3.23,8.05"/>
        <path class="cls-5" d="M138.68,164.86c-.77,2.79-1.53,5.58-2.3,8.37"/>
        <path class="cls-5" d="M138.48,164.71c-1.84,2.23-3.67,4.47-5.51,6.7"/>
        <path class="cls-5" d="M138.06,164.29l-6.97,5.16"/>
        <path class="cls-5" d="M138.17,164.04l-9.15,2.74"/>
        <path class="cls-5" d="M133.21,155.4c1.76,2.29,3.53,4.58,5.29,6.87"/>
        <path class="cls-5" d="M137.8,163.22c-3.22.18-6.45.37-9.67.55"/>
        <path class="cls-5" d="M130.78,157.45c2.59,1.85,5.18,3.69,7.77,5.54"/>
        <path class="cls-5" d="M138.44,163.14c-3.2-1.12-6.39-2.24-9.59-3.35"/>
      </g>
      <ellipse class="cls-1" cx="139.22" cy="163.47" rx="11.17" ry="10.54"/>
    </g>
    <path class="cls-20" d="M126.9,161.7h-1.82c1.17-6.85,7.13-11.92,14.05-11.97,6.88-.06,12.9,4.85,14.23,11.63-.64.03-1.27.06-1.91.09-1.26-5.81-6.47-9.96-12.41-9.89-5.92.07-11.02,4.33-12.15,10.15Z"/>
    <path class="cls-20" d="M135.77,151.99l.02.05c1.14,3.3,2.28,6.59,3.42,9.89,0,0,0,0,0,0,0,.05-.19.15-.97.35-1.15-3.37-2.29-6.75-3.44-10.12"/>
    <path class="cls-20" d="M140.48,161.78c2.1-2.68,4.19-5.36,6.29-8.03-.3-.24-.6-.48-.9-.72-2.25,2.98-4.49,5.96-6.74,8.94l1.35-.18Z"/>
    <path class="cls-20" d="M146.16,152.16c.87-1.13,1.75-2.26,2.62-3.38.75-.14,1.5-.29,2.25-.43,1.53,4.31,3.06,8.62,4.59,12.93-.72.06-1.44.12-2.15.17-1.34-3.59-2.68-7.17-4.03-10.76-.75.72-1.5,1.45-2.25,2.17-.34-.23-.69-.46-1.03-.69Z"/>
    <path class="cls-25" d="M149.8,145.57c.32,1.01.64,2.02.95,3.04h-1.21c-.23-.92-.46-1.84-.69-2.75.32-.09.64-.19.95-.28Z"/>
    <path class="cls-20" d="M166.98,165.87c-.14-.7-1.02-5.72,2.43-9.89,2.77-3.35,7.29-4.88,11.71-3.99.06-.64.12-1.27.17-1.91-.39-.09-7.41-1.64-12.58,3.56-5.04,5.07-3.66,11.86-3.56,12.32.61-.03,1.21-.06,1.82-.09Z"/>
    <path class="cls-20" d="M179.39,162.66c-.7-.45-1.74-1.22-2.69-2.43-1.83-2.34-2.09-4.66-2.69-7.55-.42-2-1.19-4.78-2.78-8.07-.35.03-.69.06-1.04.09,1.29,3.31,2.06,6.06,2.52,7.98.83,3.45,1.1,5.99,3.21,8.33.8.89,1.62,1.47,2.17,1.82.43-.06.87-.12,1.3-.17Z"/>
    <path class="cls-20" d="M166.72,162.83h11.28v.95c-3.76.06-7.52.12-11.28.17v-1.13Z"/>
    <path class="cls-25" d="M170.07,141.66c-.35.09-.7.18-1.05.27.42.92.84,1.85,1.25,2.77h1.05c-.42-1.01-.84-2.02-1.25-3.04Z"/>
    <path class="cls-24" d="M170.99,143.38c.72.25,2.88-2.8,2.2-3.83-.17-.26-.45-.27-2.74-.59-.77-.11-1.39-.2-1.78-.25v.93c.43.06,1.08.15,1.87.25,1.2.15,1.5.17,1.62.38.28.53-.96,1.74-1.49,2.23.02.37.1.8.33.88Z"/>
    <path class="cls-24" d="M168.42,140.67c-.03.32-.06.65-.09.97.77-.04,1.53-.09,2.3-.13-.05.04-.25.19-.28.44-.03.24.09.52.28.57.46.14,1.57-1.15,1.24-1.76-.07-.12-.19-.21-.32-.26-1.04.06-2.08.12-3.13.18Z"/>
    <path class="cls-20" d="M170.46,144.81c.34.81.67,1.62,1.01,2.43-4.05,5.15-8.11,10.3-12.16,15.44-.61-.5-1.23-1-1.84-1.5,4.33-5.46,8.66-10.91,12.99-16.37Z"/>
    <path class="cls-20" d="M138.44,164.83c-.21-.15-.82-.58-.87-1.21,0,0-.04-.55.52-1.16,1.64-1.78,16.83-5.05,20.47-.64.33.39,1.17,1.42.98,2.6-.18,1.1-1.16,1.77-1.45,1.97-2.27,1.55-4.69-.36-9.72-.69-3.55-.24-8.28.31-9.95-.87Z"/>
    <ellipse class="cls-24" cx="139.21" cy="163.47" rx="1.17" ry="1.19"/>
    <ellipse class="cls-24" cx="156.45" cy="164.18" rx="1.42" ry="1.43"/>
    <ellipse class="cls-20" cx="179.1" cy="163.41" rx="1.17" ry="1.19"/>
    <path class="cls-24" d="M156.58,166.38c1.23.68,2.45,1.37,3.68,2.05l-.39.69c-.87-.48-1.74-.96-2.61-1.44.07-.13.13-.26.2-.39-.35-.2-.7-.41-1.05-.61.05-.1.11-.2.16-.31Z"/>
    <path class="cls-24" d="M154.15,145.16c-.29.5-1.2.25-2.68.35-1.84.12-2.72.67-4.95.78-.25.01-.85.04-1.45-.29-.2-.11-.79-.43-.87-.98-.08-.56.37-1.19,1.15-1.5,1.81-.27,7.75-1.06,8.69.67.06.11.33.62.12.98Z"/>
    <g>
      <g>
        <path class="cls-17" d="M151.46,140.37c-1-1.26-2.84-1.47-4.1-.47-1.26,1-1.47,2.84-.47,4.1.03.04.07.08.11.12.02.03.03.05.05.08l7.89,8.57c.86,1.08,2.43,1.26,3.51.4h0c1.08-.86,1.26-2.43.4-3.51l-7.23-9.1s-.06-.06-.08-.09c-.02-.03-.05-.07-.07-.1Z"/>
        <path class="cls-17" d="M150.94,138.12l-5.16-.7s-2.73,1.43-1.13,6.14l2.85.38h.08s3.08.43,3.08.43c.71-5.05.28-6.25.28-6.25Z"/>
      </g>
      <g>
        <g>
          <polygon class="cls-8" points="149.74 162.84 147.67 165.3 145.78 163.9 147.69 161.32 149.74 162.84"/>
          <g>
            <path class="cls-15" d="M145.76,163.49l-1.18,1.55,5.89,4.37.03-.05c.27-.36.3-.84.09-1.24l-2.03-3.29c-.07-.13-.2-.22-.34-.2-.66.12-1.55.45-2.17-1.08-.05-.11-.19-.14-.28-.05Z"/>
            <rect class="cls-23" x="143.71" y="167.17" width="7.33" height=".51" transform="translate(128.71 -54.84) rotate(36.56)"/>
          </g>
        </g>
        <g>
          <path class="cls-17" d="M158.5,149.03h0c-1.11-.82-2.67-.59-3.49.52l-8.77,11.82,4.01,2.97,8.77-11.82c.82-1.11.59-2.67-.52-3.49Z"/>
          <rect class="cls-12" x="146.39" y="160.91" width="5.28" height="2.26" transform="translate(125.83 -56.89) rotate(36.56)"/>
        </g>
      </g>
    </g>
    <path class="cls-21" d="M156.09,118.69c-.33,1.98-2.14,3.32-4.04,3s-3.17-2.18-2.83-4.16c.33-1.98,2.1-3.06,4-2.74s3.21,1.92,2.88,3.9Z"/>
    <g>
      <path class="cls-8" d="M151.21,126.29h0c-.7-.16-1.14-.86-.99-1.56l.83-3.71,2.54.57-.83,3.71c-.16.7-.86,1.14-1.56.99Z"/>
      <path class="cls-8" d="M151.47,121.48s.03,1.97,1.5,2.91l.24-1.09-1.75-1.82"/>
    </g>
    <g>
      <path class="cls-8" d="M153.34,123.51h0c-1.33-.22-2.1-1.4-1.88-2.66l.7-4.13,2.26.16c.83.14,1.74,1.47,1.61,2.25l-.48,2.84c-.37,1.15-1.23,1.71-2.2,1.55Z"/>
      <path class="cls-8" d="M155.61,119.74l.53,1.37c.07.14-.05.3-.22.27l-.99-.17.68-1.47Z"/>
    </g>
    <polygon class="cls-21" points="151.42 119.05 151.61 120.03 152.3 117.86 151.15 117.74 151.42 119.05"/>
    <path class="cls-21" d="M151.53,120.79s-.54,1.22-1.06.95l.37-.84.69-.11Z"/>
    <g>
      <path class="cls-8" d="M151.33,121.01c-.7.32-1.47-1.79-.78-2.14.69-.35,1.02.75,1.02.75l.04.4-.08.76-.03.18-.17.05Z"/>
      <g>
        <path class="cls-4" d="M150.69,119.48s.44-.07.63.59"/>
        <path class="cls-4" d="M151.17,119.74s-.49.17-.26.58"/>
      </g>
    </g>
    <g>
      <path class="cls-13" d="M155.49,119.91c-.02.14-.15.23-.29.21s-.23-.15-.21-.29.15-.23.29-.21.23.15.21.29Z"/>
      <path class="cls-21" d="M154.15,119.26s.81-.11,1.58-.02c0,0-.17-.45-.67-.42-.5.03-.92.44-.92.44Z"/>
      <path class="cls-4" d="M154.67,121.67s.37.21.87.29"/>
    </g>
    <g class="cls-10">
      <path class="cls-8" d="M156.83,135.29c-.77-.22-1.57.22-1.79.99-.22.77.22,1.57.99,1.79.03,0,.06.01.09.02l9.73,2.33.21-1.54-9.14-3.56s-.06-.02-.08-.03Z"/>
      <path class="cls-8" d="M165.19,139.33c.23-.53.56-.54.93-.47h0s0,0,0,0c2.06.4,2.92.92,3.64,1.22.76.31,1.7,1.43,1.47,1.67-.23.24-.69-.19-1-.54s-1.1-.47-1.8-.59c-.7-.11-.6.13-.6.13l.47.45c.17.17.18.42,0,.55-.13.1-.3.07-.43-.03l-2.42-1.52s-.5-.31-.25-.87Z"/>
    </g>
    <g>
      <path class="cls-7" d="M153.78,127.57c-.33-.73-1.18-1.05-1.91-.72s-1.05,1.18-.72,1.91c.01.03.03.05.04.08l3.82,8.44c.33.72,1.18,1.05,1.9.72h0c.72-.33,1.05-1.18.72-1.9l-3.82-8.44s-.02-.06-.03-.08Z"/>
      <g class="cls-6">
        <path class="cls-16" d="M155.4,129.95s-2.06,1-4.16.69c0,0-1.58-3.62.74-4.29,2.32-.67,3.42,3.6,3.42,3.6Z"/>
      </g>
    </g>
    <line class="cls-2" x1="151.98" y1="130.73" x2="150.96" y2="128.47"/>
    <path class="cls-16" d="M154.29,130.43c.25-1.06-.27-2.78-.42-3.36,0-.02-.03-.04-.08-.05-.28-.88-1-1.61-1.96-1.85l-.55-.14h-.05s0-.01,0-.01c-2.2-.56-4.06,1.55-4.46,4.3-.46,3.17-1,8.48-1,8.48l5.04,1.28s1.01-3.19,1.99-6.64c.7-.51,1.29-1.17,1.49-1.99Z"/>
    <path class="cls-8" d="M149.39,125.14s1.84-.14,4.34,1.69c0,0-.36-1-1.44-1.78-.93-.68-1.71-.21-1.71-.21,0,0-.57.04-1.19.31Z"/>
    <g>
      <path class="cls-8" d="M157.11,134.92c-.78-.14-1.54.37-1.68,1.16-.14.78.37,1.54,1.16,1.68.03,0,.06,0,.09.01l9.91,1.36.06-1.55-9.45-2.64s-.06-.02-.09-.02Z"/>
      <path class="cls-8" d="M165.83,138.11c.18-.55.5-.6.88-.56h0s0,0,0,0c2.09.2,3,.63,3.75.86.79.24,1.83,1.26,1.62,1.52-.21.26-.71-.12-1.05-.44s-1.14-.36-1.85-.4c-.71-.04-.59.19-.59.19l.51.4c.19.15.22.4.06.54-.12.11-.29.1-.43.02l-2.56-1.28s-.53-.26-.34-.85Z"/>
    </g>
    <g>
      <path class="cls-7" d="M152.26,127.86c-.49-.63-1.4-.74-2.03-.25s-.74,1.4-.25,2.03c.02.02.04.04.06.07l5.72,7.28c.49.63,1.39.74,2.02.25h0c.63-.49.74-1.39.25-2.02l-5.72-7.28s-.03-.05-.05-.07Z"/>
      <g class="cls-9">
        <path class="cls-16" d="M154.4,129.78s-1.76,1.47-3.88,1.66c0,0-2.4-3.14-.3-4.34,2.1-1.2,4.18,2.68,4.18,2.68Z"/>
      </g>
    </g>
    <line class="cls-3" x1="153.97" y1="130.05" x2="152.26" y2="127.86"/>
    <line class="cls-3" x1="151.26" y1="131.35" x2="149.73" y2="129.41"/>
    <g>
      <g>
        <path class="cls-14" d="M148.86,138.94c-1.28-.98-3.11-.73-4.09.55s-.73,3.11.55,4.09c.04.03.09.06.13.09.02.02.04.04.07.06l9.74,6.39c1.1.84,2.66.63,3.5-.47h0c.84-1.1.63-2.66-.47-3.5l-9.23-7.06s-.07-.05-.1-.07c-.03-.03-.06-.06-.1-.08Z"/>
        <path class="cls-14" d="M151.03,138.24l-5.16-.7s-2.73,1.43-1.13,6.14l2.85.38h.08s2.63.37,2.63.37c.81-4.79.73-6.19.73-6.19Z"/>
      </g>
      <g>
        <g>
          <polygon class="cls-8" points="155.97 161.92 155.34 165.07 153.01 164.75 153.44 161.57 155.97 161.92"/>
          <g>
            <path class="cls-18" d="M152.8,164.4l-.29,1.93,7.26.98v-.06c.07-.44-.13-.88-.51-1.13l-3.37-1.9c-.12-.08-.28-.1-.4,0-.53.42-1.14,1.15-2.43.1-.09-.08-.24-.02-.27.09Z"/>
            <rect class="cls-23" x="152.45" y="166.81" width="7.33" height=".51" transform="translate(23.76 -19.39) rotate(7.69)"/>
          </g>
        </g>
        <g>
          <path class="cls-14" d="M153.33,145.51h4.99v16.16c0,.59-.48,1.06-1.06,1.06h-2.87c-.59,0-1.06-.48-1.06-1.06v-16.16h0Z" transform="translate(289.62 327.71) rotate(-172.31)"/>
          <rect class="cls-22" x="152.33" y="160.42" width="5.28" height="2.26" transform="translate(23.01 -19.28) rotate(7.69)"/>
        </g>
      </g>
    </g>
  </g>
</svg>