<?xml version="1.0" encoding="UTF-8"?>
<svg id="Calque_5" data-name="Calque 5" xmlns="http://www.w3.org/2000/svg" viewBox="0 0 439.37 442.57">
  <defs>
    <style>
      .cls-1 {
        fill: #a8504e;
      }

      .cls-2 {
        fill: #fff;
      }

      .cls-3 {
        fill: none;
        stroke: #e9d0d1;
        stroke-miterlimit: 10;
        stroke-width: .5px;
      }

      .cls-4 {
        fill: #512c0a;
      }

      .cls-5 {
        fill: #422405;
      }

      .cls-6 {
        fill: #88c2e2;
      }

      .cls-7 {
        fill: #e9d0d1;
      }

      .cls-8 {
        fill: #d3d3d3;
      }

      .cls-9 {
        fill: #b88b8a;
      }

      .cls-10 {
        fill: #efcb4c;
      }

      .cls-11 {
        fill: #bf6267;
      }

      .cls-12 {
        fill: #bc4749;
      }

      .cls-13 {
        fill: #a74f4d;
      }

      .cls-14 {
        fill: #eade99;
      }

      .cls-15 {
        fill: #d2ebf7;
      }

      .cls-16 {
        fill: #e4e3e3;
      }

      .cls-17 {
        fill: #e8d0d0;
      }
    </style>
  </defs>
  <g id="_1" data-name="1">
    <path class="cls-13" d="M7.68,154.87c23.09-4.75,46.19-9.51,69.28-14.26,16.64,18,33.28,36,49.92,54-2.46,6.93-9.23,28.83-1.02,55.02,8.29,26.44,26.64,40.6,32.6,44.83-22.75,8.49-45.51,16.98-68.26,25.47l-8.15,75.4c-16.36-14.29-55.62-52.46-73.36-116.15-15.62-56.08-6.51-103.08-1.02-124.3Z"/>
    <circle class="cls-17" cx="57.43" cy="201.23" r="32.77"/>
    <g>
      <path d="M20.75,247.71l-3.33,7.7h-1.76l-3.32-7.7h1.93l2.34,5.5,2.38-5.5h1.77Z"/>
      <path d="M21.96,255.1c-.5-.26-.88-.62-1.16-1.08s-.42-.99-.42-1.57.14-1.11.42-1.57.67-.82,1.16-1.08c.49-.26,1.05-.39,1.68-.39s1.18.13,1.67.39c.49.26.88.62,1.16,1.08.28.46.42.99.42,1.57s-.14,1.11-.42,1.57c-.28.46-.66.82-1.16,1.08-.49.26-1.05.39-1.67.39s-1.18-.13-1.68-.39ZM24.73,253.64c.28-.3.42-.69.42-1.19s-.14-.9-.42-1.19-.64-.45-1.08-.45-.8.15-1.09.45-.43.69-.43,1.19.14.9.43,1.19.65.45,1.09.45.8-.15,1.08-.45Z"/>
      <path d="M28.12,248.39c-.2-.18-.3-.41-.3-.68s.1-.5.3-.68c.2-.18.45-.28.77-.28s.57.09.77.26c.2.18.3.4.3.66,0,.29-.1.52-.3.71-.2.19-.45.28-.77.28s-.57-.09-.77-.27ZM28.03,249.49h1.72v5.92h-1.72v-5.92Z"/>
      <path d="M34.91,255.12c-.17.12-.38.22-.62.28-.25.06-.5.09-.76.09-.71,0-1.26-.18-1.64-.54s-.57-.89-.57-1.58v-5.19h1.72v1.44h1.46v1.32h-1.46v2.41c0,.25.06.44.19.58.12.14.3.2.54.2.26,0,.5-.07.7-.22l.45,1.21Z"/>
      <path d="M41.84,249.49v5.92h-1.63v-.7c-.23.26-.5.45-.81.59s-.66.2-1.02.2c-.78,0-1.39-.22-1.85-.67s-.68-1.11-.68-1.99v-3.34h1.72v3.09c0,.95.4,1.43,1.2,1.43.41,0,.74-.13.99-.4.25-.27.37-.67.37-1.19v-2.93h1.72Z"/>
      <path d="M45.9,249.62c.35-.15.75-.22,1.2-.22v1.58c-.19-.01-.32-.02-.38-.02-.49,0-.88.14-1.16.41-.28.27-.42.69-.42,1.24v2.79h-1.72v-5.92h1.64v.78c.21-.29.48-.5.83-.65Z"/>
      <path d="M51.87,253.98c.24-.09.46-.24.67-.43l.91.99c-.56.64-1.37.96-2.44.96-.67,0-1.26-.13-1.77-.39-.51-.26-.91-.62-1.19-1.08s-.42-.99-.42-1.57.14-1.1.41-1.57c.27-.47.65-.83,1.13-1.09.48-.26,1.02-.39,1.62-.39.56,0,1.08.12,1.54.36s.83.58,1.11,1.03.41.98.41,1.6l-4.38.85c.12.29.32.51.59.66.27.15.6.22.98.22.31,0,.58-.05.82-.14ZM49.75,251.12c-.27.28-.41.66-.43,1.16l2.88-.56c-.08-.31-.25-.55-.5-.74-.25-.18-.55-.28-.9-.28-.43,0-.78.14-1.06.42Z"/>
      <path d="M61.69,255.12c-.17.12-.38.22-.62.28-.25.06-.5.09-.76.09-.71,0-1.26-.18-1.64-.54s-.57-.89-.57-1.58v-5.19h1.72v1.44h1.46v1.32h-1.46v2.41c0,.25.06.44.19.58.12.14.3.2.54.2.26,0,.5-.07.7-.22l.45,1.21Z"/>
      <path d="M68.03,250.06c.45.44.68,1.09.68,1.96v3.39h-1.72v-3.12c0-.47-.1-.82-.31-1.05-.21-.23-.5-.35-.89-.35-.43,0-.78.13-1.03.4-.26.27-.39.67-.39,1.19v2.93h-1.72v-8.16h1.72v2.86c.23-.23.5-.4.83-.52s.67-.18,1.06-.18c.73,0,1.33.22,1.78.66Z"/>
      <path d="M74.13,253.98c.24-.09.46-.24.67-.43l.91.99c-.56.64-1.37.96-2.44.96-.67,0-1.26-.13-1.77-.39-.51-.26-.91-.62-1.19-1.08s-.42-.99-.42-1.57.14-1.1.41-1.57c.27-.47.65-.83,1.13-1.09.48-.26,1.02-.39,1.62-.39.56,0,1.08.12,1.54.36s.83.58,1.11,1.03.41.98.41,1.6l-4.38.85c.12.29.32.51.59.66.27.15.6.22.98.22.31,0,.58-.05.82-.14ZM72,251.12c-.27.28-.41.66-.43,1.16l2.88-.56c-.08-.31-.25-.55-.5-.74-.25-.18-.55-.28-.9-.28-.43,0-.78.14-1.06.42Z"/>
      <path d="M79.74,249.62c.35-.15.75-.22,1.2-.22v1.58c-.19-.01-.32-.02-.38-.02-.49,0-.88.14-1.16.41-.28.27-.42.69-.42,1.24v2.79h-1.72v-5.92h1.64v.78c.21-.29.48-.5.83-.65Z"/>
      <path d="M91.31,250.06c.44.44.65,1.09.65,1.96v3.39h-1.72v-3.12c0-.47-.1-.82-.29-1.05-.19-.23-.47-.35-.83-.35-.4,0-.72.13-.96.39-.23.26-.35.65-.35,1.16v2.97h-1.72v-3.12c0-.93-.37-1.4-1.12-1.4-.4,0-.71.13-.95.39-.23.26-.35.65-.35,1.16v2.97h-1.72v-5.92h1.64v.68c.22-.25.49-.44.81-.57.32-.13.67-.2,1.05-.2.42,0,.8.08,1.13.25s.61.41.81.72c.24-.31.55-.55.92-.71.37-.17.78-.25,1.22-.25.74,0,1.33.22,1.77.65Z"/>
      <path d="M93.59,248.39c-.2-.18-.3-.41-.3-.68s.1-.5.3-.68c.2-.18.45-.28.77-.28s.57.09.77.26c.2.18.3.4.3.66,0,.29-.1.52-.3.71-.2.19-.45.28-.77.28s-.57-.09-.77-.27ZM93.5,249.49h1.72v5.92h-1.72v-5.92Z"/>
      <path d="M102.82,249.49v8.05h-1.72v-2.76c-.43.48-1.02.71-1.77.71-.56,0-1.06-.12-1.51-.37-.45-.25-.8-.6-1.06-1.07-.26-.46-.38-1-.38-1.61s.13-1.14.38-1.61c.26-.46.61-.82,1.06-1.07.45-.25.96-.37,1.51-.37.81,0,1.42.26,1.85.77v-.68h1.64ZM100.71,253.64c.29-.3.43-.69.43-1.19s-.14-.9-.43-1.19-.65-.45-1.08-.45-.8.15-1.09.45-.43.69-.43,1.19.14.9.43,1.19.65.45,1.09.45.79-.15,1.08-.45Z"/>
      <path d="M110.37,249.49v5.92h-1.63v-.7c-.23.26-.5.45-.81.59s-.66.2-1.02.2c-.78,0-1.39-.22-1.85-.67s-.68-1.11-.68-1.99v-3.34h1.72v3.09c0,.95.4,1.43,1.2,1.43.41,0,.74-.13.99-.4.25-.27.37-.67.37-1.19v-2.93h1.72Z"/>
      <path d="M115.76,253.98c.24-.09.46-.24.67-.43l.91.99c-.56.64-1.37.96-2.44.96-.67,0-1.26-.13-1.77-.39-.51-.26-.91-.62-1.19-1.08s-.42-.99-.42-1.57.14-1.1.41-1.57c.27-.47.65-.83,1.13-1.09.48-.26,1.02-.39,1.62-.39.56,0,1.08.12,1.54.36s.83.58,1.11,1.03.41.98.41,1.6l-4.38.85c.12.29.32.51.59.66.27.15.6.22.98.22.31,0,.58-.05.82-.14ZM113.63,251.12c-.27.28-.41.66-.43,1.16l2.88-.56c-.08-.31-.25-.55-.5-.74-.25-.18-.55-.28-.9-.28-.43,0-.78.14-1.06.42Z"/>
    </g>
    <g>
      <path d="M30.78,274.76h-1.37v1.76h-1.9v-1.76h-4.52v-1.31l3.96-5.33h2.04l-3.67,5.05h2.26v-1.57h1.84v1.57h1.37v1.58Z"/>
      <path d="M39.05,274.76h-1.37v1.76h-1.9v-1.76h-4.52v-1.31l3.96-5.33h2.04l-3.67,5.05h2.26v-1.57h1.84v1.57h1.37v1.58Z"/>
      <path d="M41.81,274.61c.22.21.32.49.32.83,0,.16-.02.32-.06.48s-.13.4-.26.72l-.68,1.73h-1.19l.53-1.91c-.2-.08-.36-.21-.47-.39-.12-.18-.17-.39-.17-.63,0-.34.11-.62.33-.83.22-.21.5-.32.83-.32s.61.11.83.32Z"/>
      <path d="M48.75,272.37c.39.43.59.96.59,1.59,0,.49-.13.94-.38,1.35-.26.41-.65.74-1.17.99-.52.25-1.17.37-1.93.37-.59,0-1.17-.08-1.75-.23-.57-.16-1.06-.38-1.46-.67l.76-1.49c.32.24.69.43,1.11.56.42.13.85.2,1.29.2.49,0,.87-.09,1.15-.28.28-.19.42-.45.42-.8,0-.69-.52-1.03-1.57-1.03h-.89v-1.28l1.73-1.96h-3.58v-1.56h5.88v1.26l-1.9,2.16c.74.12,1.3.39,1.69.82Z"/>
      <path d="M50.55,272.03c-.39-.42-.58-.98-.58-1.69s.19-1.27.58-1.69c.39-.42.89-.63,1.51-.63s1.12.21,1.5.63c.38.42.58.98.58,1.69s-.19,1.27-.58,1.69c-.38.42-.88.63-1.5.63s-1.12-.21-1.51-.63ZM52.7,271.34c.16-.22.23-.56.23-1s-.08-.77-.23-1c-.16-.22-.37-.34-.64-.34s-.48.11-.64.34c-.16.23-.24.56-.24.99s.08.76.24.99c.16.23.37.34.64.34s.49-.11.64-.34ZM57.06,268.13h1.43l-5.74,8.4h-1.43l5.74-8.4ZM56.68,276.34c-.32-.19-.56-.46-.74-.81s-.26-.76-.26-1.22.09-.87.26-1.22c.18-.35.42-.62.74-.81.32-.19.67-.28,1.07-.28.62,0,1.12.21,1.51.63.39.42.58.98.58,1.69s-.19,1.27-.58,1.69c-.39.42-.89.63-1.51.63-.4,0-.76-.09-1.07-.28ZM58.4,275.3c.16-.23.23-.56.23-.99s-.08-.76-.23-.99c-.16-.23-.37-.34-.64-.34s-.48.11-.64.34c-.16.22-.24.56-.24,1s.08.77.24,1c.16.22.37.34.64.34s.49-.11.64-.34Z"/>
      <path d="M71,267.62v8.9h-1.79v-.74c-.46.56-1.14.84-2.02.84-.61,0-1.16-.14-1.65-.41-.49-.27-.88-.66-1.16-1.16-.28-.5-.42-1.09-.42-1.75s.14-1.25.42-1.75c.28-.5.67-.89,1.16-1.16.49-.27,1.04-.41,1.65-.41.82,0,1.47.26,1.93.78v-3.13h1.87ZM68.7,274.6c.31-.32.47-.76.47-1.3s-.16-.98-.47-1.3c-.31-.32-.7-.49-1.18-.49s-.88.16-1.19.49c-.31.32-.47.76-.47,1.3s.16.98.47,1.3.71.49,1.19.49.86-.16,1.18-.49Z"/>
      <path d="M76.88,274.97c.26-.1.5-.26.73-.47l1,1.08c-.61.7-1.5,1.04-2.66,1.04-.73,0-1.37-.14-1.93-.43-.56-.28-.99-.68-1.3-1.18s-.46-1.08-.46-1.72.15-1.2.45-1.71c.3-.51.71-.9,1.24-1.19s1.11-.43,1.77-.43c.62,0,1.18.13,1.68.39s.91.64,1.21,1.13c.3.49.45,1.07.45,1.75l-4.78.92c.14.32.35.56.64.72s.65.24,1.07.24c.34,0,.63-.05.89-.15ZM74.56,271.85c-.3.3-.45.72-.47,1.26l3.14-.61c-.09-.34-.27-.6-.54-.8-.27-.2-.6-.3-.98-.3-.47,0-.86.15-1.15.46Z"/>
      <path d="M85.53,276.11c-.69-.37-1.24-.89-1.63-1.55s-.59-1.41-.59-2.24.2-1.58.59-2.24c.4-.66.94-1.18,1.63-1.55s1.47-.56,2.33-.56c.73,0,1.39.13,1.97.38s1.08.62,1.48,1.1l-1.25,1.15c-.57-.66-1.27-.98-2.11-.98-.52,0-.98.11-1.39.34-.41.23-.73.55-.95.95s-.34.87-.34,1.39.11.98.34,1.39c.23.41.55.73.95.95.41.23.87.34,1.39.34.84,0,1.54-.33,2.11-1l1.25,1.15c-.4.49-.9.86-1.49,1.12-.59.26-1.25.38-1.98.38-.86,0-1.63-.19-2.32-.56Z"/>
      <path d="M94.16,276.11c-.7-.38-1.25-.89-1.64-1.55-.4-.66-.59-1.4-.59-2.23s.2-1.57.59-2.23.94-1.18,1.64-1.55c.7-.38,1.49-.56,2.36-.56s1.66.19,2.35.56c.7.38,1.24.89,1.64,1.55.4.66.6,1.4.6,2.23s-.2,1.57-.6,2.23c-.4.66-.95,1.18-1.64,1.55s-1.48.56-2.35.56-1.66-.19-2.36-.56ZM97.86,274.67c.4-.23.71-.55.94-.95.23-.41.34-.87.34-1.39s-.11-.98-.34-1.39-.54-.73-.94-.95c-.4-.23-.85-.34-1.34-.34s-.94.11-1.34.34c-.4.23-.71.55-.94.95s-.34.87-.34,1.39.11.98.34,1.39c.23.41.54.73.94.95.4.23.85.34,1.34.34s.94-.11,1.34-.34Z"/>
    </g>
    <path d="M106.25,277.82v1.06h-4.23v-.84l2.16-2.04c.23-.22.38-.41.46-.56.08-.16.12-.31.12-.47,0-.22-.08-.4-.23-.52-.15-.12-.37-.18-.67-.18-.25,0-.47.05-.66.14-.2.09-.36.23-.5.42l-.94-.61c.22-.33.52-.58.9-.76.38-.18.82-.28,1.32-.28.42,0,.78.07,1.09.2s.55.33.73.58.26.54.26.88c0,.3-.06.59-.19.86s-.38.57-.74.91l-1.29,1.22h2.41Z"/>
    <g>
      <path class="cls-11" d="M34.93,208.84h49.53s1.12-2.41,0-4.15c-.45-3.28.84-5-11.46-6.62-4.21-4.77-5.22-7.13-9.04-7.35h-16.85s-4.72.11-9.1,7.18c-3.54.51-1.12.11-3.54.51-5.07.17-7.58,11,.45,10.44Z"/>
      <path class="cls-12" d="M29.79,205.11h14.16l1.14,2.53h26.92l8.4-2.53h4.24s2.51,1.66,0,3.93h-50.12s-4.78.36-4.75-3.93Z"/>
      <g>
        <circle class="cls-5" cx="40.76" cy="207.42" r="4.53"/>
        <circle class="cls-4" cx="40.76" cy="207.42" r="3.13"/>
        <circle class="cls-8" cx="40.76" cy="207.42" r="1.81"/>
      </g>
      <g>
        <circle class="cls-5" cx="76.29" cy="207.42" r="4.53"/>
        <circle class="cls-4" cx="76.29" cy="207.42" r="3.13"/>
        <circle class="cls-8" cx="76.29" cy="207.42" r="1.81"/>
      </g>
      <path class="cls-8" d="M55.3,192.29v5.56h-14.42s4.29-5.56,5.56-5.56h8.87Z"/>
      <path class="cls-8" d="M56.32,192.29v5.56h13.6s-4.05-5.56-5.24-5.56h-8.36Z"/>
      <path class="cls-10" d="M82.89,203.45c-.23,0-.2-1.22,0-1.22h1.26c.07,0,.28,1.22.14,1.22h-1.4Z"/>
      <path class="cls-12" d="M29.79,203.95s0-2.86,1.25-3.42c-.01,3.04-1.25,3.42-1.25,3.42Z"/>
      <g>
        <path class="cls-12" d="M40.2,198.58l.06,3.47s5.85-.75,6.03,6.29h24.83l.34-8.19s.11-.37-1.01-2.02h-.75s1.08,1.56,1.11,1.85-.28,7.86-.28,7.86c0,0-23.41.13-23.7.1.18-1.73-1.25-6.4-5.96-6.52-.01-1.38-.03-2.82-.03-2.82h-.63Z"/>
        <rect class="cls-12" x="55.54" y="192.29" width=".58" height="15.78"/>
      </g>
      <path class="cls-5" d="M70.86,198.78s-3.62.37-2.88-2.27c1.6-.12,1.9-.79,2.88,2.27Z"/>
      <rect class="cls-12" x="42.44" y="199.35" width="2.39" height=".9"/>
      <rect class="cls-12" x="57.15" y="199.35" width="2.39" height=".9"/>
    </g>
  </g>
  <g id="_2" data-name="2">
    <path class="cls-6" d="M99.38,329.09l64.19-27.51c8.75,4.89,27.11,13.62,51.96,14.26,24.44.64,42.96-6.85,51.96-11.21,2.04,23.09,4.08,46.19,6.11,69.28,23.09,10.87,46.19,21.74,69.28,32.6-17.07,10.92-66.94,39.68-135.51,35.66-57.3-3.36-97.89-27.86-115.13-39.74,2.38-24.45,4.75-48.91,7.13-73.36Z"/>
    <circle class="cls-15" cx="147.71" cy="357.61" r="32.77"/>
    <g>
      <path d="M182.37,392.3c.25.33.37.73.37,1.21,0,.67-.26,1.19-.79,1.56-.52.36-1.29.54-2.29.54h-3.98v-7.7h3.76c.94,0,1.66.18,2.16.54s.75.85.75,1.46c0,.37-.09.71-.27,1-.18.29-.43.52-.75.69.44.14.78.37,1.03.7ZM177.46,389.24v1.82h1.77c.44,0,.77-.08,1-.23.23-.15.34-.38.34-.68s-.11-.53-.34-.68c-.23-.15-.56-.23-1-.23h-1.77ZM180.6,394.03c.24-.15.36-.39.36-.71,0-.64-.47-.96-1.42-.96h-2.08v1.9h2.08c.47,0,.82-.08,1.06-.23Z"/>
      <path d="M189.94,389.68v5.92h-1.63v-.7c-.23.26-.5.45-.81.59s-.66.2-1.02.2c-.78,0-1.39-.22-1.85-.67s-.68-1.11-.68-1.99v-3.34h1.72v3.09c0,.95.4,1.43,1.2,1.43.41,0,.74-.13.99-.4.25-.27.37-.67.37-1.19v-2.93h1.72Z"/>
      <path d="M192.09,395.51c-.47-.12-.84-.27-1.12-.46l.57-1.23c.26.17.58.31.96.41s.74.16,1.1.16c.73,0,1.09-.18,1.09-.54,0-.17-.1-.29-.3-.36-.2-.07-.5-.14-.91-.19-.48-.07-.88-.16-1.2-.25-.32-.1-.59-.26-.82-.51-.23-.24-.35-.59-.35-1.03,0-.37.11-.71.32-1,.22-.29.53-.51.95-.68.41-.16.9-.24,1.47-.24.42,0,.83.05,1.25.14.41.09.76.22,1.03.38l-.57,1.22c-.52-.29-1.09-.44-1.71-.44-.37,0-.64.05-.83.15-.18.1-.27.23-.27.4,0,.18.1.31.3.38.2.07.51.14.95.21.48.08.88.17,1.19.26s.58.26.8.5c.23.24.34.58.34,1.01,0,.37-.11.69-.33.98-.22.29-.54.51-.96.67-.42.16-.92.24-1.5.24-.49,0-.97-.06-1.44-.18Z"/>
      <path d="M204.05,395.32c-.17.12-.38.22-.62.28-.25.06-.5.09-.76.09-.71,0-1.26-.18-1.64-.54s-.57-.89-.57-1.58v-5.19h1.72v1.44h1.46v1.32h-1.46v2.41c0,.25.06.44.19.58.12.14.3.2.54.2.26,0,.5-.07.7-.22l.45,1.21Z"/>
      <path d="M210.4,390.26c.45.44.68,1.09.68,1.96v3.39h-1.72v-3.12c0-.47-.1-.82-.31-1.05-.21-.23-.5-.35-.89-.35-.43,0-.78.13-1.03.4-.26.27-.39.67-.39,1.19v2.93h-1.72v-8.16h1.72v2.86c.23-.23.5-.4.83-.52s.67-.18,1.06-.18c.73,0,1.33.22,1.78.66Z"/>
      <path d="M216.49,394.18c.24-.09.46-.24.67-.43l.91.99c-.56.64-1.37.96-2.44.96-.67,0-1.26-.13-1.77-.39-.51-.26-.91-.62-1.19-1.08s-.42-.99-.42-1.57.14-1.1.41-1.57c.27-.47.65-.83,1.13-1.09.48-.26,1.02-.39,1.62-.39.56,0,1.08.12,1.54.36s.83.58,1.11,1.03.41.98.41,1.6l-4.38.85c.12.29.32.51.59.66.27.15.6.22.98.22.31,0,.58-.05.82-.14ZM214.36,391.31c-.27.28-.41.66-.43,1.16l2.88-.56c-.08-.31-.25-.55-.5-.74-.25-.18-.55-.28-.9-.28-.43,0-.78.14-1.06.42Z"/>
      <path d="M222.1,389.82c.35-.15.75-.22,1.2-.22v1.58c-.19-.01-.32-.02-.38-.02-.49,0-.88.14-1.16.41-.28.27-.42.69-.42,1.24v2.79h-1.72v-5.92h1.64v.78c.21-.29.48-.5.83-.65Z"/>
      <path d="M233.67,390.25c.44.44.65,1.09.65,1.96v3.39h-1.72v-3.12c0-.47-.1-.82-.29-1.05-.19-.23-.47-.35-.83-.35-.4,0-.72.13-.96.39-.24.26-.35.65-.35,1.16v2.97h-1.72v-3.12c0-.93-.37-1.4-1.12-1.4-.4,0-.71.13-.95.39-.23.26-.35.65-.35,1.16v2.97h-1.72v-5.92h1.64v.68c.22-.25.49-.44.81-.57.32-.13.67-.2,1.05-.2.42,0,.79.08,1.13.25.34.17.61.41.81.72.24-.31.55-.55.92-.71s.78-.25,1.22-.25c.74,0,1.33.22,1.77.65Z"/>
      <path d="M235.95,388.58c-.2-.18-.3-.41-.3-.68s.1-.5.3-.68.45-.28.77-.28.57.09.77.26c.2.18.3.4.3.66,0,.29-.1.52-.3.71-.2.19-.46.28-.77.28s-.57-.09-.77-.27ZM235.87,389.68h1.72v5.92h-1.72v-5.92Z"/>
      <path d="M245.18,389.68v8.05h-1.72v-2.76c-.42.48-1.02.71-1.77.71-.56,0-1.06-.12-1.51-.37-.45-.25-.8-.6-1.06-1.07-.26-.46-.38-1-.38-1.61s.13-1.14.38-1.61c.26-.46.61-.82,1.06-1.07s.96-.37,1.51-.37c.81,0,1.42.26,1.85.77v-.68h1.64ZM243.07,393.84c.29-.3.43-.69.43-1.19s-.14-.9-.43-1.19-.65-.45-1.08-.45-.8.15-1.09.45-.43.69-.43,1.19.14.9.43,1.19.65.45,1.09.45.79-.15,1.08-.45Z"/>
      <path d="M252.73,389.68v5.92h-1.63v-.7c-.23.26-.5.45-.81.59s-.66.2-1.02.2c-.78,0-1.39-.22-1.85-.67-.46-.45-.68-1.11-.68-1.99v-3.34h1.72v3.09c0,.95.4,1.43,1.2,1.43.41,0,.74-.13.99-.4.25-.27.37-.67.37-1.19v-2.93h1.72Z"/>
      <path d="M258.12,394.18c.24-.09.46-.24.67-.43l.91.99c-.56.64-1.37.96-2.44.96-.67,0-1.26-.13-1.77-.39-.51-.26-.91-.62-1.19-1.08-.28-.46-.42-.99-.42-1.57s.14-1.1.41-1.57c.27-.47.65-.83,1.13-1.09.48-.26,1.02-.39,1.62-.39.56,0,1.08.12,1.54.36s.83.58,1.11,1.03c.28.45.41.98.41,1.6l-4.38.85c.12.29.32.51.59.66s.6.22.98.22c.31,0,.58-.05.82-.14ZM256,391.31c-.27.28-.41.66-.43,1.16l2.88-.56c-.08-.31-.25-.55-.5-.74-.25-.18-.55-.28-.9-.28-.43,0-.78.14-1.06.42Z"/>
    </g>
    <g>
      <path d="M203.9,408.46v1.58h-6.35v-1.26l3.24-3.06c.34-.33.58-.61.7-.85s.18-.47.18-.7c0-.34-.11-.59-.34-.77-.23-.18-.56-.27-1-.27-.37,0-.7.07-1,.21-.3.14-.54.35-.74.63l-1.42-.91c.33-.49.78-.87,1.36-1.15.58-.28,1.24-.41,1.98-.41.62,0,1.17.1,1.64.31.47.2.83.49,1.09.86.26.37.39.81.39,1.31,0,.46-.1.88-.29,1.28-.19.4-.56.86-1.12,1.37l-1.93,1.82h3.61Z"/>
      <path d="M210.98,408.46v1.58h-6.35v-1.26l3.24-3.06c.34-.33.58-.61.7-.85s.18-.47.18-.7c0-.34-.11-.59-.34-.77-.23-.18-.56-.27-1-.27-.37,0-.7.07-1,.21-.3.14-.54.35-.74.63l-1.42-.91c.33-.49.78-.87,1.36-1.15.58-.28,1.24-.41,1.98-.41.62,0,1.17.1,1.64.31.47.2.83.49,1.09.86.26.37.39.81.39,1.31,0,.46-.1.88-.29,1.28-.19.4-.56.86-1.12,1.37l-1.93,1.82h3.61Z"/>
      <path d="M213.85,408.13c.22.21.32.49.32.83,0,.16-.02.32-.06.48s-.13.4-.26.72l-.68,1.73h-1.19l.53-1.91c-.2-.08-.36-.21-.47-.39-.12-.18-.17-.39-.17-.63,0-.34.11-.62.33-.83.22-.21.5-.32.83-.32s.61.11.83.32Z"/>
      <path d="M220.4,405.1c.44.22.79.52,1.04.92.26.4.38.85.38,1.37,0,.56-.14,1.05-.42,1.48s-.66.75-1.15.98c-.48.23-1.02.34-1.61.34-1.18,0-2.1-.36-2.76-1.08-.66-.72-1-1.75-1-3.08,0-.95.18-1.77.54-2.45.36-.68.86-1.2,1.51-1.55.64-.35,1.39-.53,2.24-.53.45,0,.88.05,1.29.15.41.1.76.24,1.05.43l-.72,1.43c-.42-.28-.94-.42-1.57-.42-.71,0-1.28.21-1.69.62s-.64,1.02-.67,1.81c.5-.5,1.19-.74,2.08-.74.54,0,1.02.11,1.46.32ZM219.56,408.4c.26-.22.39-.53.39-.91s-.13-.69-.39-.92c-.26-.23-.61-.34-1.04-.34s-.77.12-1.04.35-.41.54-.41.91.13.67.4.9c.26.23.62.35,1.08.35.42,0,.75-.11,1.01-.34Z"/>
      <path d="M222.73,405.55c-.39-.42-.58-.98-.58-1.69s.19-1.27.58-1.69c.39-.42.89-.63,1.51-.63s1.12.21,1.5.63c.38.42.58.98.58,1.69s-.19,1.27-.58,1.69c-.38.42-.88.63-1.5.63s-1.12-.21-1.51-.63ZM224.88,404.86c.16-.22.23-.56.23-1s-.08-.77-.23-1-.37-.34-.64-.34-.48.11-.64.34c-.16.23-.24.56-.24.99s.08.76.24.99c.16.23.37.34.64.34s.49-.11.64-.34ZM229.25,401.64h1.43l-5.74,8.4h-1.43l5.74-8.4ZM228.87,409.85c-.32-.19-.56-.46-.74-.81-.18-.35-.26-.76-.26-1.22s.09-.87.26-1.22c.18-.35.42-.62.74-.81.32-.19.67-.28,1.07-.28.62,0,1.12.21,1.51.63.39.42.58.98.58,1.69s-.19,1.27-.58,1.69c-.39.42-.89.63-1.51.63-.4,0-.76-.09-1.07-.28ZM230.58,408.81c.16-.23.23-.56.23-.99s-.08-.76-.23-.99c-.16-.23-.37-.34-.64-.34s-.48.11-.64.34-.24.56-.24,1,.08.77.24,1c.16.22.37.34.64.34s.49-.11.64-.34Z"/>
      <path d="M243.19,401.14v8.9h-1.79v-.74c-.46.56-1.14.84-2.02.84-.61,0-1.16-.14-1.65-.41-.49-.27-.88-.66-1.16-1.16-.28-.5-.42-1.09-.42-1.75s.14-1.25.42-1.75c.28-.5.67-.89,1.16-1.16.49-.27,1.04-.41,1.65-.41.82,0,1.47.26,1.93.78v-3.13h1.87ZM240.88,408.11c.31-.32.47-.76.47-1.3s-.16-.98-.47-1.3c-.31-.32-.7-.49-1.18-.49s-.88.16-1.19.49c-.31.32-.47.76-.47,1.3s.16.98.47,1.3c.31.32.71.49,1.19.49s.86-.16,1.18-.49Z"/>
      <path d="M249.06,408.49c.26-.1.5-.26.73-.47l1,1.08c-.61.7-1.5,1.04-2.66,1.04-.73,0-1.37-.14-1.93-.43s-.99-.68-1.3-1.18c-.3-.5-.46-1.08-.46-1.72s.15-1.2.45-1.71c.3-.51.71-.9,1.24-1.19.52-.28,1.11-.43,1.77-.43.62,0,1.18.13,1.68.39s.91.64,1.21,1.13.45,1.07.45,1.75l-4.78.92c.14.32.35.56.64.72s.65.24,1.07.24c.34,0,.63-.05.89-.15ZM246.74,405.36c-.3.3-.45.72-.47,1.26l3.14-.61c-.09-.34-.27-.6-.54-.8-.27-.2-.6-.3-.98-.3-.47,0-.86.15-1.15.46Z"/>
      <path d="M257.71,409.63c-.69-.37-1.24-.89-1.63-1.55-.4-.66-.59-1.41-.59-2.24s.2-1.58.59-2.24c.4-.66.94-1.18,1.63-1.55.69-.37,1.47-.56,2.33-.56.73,0,1.39.13,1.97.38s1.08.62,1.48,1.1l-1.25,1.15c-.57-.66-1.27-.98-2.11-.98-.52,0-.98.11-1.39.34-.41.23-.73.55-.95.95-.23.41-.34.87-.34,1.39s.11.98.34,1.39c.23.41.55.73.95.95.41.23.87.34,1.39.34.84,0,1.54-.33,2.11-1l1.25,1.15c-.4.49-.9.86-1.49,1.12-.59.26-1.25.38-1.98.38-.86,0-1.63-.19-2.32-.56Z"/>
      <path d="M266.34,409.62c-.7-.38-1.25-.89-1.64-1.55-.4-.66-.59-1.4-.59-2.23s.2-1.57.59-2.23c.4-.66.94-1.18,1.64-1.55.7-.38,1.49-.56,2.36-.56s1.66.19,2.35.56c.7.38,1.24.89,1.64,1.55s.6,1.4.6,2.23-.2,1.57-.6,2.23c-.4.66-.95,1.18-1.64,1.55-.7.38-1.48.56-2.35.56s-1.66-.19-2.36-.56ZM270.04,408.19c.4-.23.71-.55.94-.95.23-.41.34-.87.34-1.39s-.11-.98-.34-1.39c-.23-.41-.54-.73-.94-.95-.4-.23-.85-.34-1.34-.34s-.94.11-1.34.34c-.4.23-.71.55-.94.95-.23.41-.34.87-.34,1.39s.11.98.34,1.39c.23.41.54.73.94.95.4.23.85.34,1.34.34s.94-.11,1.34-.34Z"/>
    </g>
    <path d="M278.95,412.14v1.06h-4.23v-.84l2.16-2.04c.23-.22.38-.41.46-.56.08-.16.12-.31.12-.47,0-.22-.08-.4-.23-.52s-.38-.18-.67-.18c-.25,0-.47.05-.66.14-.2.09-.36.23-.5.42l-.94-.61c.22-.33.52-.58.9-.76s.82-.28,1.32-.28c.42,0,.78.07,1.09.2.31.14.55.33.73.58.17.25.26.54.26.88,0,.3-.06.59-.19.86s-.38.57-.74.91l-1.29,1.22h2.41Z"/>
    <g>
      <path class="cls-1" d="M171.67,351.27c-.16-.28-.77-1.33-2-1.73-.68-.22-1.26-.15-1.6-.09h-43.72c-.16,0-.73-.04-1.2.35-.45.37-.64.98-.72,1.64-.18,1.49-.25,7.21-.16,14.95.16.43.32.86.48,1.3,2.37.37,4.74.75,7.11,1.12-.46-1.25-.2-2.65.64-3.54.71-.75,1.8-1.11,2.8-.78,1.21.4,1.96,1.71,2,2.77.03.79-.35,1.37-.08,1.64.23.24.76.04,1.2-.17-.39-1.17-.22-2.45.48-3.28,1.03-1.23,2.93-1.2,4.08-.17,1.34,1.2,1.05,3.2,1.04,3.28,5.22.03,10.44.06,15.66.09-.48-1.53.16-3.2,1.44-3.89,1.25-.67,2.82-.24,3.6.95.81,1.23.37,2.69.32,2.85,2.74-.04,4.77.06,6.23.17.73.06,1.64.12,2.24-.52.79-.84.78-2.63.24-2.94-.24-.14-.58.03-.8.17.05-4.21.11-8.41.16-12.62.27-.02.64,0,.88.26.57.6-.14,1.87.4,2.42.32.33.98.28,1.36,0,.89-.65.91-2.97-.24-3.89-.7-.56-1.58-.4-1.84-.35Z"/>
      <path class="cls-16" d="M168.99,352.97c-.02,2.69-.04,5.37-.06,8.06.01.5.03,1.01.04,1.51.13.16.27.32.4.48l1.12-.04v-10.03c-.5,0-1,.01-1.5.02Z"/>
      <g>
        <ellipse class="cls-16" cx="160.39" cy="367.65" rx="2.65" ry="2.74"/>
        <ellipse class="cls-1" cx="160.38" cy="367.78" rx="1.56" ry="1.64"/>
        <ellipse class="cls-16" cx="160.36" cy="367.8" rx=".39" ry=".43"/>
        <ellipse class="cls-16" cx="159.77" cy="367.41" rx=".19" ry=".21"/>
        <ellipse class="cls-16" cx="159.76" cy="368.18" rx=".19" ry=".21"/>
        <ellipse class="cls-16" cx="160.38" cy="368.57" rx=".19" ry=".21"/>
        <ellipse class="cls-16" cx="160.97" cy="368.18" rx=".19" ry=".21"/>
        <ellipse class="cls-16" cx="161.03" cy="367.42" rx=".19" ry=".21"/>
        <ellipse class="cls-16" cx="160.39" cy="367.03" rx=".19" ry=".21"/>
      </g>
      <g>
        <ellipse class="cls-16" cx="139.2" cy="367.75" rx="2.65" ry="2.74"/>
        <ellipse class="cls-1" cx="139.19" cy="367.88" rx="1.56" ry="1.64"/>
        <ellipse class="cls-16" cx="139.17" cy="367.9" rx=".39" ry=".43"/>
        <ellipse class="cls-16" cx="138.58" cy="367.51" rx=".19" ry=".21"/>
        <ellipse class="cls-16" cx="138.57" cy="368.27" rx=".19" ry=".21"/>
        <ellipse class="cls-16" cx="139.19" cy="368.67" rx=".19" ry=".21"/>
        <ellipse class="cls-16" cx="139.78" cy="368.27" rx=".19" ry=".21"/>
        <ellipse class="cls-16" cx="139.84" cy="367.52" rx=".19" ry=".21"/>
        <ellipse class="cls-16" cx="139.2" cy="367.13" rx=".19" ry=".21"/>
      </g>
      <g>
        <ellipse class="cls-16" cx="132.49" cy="367.78" rx="2.65" ry="2.74"/>
        <ellipse class="cls-1" cx="132.48" cy="367.92" rx="1.56" ry="1.64"/>
        <ellipse class="cls-16" cx="132.46" cy="367.93" rx=".39" ry=".43"/>
        <ellipse class="cls-16" cx="131.88" cy="367.54" rx=".19" ry=".21"/>
        <ellipse class="cls-16" cx="131.86" cy="368.31" rx=".19" ry=".21"/>
        <ellipse class="cls-16" cx="132.48" cy="368.7" rx=".19" ry=".21"/>
        <ellipse class="cls-16" cx="133.08" cy="368.31" rx=".19" ry=".21"/>
        <ellipse class="cls-16" cx="133.13" cy="367.55" rx=".19" ry=".21"/>
        <ellipse class="cls-16" cx="132.49" cy="367.17" rx=".19" ry=".21"/>
      </g>
      <path class="cls-16" d="M166.74,351.84c-1.4.02-2.81.04-4.21.06-.05,0-.09,0-.12.01-.16.07-.24.34-.2.68,0,2.24-.02,4.48-.03,6.73,1.67,0,3.33,0,5,.01-.02-2.25-.04-4.49-.07-6.74,0-.02.05-.51-.23-.69-.04-.02-.08-.05-.15-.06Z"/>
      <path class="cls-16" d="M167.12,359.84h-4.96v3.8c.33.26.76.65,1.16,1.21.3.42.52.83.67,1.17.04.38.17.58.27.69.3.34.65.22,2.29.1.07,0,.22-.02.35-.13.19-.17.21-.46.21-.6,0-2.08,0-4.16.01-6.24Z"/>
      <path class="cls-16" d="M159.98,352.6c0-.12,0-.24,0-.36,0-.04-.02-.16-.11-.25-.14-.15-.32-.13-.35-.12-1.26,0-2.52,0-3.78.01-.02,0-.27-.05-.45.14-.18.19-.15.43-.15.46,0,1.3.02,2.59.03,3.89v.37s0,.15.09.25c.06.06.12.07.15.08.09,0,.18,0,.27,0,1.22.01,2.44.02,3.66.04h.24s.17-.02.28-.13c.12-.12.14-.26.15-.3v-.28c.01-1.25.01-2.52-.01-3.8Z"/>
      <path class="cls-16" d="M153.21,352.62c0-.12,0-.24,0-.36,0-.04-.02-.16-.11-.25-.14-.15-.32-.13-.35-.12-1.26,0-2.52,0-3.78.01-.02,0-.27-.05-.45.14-.18.19-.15.43-.15.46,0,1.3.02,2.59.03,3.89v.37s0,.15.09.25c.06.06.12.07.15.08.09,0,.18,0,.27,0,1.22.01,2.44.02,3.66.04h.24s.17-.02.28-.13c.12-.12.14-.26.15-.3v-.28c.01-1.25.01-2.52-.01-3.8Z"/>
      <path class="cls-16" d="M146.44,352.62c0-.12,0-.24,0-.36,0-.04-.02-.16-.11-.25-.14-.15-.32-.13-.35-.12-1.26,0-2.52,0-3.78.01-.02,0-.27-.05-.45.14-.18.19-.15.43-.15.46,0,1.3.02,2.59.03,3.89v.37s0,.15.09.25c.06.06.12.07.15.08.09,0,.18,0,.27,0,1.22.01,2.44.02,3.66.04h.24s.17-.02.28-.13c.12-.12.14-.26.15-.3v-.28c.01-1.25.01-2.52-.01-3.8Z"/>
      <path class="cls-16" d="M139.73,352.68c0-.12,0-.24,0-.36,0-.04-.02-.16-.11-.25-.14-.15-.32-.13-.35-.12-1.26,0-2.52,0-3.78.01-.02,0-.27-.05-.45.14-.18.19-.15.43-.15.46,0,1.3.02,2.59.03,3.89v.37s0,.15.09.25c.06.06.12.07.15.08.09,0,.18,0,.27,0,1.22.01,2.44.02,3.66.04h.24s.17-.02.28-.13c.12-.12.14-.26.15-.3v-.28c.01-1.25.01-2.52-.01-3.8Z"/>
      <path class="cls-16" d="M132.96,352.62c0-.12,0-.24,0-.36,0-.04-.02-.16-.11-.25-.14-.15-.32-.13-.35-.12-1.26,0-2.52,0-3.78.01-.02,0-.27-.05-.45.14-.18.19-.15.43-.15.46,0,1.3.02,2.59.03,3.89v.37s0,.15.09.25c.06.06.12.07.15.08.09,0,.18,0,.27,0,1.22.01,2.44.02,3.66.04h.24s.17-.02.28-.13c.12-.12.14-.26.15-.3v-.28c.01-1.25.01-2.52-.01-3.8Z"/>
      <path class="cls-16" d="M123.01,351.88c0,1.76,0,3.51-.01,5.27.29-.01.59-.03.88-.04.04,0,.13.01.22-.04.17-.09.21-.29.22-.31,0-.11,0-.22.01-.32,0-1.38-.02-2.76-.03-4.14,0-.04,0-.14-.05-.24-.04-.08-.1-.14-.13-.16-.11,0-.22,0-.34-.01-.26,0-.52,0-.77,0Z"/>
      <path class="cls-16" d="M123.01,359.78c0,.62,0,1.24.01,1.85.24,0,.48-.01.72-.02,0-.45,0-.9,0-1.35,0-.06,0-.12,0-.18,0-.02-.02-.19-.16-.27-.05-.03-.1-.03-.13-.04-.14,0-.29,0-.43,0Z"/>
      <path class="cls-16" d="M123.75,362.26h-.73c0,.51,0,1.01.01,1.52.23,0,.47,0,.7,0,0-.51.01-1.02.02-1.52Z"/>
      <path class="cls-16" d="M123.01,364.38l.02,1.29c.14,0,.28,0,.42,0h.09s.07-.05.11-.09c.05-.06.06-.13.07-.16v-.1c0-.21.01-.42.02-.64v-.14s0-.08-.05-.12c-.03-.03-.07-.04-.08-.04-.05,0-.1,0-.14,0-.15,0-.3,0-.45,0Z"/>
      <path class="cls-16" d="M162.51,349.28c-3.28,0-6.55.02-9.83.03-.05-.32-.09-.86.19-1.09.14-.12.31-.12.37-.12.55,0,4.06.01,8.9.03.09.03.2.09.29.2.19.23.22.6.08.95Z"/>
      <path class="cls-16" d="M139.25,349.28c-3.28,0-6.55.02-9.83.03-.05-.32-.09-.86.19-1.09.14-.12.31-.12.37-.12.55,0,4.06.01,8.9.03.09.03.2.09.29.2.19.23.22.6.08.95Z"/>
    </g>
  </g>
  <g id="_3" data-name="3">
    <path class="cls-9" d="M315.38,200.72l66.23,16.3c16.98-17.32,33.96-34.64,50.94-51.96,4.89,19.47,17.05,78.51-11.21,143.66-21.08,48.6-54.43,77.08-71.32,89.66-21.4-10.19-42.79-20.38-64.19-30.57l-8.15-73.36c7-5.11,22.2-17.66,31.58-39.74,10.23-24.08,7.61-45.54,6.11-54Z"/>
    <circle class="cls-13" cx="335.69" cy="321.98" r="32.77"/>
    <g>
      <path d="M327.63,242.71l-3.33,7.7h-1.76l-3.32-7.7h1.93l2.34,5.5,2.38-5.5h1.77Z"/>
      <path d="M328.84,250.11c-.5-.26-.88-.62-1.16-1.08-.28-.46-.42-.99-.42-1.57s.14-1.11.42-1.57c.28-.46.67-.82,1.16-1.08.5-.26,1.05-.39,1.68-.39s1.18.13,1.67.39c.49.26.88.62,1.16,1.08.28.46.42.99.42,1.57s-.14,1.11-.42,1.57c-.28.46-.66.82-1.16,1.08-.49.26-1.05.39-1.67.39s-1.18-.13-1.68-.39ZM331.6,248.65c.28-.3.42-.69.42-1.19s-.14-.9-.42-1.19-.64-.45-1.08-.45-.8.15-1.09.45-.43.69-.43,1.19.14.9.43,1.19.65.45,1.09.45.8-.15,1.08-.45Z"/>
      <path d="M335,243.4c-.2-.18-.3-.41-.3-.68s.1-.5.3-.68c.2-.18.46-.28.77-.28s.57.09.77.26c.2.18.3.4.3.66,0,.29-.1.52-.3.71-.2.19-.45.28-.77.28s-.57-.09-.77-.27ZM334.91,244.5h1.72v5.92h-1.72v-5.92Z"/>
      <path d="M341.78,250.13c-.17.12-.38.22-.62.28-.25.06-.5.09-.76.09-.71,0-1.26-.18-1.64-.54-.38-.36-.57-.89-.57-1.58v-5.19h1.72v1.44h1.46v1.32h-1.46v2.41c0,.25.06.44.19.58.12.14.3.2.54.2.26,0,.5-.07.7-.22l.45,1.21Z"/>
      <path d="M348.71,244.5v5.92h-1.63v-.7c-.23.26-.5.45-.81.59s-.66.2-1.02.2c-.78,0-1.39-.22-1.85-.67-.46-.45-.68-1.11-.68-1.99v-3.34h1.72v3.09c0,.95.4,1.43,1.2,1.43.41,0,.74-.13.99-.4.25-.27.37-.67.37-1.19v-2.93h1.72Z"/>
      <path d="M352.78,244.63c.35-.15.75-.22,1.2-.22v1.58c-.19-.01-.32-.02-.38-.02-.49,0-.88.14-1.16.41-.28.27-.42.69-.42,1.24v2.79h-1.72v-5.92h1.64v.78c.21-.29.48-.5.83-.65Z"/>
      <path d="M358.75,248.99c.24-.09.46-.24.67-.43l.91.99c-.56.64-1.37.96-2.44.96-.67,0-1.26-.13-1.77-.39-.51-.26-.91-.62-1.19-1.08-.28-.46-.42-.99-.42-1.57s.14-1.1.41-1.57c.27-.47.65-.83,1.13-1.09.48-.26,1.02-.39,1.62-.39.56,0,1.08.12,1.54.36s.83.58,1.11,1.03c.28.45.41.98.41,1.6l-4.38.85c.12.29.32.51.59.66s.6.22.98.22c.31,0,.58-.05.82-.14ZM356.62,246.12c-.27.28-.41.66-.43,1.16l2.88-.56c-.08-.31-.25-.55-.5-.74-.25-.18-.55-.28-.9-.28-.43,0-.78.14-1.06.42Z"/>
      <path d="M368.81,248.99c.24-.09.46-.24.67-.43l.91.99c-.56.64-1.37.96-2.44.96-.67,0-1.26-.13-1.77-.39-.51-.26-.91-.62-1.19-1.08-.28-.46-.42-.99-.42-1.57s.14-1.1.41-1.57c.27-.47.65-.83,1.13-1.09.48-.26,1.02-.39,1.62-.39.56,0,1.08.12,1.54.36s.83.58,1.11,1.03c.28.45.41.98.41,1.6l-4.38.85c.12.29.32.51.59.66s.6.22.98.22c.31,0,.58-.05.82-.14ZM366.68,246.12c-.27.28-.41.66-.43,1.16l2.88-.56c-.08-.31-.25-.55-.5-.74-.25-.18-.55-.28-.9-.28-.43,0-.78.14-1.06.42ZM368.18,242.15h1.85l-1.99,1.58h-1.34l1.49-1.58Z"/>
      <path d="M372.51,249.97c-.37-.36-.56-.86-.56-1.51v-6.2h1.72v6.11c0,.25.06.44.19.58.13.14.31.2.54.2.09,0,.18-.01.27-.03.09-.02.16-.05.21-.08l.08,1.33c-.29.09-.58.14-.89.14-.67,0-1.19-.18-1.56-.53Z"/>
      <path d="M379.5,248.99c.24-.09.46-.24.67-.43l.91.99c-.56.64-1.37.96-2.44.96-.67,0-1.26-.13-1.77-.39-.51-.26-.91-.62-1.19-1.08-.28-.46-.42-.99-.42-1.57s.14-1.1.41-1.57.65-.83,1.13-1.09c.48-.26,1.02-.39,1.62-.39.56,0,1.08.12,1.54.36s.83.58,1.11,1.03c.27.45.41.98.41,1.6l-4.38.85c.12.29.32.51.59.66.27.15.6.22.98.22.31,0,.58-.05.82-.14ZM377.37,246.12c-.27.28-.41.66-.43,1.16l2.88-.56c-.08-.31-.25-.55-.5-.74-.25-.18-.55-.28-.9-.28-.43,0-.79.14-1.06.42Z"/>
      <path d="M383.8,250.11c-.5-.26-.9-.62-1.18-1.08s-.42-.99-.42-1.57.14-1.11.42-1.57.67-.82,1.18-1.08c.5-.26,1.07-.39,1.7-.39s1.17.13,1.63.39c.46.26.8.63,1.02,1.12l-1.33.71c-.31-.54-.75-.81-1.33-.81-.45,0-.82.15-1.11.44-.29.29-.44.69-.44,1.2s.15.91.44,1.2.66.44,1.11.44c.59,0,1.03-.27,1.33-.81l1.33.73c-.21.47-.55.84-1.02,1.1-.47.26-1.01.4-1.63.4s-1.2-.13-1.7-.39Z"/>
      <path d="M392.66,250.13c-.17.12-.38.22-.62.28-.25.06-.5.09-.76.09-.71,0-1.26-.18-1.64-.54-.38-.36-.57-.89-.57-1.58v-5.19h1.72v1.44h1.46v1.32h-1.46v2.41c0,.25.06.44.19.58s.3.2.54.2c.26,0,.5-.07.7-.22l.45,1.21Z"/>
      <path d="M396.1,244.63c.35-.15.75-.22,1.2-.22v1.58c-.19-.01-.32-.02-.38-.02-.49,0-.88.14-1.16.41-.28.27-.42.69-.42,1.24v2.79h-1.72v-5.92h1.64v.78c.21-.29.48-.5.83-.65Z"/>
      <path d="M398.41,243.4c-.2-.18-.3-.41-.3-.68s.1-.5.3-.68.45-.28.77-.28.57.09.77.26c.2.18.3.4.3.66,0,.29-.1.52-.3.71-.2.19-.46.28-.77.28s-.57-.09-.77-.27ZM398.32,244.5h1.72v5.92h-1.72v-5.92Z"/>
      <path d="M407.64,244.5v8.05h-1.72v-2.76c-.42.48-1.02.71-1.77.71-.56,0-1.06-.12-1.51-.37-.45-.25-.8-.6-1.06-1.07-.26-.46-.38-1-.38-1.61s.13-1.14.38-1.61c.26-.46.61-.82,1.06-1.07s.96-.37,1.51-.37c.81,0,1.42.26,1.85.77v-.68h1.64ZM405.53,248.65c.29-.3.43-.69.43-1.19s-.14-.9-.43-1.19-.65-.45-1.08-.45-.8.15-1.09.45-.43.69-.43,1.19.14.9.43,1.19.65.45,1.09.45.79-.15,1.08-.45Z"/>
      <path d="M415.19,244.5v5.92h-1.63v-.7c-.23.26-.5.45-.81.59s-.66.2-1.02.2c-.78,0-1.39-.22-1.85-.67-.46-.45-.68-1.11-.68-1.99v-3.34h1.72v3.09c0,.95.4,1.43,1.2,1.43.41,0,.74-.13.99-.4.25-.27.37-.67.37-1.19v-2.93h1.72Z"/>
      <path d="M420.58,248.99c.24-.09.46-.24.67-.43l.91.99c-.56.64-1.37.96-2.44.96-.67,0-1.26-.13-1.77-.39-.51-.26-.91-.62-1.19-1.08-.28-.46-.42-.99-.42-1.57s.14-1.1.41-1.57c.27-.47.65-.83,1.13-1.09.48-.26,1.02-.39,1.62-.39.56,0,1.08.12,1.54.36s.83.58,1.11,1.03c.28.45.41.98.41,1.6l-4.38.85c.12.29.32.51.59.66s.6.22.98.22c.31,0,.58-.05.82-.14ZM418.45,246.12c-.27.28-.41.66-.43,1.16l2.88-.56c-.08-.31-.25-.55-.5-.74-.25-.18-.55-.28-.9-.28-.43,0-.78.14-1.06.42Z"/>
    </g>
    <g>
      <path d="M354.98,267.77v1.58h-6.35v-1.26l3.24-3.06c.34-.33.58-.61.7-.85s.18-.47.18-.7c0-.34-.11-.59-.34-.77-.23-.18-.56-.27-1-.27-.37,0-.7.07-1,.21-.3.14-.54.35-.74.63l-1.42-.91c.33-.49.78-.87,1.36-1.15.58-.28,1.24-.41,1.98-.41.62,0,1.17.1,1.64.31.47.2.83.49,1.09.86.26.37.39.81.39,1.31,0,.46-.1.88-.29,1.28-.19.4-.56.86-1.12,1.37l-1.93,1.82h3.61Z"/>
      <path d="M359.03,260.95v8.4h-1.94v-6.84h-1.68v-1.56h3.62Z"/>
      <path d="M362.43,267.44c.22.21.32.49.32.83,0,.16-.02.32-.06.48s-.13.4-.26.72l-.68,1.73h-1.19l.53-1.91c-.2-.08-.36-.21-.47-.39-.12-.18-.17-.39-.17-.63,0-.34.11-.62.33-.83.22-.21.5-.32.83-.32s.61.11.83.32Z"/>
      <path d="M366.68,260.95v8.4h-1.94v-6.84h-1.68v-1.56h3.62Z"/>
      <path d="M368.58,264.86c-.39-.42-.58-.98-.58-1.69s.19-1.27.58-1.69c.39-.42.89-.63,1.51-.63s1.12.21,1.5.63c.38.42.58.98.58,1.69s-.19,1.27-.58,1.69c-.38.42-.88.63-1.5.63s-1.12-.21-1.51-.63ZM370.73,264.17c.16-.22.23-.56.23-1s-.08-.77-.23-1-.37-.34-.64-.34-.48.11-.64.34c-.16.23-.24.56-.24.99s.08.76.24.99c.16.23.37.34.64.34s.49-.11.64-.34ZM375.09,260.95h1.43l-5.74,8.4h-1.43l5.74-8.4ZM374.72,269.17c-.32-.19-.56-.46-.74-.81-.18-.35-.26-.76-.26-1.22s.09-.87.26-1.22c.18-.35.42-.62.74-.81.32-.19.67-.28,1.07-.28.62,0,1.12.21,1.51.63.39.42.58.98.58,1.69s-.19,1.27-.58,1.69c-.39.42-.89.63-1.51.63-.4,0-.76-.09-1.07-.28ZM376.43,268.12c.16-.23.23-.56.23-.99s-.08-.76-.23-.99c-.16-.23-.37-.34-.64-.34s-.48.11-.64.34-.24.56-.24,1,.08.77.24,1c.16.22.37.34.64.34s.49-.11.64-.34Z"/>
      <path d="M389.04,260.45v8.9h-1.79v-.74c-.46.56-1.14.84-2.02.84-.61,0-1.16-.14-1.65-.41-.49-.27-.88-.66-1.16-1.16-.28-.5-.42-1.09-.42-1.75s.14-1.25.42-1.75c.28-.5.67-.89,1.16-1.16.49-.27,1.04-.41,1.65-.41.82,0,1.47.26,1.93.78v-3.13h1.87ZM386.73,267.43c.31-.32.47-.76.47-1.3s-.16-.98-.47-1.3c-.31-.32-.7-.49-1.18-.49s-.88.16-1.19.49c-.31.32-.47.76-.47,1.3s.16.98.47,1.3c.31.32.71.49,1.19.49s.86-.16,1.18-.49Z"/>
      <path d="M394.91,267.8c.26-.1.5-.26.73-.47l1,1.08c-.61.7-1.5,1.04-2.66,1.04-.73,0-1.37-.14-1.93-.43s-.99-.68-1.3-1.18c-.3-.5-.46-1.08-.46-1.72s.15-1.2.45-1.71c.3-.51.71-.9,1.24-1.19.52-.28,1.11-.43,1.77-.43.62,0,1.18.13,1.68.39s.91.64,1.21,1.13.45,1.07.45,1.75l-4.78.92c.14.32.35.56.64.72s.65.24,1.07.24c.34,0,.63-.05.89-.15ZM392.59,264.67c-.3.3-.45.72-.47,1.26l3.14-.61c-.09-.34-.27-.6-.54-.8-.27-.2-.6-.3-.98-.3-.47,0-.86.15-1.15.46Z"/>
      <path d="M403.56,268.94c-.69-.37-1.24-.89-1.63-1.55-.4-.66-.59-1.41-.59-2.24s.2-1.58.59-2.24c.4-.66.94-1.18,1.63-1.55.69-.37,1.47-.56,2.33-.56.73,0,1.39.13,1.97.38s1.08.62,1.48,1.1l-1.25,1.15c-.57-.66-1.27-.98-2.11-.98-.52,0-.98.11-1.39.34-.41.23-.73.55-.95.95-.23.41-.34.87-.34,1.39s.11.98.34,1.39c.23.41.55.73.95.95.41.23.87.34,1.39.34.84,0,1.54-.33,2.11-1l1.25,1.15c-.4.49-.9.86-1.49,1.12-.59.26-1.25.38-1.98.38-.86,0-1.63-.19-2.32-.56Z"/>
      <path d="M412.19,268.93c-.7-.38-1.25-.89-1.64-1.55-.4-.66-.59-1.4-.59-2.23s.2-1.57.59-2.23c.4-.66.94-1.18,1.64-1.55.7-.38,1.49-.56,2.36-.56s1.66.19,2.35.56c.7.38,1.24.89,1.64,1.55.4.66.6,1.4.6,2.23s-.2,1.57-.6,2.23c-.4.66-.95,1.18-1.64,1.55-.7.38-1.48.56-2.35.56s-1.66-.19-2.36-.56ZM415.89,267.5c.4-.23.71-.55.94-.95.23-.41.34-.87.34-1.39s-.11-.98-.34-1.39c-.23-.41-.54-.73-.94-.95-.4-.23-.85-.34-1.34-.34s-.94.11-1.34.34c-.4.23-.71.55-.94.95-.23.41-.34.87-.34,1.39s.11.98.34,1.39c.23.41.54.73.94.95.4.23.85.34,1.34.34s.94-.11,1.34-.34Z"/>
    </g>
    <path d="M425.36,271.05v1.06h-4.23v-.84l2.16-2.04c.23-.22.38-.41.46-.56.08-.16.12-.31.12-.47,0-.22-.08-.4-.23-.52s-.38-.18-.67-.18c-.25,0-.47.05-.66.14-.2.09-.36.23-.5.42l-.94-.61c.22-.33.52-.58.9-.76s.82-.28,1.32-.28c.42,0,.78.07,1.09.2.31.14.55.33.73.58.17.25.26.54.26.88,0,.3-.06.59-.19.86s-.38.57-.74.91l-1.29,1.22h2.41Z"/>
    <g>
      <path class="cls-15" d="M313.94,330.16h47.49s1.08-2.43,0-4.18c-.43-3.3.81-5.02-10.99-6.66-4.04-4.8-5.01-7.17-8.67-7.4h-16.15s-4.52.11-8.72,7.23c-3.39.51-1.08.11-3.39.51-4.86.17-7.27,11.07.43,10.5Z"/>
      <path class="cls-6" d="M309.01,326.4h13.58l1.1,2.54h25.81l8.06-2.54h4.07s2.41,1.67,0,3.95h-48.06s-4.59.37-4.55-3.95Z"/>
      <g>
        <ellipse class="cls-5" cx="319.53" cy="328.72" rx="4.35" ry="4.56"/>
        <ellipse class="cls-4" cx="319.53" cy="328.72" rx="3" ry="3.15"/>
        <ellipse class="cls-8" cx="319.53" cy="328.72" rx="1.73" ry="1.82"/>
      </g>
      <g>
        <ellipse class="cls-5" cx="353.6" cy="328.72" rx="4.35" ry="4.56"/>
        <ellipse class="cls-4" cx="353.6" cy="328.72" rx="3" ry="3.15"/>
        <ellipse class="cls-8" cx="353.6" cy="328.72" rx="1.73" ry="1.82"/>
      </g>
      <path class="cls-8" d="M333.47,313.5v5.59h-13.83s4.12-5.59,5.33-5.59h8.5Z"/>
      <path class="cls-8" d="M334.45,313.5v5.59h13.04s-3.88-5.59-5.02-5.59h-8.02Z"/>
      <path class="cls-10" d="M359.93,324.74c-.22,0-.19-1.22,0-1.22h1.21c.07,0,.27,1.22.13,1.22h-1.34Z"/>
      <path class="cls-6" d="M309.01,325.24s0-2.87,1.2-3.44c-.01,3.06-1.2,3.44-1.2,3.44Z"/>
      <g>
        <path class="cls-6" d="M318.99,319.84l.05,3.49s5.61-.75,5.79,6.32h23.81l.32-8.24s.11-.38-.97-2.03h-.72s1.04,1.57,1.06,1.86-.27,7.9-.27,7.9c0,0-22.44.13-22.73.1.17-1.74-1.2-6.44-5.72-6.56-.01-1.39-.03-2.84-.03-2.84h-.61Z"/>
        <rect class="cls-6" x="333.7" y="313.5" width=".56" height="15.87"/>
      </g>
      <path class="cls-5" d="M348.39,320.04s-3.47.37-2.76-2.29c1.53-.12,1.82-.79,2.76,2.29Z"/>
      <rect class="cls-6" x="321.14" y="320.61" width="2.3" height=".9"/>
      <rect class="cls-6" x="335.24" y="320.61" width="2.3" height=".9"/>
    </g>
  </g>
  <g id="_4" data-name="4">
    <path class="cls-15" d="M231.83,0c11.21,20.72,22.42,41.43,33.62,62.15-12.57,20.38-25.13,40.75-37.7,61.13,8.85.92,31.73,4.49,52.98,22.42,17.66,14.9,25.4,32.3,28.53,40.75,23.43,4.75,46.87,9.51,70.3,14.26,16.64-16.3,33.28-32.6,49.92-48.91-6.5-19.07-25.32-65.95-73.36-103.92C305.17,7.6,251.68,1.35,231.83,0Z"/>
    <circle class="cls-6" cx="361.9" cy="147.3" r="32.77"/>
    <g>
      <path d="M278.69,76.98c-.66-.38-1.37-.63-2.12-.74v6.28h-1.78v-6.28c-.76.11-1.47.36-2.13.74l-.6-1.33c.53-.32,1.1-.55,1.72-.71s1.25-.24,1.9-.24,1.3.08,1.92.24c.62.16,1.19.4,1.71.71l-.61,1.33Z"/>
      <path d="M282.33,76.74c.35-.15.75-.22,1.2-.22v1.58c-.19-.01-.32-.02-.38-.02-.49,0-.88.14-1.16.41-.28.27-.42.69-.42,1.24v2.79h-1.72v-5.92h1.64v.78c.21-.29.48-.5.83-.65Z"/>
      <path d="M290.51,76.61v5.92h-1.64v-.68c-.43.51-1.04.77-1.85.77-.56,0-1.06-.12-1.51-.37-.45-.25-.8-.6-1.06-1.07-.26-.46-.38-1-.38-1.61s.13-1.14.38-1.61c.26-.46.61-.82,1.06-1.07s.96-.37,1.51-.37c.75,0,1.35.24,1.77.71v-.63h1.72ZM288.4,80.76c.29-.3.43-.69.43-1.19s-.14-.9-.43-1.19-.65-.45-1.08-.45-.8.15-1.09.45-.43.69-.43,1.19.14.9.43,1.19.65.45,1.09.45.79-.15,1.08-.45Z"/>
      <path d="M292.18,75.51c-.2-.18-.3-.41-.3-.68s.1-.5.3-.68c.2-.18.46-.28.77-.28s.57.09.77.26c.2.18.3.4.3.66,0,.29-.1.52-.3.71-.2.19-.45.28-.77.28s-.57-.09-.77-.27ZM292.1,76.61h1.72v5.92h-1.72v-5.92Z"/>
      <path d="M300.78,77.18c.45.44.68,1.09.68,1.96v3.39h-1.72v-3.12c0-.47-.1-.82-.31-1.05-.21-.23-.5-.35-.89-.35-.43,0-.78.13-1.03.4s-.38.67-.38,1.19v2.93h-1.72v-5.92h1.64v.69c.23-.25.51-.44.85-.58.34-.14.71-.2,1.11-.2.73,0,1.33.22,1.78.66Z"/>
      <path d="M306.49,82.34c-.24-.88-.36-1.82-.36-2.83s.12-1.95.36-2.83.58-1.66,1.02-2.32h1.64c-.46.81-.8,1.64-1.01,2.48s-.32,1.73-.32,2.67.11,1.83.32,2.67.55,1.67,1.01,2.48h-1.64c-.44-.67-.78-1.44-1.02-2.32Z"/>
      <path d="M315.78,76.98c-.66-.38-1.37-.63-2.12-.74v6.28h-1.78v-6.28c-.76.11-1.47.36-2.13.74l-.6-1.33c.53-.32,1.1-.55,1.72-.71s1.25-.24,1.9-.24,1.3.08,1.92.24c.62.16,1.19.4,1.71.71l-.61,1.33Z"/>
      <path d="M323.37,81.86c-.37.25-.83.44-1.38.58-.55.14-1.14.21-1.77.21-.78,0-1.44-.1-1.98-.29-.54-.19-.95-.47-1.23-.81-.28-.35-.42-.75-.42-1.19,0-.41.11-.77.34-1.09s.54-.55.94-.7c-.3-.16-.53-.38-.7-.66-.17-.28-.25-.59-.25-.93,0-.42.13-.8.38-1.14s.65-.62,1.17-.83c.52-.21,1.16-.31,1.91-.31.5,0,.99.05,1.46.15s.89.23,1.24.4l-.5,1.36c-.67-.32-1.39-.47-2.14-.47-.57,0-1,.09-1.29.26-.29.17-.43.41-.43.7,0,.27.1.48.29.62s.49.21.89.21h2.1v1.41h-2.21c-.45,0-.79.08-1.03.23s-.36.38-.36.67c0,.31.16.55.47.72s.79.26,1.44.26c.46,0,.91-.06,1.36-.18.45-.12.84-.29,1.15-.51l.55,1.34Z"/>
      <path d="M329.32,82.52l-1.48-2.14h-1.64v2.14h-1.78v-7.7h3.33c.68,0,1.27.11,1.78.34.5.23.89.55,1.16.97s.41.91.41,1.48-.14,1.07-.41,1.48c-.28.42-.67.73-1.17.95l1.73,2.47h-1.91ZM328.87,76.62c-.28-.23-.69-.35-1.22-.35h-1.45v2.68h1.45c.54,0,.94-.12,1.22-.35.28-.23.42-.56.42-.99s-.14-.76-.42-1Z"/>
      <path d="M331.7,84.66c.46-.81.8-1.64,1.02-2.48.22-.84.33-1.73.33-2.67s-.11-1.83-.33-2.67c-.22-.84-.56-1.67-1.02-2.48h1.64c.45.65.79,1.42,1.03,2.3s.36,1.83.36,2.84-.12,1.96-.35,2.83c-.24.88-.58,1.65-1.03,2.32h-1.64Z"/>
    </g>
    <g>
      <path d="M307.06,96.93c.56.47.85,1.1.85,1.9,0,.51-.13.98-.38,1.4s-.65.76-1.17,1.01c-.52.25-1.17.38-1.94.38-.59,0-1.17-.08-1.75-.23-.57-.16-1.06-.38-1.46-.67l.77-1.49c.32.24.69.43,1.1.56.42.13.84.2,1.28.2.49,0,.87-.1,1.15-.29.28-.19.42-.46.42-.8s-.15-.63-.44-.82c-.29-.18-.8-.28-1.52-.28h-2.15l.43-4.73h5.12v1.56h-3.5l-.13,1.6h.68c1.18,0,2.06.24,2.62.71Z"/>
      <path d="M310.64,99.55c.22.21.32.49.32.83,0,.16-.02.32-.06.48s-.13.4-.26.72l-.68,1.73h-1.19l.53-1.91c-.2-.08-.36-.21-.47-.39-.12-.18-.17-.39-.17-.63,0-.34.11-.62.33-.83.22-.21.5-.32.83-.32s.61.11.83.32Z"/>
      <path d="M318.23,93.06v1.26l-3.12,7.14h-2.11l3.01-6.82h-2.78v1.37h-1.73v-2.95h6.73Z"/>
      <path d="M319.6,96.97c-.39-.42-.58-.98-.58-1.69s.19-1.27.58-1.69c.39-.42.89-.63,1.51-.63s1.12.21,1.5.63c.38.42.58.98.58,1.69s-.19,1.27-.58,1.69c-.38.42-.88.63-1.5.63s-1.12-.21-1.51-.63ZM321.75,96.28c.16-.22.23-.56.23-1s-.08-.77-.23-1-.37-.34-.64-.34-.48.11-.64.34c-.16.23-.24.56-.24.99s.08.76.24.99c.16.23.37.34.64.34s.49-.11.64-.34ZM326.11,93.06h1.43l-5.74,8.4h-1.43l5.74-8.4ZM325.73,101.28c-.32-.19-.56-.46-.74-.81-.18-.35-.26-.76-.26-1.22s.09-.87.26-1.22c.18-.35.42-.62.74-.81.32-.19.67-.28,1.07-.28.62,0,1.12.21,1.51.63.39.42.58.98.58,1.69s-.19,1.27-.58,1.69c-.39.42-.89.63-1.51.63-.4,0-.76-.09-1.07-.28ZM327.45,100.23c.16-.23.23-.56.23-.99s-.08-.76-.23-.99c-.16-.23-.37-.34-.64-.34s-.48.11-.64.34-.24.56-.24,1,.08.77.24,1c.16.22.37.34.64.34s.49-.11.64-.34Z"/>
      <path d="M340.05,92.56v8.9h-1.79v-.74c-.46.56-1.14.84-2.02.84-.61,0-1.16-.14-1.65-.41-.49-.27-.88-.66-1.16-1.16-.28-.5-.42-1.09-.42-1.75s.14-1.25.42-1.75c.28-.5.67-.89,1.16-1.16.49-.27,1.04-.41,1.65-.41.82,0,1.47.26,1.93.78v-3.13h1.87ZM337.75,99.54c.31-.32.47-.76.47-1.3s-.16-.98-.47-1.3c-.31-.32-.7-.49-1.18-.49s-.88.16-1.19.49c-.31.32-.47.76-.47,1.3s.16.98.47,1.3c.31.32.71.49,1.19.49s.86-.16,1.18-.49Z"/>
      <path d="M345.93,99.91c.26-.1.5-.26.73-.47l1,1.08c-.61.7-1.5,1.04-2.66,1.04-.73,0-1.37-.14-1.93-.43s-.99-.68-1.3-1.18c-.3-.5-.46-1.08-.46-1.72s.15-1.2.45-1.71c.3-.51.71-.9,1.24-1.19.52-.28,1.11-.43,1.77-.43.62,0,1.18.13,1.68.39s.91.64,1.21,1.13.45,1.07.45,1.75l-4.78.92c.14.32.35.56.64.72s.65.24,1.07.24c.34,0,.63-.05.89-.15ZM343.61,96.78c-.3.3-.45.72-.47,1.26l3.14-.61c-.09-.34-.27-.6-.54-.8-.27-.2-.6-.3-.98-.3-.47,0-.86.15-1.15.46Z"/>
      <path d="M354.58,101.05c-.69-.37-1.24-.89-1.63-1.55-.4-.66-.59-1.41-.59-2.24s.2-1.58.59-2.24c.4-.66.94-1.18,1.63-1.55.69-.37,1.47-.56,2.33-.56.73,0,1.39.13,1.97.38s1.08.62,1.48,1.1l-1.25,1.15c-.57-.66-1.27-.98-2.11-.98-.52,0-.98.11-1.39.34-.41.23-.73.55-.95.95-.23.41-.34.87-.34,1.39s.11.98.34,1.39c.23.41.55.73.95.95.41.23.87.34,1.39.34.84,0,1.54-.33,2.11-1l1.25,1.15c-.4.49-.9.86-1.49,1.12-.59.26-1.25.38-1.98.38-.86,0-1.63-.19-2.32-.56Z"/>
      <path d="M363.21,101.04c-.7-.38-1.25-.89-1.64-1.55-.4-.66-.59-1.4-.59-2.23s.2-1.57.59-2.23c.4-.66.94-1.18,1.64-1.55.7-.38,1.49-.56,2.36-.56s1.66.19,2.35.56c.7.38,1.24.89,1.64,1.55s.6,1.4.6,2.23-.2,1.57-.6,2.23c-.4.66-.95,1.18-1.64,1.55-.7.38-1.48.56-2.35.56s-1.66-.19-2.36-.56ZM366.91,99.61c.4-.23.71-.55.94-.95.23-.41.34-.87.34-1.39s-.11-.98-.34-1.39c-.23-.41-.54-.73-.94-.95-.4-.23-.85-.34-1.34-.34s-.94.11-1.34.34c-.4.23-.71.55-.94.95-.23.41-.34.87-.34,1.39s.11.98.34,1.39c.23.41.54.73.94.95.4.23.85.34,1.34.34s.94-.11,1.34-.34Z"/>
    </g>
    <path d="M376.38,101.96v1.06h-4.23v-.84l2.16-2.04c.23-.22.38-.41.46-.56s.12-.31.12-.47c0-.22-.08-.4-.23-.52-.15-.12-.37-.18-.67-.18-.25,0-.47.05-.66.14-.2.09-.36.23-.5.42l-.94-.61c.22-.33.52-.58.9-.76.38-.18.82-.28,1.32-.28.42,0,.78.07,1.09.2.31.14.55.33.73.58.17.25.26.54.26.88,0,.3-.06.59-.19.86s-.38.57-.74.91l-1.29,1.22h2.41Z"/>
    <g>
      <path class="cls-1" d="M337.41,140.53v15.78c0,.7.62,1.27,1.38,1.27h45.25c.19,0,.37-.03.54-.1,1.75-.7,10.6-5.09-7.6-17.49-.23-.16-.51-.24-.79-.25l-37.38-.49c-.77-.01-1.4.56-1.4,1.27h0Z"/>
      <path class="cls-16" d="M373.4,139.57v6.5c0,1.38.88,2.54,2.06,2.71,10.15,3.34,12.01,2.6,12.31,1.82.7-1.77-5.44-6.8-11.04-10.94-1.11-.03-2.22-.06-3.34-.1Z"/>
      <path class="cls-16" d="M341.28,146.56v2.95c0,1.8.41,3.32.9,3.33l14.24.17c.41,0,.74-1.03.8-2.47l.11-2.73c.08-1.93-.35-3.74-.9-3.76l-14.35-.39c-.45-.01-.81,1.26-.81,2.9Z"/>
      <polygon class="cls-16" points="361.61 157.58 362.55 156.2 371.79 156.2 372.65 157.58 361.61 157.58"/>
      <polygon class="cls-7" points="362.41 144.14 362.55 156.2 367.1 156.2 371.79 156.2 371.79 144.14 367.13 144.14 362.41 144.14"/>
      <rect class="cls-2" x="363" y="145.6" width="3.5" height="8.97" rx="1.75" ry="1.75"/>
      <rect class="cls-2" x="367.72" y="145.6" width="3.5" height="8.97" rx="1.75" ry="1.75"/>
      <polyline class="cls-2" points="353.65 143.93 353.65 145.19 351.45 145.19 351.45 147.14 356 147.14 356 145.19 354.43 145.19 354.43 143.94"/>
      <polygon class="cls-7" points="363.32 139.58 363.9 138.82 366.17 138.82 369.65 138.82 370.25 139.67 363.32 139.58"/>
      <polygon class="cls-1" points="369.75 134.54 368.81 135.76 366.46 138.82 369.75 134.54"/>
      <line class="cls-1" x1="366.61" y1="134.31" x2="368.54" y2="136.11"/>
    </g>
  </g>
  <g id="_5" data-name="5">
    <path class="cls-17" d="M14.81,140.6c22.08-4.75,44.15-9.51,66.23-14.26,16.3,17.66,32.6,35.32,48.91,52.98,5.15-9.2,17.95-29.05,42.79-42.79,17.53-9.69,33.92-12.41,43.81-13.25,11.55-19.36,23.09-38.72,34.64-58.08-11.55-21.4-23.09-42.79-34.64-64.19-19.34-.28-67.28,1.65-116.15,32.6C42.83,70.09,21.06,123.36,14.81,140.6Z"/>
    <circle class="cls-6" cx="193.35" cy="61.87" r="32.77"/>
    <g>
      <path d="M109.89,66.86l-3.33,7.7h-1.76l-3.32-7.7h1.93l2.34,5.5,2.38-5.5h1.77Z"/>
      <path d="M113.77,73.14c.24-.09.46-.24.67-.43l.91.99c-.56.64-1.37.96-2.44.96-.67,0-1.26-.13-1.77-.39-.51-.26-.91-.62-1.19-1.08s-.42-.99-.42-1.57.14-1.1.41-1.57c.27-.47.65-.83,1.13-1.09.48-.26,1.02-.39,1.62-.39.56,0,1.08.12,1.54.36s.83.58,1.11,1.03.41.98.41,1.6l-4.38.85c.12.29.32.51.59.66.27.15.6.22.98.22.31,0,.58-.05.82-.14ZM111.64,70.27c-.27.28-.41.66-.43,1.16l2.88-.56c-.08-.31-.25-.55-.5-.74-.25-.18-.55-.28-.9-.28-.43,0-.78.14-1.06.42ZM113.15,66.3h1.85l-1.99,1.58h-1.34l1.49-1.58Z"/>
      <path d="M117.47,74.12c-.37-.36-.56-.86-.56-1.51v-6.2h1.72v6.11c0,.25.06.44.19.58.13.14.31.2.54.2.09,0,.18-.01.27-.03.09-.02.16-.05.21-.08l.08,1.33c-.29.09-.58.14-.89.14-.67,0-1.19-.18-1.56-.53Z"/>
      <path d="M121.8,74.26c-.5-.26-.88-.62-1.16-1.08s-.42-.99-.42-1.57.14-1.11.42-1.57.67-.82,1.16-1.08c.49-.26,1.05-.39,1.68-.39s1.18.13,1.67.39c.49.26.88.62,1.16,1.08.28.46.42.99.42,1.57s-.14,1.11-.42,1.57c-.28.46-.66.82-1.16,1.08-.49.26-1.05.39-1.67.39s-1.18-.13-1.68-.39ZM124.56,72.8c.28-.3.42-.69.42-1.19s-.14-.9-.42-1.19-.64-.45-1.08-.45-.8.15-1.09.45-.43.69-.43,1.19.14.9.43,1.19.65.45,1.09.45.8-.15,1.08-.45Z"/>
    </g>
    <g>
      <path d="M88.54,85.41v8.4h-1.94v-6.84h-1.68v-1.56h3.62Z"/>
      <path d="M91.94,91.9c.22.21.32.49.32.83,0,.16-.02.32-.06.48s-.13.4-.26.72l-.68,1.73h-1.19l.53-1.91c-.2-.08-.36-.21-.47-.39-.12-.18-.17-.39-.17-.63,0-.34.11-.62.33-.83.22-.21.5-.32.83-.32s.61.11.83.32Z"/>
      <path d="M96.19,85.41v8.4h-1.94v-6.84h-1.68v-1.56h3.62Z"/>
      <path d="M98.09,89.32c-.39-.42-.58-.98-.58-1.69s.19-1.27.58-1.69c.39-.42.89-.63,1.51-.63s1.12.21,1.5.63c.38.42.58.98.58,1.69s-.19,1.27-.58,1.69c-.38.42-.88.63-1.5.63s-1.12-.21-1.51-.63ZM100.24,88.63c.16-.22.23-.56.23-1s-.08-.77-.23-1c-.16-.22-.37-.34-.64-.34s-.48.11-.64.34c-.16.23-.24.56-.24.99s.08.76.24.99c.16.23.37.34.64.34s.49-.11.64-.34ZM104.6,85.41h1.43l-5.74,8.4h-1.43l5.74-8.4ZM104.23,93.62c-.32-.19-.56-.46-.74-.81s-.26-.76-.26-1.22.09-.87.26-1.22c.18-.35.42-.62.74-.81.32-.19.67-.28,1.07-.28.62,0,1.12.21,1.51.63.39.42.58.98.58,1.69s-.19,1.27-.58,1.69c-.39.42-.89.63-1.51.63-.4,0-.76-.09-1.07-.28ZM105.94,92.58c.16-.23.23-.56.23-.99s-.08-.76-.23-.99c-.16-.23-.37-.34-.64-.34s-.48.11-.64.34c-.16.22-.24.56-.24,1s.08.77.24,1c.16.22.37.34.64.34s.49-.11.64-.34Z"/>
      <path d="M118.55,84.91v8.9h-1.79v-.74c-.46.56-1.14.84-2.02.84-.61,0-1.16-.14-1.65-.41-.49-.27-.88-.66-1.16-1.16-.28-.5-.42-1.09-.42-1.75s.14-1.25.42-1.75c.28-.5.67-.89,1.16-1.16.49-.27,1.04-.41,1.65-.41.82,0,1.47.26,1.93.78v-3.13h1.87ZM116.25,91.88c.31-.32.47-.76.47-1.3s-.16-.98-.47-1.3c-.31-.32-.7-.49-1.18-.49s-.88.16-1.19.49c-.31.32-.47.76-.47,1.3s.16.98.47,1.3.71.49,1.19.49.86-.16,1.18-.49Z"/>
      <path d="M124.42,92.26c.26-.1.5-.26.73-.47l1,1.08c-.61.7-1.5,1.04-2.66,1.04-.73,0-1.37-.14-1.93-.43-.56-.28-.99-.68-1.3-1.18s-.46-1.08-.46-1.72.15-1.2.45-1.71c.3-.51.71-.9,1.24-1.19s1.11-.43,1.77-.43c.62,0,1.18.13,1.68.39s.91.64,1.21,1.13c.3.49.45,1.07.45,1.75l-4.78.92c.14.32.35.56.64.72s.65.24,1.07.24c.34,0,.63-.05.89-.15ZM122.1,89.13c-.3.3-.45.72-.47,1.26l3.14-.61c-.09-.34-.27-.6-.54-.8-.27-.2-.6-.3-.98-.3-.47,0-.86.15-1.15.46Z"/>
      <path d="M133.07,93.4c-.69-.37-1.24-.89-1.63-1.55s-.59-1.41-.59-2.24.2-1.58.59-2.24c.4-.66.94-1.18,1.63-1.55s1.47-.56,2.33-.56c.73,0,1.39.13,1.97.38s1.08.62,1.48,1.1l-1.25,1.15c-.57-.66-1.27-.98-2.11-.98-.52,0-.98.11-1.39.34-.41.23-.73.55-.95.95s-.34.87-.34,1.39.11.98.34,1.39c.23.41.55.73.95.95.41.23.87.34,1.39.34.84,0,1.54-.33,2.11-1l1.25,1.15c-.4.49-.9.86-1.49,1.12-.59.26-1.25.38-1.98.38-.86,0-1.63-.19-2.32-.56Z"/>
      <path d="M141.7,93.39c-.7-.38-1.25-.89-1.64-1.55-.4-.66-.59-1.4-.59-2.23s.2-1.57.59-2.23.94-1.18,1.64-1.55c.7-.38,1.49-.56,2.36-.56s1.66.19,2.35.56c.7.38,1.24.89,1.64,1.55.4.66.6,1.4.6,2.23s-.2,1.57-.6,2.23c-.4.66-.95,1.18-1.64,1.55s-1.48.56-2.35.56-1.66-.19-2.36-.56ZM145.4,91.96c.4-.23.71-.55.94-.95.23-.41.34-.87.34-1.39s-.11-.98-.34-1.39-.54-.73-.94-.95c-.4-.23-.85-.34-1.34-.34s-.94.11-1.34.34c-.4.23-.71.55-.94.95s-.34.87-.34,1.39.11.98.34,1.39c.23.41.54.73.94.95.4.23.85.34,1.34.34s.94-.11,1.34-.34Z"/>
    </g>
    <path d="M154.31,96v1.06h-4.23v-.84l2.16-2.04c.23-.22.38-.41.46-.56.08-.16.12-.31.12-.47,0-.22-.08-.4-.23-.52-.15-.12-.37-.18-.67-.18-.25,0-.47.05-.66.14-.2.09-.36.23-.5.42l-.94-.61c.22-.33.52-.58.9-.76.38-.18.82-.28,1.32-.28.42,0,.78.07,1.09.2s.55.33.73.58.26.54.26.88c0,.3-.06.59-.19.86s-.38.57-.74.91l-1.29,1.22h2.41Z"/>
    <g>
      <g>
        <g>
          <path class="cls-3" d="M183.13,60.07l.06,5.63"/>
          <path class="cls-3" d="M185.46,60.47l-2.1,5.25"/>
          <path class="cls-3" d="M188.98,62.82l-5.02,2.82"/>
          <path class="cls-3" d="M189.86,68.66l-5.51-1.75"/>
          <path class="cls-3" d="M189.28,70.74l-4.73-3.26"/>
          <path class="cls-3" d="M183.69,67.42l3.67,4.36"/>
          <path class="cls-3" d="M183.25,67.56l.06,5.63"/>
          <path class="cls-3" d="M183.29,67.44l2.16,5.23"/>
          <path class="cls-3" d="M182.76,67.5l-1.54,5.43"/>
          <path class="cls-3" d="M182.63,67.41l-3.68,4.35"/>
          <path class="cls-3" d="M182.34,67.14l-4.66,3.35"/>
          <path class="cls-3" d="M182.42,66.98l-6.11,1.78"/>
          <path class="cls-3" d="M179.1,61.37l3.54,4.46"/>
          <path class="cls-3" d="M182.17,66.44l-6.46.36"/>
          <path class="cls-3" d="M177.48,62.7l5.19,3.6"/>
          <path class="cls-3" d="M182.6,66.39l-6.41-2.18"/>
        </g>
        <ellipse class="cls-3" cx="183.12" cy="66.6" rx="7.47" ry="6.84"/>
      </g>
      <g>
        <g>
          <path class="cls-3" d="M209.71,60.01l.06,6.17"/>
          <path class="cls-3" d="M212.21,60.52l-2.41,5.99"/>
          <path class="cls-3" d="M216.02,62.99l-6.04,3.38"/>
          <path class="cls-3" d="M216.66,68.62l-6.4-2.05"/>
          <path class="cls-3" d="M216,70.69c-1.99-1.37-3.97-2.74-5.96-4.12"/>
          <path class="cls-3" d="M210.03,66.9l4.05,4.83"/>
          <path class="cls-3" d="M209.87,67l2.29,5.61"/>
          <path class="cls-3" d="M209.8,67.28l-1.7,5.97"/>
          <path class="cls-3" d="M209.47,67.21l-3.81,4.5"/>
          <path class="cls-3" d="M209.35,66.88l-4.95,3.55"/>
          <path class="cls-3" d="M209.63,66.78l-6.6,1.92"/>
          <path class="cls-3" d="M205.82,61.31l4.08,5.16"/>
          <path class="cls-3" d="M204.2,62.64l5.6,3.88"/>
          <path class="cls-3" d="M209.32,66.33l-6.41-2.18"/>
          <path class="cls-3" d="M217.08,66.34l-6.96.35"/>
          <path class="cls-3" d="M216.8,64.68l-6.73,1.85"/>
        </g>
        <ellipse class="cls-3" cx="209.84" cy="66.54" rx="7.47" ry="6.84"/>
      </g>
      <path class="cls-1" d="M174.9,65.53h-1.22c.78-4.44,4.77-7.73,9.39-7.77,4.6-.04,8.62,3.15,9.51,7.55-.43.02-.85.04-1.28.06-.84-3.77-4.33-6.47-8.29-6.42-3.95.05-7.36,2.81-8.12,6.59Z"/>
      <path class="cls-1" d="M180.83,59.22v.03c.77,2.14,1.54,4.28,2.3,6.42,0,0,0,0,0,0,0,.03-.13.1-.65.23-.77-2.19-1.53-4.38-2.3-6.57"/>
      <path class="cls-1" d="M183.98,65.58c1.4-1.74,2.8-3.48,4.2-5.21-.2-.16-.4-.31-.6-.47-1.5,1.93-3,3.87-4.5,5.8l.9-.12Z"/>
      <path class="cls-1" d="M187.77,59.34c.58-.73,1.17-1.46,1.75-2.2.5-.09,1-.19,1.5-.28,1.02,2.8,2.04,5.59,3.07,8.39-.48.04-.96.08-1.44.11-.9-2.33-1.79-4.66-2.69-6.98-.5.47-1,.94-1.5,1.41-.23-.15-.46-.3-.69-.45Z"/>
      <path class="cls-14" d="M190.21,55.06c.21.66.43,1.31.64,1.97h-.81c-.15-.6-.31-1.19-.46-1.79.21-.06.43-.12.64-.18Z"/>
      <path class="cls-1" d="M201.69,68.23c-.09-.46-.68-3.71,1.62-6.42,1.85-2.18,4.87-3.17,7.83-2.59.04-.41.08-.83.12-1.24-.26-.06-4.95-1.06-8.41,2.31-3.37,3.29-2.45,7.7-2.38,8,.41-.02.81-.04,1.22-.06Z"/>
      <path class="cls-1" d="M209.99,66.15c-.47-.29-1.17-.79-1.8-1.58-1.22-1.52-1.4-3.02-1.8-4.9-.28-1.3-.8-3.11-1.86-5.24-.23.02-.46.04-.7.06.87,2.15,1.37,3.94,1.68,5.18.55,2.24.74,3.89,2.15,5.41.54.58,1.08.96,1.45,1.18.29-.04.58-.08.87-.11Z"/>
      <path class="cls-1" d="M201.52,66.26h7.54v.62c-2.51.04-5.03.08-7.54.11v-.73Z"/>
      <path class="cls-14" d="M203.75,52.52c-.23.06-.47.12-.7.17.28.6.56,1.2.84,1.8h.7c-.28-.66-.56-1.31-.84-1.97Z"/>
      <path class="cls-7" d="M204.37,53.64c.48.16,1.93-1.82,1.47-2.49-.12-.17-.3-.18-1.83-.38-.51-.07-.93-.13-1.19-.16v.6c.29.04.72.1,1.25.16.8.1,1.01.11,1.08.25.19.35-.64,1.13-1,1.45.02.24.06.52.22.57Z"/>
      <path class="cls-7" d="M202.65,51.88c-.02.21-.04.42-.06.63.51-.03,1.02-.06,1.54-.09-.04.03-.16.13-.18.29-.02.15.06.34.18.37.31.09,1.05-.75.83-1.15-.04-.08-.12-.13-.22-.17-.7.04-1.39.08-2.09.11Z"/>
      <path class="cls-1" d="M204.01,54.57c.22.53.45,1.05.67,1.58-2.71,3.34-5.42,6.68-8.13,10.02-.41-.33-.82-.65-1.23-.98,2.89-3.54,5.79-7.08,8.68-10.62Z"/>
      <path class="cls-1" d="M182.61,67.56c-.14-.1-.55-.38-.58-.79,0,0-.03-.36.35-.75,1.1-1.15,11.25-3.28,13.69-.41.22.26.78.92.66,1.69-.12.71-.78,1.15-.97,1.28-1.52,1.01-3.14-.23-6.5-.45-2.37-.16-5.53.2-6.65-.56Z"/>
      <ellipse class="cls-7" cx="183.12" cy="66.68" rx=".78" ry=".77"/>
      <ellipse class="cls-7" cx="194.65" cy="67.14" rx=".95" ry=".93"/>
      <ellipse class="cls-1" cx="209.79" cy="66.64" rx=".78" ry=".77"/>
      <path class="cls-7" d="M196.72,66.93h2.82v.52c-.66,0-1.33,0-1.99,0,0-.09,0-.19,0-.28-.27,0-.54,0-.81-.01,0-.08,0-.15,0-.23Z"/>
      <path class="cls-7" d="M193.11,54.79c-.2.33-.81.16-1.79.23-1.23.08-1.82.43-3.31.51-.17,0-.57.02-.97-.19-.14-.07-.53-.28-.58-.64-.06-.36.25-.77.77-.98,1.21-.18,5.18-.69,5.81.43.04.07.22.4.08.64Z"/>
    </g>
  </g>
</svg>