<?xml version="1.0" encoding="UTF-8"?>
<svg id="Calque_1" data-name="Calque 1" xmlns="http://www.w3.org/2000/svg" viewBox="0 0 595.28 511.78">
  <defs>
    <style>
      .cls-1 {
        fill: #ac8b89;
      }

      .cls-2 {
        fill: #3a2613;
      }

      .cls-3 {
        fill: #955551;
      }

      .cls-4 {
        fill: #e0cecd;
      }

      .cls-5 {
        fill: #d9d9d9;
      }

      .cls-6 {
        fill: #e4e3e3;
      }

      .cls-7 {
        fill: #e0e1df;
      }
    </style>
  </defs>
  <g>
    <g>
      <path class="cls-3" d="M42.36,354.6c.95-1.51,4.69-7.05,12.18-9.17,4.12-1.16,7.71-.81,9.74-.46h266.48c.98,0,4.45-.19,7.31,1.83,2.76,1.96,3.91,5.22,4.38,8.71,1.07,7.92,1.54,38.25.97,79.28-.97,2.29-1.95,4.58-2.92,6.87-14.45,1.99-28.91,3.97-43.36,5.96,2.8-6.61,1.24-14.04-3.9-18.79-4.33-4-10.98-5.87-17.05-4.12-7.4,2.13-11.96,9.04-12.18,14.67-.17,4.21,2.11,7.27.49,8.71-1.42,1.26-4.66.23-7.31-.92,2.4-6.21,1.35-12.97-2.92-17.41-6.29-6.54-17.86-6.34-24.85-.92-8.17,6.34-6.41,16.97-6.33,17.41-31.83.15-63.66.31-95.49.46,2.94-8.12-.94-16.98-8.77-20.62-7.65-3.56-17.19-1.25-21.92,5.04-4.92,6.55-2.26,14.26-1.95,15.12-16.72-.21-29.08.3-38,.92-4.47.31-9.99.61-13.64-2.75-4.82-4.45-4.77-13.94-1.46-15.58,1.49-.74,3.53.16,4.87.92-.32-22.3-.65-44.61-.97-66.91-1.65-.11-3.88.02-5.36,1.37-3.49,3.19.83,9.91-2.44,12.83-1.97,1.77-5.96,1.48-8.28,0-5.41-3.45-5.54-15.75,1.46-20.62,4.26-2.97,9.64-2.13,11.21-1.83Z"/>
      <path class="cls-7" d="M58.68,363.65c.12,14.25.24,28.49.37,42.74-.08,2.67-.16,5.35-.24,8.02-.81.84-1.62,1.68-2.44,2.52l-6.82-.23v-53.16c3.04.04,6.09.08,9.13.11Z"/>
      <g>
        <ellipse class="cls-6" cx="111.13" cy="441.49" rx="16.16" ry="14.51"/>
        <ellipse class="cls-3" cx="111.2" cy="442.19" rx="9.48" ry="8.69"/>
        <ellipse class="cls-6" cx="111.31" cy="442.27" rx="2.36" ry="2.27"/>
        <ellipse class="cls-6" cx="114.89" cy="440.21" rx="1.18" ry="1.11"/>
        <ellipse class="cls-6" cx="114.97" cy="444.28" rx="1.18" ry="1.11"/>
        <ellipse class="cls-6" cx="111.2" cy="446.36" rx="1.18" ry="1.11"/>
        <ellipse class="cls-6" cx="107.58" cy="444.28" rx="1.18" ry="1.11"/>
        <ellipse class="cls-6" cx="107.26" cy="440.27" rx="1.18" ry="1.11"/>
        <ellipse class="cls-6" cx="111.16" cy="438.22" rx="1.18" ry="1.11"/>
      </g>
      <g>
        <ellipse class="cls-7" cx="240.3" cy="442" rx="16.16" ry="14.51"/>
        <ellipse class="cls-3" cx="240.36" cy="442.71" rx="9.48" ry="8.69"/>
        <ellipse class="cls-7" cx="240.47" cy="442.79" rx="2.36" ry="2.27"/>
        <ellipse class="cls-7" cx="244.05" cy="440.72" rx="1.18" ry="1.11"/>
        <ellipse class="cls-7" cx="244.13" cy="444.79" rx="1.18" ry="1.11"/>
        <ellipse class="cls-7" cx="240.36" cy="446.87" rx="1.18" ry="1.11"/>
        <ellipse class="cls-7" cx="236.74" cy="444.79" rx="1.18" ry="1.11"/>
        <ellipse class="cls-7" cx="236.42" cy="440.78" rx="1.18" ry="1.11"/>
        <ellipse class="cls-7" cx="240.32" cy="438.74" rx="1.18" ry="1.11"/>
      </g>
      <g>
        <ellipse class="cls-7" cx="281.18" cy="442.19" rx="16.16" ry="14.51"/>
        <ellipse class="cls-3" cx="281.24" cy="442.9" rx="9.48" ry="8.69"/>
        <ellipse class="cls-7" cx="281.35" cy="442.98" rx="2.36" ry="2.27"/>
        <ellipse class="cls-7" cx="284.93" cy="440.91" rx="1.18" ry="1.11"/>
        <ellipse class="cls-7" cx="285.02" cy="444.98" rx="1.18" ry="1.11"/>
        <ellipse class="cls-7" cx="281.24" cy="447.06" rx="1.18" ry="1.11"/>
        <ellipse class="cls-7" cx="277.63" cy="444.98" rx="1.18" ry="1.11"/>
        <ellipse class="cls-7" cx="277.3" cy="440.97" rx="1.18" ry="1.11"/>
        <ellipse class="cls-7" cx="281.2" cy="438.93" rx="1.18" ry="1.11"/>
      </g>
      <path class="cls-7" d="M72.4,357.66c8.55.1,17.11.2,25.66.31.31-.04.55,0,.73.08.95.36,1.44,1.8,1.22,3.59.05,11.89.11,23.78.16,35.67-10.15.03-20.3.05-30.45.08.14-11.92.27-23.83.41-35.75-.02-.13-.29-2.71,1.38-3.67.22-.12.51-.25.89-.31Z"/>
      <path class="cls-7" d="M70.13,400.05c10.07.03,20.14.05,30.2.08v20.09c-2.03,1.39-4.61,3.46-7.06,6.42-1.86,2.24-3.16,4.39-4.06,6.19-.23,2-1.04,3.09-1.62,3.67-1.82,1.8-3.95,1.16-13.97.53-.4-.03-1.33-.08-2.11-.69-1.16-.9-1.3-2.44-1.3-3.21-.03-11.02-.05-22.05-.08-33.07Z"/>
      <path class="cls-7" d="M113.65,361.71c.01-.64.03-1.27.04-1.91.03-.22.15-.83.69-1.34.83-.78,1.96-.67,2.11-.65,7.69.03,15.37.05,23.06.08.13-.02,1.63-.28,2.76.76,1.07.99.91,2.3.89,2.44-.05,6.87-.11,13.75-.16,20.62v1.95c0,.11.05.82-.53,1.34-.34.3-.72.39-.89.42-.55.01-1.11.03-1.66.04-7.43.06-14.86.13-22.29.19h-1.49c-.23-.01-1.02-.09-1.71-.69-.72-.62-.86-1.39-.89-1.6v-1.49c-.08-6.65-.06-13.37.08-20.16Z"/>
      <path class="cls-7" d="M154.89,361.79c.01-.64.03-1.27.04-1.91.03-.22.15-.83.69-1.34.83-.78,1.96-.67,2.11-.65,7.69.03,15.37.05,23.06.08.13-.02,1.63-.28,2.76.76,1.07.99.91,2.3.89,2.44-.05,6.87-.11,13.75-.16,20.62v1.95c0,.11.05.82-.53,1.34-.34.3-.72.39-.89.42-.55.01-1.11.03-1.66.04-7.43.06-14.86.13-22.29.19h-1.49c-.23-.01-1.02-.09-1.71-.69-.72-.62-.86-1.39-.89-1.6v-1.49c-.08-6.65-.06-13.37.08-20.16Z"/>
      <path class="cls-7" d="M196.14,361.79c.01-.64.03-1.27.04-1.91.03-.22.15-.83.69-1.34.83-.78,1.96-.67,2.11-.65,7.69.03,15.37.05,23.06.08.13-.02,1.63-.28,2.76.76,1.07.99.91,2.3.89,2.44-.05,6.87-.11,13.75-.16,20.62v1.95c0,.11.05.82-.53,1.34-.34.3-.72.39-.89.42-.55.01-1.11.03-1.66.04-7.43.06-14.86.13-22.29.19h-1.49c-.23-.01-1.02-.09-1.71-.69-.72-.62-.86-1.39-.89-1.6v-1.49c-.08-6.65-.06-13.37.08-20.16Z"/>
      <path class="cls-7" d="M237.06,362.09c.01-.64.03-1.27.04-1.91.03-.22.15-.83.69-1.34.83-.78,1.96-.67,2.11-.65,7.69.03,15.37.05,23.06.08.13-.02,1.63-.28,2.76.76,1.07.99.91,2.3.89,2.44-.05,6.87-.11,13.75-.16,20.62v1.95c0,.11.05.82-.53,1.34-.34.3-.72.39-.89.42-.55.01-1.11.03-1.66.04-7.43.06-14.86.13-22.29.19h-1.49c-.23-.01-1.02-.09-1.71-.69-.72-.62-.86-1.39-.89-1.6v-1.49c-.08-6.65-.06-13.37.08-20.16Z"/>
      <path class="cls-7" d="M278.31,361.79c.01-.64.03-1.27.04-1.91.03-.22.15-.83.69-1.34.83-.78,1.96-.67,2.11-.65,7.69.03,15.37.05,23.06.08.13-.02,1.63-.28,2.76.76,1.07.99.91,2.3.89,2.44-.05,6.87-.11,13.75-.16,20.62v1.95c0,.11.05.82-.53,1.34-.34.3-.72.39-.89.42-.55.01-1.11.03-1.66.04-7.43.06-14.86.13-22.29.19h-1.49c-.23-.01-1.02-.09-1.71-.69-.72-.62-.86-1.39-.89-1.6v-1.49c-.08-6.65-.06-13.37.08-20.16Z"/>
      <path class="cls-7" d="M338.97,357.89c.03,9.32.05,18.64.08,27.96-1.79-.08-3.57-.15-5.36-.23-.25.03-.79.07-1.36-.19-1.05-.47-1.31-1.52-1.34-1.66-.03-.57-.05-1.15-.08-1.72.06-7.31.12-14.63.18-21.94,0-.24.02-.73.32-1.26.26-.45.59-.72.79-.86.68-.02,1.37-.04,2.05-.06,1.57-.01,3.14-.03,4.71-.04Z"/>
      <path class="cls-7" d="M338.98,399.77c-.03,3.27-.06,6.55-.09,9.82-1.47-.04-2.94-.08-4.4-.11.02-2.39.04-4.77.06-7.16,0-.32.01-.64.02-.96.01-.11.14-1.02.96-1.43.31-.16.61-.19.81-.19.88,0,1.77.02,2.65.03Z"/>
      <path class="cls-7" d="M334.48,412.89h4.48c-.03,2.68-.06,5.37-.09,8.05-1.42,0-2.84.02-4.26.03-.04-2.69-.08-5.38-.12-8.08Z"/>
      <path class="cls-7" d="M338.96,424.12c-.04,2.28-.07,4.55-.11,6.83-.86,0-1.73-.02-2.59-.03l-.55-.06c-.15-.05-.42-.17-.66-.43-.31-.33-.39-.68-.42-.83v-.52c-.04-1.13-.08-2.25-.12-3.38v-.73c0-.05,0-.41.3-.66.2-.17.43-.19.52-.2.29,0,.59,0,.88-.01.91,0,1.83.02,2.74.03Z"/>
      <path class="cls-7" d="M98.22,344.06c19.97.05,39.95.1,59.92.15.3-1.7.56-4.56-1.14-5.8-.85-.63-1.88-.61-2.27-.61-3.36.03-24.77.06-54.24.15-.53.16-1.22.47-1.79,1.07-1.17,1.23-1.33,3.2-.49,5.04Z"/>
      <path class="cls-7" d="M239.98,344.07c19.97.05,39.95.1,59.92.15.3-1.7.56-4.56-1.14-5.8-.85-.63-1.88-.61-2.27-.61-3.36.03-24.77.06-54.24.15-.53.16-1.22.47-1.79,1.07-1.17,1.23-1.33,3.2-.49,5.04Z"/>
    </g>
    <g>
      <path class="cls-2" d="M152.69,414.25c-.21.16-.48.28-.79.36s-.64.12-.97.12c-.91,0-1.6-.23-2.09-.69-.49-.46-.73-1.13-.73-2.02v-6.61h2.18v1.83h1.86v1.68h-1.86v3.07c0,.32.08.56.24.74.16.17.39.26.69.26.34,0,.63-.09.9-.28l.57,1.54Z"/>
      <path class="cls-2" d="M160.76,407.81c.57.56.86,1.39.86,2.49v4.31h-2.18v-3.98c0-.6-.13-1.04-.39-1.34-.26-.29-.64-.44-1.13-.44-.55,0-.99.17-1.32.51-.33.34-.49.85-.49,1.52v3.72h-2.18v-10.39h2.18v3.64c.29-.29.64-.51,1.05-.67.41-.15.86-.23,1.34-.23.93,0,1.69.28,2.26.84Z"/>
      <path class="cls-2" d="M168.52,412.8c.3-.12.59-.3.85-.55l1.16,1.26c-.71.81-1.75,1.22-3.11,1.22-.85,0-1.6-.17-2.25-.5-.65-.33-1.16-.79-1.51-1.38-.35-.59-.53-1.26-.53-2s.17-1.4.52-2,.83-1.05,1.44-1.39c.61-.33,1.3-.5,2.06-.5.72,0,1.37.15,1.96.45.59.3,1.06.74,1.41,1.32.35.57.52,1.25.52,2.04l-5.57,1.08c.16.37.41.65.75.84s.76.28,1.25.28c.39,0,.74-.06,1.04-.18ZM165.81,409.15c-.35.35-.53.84-.55,1.47l3.67-.71c-.1-.39-.31-.7-.63-.94s-.7-.35-1.15-.35c-.55,0-1,.18-1.34.53Z"/>
      <path class="cls-2" d="M175.66,407.25c.44-.19.95-.28,1.53-.28v2.02c-.24-.02-.41-.03-.49-.03-.63,0-1.12.17-1.47.53-.35.35-.53.88-.53,1.58v3.56h-2.18v-7.53h2.09v.99c.26-.36.61-.64,1.06-.83Z"/>
      <path class="cls-2" d="M190.39,407.8c.56.55.83,1.39.83,2.5v4.31h-2.18v-3.98c0-.6-.12-1.04-.37-1.34-.25-.29-.6-.44-1.06-.44-.51,0-.92.17-1.22.5s-.45.82-.45,1.48v3.78h-2.18v-3.98c0-1.19-.48-1.78-1.43-1.78-.5,0-.91.17-1.2.5-.3.33-.45.82-.45,1.48v3.78h-2.18v-7.53h2.09v.87c.28-.32.62-.56,1.03-.73.41-.17.85-.25,1.34-.25.53,0,1.01.1,1.44.31s.77.52,1.04.92c.31-.39.7-.7,1.17-.91.47-.21.99-.32,1.55-.32.94,0,1.69.28,2.25.83Z"/>
      <path class="cls-2" d="M193.29,405.68c-.25-.23-.38-.52-.38-.87s.13-.63.38-.87.58-.35.98-.35.73.11.98.34c.25.22.38.5.38.84,0,.36-.13.67-.38.9-.25.24-.58.36-.98.36s-.73-.12-.98-.35ZM193.18,407.08h2.18v7.53h-2.18v-7.53Z"/>
      <path class="cls-2" d="M205.04,407.08v10.25h-2.18v-3.51c-.54.61-1.29.91-2.25.91-.71,0-1.35-.16-1.92-.48-.57-.32-1.02-.77-1.35-1.36s-.49-1.27-.49-2.04.16-1.46.49-2.04c.33-.59.78-1.04,1.35-1.36.57-.32,1.22-.48,1.92-.48,1.03,0,1.81.33,2.35.98v-.87h2.09ZM202.35,412.36c.36-.38.55-.88.55-1.52s-.18-1.14-.55-1.52c-.36-.38-.82-.57-1.37-.57s-1.02.19-1.39.57c-.36.38-.55.88-.55,1.52s.18,1.14.55,1.52c.36.38.83.57,1.39.57s1.01-.19,1.37-.57Z"/>
      <path class="cls-2" d="M214.64,407.08v7.53h-2.07v-.9c-.29.33-.63.58-1.04.75-.4.17-.83.26-1.3.26-.99,0-1.77-.29-2.35-.85s-.87-1.41-.87-2.53v-4.26h2.18v3.93c0,1.21.51,1.82,1.53,1.82.52,0,.94-.17,1.26-.51s.48-.85.48-1.52v-3.72h2.18Z"/>
      <path class="cls-2" d="M221.51,412.8c.3-.12.59-.3.85-.55l1.16,1.26c-.71.81-1.75,1.22-3.11,1.22-.85,0-1.6-.17-2.25-.5-.65-.33-1.16-.79-1.51-1.38-.35-.59-.53-1.26-.53-2s.17-1.4.52-2,.83-1.05,1.44-1.39c.61-.33,1.3-.5,2.06-.5.72,0,1.37.15,1.96.45.59.3,1.06.74,1.41,1.32.35.57.52,1.25.52,2.04l-5.57,1.08c.16.37.41.65.75.84s.76.28,1.25.28c.39,0,.74-.06,1.04-.18ZM218.8,409.15c-.35.35-.53.84-.55,1.47l3.67-.71c-.1-.39-.31-.7-.63-.94s-.7-.35-1.15-.35c-.55,0-1,.18-1.34.53Z"/>
      <path class="cls-2" d="M226.21,414.49c-.6-.15-1.07-.35-1.43-.58l.73-1.57c.34.21.74.39,1.22.52.48.14.94.2,1.4.2.92,0,1.39-.23,1.39-.69,0-.21-.13-.37-.38-.46-.25-.09-.64-.17-1.16-.24-.62-.09-1.12-.2-1.53-.32s-.75-.34-1.04-.64c-.29-.31-.44-.75-.44-1.32,0-.48.14-.9.41-1.27.28-.37.68-.66,1.2-.86.53-.21,1.15-.31,1.87-.31.53,0,1.06.06,1.59.17.53.12.96.28,1.31.48l-.73,1.55c-.66-.37-1.39-.56-2.17-.56-.47,0-.82.07-1.05.2s-.35.3-.35.5c0,.23.13.4.38.49.25.09.65.18,1.2.27.62.1,1.12.21,1.51.33.39.12.73.33,1.02.64.29.31.43.74.43,1.29,0,.47-.14.88-.42,1.25-.28.36-.69.65-1.23.85-.54.2-1.17.3-1.91.3-.63,0-1.24-.08-1.83-.23Z"/>
    </g>
  </g>
  <g>
    <g>
      <path class="cls-1" d="M41.34,209.92c.95-1.51,4.69-7.05,12.18-9.17,4.12-1.16,7.71-.81,9.74-.46h266.48c.98,0,4.45-.19,7.31,1.83,2.76,1.96,3.91,5.22,4.38,8.71,1.07,7.92,1.54,38.25.97,79.28-.97,2.29-1.95,4.58-2.92,6.87-14.45,1.99-28.91,3.97-43.36,5.96,2.8-6.61,1.24-14.04-3.9-18.79-4.33-4-10.98-5.87-17.05-4.12-7.4,2.13-11.96,9.04-12.18,14.67-.17,4.21,2.11,7.27.49,8.71-1.42,1.26-4.66.23-7.31-.92,2.4-6.21,1.35-12.97-2.92-17.41-6.29-6.54-17.86-6.34-24.85-.92-8.17,6.34-6.41,16.97-6.33,17.41-31.83.15-63.66.31-95.49.46,2.94-8.12-.94-16.98-8.77-20.62-7.65-3.56-17.19-1.25-21.92,5.04-4.92,6.55-2.26,14.26-1.95,15.12-16.72-.21-29.08.3-38,.92-4.47.31-9.99.61-13.64-2.75-4.82-4.45-4.77-13.94-1.46-15.58,1.49-.74,3.53.16,4.87.92-.32-22.3-.65-44.61-.97-66.91-1.65-.11-3.88.02-5.36,1.37-3.49,3.19.83,9.91-2.44,12.83-1.97,1.77-5.96,1.48-8.28,0-5.41-3.45-5.54-15.75,1.46-20.62,4.26-2.97,9.64-2.13,11.21-1.83Z"/>
      <path class="cls-7" d="M57.66,218.98c.12,14.25.24,28.49.37,42.74-.08,2.67-.16,5.35-.24,8.02-.81.84-1.62,1.68-2.44,2.52l-6.82-.23v-53.16c3.04.04,6.09.08,9.13.11Z"/>
      <g>
        <ellipse class="cls-6" cx="110.12" cy="296.81" rx="16.16" ry="14.51"/>
        <ellipse class="cls-1" cx="110.18" cy="297.51" rx="9.48" ry="8.69"/>
        <ellipse class="cls-6" cx="110.29" cy="297.59" rx="2.36" ry="2.27"/>
        <ellipse class="cls-6" cx="113.87" cy="295.53" rx="1.18" ry="1.11"/>
        <ellipse class="cls-6" cx="113.95" cy="299.6" rx="1.18" ry="1.11"/>
        <ellipse class="cls-6" cx="110.18" cy="301.68" rx="1.18" ry="1.11"/>
        <ellipse class="cls-6" cx="106.56" cy="299.6" rx="1.18" ry="1.11"/>
        <ellipse class="cls-6" cx="106.24" cy="295.59" rx="1.18" ry="1.11"/>
        <ellipse class="cls-6" cx="110.14" cy="293.54" rx="1.18" ry="1.11"/>
      </g>
      <g>
        <ellipse class="cls-7" cx="239.28" cy="297.32" rx="16.16" ry="14.51"/>
        <ellipse class="cls-1" cx="239.34" cy="298.03" rx="9.48" ry="8.69"/>
        <ellipse class="cls-7" cx="239.45" cy="298.11" rx="2.36" ry="2.27"/>
        <ellipse class="cls-7" cx="243.03" cy="296.04" rx="1.18" ry="1.11"/>
        <ellipse class="cls-7" cx="243.11" cy="300.11" rx="1.18" ry="1.11"/>
        <ellipse class="cls-7" cx="239.34" cy="302.19" rx="1.18" ry="1.11"/>
        <ellipse class="cls-7" cx="235.73" cy="300.11" rx="1.18" ry="1.11"/>
        <ellipse class="cls-7" cx="235.4" cy="296.1" rx="1.18" ry="1.11"/>
        <ellipse class="cls-7" cx="239.3" cy="294.06" rx="1.18" ry="1.11"/>
      </g>
      <g>
        <ellipse class="cls-7" cx="280.16" cy="297.51" rx="16.16" ry="14.51"/>
        <ellipse class="cls-1" cx="280.22" cy="298.22" rx="9.48" ry="8.69"/>
        <ellipse class="cls-7" cx="280.33" cy="298.3" rx="2.36" ry="2.27"/>
        <ellipse class="cls-7" cx="283.91" cy="296.24" rx="1.18" ry="1.11"/>
        <ellipse class="cls-7" cx="284" cy="300.3" rx="1.18" ry="1.11"/>
        <ellipse class="cls-7" cx="280.22" cy="302.38" rx="1.18" ry="1.11"/>
        <ellipse class="cls-7" cx="276.61" cy="300.3" rx="1.18" ry="1.11"/>
        <ellipse class="cls-7" cx="276.28" cy="296.29" rx="1.18" ry="1.11"/>
        <ellipse class="cls-7" cx="280.18" cy="294.25" rx="1.18" ry="1.11"/>
      </g>
      <path class="cls-7" d="M71.39,212.98c8.55.1,17.11.2,25.66.31.31-.04.55,0,.73.08.95.36,1.44,1.8,1.22,3.59.05,11.89.11,23.78.16,35.67-10.15.03-20.3.05-30.45.08.14-11.92.27-23.83.41-35.75-.02-.13-.29-2.71,1.38-3.67.22-.12.51-.25.89-.31Z"/>
      <path class="cls-7" d="M69.11,255.37c10.07.03,20.14.05,30.2.08v20.09c-2.03,1.39-4.61,3.46-7.06,6.42-1.86,2.24-3.16,4.39-4.06,6.19-.23,2-1.04,3.09-1.62,3.67-1.82,1.8-3.95,1.16-13.97.53-.4-.03-1.33-.08-2.11-.69-1.16-.9-1.3-2.44-1.3-3.21-.03-11.02-.05-22.05-.08-33.07Z"/>
      <path class="cls-7" d="M112.63,217.03c.01-.64.03-1.27.04-1.91.03-.22.15-.83.69-1.34.83-.78,1.96-.67,2.11-.65,7.69.03,15.37.05,23.06.08.13-.02,1.63-.28,2.76.76,1.07.99.91,2.3.89,2.44-.05,6.87-.11,13.75-.16,20.62v1.95c0,.11.05.82-.53,1.34-.34.3-.72.39-.89.42-.55.01-1.11.03-1.66.04-7.43.06-14.86.13-22.29.19h-1.49c-.23-.01-1.02-.09-1.71-.69-.72-.62-.86-1.39-.89-1.6v-1.49c-.08-6.65-.06-13.37.08-20.16Z"/>
      <path class="cls-7" d="M153.87,217.11c.01-.64.03-1.27.04-1.91.03-.22.15-.83.69-1.34.83-.78,1.96-.67,2.11-.65,7.69.03,15.37.05,23.06.08.13-.02,1.63-.28,2.76.76,1.07.99.91,2.3.89,2.44-.05,6.87-.11,13.75-.16,20.62v1.95c0,.11.05.82-.53,1.34-.34.3-.72.39-.89.42-.55.01-1.11.03-1.66.04-7.43.06-14.86.13-22.29.19h-1.49c-.23-.01-1.02-.09-1.71-.69-.72-.62-.86-1.39-.89-1.6v-1.49c-.08-6.65-.06-13.37.08-20.16Z"/>
      <path class="cls-7" d="M195.12,217.11c.01-.64.03-1.27.04-1.91.03-.22.15-.83.69-1.34.83-.78,1.96-.67,2.11-.65,7.69.03,15.37.05,23.06.08.13-.02,1.63-.28,2.76.76,1.07.99.91,2.3.89,2.44-.05,6.87-.11,13.75-.16,20.62v1.95c0,.11.05.82-.53,1.34-.34.3-.72.39-.89.42-.55.01-1.11.03-1.66.04-7.43.06-14.86.13-22.29.19h-1.49c-.23-.01-1.02-.09-1.71-.69-.72-.62-.86-1.39-.89-1.6v-1.49c-.08-6.65-.06-13.37.08-20.16Z"/>
      <path class="cls-7" d="M236.04,217.41c.01-.64.03-1.27.04-1.91.03-.22.15-.83.69-1.34.83-.78,1.96-.67,2.11-.65,7.69.03,15.37.05,23.06.08.13-.02,1.63-.28,2.76.76,1.07.99.91,2.3.89,2.44-.05,6.87-.11,13.75-.16,20.62v1.95c0,.11.05.82-.53,1.34-.34.3-.72.39-.89.42-.55.01-1.11.03-1.66.04-7.43.06-14.86.13-22.29.19h-1.49c-.23-.01-1.02-.09-1.71-.69-.72-.62-.86-1.39-.89-1.6v-1.49c-.08-6.65-.06-13.37.08-20.16Z"/>
      <path class="cls-7" d="M277.29,217.11c.01-.64.03-1.27.04-1.91.03-.22.15-.83.69-1.34.83-.78,1.96-.67,2.11-.65,7.69.03,15.37.05,23.06.08.13-.02,1.63-.28,2.76.76,1.07.99.91,2.3.89,2.44-.05,6.87-.11,13.75-.16,20.62v1.95c0,.11.05.82-.53,1.34-.34.3-.72.39-.89.42-.55.01-1.11.03-1.66.04-7.43.06-14.86.13-22.29.19h-1.49c-.23-.01-1.02-.09-1.71-.69-.72-.62-.86-1.39-.89-1.6v-1.49c-.08-6.65-.06-13.37.08-20.16Z"/>
      <path class="cls-7" d="M337.95,213.21c.03,9.32.05,18.64.08,27.96-1.79-.08-3.57-.15-5.36-.23-.25.03-.79.07-1.36-.19-1.05-.47-1.31-1.52-1.34-1.66-.03-.57-.05-1.15-.08-1.72.06-7.31.12-14.63.18-21.94,0-.24.02-.73.32-1.26.26-.45.59-.72.79-.86.68-.02,1.37-.04,2.05-.06,1.57-.01,3.14-.03,4.71-.04Z"/>
      <path class="cls-7" d="M337.96,255.09c-.03,3.27-.06,6.55-.09,9.82-1.47-.04-2.94-.08-4.4-.11.02-2.39.04-4.77.06-7.16,0-.32.01-.64.02-.96.01-.11.14-1.02.96-1.43.31-.16.61-.19.81-.19.88,0,1.77.02,2.65.03Z"/>
      <path class="cls-7" d="M333.47,268.21h4.48c-.03,2.68-.06,5.37-.09,8.05-1.42,0-2.84.02-4.26.03-.04-2.69-.08-5.38-.12-8.08Z"/>
      <path class="cls-7" d="M337.94,279.44c-.04,2.28-.07,4.55-.11,6.83-.86,0-1.73-.02-2.59-.03l-.55-.06c-.15-.05-.42-.17-.66-.43-.31-.33-.39-.68-.42-.83v-.52c-.04-1.13-.08-2.25-.12-3.38v-.73c0-.05,0-.41.3-.66.2-.17.43-.19.52-.2.29,0,.59,0,.88-.01.91,0,1.83.02,2.74.03Z"/>
      <path class="cls-7" d="M97.21,199.38c19.97.05,39.95.1,59.92.15.3-1.7.56-4.56-1.14-5.8-.85-.63-1.88-.61-2.27-.61-3.36.03-24.77.06-54.24.15-.53.16-1.22.47-1.79,1.07-1.17,1.23-1.33,3.2-.49,5.04Z"/>
      <path class="cls-7" d="M238.96,199.39c19.97.05,39.95.1,59.92.15.3-1.7.56-4.56-1.14-5.8-.85-.63-1.88-.61-2.27-.61-3.36.03-24.77.06-54.24.15-.53.16-1.22.47-1.79,1.07-1.17,1.23-1.33,3.2-.49,5.04Z"/>
    </g>
    <g>
      <path class="cls-2" d="M177.35,271.58h2.07v5.05h-1.71v-.59c-.68.5-1.56.76-2.63.76-.91,0-1.74-.2-2.49-.59s-1.36-.96-1.81-1.71c-.45-.75-.67-1.65-.67-2.68s.23-1.89.69-2.67c.46-.78,1.1-1.39,1.93-1.83.82-.44,1.75-.66,2.77-.66.86,0,1.64.14,2.34.43.7.29,1.29.71,1.76,1.26l-1.46,1.34c-.7-.74-1.54-1.11-2.53-1.11-.63,0-1.18.13-1.67.4-.49.27-.86.64-1.13,1.13-.27.49-.41,1.04-.41,1.68s.13,1.23.4,1.69c.27.47.62.82,1.07,1.06.45.24.94.36,1.47.36.79,0,1.46-.22,2-.67v-2.66Z"/>
      <path class="cls-2" d="M189.45,267.76c.65.73.98,1.78.98,3.13v5.74h-2.27v-5.67c0-.78-.18-1.37-.55-1.77-.37-.4-.88-.59-1.53-.59-.69,0-1.24.21-1.66.64-.42.42-.62,1.05-.62,1.88v5.52h-2.27v-9.8h2.2v1.19c.34-.45.76-.79,1.26-1.01s1.08-.34,1.74-.34c1.17,0,2.08.37,2.73,1.1Z"/>
      <path class="cls-2" d="M202.09,266.83l-4.24,9.8h-2.24l-4.23-9.8h2.45l2.98,7,3.02-7h2.25Z"/>
    </g>
  </g>
  <g>
    <g>
      <path class="cls-4" d="M48.84,70.51c.95-1.51,4.69-7.05,12.18-9.17,4.12-1.16,7.71-.81,9.74-.46h266.48c.98,0,4.45-.19,7.31,1.83,2.76,1.96,3.91,5.22,4.38,8.71,1.07,7.92,1.54,38.25.97,79.28-.97,2.29-1.95,4.58-2.92,6.87-14.45,1.99-28.91,3.97-43.36,5.96,2.8-6.61,1.24-14.04-3.9-18.79-4.33-4-10.98-5.87-17.05-4.12-7.4,2.13-11.96,9.04-12.18,14.67-.17,4.21,2.11,7.27.49,8.71-1.42,1.26-4.66.23-7.31-.92,2.4-6.21,1.35-12.97-2.92-17.41-6.29-6.54-17.86-6.34-24.85-.92-8.17,6.34-6.41,16.97-6.33,17.41-31.83.15-63.66.31-95.49.46,2.94-8.12-.94-16.98-8.77-20.62-7.65-3.56-17.19-1.25-21.92,5.04-4.92,6.55-2.26,14.26-1.95,15.12-16.72-.21-29.08.3-38,.92-4.47.31-9.99.61-13.64-2.75-4.82-4.45-4.77-13.94-1.46-15.58,1.49-.74,3.53.16,4.87.92-.32-22.3-.65-44.61-.97-66.91-1.65-.11-3.88.02-5.36,1.37-3.49,3.19.83,9.91-2.44,12.83-1.97,1.77-5.96,1.48-8.28,0-5.41-3.45-5.54-15.75,1.46-20.62,4.26-2.97,9.64-2.13,11.21-1.83Z"/>
      <path class="cls-7" d="M65.16,79.57c.12,14.25.24,28.49.37,42.74-.08,2.67-.16,5.35-.24,8.02-.81.84-1.62,1.68-2.44,2.52l-6.82-.23v-53.16c3.04.04,6.09.08,9.13.11Z"/>
      <g>
        <ellipse class="cls-6" cx="117.61" cy="157.4" rx="16.16" ry="14.51"/>
        <ellipse class="cls-4" cx="117.67" cy="158.1" rx="9.48" ry="8.69"/>
        <ellipse class="cls-6" cx="117.78" cy="158.18" rx="2.36" ry="2.27"/>
        <ellipse class="cls-6" cx="121.36" cy="156.12" rx="1.18" ry="1.11"/>
        <ellipse class="cls-6" cx="121.45" cy="160.19" rx="1.18" ry="1.11"/>
        <ellipse class="cls-6" cx="117.67" cy="162.27" rx="1.18" ry="1.11"/>
        <ellipse class="cls-6" cx="114.06" cy="160.19" rx="1.18" ry="1.11"/>
        <ellipse class="cls-6" cx="113.73" cy="156.18" rx="1.18" ry="1.11"/>
        <ellipse class="cls-6" cx="117.63" cy="154.13" rx="1.18" ry="1.11"/>
      </g>
      <g>
        <ellipse class="cls-7" cx="246.77" cy="157.91" rx="16.16" ry="14.51"/>
        <ellipse class="cls-4" cx="246.83" cy="158.62" rx="9.48" ry="8.69"/>
        <ellipse class="cls-7" cx="246.94" cy="158.7" rx="2.36" ry="2.27"/>
        <ellipse class="cls-7" cx="250.52" cy="156.63" rx="1.18" ry="1.11"/>
        <ellipse class="cls-7" cx="250.61" cy="160.7" rx="1.18" ry="1.11"/>
        <ellipse class="cls-7" cx="246.83" cy="162.78" rx="1.18" ry="1.11"/>
        <ellipse class="cls-7" cx="243.22" cy="160.7" rx="1.18" ry="1.11"/>
        <ellipse class="cls-7" cx="242.9" cy="156.69" rx="1.18" ry="1.11"/>
        <ellipse class="cls-7" cx="246.79" cy="154.65" rx="1.18" ry="1.11"/>
      </g>
      <g>
        <ellipse class="cls-7" cx="287.65" cy="158.1" rx="16.16" ry="14.51"/>
        <ellipse class="cls-4" cx="287.72" cy="158.81" rx="9.48" ry="8.69"/>
        <ellipse class="cls-7" cx="287.83" cy="158.89" rx="2.36" ry="2.27"/>
        <ellipse class="cls-7" cx="291.4" cy="156.83" rx="1.18" ry="1.11"/>
        <ellipse class="cls-7" cx="291.49" cy="160.89" rx="1.18" ry="1.11"/>
        <ellipse class="cls-7" cx="287.72" cy="162.97" rx="1.18" ry="1.11"/>
        <ellipse class="cls-7" cx="284.1" cy="160.89" rx="1.18" ry="1.11"/>
        <ellipse class="cls-7" cx="283.78" cy="156.88" rx="1.18" ry="1.11"/>
        <ellipse class="cls-7" cx="287.67" cy="154.84" rx="1.18" ry="1.11"/>
      </g>
      <path class="cls-7" d="M78.88,73.57c8.55.1,17.11.2,25.66.31.31-.04.55,0,.73.08.95.36,1.44,1.8,1.22,3.59.05,11.89.11,23.78.16,35.67-10.15.03-20.3.05-30.45.08.14-11.92.27-23.83.41-35.75-.02-.13-.29-2.71,1.38-3.67.22-.12.51-.25.89-.31Z"/>
      <path class="cls-7" d="M76.61,115.96c10.07.03,20.14.05,30.2.08v20.09c-2.03,1.39-4.61,3.46-7.06,6.42-1.86,2.24-3.16,4.39-4.06,6.19-.23,2-1.04,3.09-1.62,3.67-1.82,1.8-3.95,1.16-13.97.53-.4-.03-1.33-.08-2.11-.69-1.16-.9-1.3-2.44-1.3-3.21-.03-11.02-.05-22.05-.08-33.07Z"/>
      <path class="cls-7" d="M120.13,77.62c.01-.64.03-1.27.04-1.91.03-.22.15-.83.69-1.34.83-.78,1.96-.67,2.11-.65,7.69.03,15.37.05,23.06.08.13-.02,1.63-.28,2.76.76,1.07.99.91,2.3.89,2.44-.05,6.87-.11,13.75-.16,20.62v1.95c0,.11.05.82-.53,1.34-.34.3-.72.39-.89.42-.55.01-1.11.03-1.66.04-7.43.06-14.86.13-22.29.19h-1.49c-.23-.01-1.02-.09-1.71-.69-.72-.62-.86-1.39-.89-1.6v-1.49c-.08-6.65-.06-13.37.08-20.16Z"/>
      <path class="cls-7" d="M161.37,77.7c.01-.64.03-1.27.04-1.91.03-.22.15-.83.69-1.34.83-.78,1.96-.67,2.11-.65,7.69.03,15.37.05,23.06.08.13-.02,1.63-.28,2.76.76,1.07.99.91,2.3.89,2.44-.05,6.87-.11,13.75-.16,20.62v1.95c0,.11.05.82-.53,1.34-.34.3-.72.39-.89.42-.55.01-1.11.03-1.66.04-7.43.06-14.86.13-22.29.19h-1.49c-.23-.01-1.02-.09-1.71-.69-.72-.62-.86-1.39-.89-1.6v-1.49c-.08-6.65-.06-13.37.08-20.16Z"/>
      <path class="cls-7" d="M202.61,77.7c.01-.64.03-1.27.04-1.91.03-.22.15-.83.69-1.34.83-.78,1.96-.67,2.11-.65,7.69.03,15.37.05,23.06.08.13-.02,1.63-.28,2.76.76,1.07.99.91,2.3.89,2.44-.05,6.87-.11,13.75-.16,20.62v1.95c0,.11.05.82-.53,1.34-.34.3-.72.39-.89.42-.55.01-1.11.03-1.66.04-7.43.06-14.86.13-22.29.19h-1.49c-.23-.01-1.02-.09-1.71-.69-.72-.62-.86-1.39-.89-1.6v-1.49c-.08-6.65-.06-13.37.08-20.16Z"/>
      <path class="cls-7" d="M243.54,78c.01-.64.03-1.27.04-1.91.03-.22.15-.83.69-1.34.83-.78,1.96-.67,2.11-.65,7.69.03,15.37.05,23.06.08.13-.02,1.63-.28,2.76.76,1.07.99.91,2.3.89,2.44-.05,6.87-.11,13.75-.16,20.62v1.95c0,.11.05.82-.53,1.34-.34.3-.72.39-.89.42-.55.01-1.11.03-1.66.04-7.43.06-14.86.13-22.29.19h-1.49c-.23-.01-1.02-.09-1.71-.69-.72-.62-.86-1.39-.89-1.6v-1.49c-.08-6.65-.06-13.37.08-20.16Z"/>
      <path class="cls-7" d="M284.78,77.7c.01-.64.03-1.27.04-1.91.03-.22.15-.83.69-1.34.83-.78,1.96-.67,2.11-.65,7.69.03,15.37.05,23.06.08.13-.02,1.63-.28,2.76.76,1.07.99.91,2.3.89,2.44-.05,6.87-.11,13.75-.16,20.62v1.95c0,.11.05.82-.53,1.34-.34.3-.72.39-.89.42-.55.01-1.11.03-1.66.04-7.43.06-14.86.13-22.29.19h-1.49c-.23-.01-1.02-.09-1.71-.69-.72-.62-.86-1.39-.89-1.6v-1.49c-.08-6.65-.06-13.37.08-20.16Z"/>
      <path class="cls-7" d="M345.45,73.8c.03,9.32.05,18.64.08,27.96-1.79-.08-3.57-.15-5.36-.23-.25.03-.79.07-1.36-.19-1.05-.47-1.31-1.52-1.34-1.66-.03-.57-.05-1.15-.08-1.72.06-7.31.12-14.63.18-21.94,0-.24.02-.73.32-1.26.26-.45.59-.72.79-.86.68-.02,1.37-.04,2.05-.06,1.57-.01,3.14-.03,4.71-.04Z"/>
      <path class="cls-7" d="M345.45,115.68c-.03,3.27-.06,6.55-.09,9.82-1.47-.04-2.94-.08-4.4-.11.02-2.39.04-4.77.06-7.16,0-.32.01-.64.02-.96.01-.11.14-1.02.96-1.43.31-.16.61-.19.81-.19.88,0,1.77.02,2.65.03Z"/>
      <path class="cls-7" d="M340.96,128.8h4.48c-.03,2.68-.06,5.37-.09,8.05-1.42,0-2.84.02-4.26.03-.04-2.69-.08-5.38-.12-8.08Z"/>
      <path class="cls-7" d="M345.44,140.03c-.04,2.28-.07,4.55-.11,6.83-.86,0-1.73-.02-2.59-.03l-.55-.06c-.15-.05-.42-.17-.66-.43-.31-.33-.39-.68-.42-.83v-.52c-.04-1.13-.08-2.25-.12-3.38v-.73c0-.05,0-.41.3-.66.2-.17.43-.19.52-.2.29,0,.59,0,.88-.01.91,0,1.83.02,2.74.03Z"/>
      <path class="cls-7" d="M104.7,59.97c19.97.05,39.95.1,59.92.15.3-1.7.56-4.56-1.14-5.8-.85-.63-1.88-.61-2.27-.61-3.36.03-24.77.06-54.24.15-.53.16-1.22.47-1.79,1.07-1.17,1.23-1.33,3.2-.49,5.04Z"/>
      <path class="cls-7" d="M246.45,59.98c19.97.05,39.95.1,59.92.15.3-1.7.56-4.56-1.14-5.8-.85-.63-1.88-.61-2.27-.61-3.36.03-24.77.06-54.24.15-.53.16-1.22.47-1.79,1.07-1.17,1.23-1.33,3.2-.49,5.04Z"/>
    </g>
    <g>
      <path class="cls-2" d="M159.66,131.57c.3-.12.59-.3.85-.55l1.16,1.26c-.71.81-1.75,1.22-3.11,1.22-.85,0-1.6-.17-2.25-.5-.65-.33-1.16-.79-1.51-1.38-.35-.59-.53-1.26-.53-2s.17-1.4.52-2,.83-1.05,1.44-1.39c.61-.33,1.3-.5,2.06-.5.72,0,1.37.15,1.96.45.59.3,1.06.74,1.41,1.32.35.57.52,1.25.52,2.04l-5.57,1.08c.16.37.41.65.75.84s.76.28,1.25.28c.39,0,.74-.06,1.04-.18ZM156.95,127.93c-.35.35-.53.84-.55,1.47l3.67-.71c-.1-.39-.31-.7-.63-.94s-.7-.35-1.15-.35c-.55,0-1,.18-1.34.53ZM158.87,122.87h2.35l-2.53,2.02h-1.71l1.89-2.02Z"/>
      <path class="cls-2" d="M164.37,132.82c-.48-.45-.71-1.09-.71-1.92v-7.9h2.18v7.77c0,.32.08.56.25.74.16.17.39.26.69.26.11,0,.23-.01.34-.04.12-.03.21-.06.27-.1l.1,1.69c-.36.12-.74.18-1.13.18-.85,0-1.51-.23-1.99-.68Z"/>
      <path class="cls-2" d="M173.27,131.57c.3-.12.59-.3.85-.55l1.16,1.26c-.71.81-1.75,1.22-3.11,1.22-.85,0-1.6-.17-2.25-.5-.65-.33-1.16-.79-1.51-1.38-.35-.59-.53-1.26-.53-2s.17-1.4.52-2,.83-1.05,1.44-1.39c.61-.33,1.3-.5,2.06-.5.72,0,1.37.15,1.96.45.59.3,1.06.74,1.41,1.32.35.57.52,1.25.52,2.04l-5.57,1.08c.16.37.41.65.75.84s.76.28,1.25.28c.39,0,.74-.06,1.04-.18ZM170.56,127.93c-.35.35-.53.84-.55,1.47l3.67-.71c-.1-.39-.31-.7-.63-.94s-.7-.35-1.15-.35c-.55,0-1,.18-1.34.53Z"/>
      <path class="cls-2" d="M178.75,133c-.64-.33-1.14-.79-1.5-1.38s-.54-1.26-.54-2,.18-1.41.54-2c.36-.59.86-1.05,1.5-1.38.64-.33,1.36-.5,2.16-.5s1.49.17,2.08.5c.59.33,1.02.81,1.29,1.42l-1.69.91c-.39-.69-.96-1.04-1.69-1.04-.57,0-1.04.19-1.41.56-.37.37-.56.88-.56,1.53s.19,1.15.56,1.53c.37.37.84.56,1.41.56.75,0,1.31-.35,1.69-1.04l1.69.92c-.27.6-.7,1.06-1.29,1.4s-1.29.5-2.08.5-1.52-.17-2.16-.5Z"/>
      <path class="cls-2" d="M190.02,133.02c-.21.16-.48.28-.79.36s-.64.12-.97.12c-.91,0-1.6-.23-2.09-.69-.49-.46-.73-1.13-.73-2.02v-6.61h2.18v1.83h1.86v1.68h-1.86v3.07c0,.32.08.56.24.74.16.17.39.26.69.26.34,0,.63-.09.9-.28l.57,1.54Z"/>
      <path class="cls-2" d="M194.4,126.02c.44-.19.95-.28,1.53-.28v2.02c-.24-.02-.41-.03-.49-.03-.63,0-1.12.17-1.47.53-.35.35-.53.88-.53,1.58v3.56h-2.18v-7.53h2.09v.99c.26-.36.61-.64,1.06-.83Z"/>
      <path class="cls-2" d="M197.34,124.46c-.25-.23-.38-.52-.38-.87s.13-.63.38-.87.58-.35.98-.35.73.11.98.34c.25.22.38.5.38.84,0,.36-.13.67-.38.9-.25.24-.58.36-.98.36s-.73-.12-.98-.35ZM197.23,125.86h2.18v7.53h-2.18v-7.53Z"/>
      <path class="cls-2" d="M209.09,125.86v10.25h-2.18v-3.51c-.54.61-1.29.91-2.25.91-.71,0-1.35-.16-1.92-.48-.57-.32-1.02-.77-1.35-1.36s-.49-1.27-.49-2.04.16-1.46.49-2.04c.33-.59.78-1.04,1.35-1.36.57-.32,1.22-.48,1.92-.48,1.03,0,1.81.33,2.35.98v-.87h2.09ZM206.4,131.14c.36-.38.55-.88.55-1.52s-.18-1.14-.55-1.52c-.36-.38-.82-.57-1.37-.57s-1.02.19-1.39.57c-.36.38-.55.88-.55,1.52s.18,1.14.55,1.52c.36.38.83.57,1.39.57s1.01-.19,1.37-.57Z"/>
      <path class="cls-2" d="M218.69,125.86v7.53h-2.07v-.9c-.29.33-.63.58-1.04.75-.4.17-.83.26-1.3.26-.99,0-1.77-.29-2.35-.85s-.87-1.41-.87-2.53v-4.26h2.18v3.93c0,1.21.51,1.82,1.53,1.82.52,0,.94-.17,1.26-.51s.48-.85.48-1.52v-3.72h2.18Z"/>
      <path class="cls-2" d="M225.56,131.57c.3-.12.59-.3.85-.55l1.16,1.26c-.71.81-1.75,1.22-3.11,1.22-.85,0-1.6-.17-2.25-.5-.65-.33-1.16-.79-1.51-1.38-.35-.59-.53-1.26-.53-2s.17-1.4.52-2,.83-1.05,1.44-1.39c.61-.33,1.3-.5,2.06-.5.72,0,1.37.15,1.96.45.59.3,1.06.74,1.41,1.32.35.57.52,1.25.52,2.04l-5.57,1.08c.16.37.41.65.75.84s.76.28,1.25.28c.39,0,.74-.06,1.04-.18ZM222.85,127.93c-.35.35-.53.84-.55,1.47l3.67-.71c-.1-.39-.31-.7-.63-.94s-.7-.35-1.15-.35c-.55,0-1,.18-1.34.53Z"/>
      <path class="cls-2" d="M230.26,133.27c-.6-.15-1.07-.35-1.43-.58l.73-1.57c.34.21.74.39,1.22.52.48.14.94.2,1.4.2.92,0,1.39-.23,1.39-.69,0-.21-.13-.37-.38-.46-.25-.09-.64-.17-1.16-.24-.62-.09-1.12-.2-1.53-.32s-.75-.34-1.04-.64c-.29-.31-.44-.75-.44-1.32,0-.48.14-.9.41-1.27.28-.37.68-.66,1.2-.86.53-.21,1.15-.31,1.87-.31.53,0,1.06.06,1.59.17.53.12.96.28,1.31.48l-.73,1.55c-.66-.37-1.39-.56-2.17-.56-.47,0-.82.07-1.05.2s-.35.3-.35.5c0,.23.13.4.38.49.25.09.65.18,1.2.27.62.1,1.12.21,1.51.33.39.12.73.33,1.02.64.29.31.43.74.43,1.29,0,.47-.14.88-.42,1.25-.28.36-.69.65-1.23.85-.54.2-1.17.3-1.91.3-.63,0-1.24-.08-1.83-.23Z"/>
    </g>
  </g>
  <g>
    <path class="cls-5" d="M347.27,418.3c.14-1.53,1.52-2.48,2.13-3.06,3.76-3.6-3.57-10.85-3.83-18.34-.29-8.29,8.17-14.73,9.79-15.96,9.77-7.44,20.2-4.95,22.14-9.51,2.76-6.49-17.97-12.45-17.88-23.77.06-8.02,10.54-16.29,21.29-18.68,17-3.77,29.83,8.27,37.04,3.74,7.56-4.75-5.72-18.47,2.98-29.55,7.68-9.78,29.15-13.25,43.43-8.49,8.61,2.87,7.33,6.31,14.48,7.81,16.17,3.4,26.28-13.45,44.71-10.87,8.63,1.21,14.14,5.98,17.03,8.49,7.44,6.45,14.17,18.07,8.94,25.47-4.88,6.91-16.05,4.29-19.16,10.19-4.33,8.2,15.43,16.77,12.35,26.83-2.89,9.46-22.02,7.31-29.38,19.36-6.22,10.17,4.5,16.47-1.28,26.15-6.86,11.49-30.32,16.64-48.54,14.6-20.63-2.31-23.98-12.66-37.9-10.87-18.84,2.42-20.98,22.47-37.04,22.08-11.15-.27-22.45-10.22-32.36-10.19-.88,0-4.37.09-6.81-1.7-.25-.18-2.31-1.74-2.13-3.74Z"/>
    <path class="cls-5" d="M349.2,267.86c.12-1.22,1.28-1.97,1.79-2.44,3.17-2.87-3.01-8.65-3.23-14.62-.24-6.61,6.88-11.74,8.25-12.73,8.23-5.93,17.02-3.95,18.65-7.58,2.32-5.17-15.14-9.93-15.07-18.96.05-6.4,8.88-12.99,17.94-14.89,14.33-3.01,25.13,6.6,31.21,2.98,6.37-3.79-4.82-14.73,2.51-23.56,6.47-7.8,24.56-10.57,36.59-6.77,7.25,2.29,6.18,5.03,12.2,6.23,13.62,2.71,22.14-10.72,37.67-8.67,7.27.96,11.91,4.77,14.35,6.77,6.27,5.14,11.94,14.41,7.53,20.31-4.11,5.51-13.52,3.42-16.14,8.12-3.65,6.54,13,13.37,10.4,21.39-2.44,7.54-18.55,5.83-24.75,15.44-5.24,8.11,3.79,13.13-1.08,20.85-5.78,9.16-25.54,13.27-40.89,11.64-17.38-1.84-20.21-10.09-31.93-8.67-15.87,1.93-17.67,17.91-31.21,17.6-9.39-.22-18.91-8.15-27.26-8.12-.74,0-3.68.07-5.74-1.35-.21-.14-1.95-1.39-1.79-2.98Z"/>
    <path class="cls-5" d="M356.53,137.36c.09-1.1,1.01-1.79,1.42-2.21,2.5-2.6-2.38-7.83-2.55-13.24-.19-5.98,5.43-10.63,6.51-11.52,6.5-5.37,13.44-3.57,14.73-6.86,1.83-4.68-11.95-8.99-11.89-17.16.04-5.79,7.01-11.76,14.16-13.48,11.31-2.72,19.84,5.97,24.64,2.7,5.03-3.43-3.81-13.33,1.98-21.33,5.11-7.06,19.39-9.56,28.89-6.13,5.73,2.07,4.88,4.55,9.63,5.64,10.75,2.45,17.48-9.71,29.74-7.84,5.74.87,9.4,4.32,11.33,6.13,4.95,4.65,9.42,13.04,5.95,18.38-3.25,4.99-10.67,3.1-12.74,7.35-2.88,5.92,10.26,12.1,8.21,19.36-1.92,6.83-14.64,5.27-19.54,13.97-4.13,7.34,2.99,11.89-.85,18.87-4.56,8.3-20.17,12.01-32.29,10.54-13.72-1.67-15.95-9.14-25.21-7.84-12.53,1.75-13.95,16.22-24.64,15.93-7.41-.2-14.93-7.38-21.52-7.35-.58,0-2.91.07-4.53-1.23-.16-.13-1.54-1.26-1.42-2.7Z"/>
    <g>
      <path class="cls-2" d="M432.25,353.74v2.52l-6.24,14.28h-4.22l6.02-13.63h-5.57v2.74h-3.46v-5.9h13.46Z"/>
      <path class="cls-2" d="M447.8,367.01h-2.74v3.53h-3.79v-3.53h-9.05v-2.62l7.92-10.66h4.08l-7.34,10.1h4.51v-3.14h3.67v3.14h2.74v3.17Z"/>
      <path class="cls-2" d="M453.32,366.71c.43.42.65.98.65,1.67,0,.32-.04.64-.12.96-.08.32-.26.8-.53,1.44l-1.37,3.46h-2.38l1.06-3.82c-.4-.16-.72-.42-.95-.78-.23-.36-.35-.78-.35-1.26,0-.69.22-1.24.66-1.67.44-.42,1-.64,1.67-.64s1.22.21,1.66.64Z"/>
      <path class="cls-2" d="M466.42,360.65c.88.43,1.58,1.04,2.09,1.84s.77,1.71.77,2.75c0,1.12-.28,2.1-.84,2.95-.56.85-1.32,1.5-2.29,1.96-.97.46-2.04.68-3.23.68-2.35,0-4.19-.72-5.52-2.16-1.33-1.44-1.99-3.5-1.99-6.17,0-1.9.36-3.54,1.08-4.9.72-1.36,1.72-2.39,3.01-3.1,1.29-.7,2.78-1.06,4.48-1.06.9,0,1.76.1,2.58.3.82.2,1.52.48,2.1.85l-1.44,2.86c-.83-.56-1.88-.84-3.14-.84-1.42,0-2.55.42-3.38,1.25s-1.28,2.04-1.34,3.62c.99-.99,2.38-1.49,4.15-1.49,1.07,0,2.05.22,2.93.65ZM464.73,367.25c.52-.45.78-1.06.78-1.82s-.26-1.38-.78-1.84c-.52-.46-1.21-.68-2.08-.68s-1.54.24-2.09.71c-.54.47-.82,1.08-.82,1.81s.26,1.34.79,1.8,1.25.7,2.16.7c.83,0,1.51-.22,2.03-.67Z"/>
      <path class="cls-2" d="M471.09,361.55c-.78-.84-1.16-1.96-1.16-3.37s.39-2.53,1.16-3.37c.78-.84,1.78-1.26,3.01-1.26s2.23.42,3,1.26,1.15,1.96,1.15,3.37-.38,2.53-1.15,3.37c-.77.84-1.77,1.26-3,1.26s-2.24-.42-3.01-1.26ZM475.39,360.17c.31-.45.47-1.11.47-1.99s-.16-1.54-.47-1.99c-.31-.45-.74-.67-1.28-.67s-.95.23-1.27.68c-.32.46-.48,1.12-.48,1.98s.16,1.52.48,1.98c.32.46.74.68,1.27.68s.97-.22,1.28-.67ZM484.11,353.74h2.86l-11.47,16.8h-2.86l11.47-16.8ZM483.36,370.17c-.63-.38-1.12-.92-1.48-1.62-.35-.7-.53-1.52-.53-2.45s.18-1.74.53-2.45c.35-.7.84-1.24,1.48-1.62s1.35-.56,2.15-.56c1.23,0,2.24.42,3.01,1.26.78.84,1.16,1.96,1.16,3.37s-.39,2.53-1.16,3.37c-.78.84-1.78,1.26-3.01,1.26-.8,0-1.52-.19-2.15-.56ZM486.79,368.08c.31-.46.47-1.12.47-1.98s-.16-1.52-.47-1.98c-.31-.46-.74-.68-1.28-.68s-.95.22-1.27.67-.48,1.11-.48,1.99.16,1.54.48,1.99c.32.45.74.67,1.27.67s.97-.23,1.28-.68Z"/>
    </g>
    <g>
      <path class="cls-2" d="M411.99,212.74v16.8h-3.89v-13.68h-3.36v-3.12h7.25Z"/>
      <path class="cls-2" d="M428.32,222.33c.44.67.66,1.45.66,2.33,0,1.04-.3,1.95-.89,2.72-.59.78-1.42,1.38-2.5,1.8s-2.31.64-3.72.64-2.64-.21-3.71-.64c-1.06-.42-1.89-1.02-2.47-1.8-.58-.78-.88-1.68-.88-2.72,0-.88.22-1.66.66-2.33s1.07-1.22,1.88-1.63c-.62-.38-1.1-.87-1.44-1.45s-.5-1.25-.5-2c0-.98.27-1.82.82-2.54s1.3-1.28,2.28-1.67c.98-.39,2.1-.59,3.36-.59s2.41.2,3.4.59c.98.39,1.75.95,2.29,1.67s.82,1.57.82,2.54c0,.75-.17,1.42-.5,2s-.82,1.07-1.46,1.45c.83.42,1.47.96,1.91,1.63ZM424.19,226.31c.57-.44.85-1.03.85-1.76s-.28-1.32-.85-1.75c-.57-.43-1.34-.65-2.32-.65s-1.72.22-2.28.65c-.56.43-.84,1.02-.84,1.75s.28,1.34.84,1.78c.56.43,1.32.65,2.28.65s1.75-.22,2.32-.66ZM420,215.87c-.47.38-.71.89-.71,1.55s.23,1.14.7,1.51,1.1.55,1.9.55,1.44-.18,1.92-.55c.48-.37.72-.87.72-1.51s-.24-1.17-.72-1.55c-.48-.38-1.12-.56-1.92-.56s-1.41.19-1.88.56Z"/>
      <path class="cls-2" d="M434.89,225.71c.43.42.65.98.65,1.67,0,.32-.04.64-.12.96s-.26.8-.53,1.44l-1.37,3.46h-2.38l1.06-3.82c-.4-.16-.72-.42-.95-.78-.23-.36-.35-.78-.35-1.26,0-.69.22-1.24.66-1.67.44-.42,1-.64,1.67-.64s1.22.21,1.66.64Z"/>
      <path class="cls-2" d="M448.29,220.46c1.13.94,1.69,2.21,1.69,3.79,0,1.02-.26,1.96-.77,2.8-.51.84-1.29,1.51-2.34,2.02-1.05.5-2.34.76-3.88.76-1.18,0-2.35-.16-3.49-.47-1.14-.31-2.12-.76-2.92-1.33l1.54-2.98c.64.48,1.38.85,2.21,1.12.83.26,1.69.4,2.57.4.98,0,1.74-.19,2.3-.58.56-.38.84-.92.84-1.61s-.29-1.26-.88-1.63-1.6-.55-3.04-.55h-4.3l.86-9.46h10.25v3.12h-7.01l-.26,3.19h1.37c2.37,0,4.12.47,5.24,1.42Z"/>
      <path class="cls-2" d="M452.2,220.55c-.78-.84-1.16-1.96-1.16-3.37s.39-2.53,1.16-3.37,1.78-1.26,3.01-1.26,2.23.42,3,1.26c.77.84,1.15,1.96,1.15,3.37s-.38,2.53-1.15,3.37c-.77.84-1.77,1.26-3,1.26s-2.24-.42-3.01-1.26ZM456.5,219.17c.31-.45.47-1.11.47-1.99s-.16-1.54-.47-1.99c-.31-.45-.74-.67-1.28-.67s-.95.23-1.27.68-.48,1.12-.48,1.98.16,1.52.48,1.98.74.68,1.27.68.97-.22,1.28-.67ZM465.22,212.74h2.86l-11.47,16.8h-2.86l11.47-16.8ZM464.47,229.16c-.63-.38-1.12-.92-1.48-1.62s-.53-1.52-.53-2.45.18-1.74.53-2.45c.35-.7.84-1.24,1.48-1.62.63-.38,1.35-.56,2.15-.56,1.23,0,2.24.42,3.01,1.26.78.84,1.16,1.96,1.16,3.37s-.39,2.53-1.16,3.37c-.78.84-1.78,1.26-3.01,1.26-.8,0-1.52-.19-2.15-.56ZM467.9,227.07c.31-.46.47-1.12.47-1.98s-.16-1.52-.47-1.98c-.31-.46-.74-.68-1.28-.68s-.95.22-1.27.67c-.32.45-.48,1.11-.48,1.99s.16,1.54.48,1.99c.32.45.74.67,1.27.67s.97-.23,1.28-.68Z"/>
    </g>
    <g>
      <path class="cls-2" d="M410.12,88.36c.88.43,1.58,1.04,2.09,1.84.51.79.77,1.71.77,2.75,0,1.12-.28,2.1-.84,2.95-.56.85-1.32,1.5-2.29,1.96-.97.46-2.04.68-3.23.68-2.35,0-4.19-.72-5.52-2.16-1.33-1.44-1.99-3.5-1.99-6.17,0-1.9.36-3.54,1.08-4.9.72-1.36,1.72-2.39,3.01-3.1,1.29-.7,2.78-1.06,4.48-1.06.9,0,1.76.1,2.58.3.82.2,1.52.48,2.1.85l-1.44,2.86c-.83-.56-1.88-.84-3.14-.84-1.42,0-2.55.42-3.38,1.25s-1.28,2.04-1.34,3.62c.99-.99,2.38-1.49,4.15-1.49,1.07,0,2.05.22,2.93.65ZM408.43,94.96c.52-.45.78-1.06.78-1.82s-.26-1.38-.78-1.84c-.52-.46-1.21-.68-2.08-.68s-1.54.24-2.09.71c-.54.47-.82,1.08-.82,1.81s.26,1.34.79,1.8,1.25.7,2.16.7c.83,0,1.51-.22,2.03-.67Z"/>
      <path class="cls-2" d="M418.52,94.42c.43.42.65.98.65,1.67,0,.32-.04.64-.12.96-.08.32-.26.8-.53,1.44l-1.37,3.46h-2.38l1.06-3.82c-.4-.16-.72-.42-.95-.78-.23-.36-.35-.78-.35-1.26,0-.69.22-1.24.66-1.67.44-.42,1-.64,1.67-.64s1.22.21,1.66.64Z"/>
      <path class="cls-2" d="M432.34,83.31c1.33,1.43,1.99,3.49,1.99,6.18,0,1.9-.36,3.54-1.07,4.9-.71,1.36-1.72,2.39-3.01,3.1s-2.79,1.06-4.49,1.06c-.9,0-1.75-.1-2.57-.3-.82-.2-1.51-.48-2.09-.85l1.44-2.86c.82.56,1.86.84,3.14.84,1.42,0,2.55-.42,3.38-1.26.83-.84,1.28-2.05,1.34-3.64-1.01,1.01-2.4,1.51-4.18,1.51-1.07,0-2.05-.22-2.93-.65-.88-.43-1.58-1.04-2.09-1.84s-.77-1.71-.77-2.75c0-1.12.28-2.1.84-2.95.56-.85,1.32-1.5,2.29-1.96.97-.46,2.04-.68,3.23-.68,2.35,0,4.19.72,5.52,2.15ZM429.19,88.37c.54-.47.8-1.08.8-1.81s-.26-1.34-.78-1.8c-.52-.46-1.24-.7-2.15-.7-.83,0-1.51.22-2.03.67-.52.45-.78,1.06-.78,1.82s.26,1.38.78,1.84c.52.46,1.21.68,2.08.68s1.54-.24,2.08-.71Z"/>
      <path class="cls-2" d="M437.08,89.26c-.78-.84-1.16-1.96-1.16-3.37s.39-2.53,1.16-3.37c.78-.84,1.78-1.26,3.01-1.26s2.23.42,3,1.26,1.15,1.96,1.15,3.37-.38,2.53-1.15,3.37c-.77.84-1.77,1.26-3,1.26s-2.24-.42-3.01-1.26ZM441.38,87.88c.31-.45.47-1.11.47-1.99s-.16-1.54-.47-1.99c-.31-.45-.74-.67-1.28-.67s-.95.23-1.27.68c-.32.46-.48,1.12-.48,1.98s.16,1.52.48,1.98c.32.46.74.68,1.27.68s.97-.22,1.28-.67ZM450.1,81.45h2.86l-11.47,16.8h-2.86l11.47-16.8ZM449.35,97.87c-.63-.38-1.12-.92-1.48-1.62-.35-.7-.53-1.52-.53-2.45s.18-1.74.53-2.45c.35-.7.84-1.24,1.48-1.62s1.35-.56,2.15-.56c1.23,0,2.24.42,3.01,1.26.78.84,1.16,1.96,1.16,3.37s-.39,2.53-1.16,3.37c-.78.84-1.78,1.26-3.01,1.26-.8,0-1.52-.19-2.15-.56ZM452.78,95.79c.31-.46.47-1.12.47-1.98s-.16-1.52-.47-1.98c-.31-.46-.74-.68-1.28-.68s-.95.22-1.27.67-.48,1.11-.48,1.99.16,1.54.48,1.99c.32.45.74.67,1.27.67s.97-.23,1.28-.68Z"/>
    </g>
    <g>
      <path class="cls-2" d="M415.04,108.57v10.39h-2.09v-.87c-.54.65-1.33.98-2.35.98-.71,0-1.35-.16-1.92-.48-.57-.32-1.02-.77-1.35-1.36-.33-.59-.49-1.27-.49-2.04s.16-1.46.49-2.04c.33-.59.78-1.04,1.35-1.36.57-.32,1.21-.48,1.92-.48.96,0,1.71.3,2.25.91v-3.65h2.18ZM412.35,116.71c.36-.38.55-.88.55-1.52s-.18-1.14-.55-1.52-.82-.57-1.37-.57-1.02.19-1.39.57c-.36.38-.55.88-.55,1.52s.18,1.14.55,1.52c.36.38.83.57,1.39.57s1.01-.19,1.37-.57Z"/>
      <path class="cls-2" d="M421.89,117.14c.3-.12.59-.3.85-.55l1.16,1.26c-.71.81-1.75,1.22-3.11,1.22-.85,0-1.6-.17-2.25-.5s-1.16-.79-1.51-1.38c-.36-.59-.53-1.26-.53-2s.17-1.4.52-2c.35-.59.83-1.05,1.44-1.39.61-.33,1.3-.5,2.07-.5.72,0,1.37.15,1.96.45.59.3,1.06.74,1.41,1.32.35.57.53,1.25.53,2.04l-5.57,1.08c.16.37.41.65.75.84s.76.28,1.25.28c.39,0,.74-.06,1.04-.18ZM419.18,113.49c-.34.35-.53.84-.55,1.47l3.67-.71c-.1-.39-.31-.7-.63-.94s-.7-.35-1.15-.35c-.55,0-1,.18-1.34.53Z"/>
      <path class="cls-2" d="M438.52,114.75c.32.42.48.93.48,1.53,0,.86-.33,1.52-1,1.98-.67.46-1.64.69-2.92.69h-5.07v-9.8h4.79c1.19,0,2.11.23,2.75.69.64.46.96,1.08.96,1.86,0,.48-.11.9-.34,1.27-.23.37-.55.67-.96.88.56.18,1,.47,1.32.89ZM432.26,110.86v2.31h2.25c.56,0,.98-.1,1.27-.29.29-.2.43-.49.43-.87s-.14-.67-.43-.86c-.29-.19-.71-.29-1.27-.29h-2.25ZM436.25,116.95c.3-.2.46-.5.46-.91,0-.81-.6-1.22-1.81-1.22h-2.65v2.42h2.65c.6,0,1.05-.1,1.35-.29Z"/>
      <path class="cls-2" d="M448.15,111.42v7.53h-2.07v-.9c-.29.33-.63.58-1.04.75-.4.17-.84.26-1.3.26-.99,0-1.77-.29-2.35-.85-.58-.57-.87-1.41-.87-2.53v-4.26h2.18v3.93c0,1.21.51,1.82,1.53,1.82.52,0,.94-.17,1.26-.51s.48-.85.48-1.52v-3.72h2.18Z"/>
      <path class="cls-2" d="M450.88,118.83c-.6-.15-1.07-.35-1.43-.58l.73-1.57c.34.21.74.39,1.22.52.48.14.94.2,1.4.2.92,0,1.39-.23,1.39-.69,0-.21-.13-.37-.38-.46-.25-.09-.64-.17-1.16-.24-.62-.09-1.12-.2-1.53-.32s-.75-.34-1.04-.64c-.29-.31-.44-.75-.44-1.32,0-.48.14-.9.41-1.27.28-.37.68-.66,1.2-.86s1.15-.31,1.87-.31c.53,0,1.06.06,1.59.17.53.12.96.28,1.31.48l-.73,1.55c-.66-.37-1.39-.56-2.17-.56-.47,0-.82.07-1.05.2-.23.13-.35.3-.35.5,0,.23.13.4.38.49.25.09.65.18,1.2.27.62.1,1.12.21,1.51.33.39.12.73.33,1.02.64.29.31.43.74.43,1.29,0,.47-.14.88-.42,1.25-.28.36-.69.65-1.22.85-.54.2-1.17.3-1.91.3-.62,0-1.24-.08-1.83-.23Z"/>
    </g>
    <g>
      <path class="cls-2" d="M428.41,242.04v10.39h-2.09v-.87c-.54.65-1.33.98-2.35.98-.71,0-1.35-.16-1.92-.48-.57-.32-1.02-.77-1.35-1.36-.33-.59-.49-1.27-.49-2.04s.16-1.46.49-2.04c.33-.59.78-1.04,1.35-1.36.57-.32,1.21-.48,1.92-.48.96,0,1.71.3,2.25.91v-3.65h2.18ZM425.72,250.18c.36-.38.55-.88.55-1.52s-.18-1.14-.55-1.52-.82-.57-1.37-.57-1.02.19-1.39.57c-.36.38-.55.88-.55,1.52s.18,1.14.55,1.52c.36.38.83.57,1.39.57s1.01-.19,1.37-.57Z"/>
      <path class="cls-2" d="M435.26,250.62c.3-.12.59-.3.85-.55l1.16,1.26c-.71.81-1.75,1.22-3.11,1.22-.85,0-1.6-.17-2.25-.5s-1.16-.79-1.51-1.38c-.36-.59-.53-1.26-.53-2s.17-1.4.52-2c.35-.59.83-1.05,1.44-1.39.61-.33,1.3-.5,2.07-.5.72,0,1.37.15,1.96.45.59.3,1.06.74,1.41,1.32.35.57.53,1.25.53,2.04l-5.57,1.08c.16.37.41.65.75.84s.76.28,1.25.28c.39,0,.74-.06,1.04-.18ZM432.55,246.97c-.34.35-.53.84-.55,1.47l3.67-.71c-.1-.39-.31-.7-.63-.94s-.7-.35-1.15-.35c-.55,0-1,.18-1.34.53Z"/>
      <path class="cls-2" d="M451.88,248.22c.32.42.48.93.48,1.53,0,.86-.33,1.52-1,1.98-.67.46-1.64.69-2.92.69h-5.07v-9.8h4.79c1.19,0,2.11.23,2.75.69.64.46.96,1.08.96,1.86,0,.48-.11.9-.34,1.27-.23.37-.55.67-.96.88.56.18,1,.47,1.32.89ZM445.63,244.34v2.31h2.25c.56,0,.98-.1,1.27-.29.29-.2.43-.49.43-.87s-.14-.67-.43-.86c-.29-.19-.71-.29-1.27-.29h-2.25ZM449.62,250.43c.3-.2.46-.5.46-.91,0-.81-.6-1.22-1.81-1.22h-2.65v2.42h2.65c.6,0,1.05-.1,1.35-.29Z"/>
      <path class="cls-2" d="M461.52,244.9v7.53h-2.07v-.9c-.29.33-.63.58-1.04.75-.4.17-.84.26-1.3.26-.99,0-1.77-.29-2.35-.85-.58-.57-.87-1.41-.87-2.53v-4.26h2.18v3.93c0,1.21.51,1.82,1.53,1.82.52,0,.94-.17,1.26-.51s.48-.85.48-1.52v-3.72h2.18Z"/>
      <path class="cls-2" d="M464.25,252.31c-.6-.15-1.07-.35-1.43-.58l.73-1.57c.34.21.74.39,1.22.52.48.14.94.2,1.4.2.92,0,1.39-.23,1.39-.69,0-.21-.13-.37-.38-.46-.25-.09-.64-.17-1.16-.24-.62-.09-1.12-.2-1.53-.32s-.75-.34-1.04-.64c-.29-.31-.44-.75-.44-1.32,0-.48.14-.9.41-1.27.28-.37.68-.66,1.2-.86s1.15-.31,1.87-.31c.53,0,1.06.06,1.59.17.53.12.96.28,1.31.48l-.73,1.55c-.66-.37-1.39-.56-2.17-.56-.47,0-.82.07-1.05.2-.23.13-.35.3-.35.5,0,.23.13.4.38.49.25.09.65.18,1.2.27.62.1,1.12.21,1.51.33.39.12.73.33,1.02.64.29.31.43.74.43,1.29,0,.47-.14.88-.42,1.25-.28.36-.69.65-1.22.85-.54.2-1.17.3-1.91.3-.62,0-1.24-.08-1.83-.23Z"/>
    </g>
    <g>
      <path class="cls-2" d="M452.51,386.72v10.39h-2.09v-.87c-.54.65-1.33.98-2.35.98-.71,0-1.35-.16-1.92-.48-.57-.32-1.02-.77-1.35-1.36-.33-.59-.49-1.27-.49-2.04s.16-1.46.49-2.04c.33-.59.78-1.04,1.35-1.36.57-.32,1.21-.48,1.92-.48.96,0,1.71.3,2.25.91v-3.65h2.18ZM449.82,394.86c.36-.38.55-.88.55-1.52s-.18-1.14-.55-1.52-.82-.57-1.37-.57-1.02.19-1.39.57c-.36.38-.55.88-.55,1.52s.18,1.14.55,1.52c.36.38.83.57,1.39.57s1.01-.19,1.37-.57Z"/>
      <path class="cls-2" d="M459.36,395.29c.3-.12.59-.3.85-.55l1.16,1.26c-.71.81-1.75,1.22-3.11,1.22-.85,0-1.6-.17-2.25-.5s-1.16-.79-1.51-1.38c-.36-.59-.53-1.26-.53-2s.17-1.4.52-2c.35-.59.83-1.05,1.44-1.39.61-.33,1.3-.5,2.07-.5.72,0,1.37.15,1.96.45.59.3,1.06.74,1.41,1.32.35.57.53,1.25.53,2.04l-5.57,1.08c.16.37.41.65.75.84s.76.28,1.25.28c.39,0,.74-.06,1.04-.18ZM456.65,391.64c-.34.35-.53.84-.55,1.47l3.67-.71c-.1-.39-.31-.7-.63-.94s-.7-.35-1.15-.35c-.55,0-1,.18-1.34.53Z"/>
      <path class="cls-2" d="M475.99,392.9c.32.42.48.93.48,1.53,0,.86-.33,1.52-1,1.98-.67.46-1.64.69-2.92.69h-5.07v-9.8h4.79c1.19,0,2.11.23,2.75.69.64.46.96,1.08.96,1.86,0,.48-.11.9-.34,1.27-.23.37-.55.67-.96.88.56.18,1,.47,1.32.89ZM469.73,389.01v2.31h2.25c.56,0,.98-.1,1.27-.29.29-.2.43-.49.43-.87s-.14-.67-.43-.86c-.29-.19-.71-.29-1.27-.29h-2.25ZM473.73,395.1c.3-.2.46-.5.46-.91,0-.81-.6-1.22-1.81-1.22h-2.65v2.42h2.65c.6,0,1.05-.1,1.35-.29Z"/>
      <path class="cls-2" d="M485.62,389.57v7.53h-2.07v-.9c-.29.33-.63.58-1.04.75-.4.17-.84.26-1.3.26-.99,0-1.77-.29-2.35-.85-.58-.57-.87-1.41-.87-2.53v-4.26h2.18v3.93c0,1.21.51,1.82,1.53,1.82.52,0,.94-.17,1.26-.51s.48-.85.48-1.52v-3.72h2.18Z"/>
      <path class="cls-2" d="M488.35,396.99c-.6-.15-1.07-.35-1.43-.58l.73-1.57c.34.21.74.39,1.22.52.48.14.94.2,1.4.2.92,0,1.39-.23,1.39-.69,0-.21-.13-.37-.38-.46-.25-.09-.64-.17-1.16-.24-.62-.09-1.12-.2-1.53-.32s-.75-.34-1.04-.64c-.29-.31-.44-.75-.44-1.32,0-.48.14-.9.41-1.27.28-.37.68-.66,1.2-.86s1.15-.31,1.87-.31c.53,0,1.06.06,1.59.17.53.12.96.28,1.31.48l-.73,1.55c-.66-.37-1.39-.56-2.17-.56-.47,0-.82.07-1.05.2-.23.13-.35.3-.35.5,0,.23.13.4.38.49.25.09.65.18,1.2.27.62.1,1.12.21,1.51.33.39.12.73.33,1.02.64.29.31.43.74.43,1.29,0,.47-.14.88-.42,1.25-.28.36-.69.65-1.22.85-.54.2-1.17.3-1.91.3-.62,0-1.24-.08-1.83-.23Z"/>
    </g>
  </g>
</svg>